<?xml version="1.0" encoding="UTF-8" standalone="no"?>
<!DOCTYPE svg PUBLIC "-//W3C//DTD SVG 1.1//EN"
 "http://www.w3.org/Graphics/SVG/1.1/DTD/svg11.dtd">
<!-- Generated by graphviz version 2.38.0 (20140413.2041)
 -->
<!-- Title: controllers_diagram Pages: 1 -->
<svg width="873pt" height="834pt"
 viewBox="0.00 0.00 872.55 834.00" xmlns="http://www.w3.org/2000/svg" xmlns:xlink="http://www.w3.org/1999/xlink">
<g id="graph0" class="graph" transform="scale(1 1) rotate(0) translate(364.104 455.5)">
<title>controllers_diagram</title>
<polygon fill="none" stroke="none" points="-364.104,378.5 -364.104,-455.5 508.446,-455.5 508.446,378.5 -364.104,378.5"/>
<!-- _diagram_info -->
<g id="node1" class="node"><title>_diagram_info</title>
<text text-anchor="start" x="-21.6877" y="-344.1" font-family="Times,serif" font-size="13.00">Controllers diagram</text>
<text text-anchor="start" x="-21.6877" y="-331.1" font-family="Times,serif" font-size="13.00">Date: Jul 14 2016 &#45; 19:07</text>
<text text-anchor="start" x="-21.6877" y="-318.1" font-family="Times,serif" font-size="13.00">Migration version: 20160714225507</text>
<text text-anchor="start" x="-21.6877" y="-305.1" font-family="Times,serif" font-size="13.00">Generated by RailRoady 1.4.2</text>
<text text-anchor="start" x="-21.6877" y="-292.1" font-family="Times,serif" font-size="13.00">http://railroady.prestonlee.com</text>
</g>
<!-- Admin::AdminUsersController -->
<g id="node2" class="node"><title>Admin::AdminUsersController</title>
<path fill="none" stroke="black" d="M296.507,284C296.507,284 463.493,284 463.493,284 469.493,284 475.493,278 475.493,272 475.493,272 475.493,204 475.493,204 475.493,198 469.493,192 463.493,192 463.493,192 296.507,192 296.507,192 290.507,192 284.507,198 284.507,204 284.507,204 284.507,272 284.507,272 284.507,278 290.507,284 296.507,284"/>
<text text-anchor="middle" x="380" y="207.2" font-family="Times,serif" font-size="14.00">Admin::AdminUsersController</text>
<polyline fill="none" stroke="black" points="284.507,214 475.493,214 "/>
<polyline fill="none" stroke="black" points="284.507,238 475.493,238 "/>
<polyline fill="none" stroke="black" points="284.507,262 475.493,262 "/>
<text text-anchor="start" x="292.507" y="277.2" font-family="Times,serif" font-size="14.00">_layout</text>
</g>
<!-- Admin::ApplicationController -->
<g id="node3" class="node"><title>Admin::ApplicationController</title>
<path fill="none" stroke="black" d="M221.845,-211C221.845,-211 384.155,-211 384.155,-211 390.155,-211 396.155,-217 396.155,-223 396.155,-223 396.155,-289 396.155,-289 396.155,-295 390.155,-301 384.155,-301 384.155,-301 221.845,-301 221.845,-301 215.845,-301 209.845,-295 209.845,-289 209.845,-289 209.845,-223 209.845,-223 209.845,-217 215.845,-211 221.845,-211"/>
<text text-anchor="middle" x="303" y="-285.8" font-family="Times,serif" font-size="14.00">Admin::ApplicationController</text>
<polyline fill="none" stroke="black" points="209.845,-279 396.155,-279 "/>
<text text-anchor="start" x="217.845" y="-263.8" font-family="Times,serif" font-size="14.00">authenticate_admin</text>
<polyline fill="none" stroke="black" points="209.845,-257 396.155,-257 "/>
<polyline fill="none" stroke="black" points="209.845,-233 396.155,-233 "/>
<text text-anchor="start" x="217.845" y="-217.8" font-family="Times,serif" font-size="14.00">_layout</text>
</g>
<!-- Admin::AthletesController -->
<g id="node4" class="node"><title>Admin::AthletesController</title>
<path fill="none" stroke="black" d="M-288.435,299C-288.435,299 -145.565,299 -145.565,299 -139.565,299 -133.565,293 -133.565,287 -133.565,287 -133.565,219 -133.565,219 -133.565,213 -139.565,207 -145.565,207 -145.565,207 -288.435,207 -288.435,207 -294.435,207 -300.435,213 -300.435,219 -300.435,219 -300.435,287 -300.435,287 -300.435,293 -294.435,299 -288.435,299"/>
<text text-anchor="middle" x="-217" y="222.2" font-family="Times,serif" font-size="14.00">Admin::AthletesController</text>
<polyline fill="none" stroke="black" points="-300.435,229 -133.565,229 "/>
<polyline fill="none" stroke="black" points="-300.435,253 -133.565,253 "/>
<polyline fill="none" stroke="black" points="-300.435,277 -133.565,277 "/>
<text text-anchor="start" x="-292.435" y="292.2" font-family="Times,serif" font-size="14.00">_layout</text>
</g>
<!-- Admin::FeaturedPhotosController -->
<g id="node5" class="node"><title>Admin::FeaturedPhotosController</title>
<path fill="none" stroke="black" d="M-167.659,179C-167.659,179 15.6587,179 15.6587,179 21.6587,179 27.6587,173 27.6587,167 27.6587,167 27.6587,99 27.6587,99 27.6587,93 21.6587,87 15.6587,87 15.6587,87 -167.659,87 -167.659,87 -173.659,87 -179.659,93 -179.659,99 -179.659,99 -179.659,167 -179.659,167 -179.659,173 -173.659,179 -167.659,179"/>
<text text-anchor="middle" x="-76" y="102.2" font-family="Times,serif" font-size="14.00">Admin::FeaturedPhotosController</text>
<polyline fill="none" stroke="black" points="-179.659,109 27.6587,109 "/>
<polyline fill="none" stroke="black" points="-179.659,133 27.6587,133 "/>
<polyline fill="none" stroke="black" points="-179.659,157 27.6587,157 "/>
<text text-anchor="start" x="-171.659" y="172.2" font-family="Times,serif" font-size="14.00">_layout</text>
</g>
<!-- Admin::NewsArticlesController -->
<g id="node6" class="node"><title>Admin::NewsArticlesController</title>
<path fill="none" stroke="black" d="M146.793,134C146.793,134 319.207,134 319.207,134 325.207,134 331.207,128 331.207,122 331.207,122 331.207,54 331.207,54 331.207,48 325.207,42 319.207,42 319.207,42 146.793,42 146.793,42 140.793,42 134.793,48 134.793,54 134.793,54 134.793,122 134.793,122 134.793,128 140.793,134 146.793,134"/>
<text text-anchor="middle" x="233" y="57.2" font-family="Times,serif" font-size="14.00">Admin::NewsArticlesController</text>
<polyline fill="none" stroke="black" points="134.793,64 331.207,64 "/>
<polyline fill="none" stroke="black" points="134.793,88 331.207,88 "/>
<polyline fill="none" stroke="black" points="134.793,112 331.207,112 "/>
<text text-anchor="start" x="142.793" y="127.2" font-family="Times,serif" font-size="14.00">_layout</text>
</g>
<!-- Admin::SportsController -->
<g id="node7" class="node"><title>Admin::SportsController</title>
<path fill="none" stroke="black" d="M-288,-46C-288,-46 -156,-46 -156,-46 -150,-46 -144,-52 -144,-58 -144,-58 -144,-126 -144,-126 -144,-132 -150,-138 -156,-138 -156,-138 -288,-138 -288,-138 -294,-138 -300,-132 -300,-126 -300,-126 -300,-58 -300,-58 -300,-52 -294,-46 -288,-46"/>
<text text-anchor="middle" x="-222" y="-122.8" font-family="Times,serif" font-size="14.00">Admin::SportsController</text>
<polyline fill="none" stroke="black" points="-300,-116 -144,-116 "/>
<polyline fill="none" stroke="black" points="-300,-92 -144,-92 "/>
<polyline fill="none" stroke="black" points="-300,-68 -144,-68 "/>
<text text-anchor="start" x="-292" y="-52.8" font-family="Times,serif" font-size="14.00">_layout</text>
</g>
<!-- Admin::TeamMembersController -->
<g id="node8" class="node"><title>Admin::TeamMembersController</title>
<path fill="none" stroke="black" d="M-152.991,-166C-152.991,-166 26.9907,-166 26.9907,-166 32.9907,-166 38.9907,-172 38.9907,-178 38.9907,-178 38.9907,-246 38.9907,-246 38.9907,-252 32.9907,-258 26.9907,-258 26.9907,-258 -152.991,-258 -152.991,-258 -158.991,-258 -164.991,-252 -164.991,-246 -164.991,-246 -164.991,-178 -164.991,-178 -164.991,-172 -158.991,-166 -152.991,-166"/>
<text text-anchor="middle" x="-63" y="-242.8" font-family="Times,serif" font-size="14.00">Admin::TeamMembersController</text>
<polyline fill="none" stroke="black" points="-164.991,-236 38.9907,-236 "/>
<polyline fill="none" stroke="black" points="-164.991,-212 38.9907,-212 "/>
<polyline fill="none" stroke="black" points="-164.991,-188 38.9907,-188 "/>
<text text-anchor="start" x="-156.991" y="-172.8" font-family="Times,serif" font-size="14.00">_layout</text>
</g>
<!-- Admin::TestimonialsController -->
<g id="node9" class="node"><title>Admin::TestimonialsController</title>
<path fill="none" stroke="black" d="M72.2197,254C72.2197,254 239.78,254 239.78,254 245.78,254 251.78,248 251.78,242 251.78,242 251.78,174 251.78,174 251.78,168 245.78,162 239.78,162 239.78,162 72.2197,162 72.2197,162 66.2197,162 60.2197,168 60.2197,174 60.2197,174 60.2197,242 60.2197,242 60.2197,248 66.2197,254 72.2197,254"/>
<text text-anchor="middle" x="156" y="177.2" font-family="Times,serif" font-size="14.00">Admin::TestimonialsController</text>
<polyline fill="none" stroke="black" points="60.2197,184 251.78,184 "/>
<polyline fill="none" stroke="black" points="60.2197,208 251.78,208 "/>
<polyline fill="none" stroke="black" points="60.2197,232 251.78,232 "/>
<text text-anchor="start" x="68.2197" y="247.2" font-family="Times,serif" font-size="14.00">_layout</text>
</g>
<!-- ApplicationController -->
<g id="node10" class="node"><title>ApplicationController</title>
<path fill="none" stroke="black" d="M-92.8208,299C-92.8208,299 22.8208,299 22.8208,299 28.8208,299 34.8208,293 34.8208,287 34.8208,287 34.8208,219 34.8208,219 34.8208,213 28.8208,207 22.8208,207 22.8208,207 -92.8208,207 -92.8208,207 -98.8208,207 -104.821,213 -104.821,219 -104.821,219 -104.821,287 -104.821,287 -104.821,293 -98.8208,299 -92.8208,299"/>
<text text-anchor="middle" x="-35" y="222.2" font-family="Times,serif" font-size="14.00">ApplicationController</text>
<polyline fill="none" stroke="black" points="-104.821,229 34.8208,229 "/>
<polyline fill="none" stroke="black" points="-104.821,253 34.8208,253 "/>
<polyline fill="none" stroke="black" points="-104.821,277 34.8208,277 "/>
<text text-anchor="start" x="-96.8208" y="292.2" font-family="Times,serif" font-size="14.00">_layout</text>
</g>
<!-- AthletesController -->
<g id="node11" class="node"><title>AthletesController</title>
<path fill="none" stroke="black" d="M71.8999,374C71.8999,374 168.1,374 168.1,374 174.1,374 180.1,368 180.1,362 180.1,362 180.1,296 180.1,296 180.1,290 174.1,284 168.1,284 168.1,284 71.8999,284 71.8999,284 65.8999,284 59.8999,290 59.8999,296 59.8999,296 59.8999,362 59.8999,362 59.8999,368 65.8999,374 71.8999,374"/>
<text text-anchor="middle" x="120" y="299.2" font-family="Times,serif" font-size="14.00">AthletesController</text>
<polyline fill="none" stroke="black" points="59.8999,306 180.1,306 "/>
<text text-anchor="start" x="67.8999" y="321.2" font-family="Times,serif" font-size="14.00">show</text>
<polyline fill="none" stroke="black" points="59.8999,328 180.1,328 "/>
<polyline fill="none" stroke="black" points="59.8999,352 180.1,352 "/>
<text text-anchor="start" x="67.8999" y="367.2" font-family="Times,serif" font-size="14.00">_layout</text>
</g>
<!-- FeaturedPhotosController -->
<g id="node12" class="node"><title>FeaturedPhotosController</title>
<path fill="none" stroke="black" d="M326.676,14C326.676,14 463.324,14 463.324,14 469.324,14 475.324,8 475.324,2 475.324,2 475.324,-66 475.324,-66 475.324,-72 469.324,-78 463.324,-78 463.324,-78 326.676,-78 326.676,-78 320.676,-78 314.676,-72 314.676,-66 314.676,-66 314.676,2 314.676,2 314.676,8 320.676,14 326.676,14"/>
<text text-anchor="middle" x="395" y="-62.8" font-family="Times,serif" font-size="14.00">FeaturedPhotosController</text>
<polyline fill="none" stroke="black" points="314.676,-56 475.324,-56 "/>
<polyline fill="none" stroke="black" points="314.676,-32 475.324,-32 "/>
<polyline fill="none" stroke="black" points="314.676,-8 475.324,-8 "/>
<text text-anchor="start" x="322.676" y="7.2" font-family="Times,serif" font-size="14.00">_layout</text>
</g>
<!-- NewsArticlesController -->
<g id="node13" class="node"><title>NewsArticlesController</title>
<path fill="none" stroke="black" d="M-332.873,-166C-332.873,-166 -207.127,-166 -207.127,-166 -201.127,-166 -195.127,-172 -195.127,-178 -195.127,-178 -195.127,-246 -195.127,-246 -195.127,-252 -201.127,-258 -207.127,-258 -207.127,-258 -332.873,-258 -332.873,-258 -338.873,-258 -344.873,-252 -344.873,-246 -344.873,-246 -344.873,-178 -344.873,-178 -344.873,-172 -338.873,-166 -332.873,-166"/>
<text text-anchor="middle" x="-270" y="-242.8" font-family="Times,serif" font-size="14.00">NewsArticlesController</text>
<polyline fill="none" stroke="black" points="-344.873,-236 -195.127,-236 "/>
<polyline fill="none" stroke="black" points="-344.873,-212 -195.127,-212 "/>
<polyline fill="none" stroke="black" points="-344.873,-188 -195.127,-188 "/>
<text text-anchor="start" x="-336.873" y="-172.8" font-family="Times,serif" font-size="14.00">_layout</text>
</g>
<!-- Pages::FootballController -->
<g id="node14" class="node"><title>Pages::FootballController</title>
<path fill="none" stroke="black" d="M-213.328,-286C-213.328,-286 -76.6724,-286 -76.6724,-286 -70.6724,-286 -64.6724,-292 -64.6724,-298 -64.6724,-298 -64.6724,-378 -64.6724,-378 -64.6724,-384 -70.6724,-390 -76.6724,-390 -76.6724,-390 -213.328,-390 -213.328,-390 -219.328,-390 -225.328,-384 -225.328,-378 -225.328,-378 -225.328,-298 -225.328,-298 -225.328,-292 -219.328,-286 -213.328,-286"/>
<text text-anchor="middle" x="-145" y="-374.8" font-family="Times,serif" font-size="14.00">Pages::FootballController</text>
<polyline fill="none" stroke="black" points="-225.328,-368 -64.6724,-368 "/>
<text text-anchor="start" x="-217.328" y="-352.8" font-family="Times,serif" font-size="14.00">testimonials</text>
<polyline fill="none" stroke="black" points="-225.328,-346 -64.6724,-346 "/>
<polyline fill="none" stroke="black" points="-225.328,-322 -64.6724,-322 "/>
<text text-anchor="start" x="-217.328" y="-306.8" font-family="Times,serif" font-size="14.00">_layout</text>
<text text-anchor="start" x="-217.328" y="-292.8" font-family="Times,serif" font-size="14.00">set_sport</text>
</g>
<!-- Pages::MensBasketballController -->
<g id="node15" class="node"><title>Pages::MensBasketballController</title>
<path fill="none" stroke="black" d="M86.9033,-76C86.9033,-76 267.097,-76 267.097,-76 273.097,-76 279.097,-82 279.097,-88 279.097,-88 279.097,-170 279.097,-170 279.097,-176 273.097,-182 267.097,-182 267.097,-182 86.9033,-182 86.9033,-182 80.9033,-182 74.9033,-176 74.9033,-170 74.9033,-170 74.9033,-88 74.9033,-88 74.9033,-82 80.9033,-76 86.9033,-76"/>
<text text-anchor="middle" x="177" y="-166.8" font-family="Times,serif" font-size="14.00">Pages::MensBasketballController</text>
<polyline fill="none" stroke="black" points="74.9033,-160 279.097,-160 "/>
<polyline fill="none" stroke="black" points="74.9033,-136 279.097,-136 "/>
<polyline fill="none" stroke="black" points="74.9033,-112 279.097,-112 "/>
<text text-anchor="start" x="82.9033" y="-96.8" font-family="Times,serif" font-size="14.00">_layout</text>
<text text-anchor="start" x="82.9033" y="-82.8" font-family="Times,serif" font-size="14.00">set_sport</text>
</g>
<!-- Pages::WomensBasketballController -->
<g id="node16" class="node"><title>Pages::WomensBasketballController</title>
<path fill="none" stroke="black" d="M-107.867,59C-107.867,59 89.8672,59 89.8672,59 95.8672,59 101.867,53 101.867,47 101.867,47 101.867,-35 101.867,-35 101.867,-41 95.8672,-47 89.8672,-47 89.8672,-47 -107.867,-47 -107.867,-47 -113.867,-47 -119.867,-41 -119.867,-35 -119.867,-35 -119.867,47 -119.867,47 -119.867,53 -113.867,59 -107.867,59"/>
<text text-anchor="middle" x="-9" y="-31.8" font-family="Times,serif" font-size="14.00">Pages::WomensBasketballController</text>
<polyline fill="none" stroke="black" points="-119.867,-25 101.867,-25 "/>
<polyline fill="none" stroke="black" points="-119.867,-1 101.867,-1 "/>
<polyline fill="none" stroke="black" points="-119.867,23 101.867,23 "/>
<text text-anchor="start" x="-111.867" y="38.2" font-family="Times,serif" font-size="14.00">_layout</text>
<text text-anchor="start" x="-111.867" y="52.2" font-family="Times,serif" font-size="14.00">set_sport</text>
</g>
<!-- PagesController -->
<g id="node17" class="node"><title>PagesController</title>
<path fill="none" stroke="black" d="M-348.104,-361C-348.104,-361 -265.896,-361 -265.896,-361 -259.896,-361 -253.896,-367 -253.896,-373 -253.896,-373 -253.896,-439 -253.896,-439 -253.896,-445 -259.896,-451 -265.896,-451 -265.896,-451 -348.104,-451 -348.104,-451 -354.104,-451 -360.104,-445 -360.104,-439 -360.104,-439 -360.104,-373 -360.104,-373 -360.104,-367 -354.104,-361 -348.104,-361"/>
<text text-anchor="middle" x="-307" y="-435.8" font-family="Times,serif" font-size="14.00">PagesController</text>
<polyline fill="none" stroke="black" points="-360.104,-429 -253.896,-429 "/>
<text text-anchor="start" x="-352.104" y="-413.8" font-family="Times,serif" font-size="14.00">index</text>
<polyline fill="none" stroke="black" points="-360.104,-407 -253.896,-407 "/>
<polyline fill="none" stroke="black" points="-360.104,-383 -253.896,-383 "/>
<text text-anchor="start" x="-352.104" y="-367.8" font-family="Times,serif" font-size="14.00">_layout</text>
</g>
<!-- SportsController -->
<g id="node18" class="node"><title>SportsController</title>
<path fill="none" stroke="black" d="M-318.21,104C-318.21,104 -215.79,104 -215.79,104 -209.79,104 -203.79,98 -203.79,92 -203.79,92 -203.79,-2 -203.79,-2 -203.79,-8 -209.79,-14 -215.79,-14 -215.79,-14 -318.21,-14 -318.21,-14 -324.21,-14 -330.21,-8 -330.21,-2 -330.21,-2 -330.21,92 -330.21,92 -330.21,98 -324.21,104 -318.21,104"/>
<text text-anchor="middle" x="-267" y="1.2" font-family="Times,serif" font-size="14.00">SportsController</text>
<polyline fill="none" stroke="black" points="-330.21,8 -203.79,8 "/>
<text text-anchor="start" x="-322.21" y="23.2" font-family="Times,serif" font-size="14.00">football</text>
<text text-anchor="start" x="-322.21" y="37.2" font-family="Times,serif" font-size="14.00">mens_basketball</text>
<text text-anchor="start" x="-322.21" y="51.2" font-family="Times,serif" font-size="14.00">womens_basketball</text>
<polyline fill="none" stroke="black" points="-330.21,58 -203.79,58 "/>
<polyline fill="none" stroke="black" points="-330.21,82 -203.79,82 "/>
<text text-anchor="start" x="-322.21" y="97.2" font-family="Times,serif" font-size="14.00">_layout</text>
</g>
<!-- TeamMembersController -->
<g id="node19" class="node"><title>TeamMembersController</title>
<path fill="none" stroke="black" d="M342.344,-331C342.344,-331 475.656,-331 475.656,-331 481.656,-331 487.656,-337 487.656,-343 487.656,-343 487.656,-411 487.656,-411 487.656,-417 481.656,-423 475.656,-423 475.656,-423 342.344,-423 342.344,-423 336.344,-423 330.344,-417 330.344,-411 330.344,-411 330.344,-343 330.344,-343 330.344,-337 336.344,-331 342.344,-331"/>
<text text-anchor="middle" x="409" y="-407.8" font-family="Times,serif" font-size="14.00">TeamMembersController</text>
<polyline fill="none" stroke="black" points="330.344,-401 487.656,-401 "/>
<polyline fill="none" stroke="black" points="330.344,-377 487.656,-377 "/>
<polyline fill="none" stroke="black" points="330.344,-353 487.656,-353 "/>
<text text-anchor="start" x="338.344" y="-337.8" font-family="Times,serif" font-size="14.00">_layout</text>
</g>
<!-- TestimonialsController -->
<g id="node20" class="node"><title>TestimonialsController</title>
<path fill="none" stroke="black" d="M371.554,164C371.554,164 492.446,164 492.446,164 498.446,164 504.446,158 504.446,152 504.446,152 504.446,86 504.446,86 504.446,80 498.446,74 492.446,74 492.446,74 371.554,74 371.554,74 365.554,74 359.554,80 359.554,86 359.554,86 359.554,152 359.554,152 359.554,158 365.554,164 371.554,164"/>
<text text-anchor="middle" x="432" y="89.2" font-family="Times,serif" font-size="14.00">TestimonialsController</text>
<polyline fill="none" stroke="black" points="359.554,96 504.446,96 "/>
<text text-anchor="start" x="367.554" y="111.2" font-family="Times,serif" font-size="14.00">index</text>
<polyline fill="none" stroke="black" points="359.554,118 504.446,118 "/>
<polyline fill="none" stroke="black" points="359.554,142 504.446,142 "/>
<text text-anchor="start" x="367.554" y="157.2" font-family="Times,serif" font-size="14.00">_layout</text>
</g>
</g>
</svg>
