<?xml version="1.0" encoding="UTF-8" standalone="no"?>
<!DOCTYPE svg PUBLIC "-//W3C//DTD SVG 1.1//EN"
 "http://www.w3.org/Graphics/SVG/1.1/DTD/svg11.dtd">
<!-- Generated by graphviz version 2.38.0 (20140413.2041)
 -->
<!-- Title: controllers_diagram Pages: 1 -->
<svg width="848pt" height="834pt"
 viewBox="0.00 0.00 847.98 834.00" xmlns="http://www.w3.org/2000/svg" xmlns:xlink="http://www.w3.org/1999/xlink">
<g id="graph0" class="graph" transform="scale(1 1) rotate(0) translate(364.104 455.5)">
<title>controllers_diagram</title>
<polygon fill="none" stroke="none" points="-364.104,378.5 -364.104,-455.5 483.873,-455.5 483.873,378.5 -364.104,378.5"/>
<!-- _diagram_info -->
<g id="node1" class="node"><title>_diagram_info</title>
<text text-anchor="start" x="-216.688" y="-344.1" font-family="Times,serif" font-size="13.00">Controllers diagram</text>
<text text-anchor="start" x="-216.688" y="-331.1" font-family="Times,serif" font-size="13.00">Date: Jul 15 2016 &#45; 17:49</text>
<text text-anchor="start" x="-216.688" y="-318.1" font-family="Times,serif" font-size="13.00">Migration version: 20160715214656</text>
<text text-anchor="start" x="-216.688" y="-305.1" font-family="Times,serif" font-size="13.00">Generated by RailRoady 1.4.2</text>
<text text-anchor="start" x="-216.688" y="-292.1" font-family="Times,serif" font-size="13.00">http://railroady.prestonlee.com</text>
</g>
<!-- Admin::AdminUsersController -->
<g id="node2" class="node"><title>Admin::AdminUsersController</title>
<path fill="none" stroke="black" d="M56.5068,254C56.5068,254 223.493,254 223.493,254 229.493,254 235.493,248 235.493,242 235.493,242 235.493,174 235.493,174 235.493,168 229.493,162 223.493,162 223.493,162 56.5068,162 56.5068,162 50.5068,162 44.5068,168 44.5068,174 44.5068,174 44.5068,242 44.5068,242 44.5068,248 50.5068,254 56.5068,254"/>
<text text-anchor="middle" x="140" y="177.2" font-family="Times,serif" font-size="14.00">Admin::AdminUsersController</text>
<polyline fill="none" stroke="black" points="44.5068,184 235.493,184 "/>
<polyline fill="none" stroke="black" points="44.5068,208 235.493,208 "/>
<polyline fill="none" stroke="black" points="44.5068,232 235.493,232 "/>
<text text-anchor="start" x="52.5068" y="247.2" font-family="Times,serif" font-size="14.00">_layout</text>
</g>
<!-- Admin::ApplicationController -->
<g id="node3" class="node"><title>Admin::ApplicationController</title>
<path fill="none" stroke="black" d="M281.845,269C281.845,269 444.155,269 444.155,269 450.155,269 456.155,263 456.155,257 456.155,257 456.155,191 456.155,191 456.155,185 450.155,179 444.155,179 444.155,179 281.845,179 281.845,179 275.845,179 269.845,185 269.845,191 269.845,191 269.845,257 269.845,257 269.845,263 275.845,269 281.845,269"/>
<text text-anchor="middle" x="363" y="194.2" font-family="Times,serif" font-size="14.00">Admin::ApplicationController</text>
<polyline fill="none" stroke="black" points="269.845,201 456.155,201 "/>
<text text-anchor="start" x="277.845" y="216.2" font-family="Times,serif" font-size="14.00">authenticate_admin</text>
<polyline fill="none" stroke="black" points="269.845,223 456.155,223 "/>
<polyline fill="none" stroke="black" points="269.845,247 456.155,247 "/>
<text text-anchor="start" x="277.845" y="262.2" font-family="Times,serif" font-size="14.00">_layout</text>
</g>
<!-- Admin::AthletesController -->
<g id="node4" class="node"><title>Admin::AthletesController</title>
<path fill="none" stroke="black" d="M-288.435,299C-288.435,299 -145.565,299 -145.565,299 -139.565,299 -133.565,293 -133.565,287 -133.565,287 -133.565,219 -133.565,219 -133.565,213 -139.565,207 -145.565,207 -145.565,207 -288.435,207 -288.435,207 -294.435,207 -300.435,213 -300.435,219 -300.435,219 -300.435,287 -300.435,287 -300.435,293 -294.435,299 -288.435,299"/>
<text text-anchor="middle" x="-217" y="222.2" font-family="Times,serif" font-size="14.00">Admin::AthletesController</text>
<polyline fill="none" stroke="black" points="-300.435,229 -133.565,229 "/>
<polyline fill="none" stroke="black" points="-300.435,253 -133.565,253 "/>
<polyline fill="none" stroke="black" points="-300.435,277 -133.565,277 "/>
<text text-anchor="start" x="-292.435" y="292.2" font-family="Times,serif" font-size="14.00">_layout</text>
</g>
<!-- Admin::FeaturedPhotosController -->
<g id="node5" class="node"><title>Admin::FeaturedPhotosController</title>
<path fill="none" stroke="black" d="M-152.659,-166C-152.659,-166 30.6587,-166 30.6587,-166 36.6587,-166 42.6587,-172 42.6587,-178 42.6587,-178 42.6587,-246 42.6587,-246 42.6587,-252 36.6587,-258 30.6587,-258 30.6587,-258 -152.659,-258 -152.659,-258 -158.659,-258 -164.659,-252 -164.659,-246 -164.659,-246 -164.659,-178 -164.659,-178 -164.659,-172 -158.659,-166 -152.659,-166"/>
<text text-anchor="middle" x="-61" y="-242.8" font-family="Times,serif" font-size="14.00">Admin::FeaturedPhotosController</text>
<polyline fill="none" stroke="black" points="-164.659,-236 42.6587,-236 "/>
<polyline fill="none" stroke="black" points="-164.659,-212 42.6587,-212 "/>
<polyline fill="none" stroke="black" points="-164.659,-188 42.6587,-188 "/>
<text text-anchor="start" x="-156.659" y="-172.8" font-family="Times,serif" font-size="14.00">_layout</text>
</g>
<!-- Admin::NewsArticlesController -->
<g id="node6" class="node"><title>Admin::NewsArticlesController</title>
<path fill="none" stroke="black" d="M-168.207,179C-168.207,179 4.20703,179 4.20703,179 10.207,179 16.207,173 16.207,167 16.207,167 16.207,99 16.207,99 16.207,93 10.207,87 4.20703,87 4.20703,87 -168.207,87 -168.207,87 -174.207,87 -180.207,93 -180.207,99 -180.207,99 -180.207,167 -180.207,167 -180.207,173 -174.207,179 -168.207,179"/>
<text text-anchor="middle" x="-82" y="102.2" font-family="Times,serif" font-size="14.00">Admin::NewsArticlesController</text>
<polyline fill="none" stroke="black" points="-180.207,109 16.207,109 "/>
<polyline fill="none" stroke="black" points="-180.207,133 16.207,133 "/>
<polyline fill="none" stroke="black" points="-180.207,157 16.207,157 "/>
<text text-anchor="start" x="-172.207" y="172.2" font-family="Times,serif" font-size="14.00">_layout</text>
</g>
<!-- Admin::SportsController -->
<g id="node7" class="node"><title>Admin::SportsController</title>
<path fill="none" stroke="black" d="M-288,-46C-288,-46 -156,-46 -156,-46 -150,-46 -144,-52 -144,-58 -144,-58 -144,-126 -144,-126 -144,-132 -150,-138 -156,-138 -156,-138 -288,-138 -288,-138 -294,-138 -300,-132 -300,-126 -300,-126 -300,-58 -300,-58 -300,-52 -294,-46 -288,-46"/>
<text text-anchor="middle" x="-222" y="-122.8" font-family="Times,serif" font-size="14.00">Admin::SportsController</text>
<polyline fill="none" stroke="black" points="-300,-116 -144,-116 "/>
<polyline fill="none" stroke="black" points="-300,-92 -144,-92 "/>
<polyline fill="none" stroke="black" points="-300,-68 -144,-68 "/>
<text text-anchor="start" x="-292" y="-52.8" font-family="Times,serif" font-size="14.00">_layout</text>
</g>
<!-- Admin::TeamMembersController -->
<g id="node8" class="node"><title>Admin::TeamMembersController</title>
<path fill="none" stroke="black" d="M147.009,134C147.009,134 326.991,134 326.991,134 332.991,134 338.991,128 338.991,122 338.991,122 338.991,54 338.991,54 338.991,48 332.991,42 326.991,42 326.991,42 147.009,42 147.009,42 141.009,42 135.009,48 135.009,54 135.009,54 135.009,122 135.009,122 135.009,128 141.009,134 147.009,134"/>
<text text-anchor="middle" x="237" y="57.2" font-family="Times,serif" font-size="14.00">Admin::TeamMembersController</text>
<polyline fill="none" stroke="black" points="135.009,64 338.991,64 "/>
<polyline fill="none" stroke="black" points="135.009,88 338.991,88 "/>
<polyline fill="none" stroke="black" points="135.009,112 338.991,112 "/>
<text text-anchor="start" x="143.009" y="127.2" font-family="Times,serif" font-size="14.00">_layout</text>
</g>
<!-- Admin::TestimonialsController -->
<g id="node9" class="node"><title>Admin::TestimonialsController</title>
<path fill="none" stroke="black" d="M222.22,-211C222.22,-211 389.78,-211 389.78,-211 395.78,-211 401.78,-217 401.78,-223 401.78,-223 401.78,-291 401.78,-291 401.78,-297 395.78,-303 389.78,-303 389.78,-303 222.22,-303 222.22,-303 216.22,-303 210.22,-297 210.22,-291 210.22,-291 210.22,-223 210.22,-223 210.22,-217 216.22,-211 222.22,-211"/>
<text text-anchor="middle" x="306" y="-287.8" font-family="Times,serif" font-size="14.00">Admin::TestimonialsController</text>
<polyline fill="none" stroke="black" points="210.22,-281 401.78,-281 "/>
<polyline fill="none" stroke="black" points="210.22,-257 401.78,-257 "/>
<polyline fill="none" stroke="black" points="210.22,-233 401.78,-233 "/>
<text text-anchor="start" x="218.22" y="-217.8" font-family="Times,serif" font-size="14.00">_layout</text>
</g>
<!-- ApplicationController -->
<g id="node10" class="node"><title>ApplicationController</title>
<path fill="none" stroke="black" d="M-332.821,74C-332.821,74 -217.179,74 -217.179,74 -211.179,74 -205.179,68 -205.179,62 -205.179,62 -205.179,-6 -205.179,-6 -205.179,-12 -211.179,-18 -217.179,-18 -217.179,-18 -332.821,-18 -332.821,-18 -338.821,-18 -344.821,-12 -344.821,-6 -344.821,-6 -344.821,62 -344.821,62 -344.821,68 -338.821,74 -332.821,74"/>
<text text-anchor="middle" x="-275" y="-2.8" font-family="Times,serif" font-size="14.00">ApplicationController</text>
<polyline fill="none" stroke="black" points="-344.821,4 -205.179,4 "/>
<polyline fill="none" stroke="black" points="-344.821,28 -205.179,28 "/>
<polyline fill="none" stroke="black" points="-344.821,52 -205.179,52 "/>
<text text-anchor="start" x="-336.821" y="67.2" font-family="Times,serif" font-size="14.00">_layout</text>
</g>
<!-- AthletesController -->
<g id="node11" class="node"><title>AthletesController</title>
<path fill="none" stroke="black" d="M56.8999,374C56.8999,374 153.1,374 153.1,374 159.1,374 165.1,368 165.1,362 165.1,362 165.1,296 165.1,296 165.1,290 159.1,284 153.1,284 153.1,284 56.8999,284 56.8999,284 50.8999,284 44.8999,290 44.8999,296 44.8999,296 44.8999,362 44.8999,362 44.8999,368 50.8999,374 56.8999,374"/>
<text text-anchor="middle" x="105" y="299.2" font-family="Times,serif" font-size="14.00">AthletesController</text>
<polyline fill="none" stroke="black" points="44.8999,306 165.1,306 "/>
<text text-anchor="start" x="52.8999" y="321.2" font-family="Times,serif" font-size="14.00">show</text>
<polyline fill="none" stroke="black" points="44.8999,328 165.1,328 "/>
<polyline fill="none" stroke="black" points="44.8999,352 165.1,352 "/>
<text text-anchor="start" x="52.8999" y="367.2" font-family="Times,serif" font-size="14.00">_layout</text>
</g>
<!-- FeaturedPhotosController -->
<g id="node12" class="node"><title>FeaturedPhotosController</title>
<path fill="none" stroke="black" d="M326.676,14C326.676,14 463.324,14 463.324,14 469.324,14 475.324,8 475.324,2 475.324,2 475.324,-66 475.324,-66 475.324,-72 469.324,-78 463.324,-78 463.324,-78 326.676,-78 326.676,-78 320.676,-78 314.676,-72 314.676,-66 314.676,-66 314.676,2 314.676,2 314.676,8 320.676,14 326.676,14"/>
<text text-anchor="middle" x="395" y="-62.8" font-family="Times,serif" font-size="14.00">FeaturedPhotosController</text>
<polyline fill="none" stroke="black" points="314.676,-56 475.324,-56 "/>
<polyline fill="none" stroke="black" points="314.676,-32 475.324,-32 "/>
<polyline fill="none" stroke="black" points="314.676,-8 475.324,-8 "/>
<text text-anchor="start" x="322.676" y="7.2" font-family="Times,serif" font-size="14.00">_layout</text>
</g>
<!-- NewsArticlesController -->
<g id="node13" class="node"><title>NewsArticlesController</title>
<path fill="none" stroke="black" d="M342.127,-331C342.127,-331 467.873,-331 467.873,-331 473.873,-331 479.873,-337 479.873,-343 479.873,-343 479.873,-411 479.873,-411 479.873,-417 473.873,-423 467.873,-423 467.873,-423 342.127,-423 342.127,-423 336.127,-423 330.127,-417 330.127,-411 330.127,-411 330.127,-343 330.127,-343 330.127,-337 336.127,-331 342.127,-331"/>
<text text-anchor="middle" x="405" y="-407.8" font-family="Times,serif" font-size="14.00">NewsArticlesController</text>
<polyline fill="none" stroke="black" points="330.127,-401 479.873,-401 "/>
<polyline fill="none" stroke="black" points="330.127,-377 479.873,-377 "/>
<polyline fill="none" stroke="black" points="330.127,-353 479.873,-353 "/>
<text text-anchor="start" x="338.127" y="-337.8" font-family="Times,serif" font-size="14.00">_layout</text>
</g>
<!-- Pages::FootballController -->
<g id="node14" class="node"><title>Pages::FootballController</title>
<path fill="none" stroke="black" d="M26.6724,-286C26.6724,-286 163.328,-286 163.328,-286 169.328,-286 175.328,-292 175.328,-298 175.328,-298 175.328,-378 175.328,-378 175.328,-384 169.328,-390 163.328,-390 163.328,-390 26.6724,-390 26.6724,-390 20.6724,-390 14.6724,-384 14.6724,-378 14.6724,-378 14.6724,-298 14.6724,-298 14.6724,-292 20.6724,-286 26.6724,-286"/>
<text text-anchor="middle" x="95" y="-374.8" font-family="Times,serif" font-size="14.00">Pages::FootballController</text>
<polyline fill="none" stroke="black" points="14.6724,-368 175.328,-368 "/>
<text text-anchor="start" x="22.6724" y="-352.8" font-family="Times,serif" font-size="14.00">testimonials</text>
<polyline fill="none" stroke="black" points="14.6724,-346 175.328,-346 "/>
<polyline fill="none" stroke="black" points="14.6724,-322 175.328,-322 "/>
<text text-anchor="start" x="22.6724" y="-306.8" font-family="Times,serif" font-size="14.00">_layout</text>
<text text-anchor="start" x="22.6724" y="-292.8" font-family="Times,serif" font-size="14.00">set_sport</text>
</g>
<!-- Pages::MensBasketballController -->
<g id="node15" class="node"><title>Pages::MensBasketballController</title>
<path fill="none" stroke="black" d="M86.9033,-76C86.9033,-76 267.097,-76 267.097,-76 273.097,-76 279.097,-82 279.097,-88 279.097,-88 279.097,-170 279.097,-170 279.097,-176 273.097,-182 267.097,-182 267.097,-182 86.9033,-182 86.9033,-182 80.9033,-182 74.9033,-176 74.9033,-170 74.9033,-170 74.9033,-88 74.9033,-88 74.9033,-82 80.9033,-76 86.9033,-76"/>
<text text-anchor="middle" x="177" y="-166.8" font-family="Times,serif" font-size="14.00">Pages::MensBasketballController</text>
<polyline fill="none" stroke="black" points="74.9033,-160 279.097,-160 "/>
<polyline fill="none" stroke="black" points="74.9033,-136 279.097,-136 "/>
<polyline fill="none" stroke="black" points="74.9033,-112 279.097,-112 "/>
<text text-anchor="start" x="82.9033" y="-96.8" font-family="Times,serif" font-size="14.00">_layout</text>
<text text-anchor="start" x="82.9033" y="-82.8" font-family="Times,serif" font-size="14.00">set_sport</text>
</g>
<!-- Pages::WomensBasketballController -->
<g id="node16" class="node"><title>Pages::WomensBasketballController</title>
<path fill="none" stroke="black" d="M-107.867,59C-107.867,59 89.8672,59 89.8672,59 95.8672,59 101.867,53 101.867,47 101.867,47 101.867,-35 101.867,-35 101.867,-41 95.8672,-47 89.8672,-47 89.8672,-47 -107.867,-47 -107.867,-47 -113.867,-47 -119.867,-41 -119.867,-35 -119.867,-35 -119.867,47 -119.867,47 -119.867,53 -113.867,59 -107.867,59"/>
<text text-anchor="middle" x="-9" y="-31.8" font-family="Times,serif" font-size="14.00">Pages::WomensBasketballController</text>
<polyline fill="none" stroke="black" points="-119.867,-25 101.867,-25 "/>
<polyline fill="none" stroke="black" points="-119.867,-1 101.867,-1 "/>
<polyline fill="none" stroke="black" points="-119.867,23 101.867,23 "/>
<text text-anchor="start" x="-111.867" y="38.2" font-family="Times,serif" font-size="14.00">_layout</text>
<text text-anchor="start" x="-111.867" y="52.2" font-family="Times,serif" font-size="14.00">set_sport</text>
</g>
<!-- PagesController -->
<g id="node17" class="node"><title>PagesController</title>
<path fill="none" stroke="black" d="M-348.104,-361C-348.104,-361 -265.896,-361 -265.896,-361 -259.896,-361 -253.896,-367 -253.896,-373 -253.896,-373 -253.896,-439 -253.896,-439 -253.896,-445 -259.896,-451 -265.896,-451 -265.896,-451 -348.104,-451 -348.104,-451 -354.104,-451 -360.104,-445 -360.104,-439 -360.104,-439 -360.104,-373 -360.104,-373 -360.104,-367 -354.104,-361 -348.104,-361"/>
<text text-anchor="middle" x="-307" y="-435.8" font-family="Times,serif" font-size="14.00">PagesController</text>
<polyline fill="none" stroke="black" points="-360.104,-429 -253.896,-429 "/>
<text text-anchor="start" x="-352.104" y="-413.8" font-family="Times,serif" font-size="14.00">index</text>
<polyline fill="none" stroke="black" points="-360.104,-407 -253.896,-407 "/>
<polyline fill="none" stroke="black" points="-360.104,-383 -253.896,-383 "/>
<text text-anchor="start" x="-352.104" y="-367.8" font-family="Times,serif" font-size="14.00">_layout</text>
</g>
<!-- SportsController -->
<g id="node18" class="node"><title>SportsController</title>
<path fill="none" stroke="black" d="M-93.2104,329C-93.2104,329 9.21045,329 9.21045,329 15.2104,329 21.2104,323 21.2104,317 21.2104,317 21.2104,223 21.2104,223 21.2104,217 15.2104,211 9.21045,211 9.21045,211 -93.2104,211 -93.2104,211 -99.2104,211 -105.21,217 -105.21,223 -105.21,223 -105.21,317 -105.21,317 -105.21,323 -99.2104,329 -93.2104,329"/>
<text text-anchor="middle" x="-42" y="226.2" font-family="Times,serif" font-size="14.00">SportsController</text>
<polyline fill="none" stroke="black" points="-105.21,233 21.2104,233 "/>
<text text-anchor="start" x="-97.2104" y="248.2" font-family="Times,serif" font-size="14.00">football</text>
<text text-anchor="start" x="-97.2104" y="262.2" font-family="Times,serif" font-size="14.00">mens_basketball</text>
<text text-anchor="start" x="-97.2104" y="276.2" font-family="Times,serif" font-size="14.00">womens_basketball</text>
<polyline fill="none" stroke="black" points="-105.21,283 21.2104,283 "/>
<polyline fill="none" stroke="black" points="-105.21,307 21.2104,307 "/>
<text text-anchor="start" x="-97.2104" y="322.2" font-family="Times,serif" font-size="14.00">_layout</text>
</g>
<!-- TestimonialsController -->
<g id="node19" class="node"><title>TestimonialsController</title>
<path fill="none" stroke="black" d="M-333.446,-166C-333.446,-166 -212.554,-166 -212.554,-166 -206.554,-166 -200.554,-172 -200.554,-178 -200.554,-178 -200.554,-244 -200.554,-244 -200.554,-250 -206.554,-256 -212.554,-256 -212.554,-256 -333.446,-256 -333.446,-256 -339.446,-256 -345.446,-250 -345.446,-244 -345.446,-244 -345.446,-178 -345.446,-178 -345.446,-172 -339.446,-166 -333.446,-166"/>
<text text-anchor="middle" x="-273" y="-240.8" font-family="Times,serif" font-size="14.00">TestimonialsController</text>
<polyline fill="none" stroke="black" points="-345.446,-234 -200.554,-234 "/>
<text text-anchor="start" x="-337.446" y="-218.8" font-family="Times,serif" font-size="14.00">index</text>
<polyline fill="none" stroke="black" points="-345.446,-212 -200.554,-212 "/>
<polyline fill="none" stroke="black" points="-345.446,-188 -200.554,-188 "/>
<text text-anchor="start" x="-337.446" y="-172.8" font-family="Times,serif" font-size="14.00">_layout</text>
</g>
</g>
</svg>
