<?xml version="1.0" encoding="UTF-8" standalone="no"?>
<!DOCTYPE svg PUBLIC "-//W3C//DTD SVG 1.1//EN"
 "http://www.w3.org/Graphics/SVG/1.1/DTD/svg11.dtd">
<!-- Generated by graphviz version 2.38.0 (20140413.2041)
 -->
<!-- Title: controllers_diagram Pages: 1 -->
<svg width="634pt" height="591pt"
 viewBox="0.00 0.00 633.98 591.00" xmlns="http://www.w3.org/2000/svg" xmlns:xlink="http://www.w3.org/1999/xlink">
<g id="graph0" class="graph" transform="scale(1 1) rotate(0) translate(242.104 335.5)">
<title>controllers_diagram</title>
<polygon fill="none" stroke="none" points="-242.104,255.5 -242.104,-335.5 391.873,-335.5 391.873,255.5 -242.104,255.5"/>
<!-- _diagram_info -->
<g id="node1" class="node"><title>_diagram_info</title>
<text text-anchor="start" x="-103.688" y="-17.1" font-family="Times,serif" font-size="13.00">Controllers diagram</text>
<text text-anchor="start" x="-103.688" y="-4.1" font-family="Times,serif" font-size="13.00">Date: Jun 15 2016 &#45; 17:02</text>
<text text-anchor="start" x="-103.688" y="8.9" font-family="Times,serif" font-size="13.00">Migration version: 20160615210103</text>
<text text-anchor="start" x="-103.688" y="21.9" font-family="Times,serif" font-size="13.00">Generated by RailRoady 1.4.2</text>
<text text-anchor="start" x="-103.688" y="34.9" font-family="Times,serif" font-size="13.00">http://railroady.prestonlee.com</text>
</g>
<!-- ApplicationController -->
<g id="node2" class="node"><title>ApplicationController</title>
<path fill="none" stroke="black" d="M194.179,-183C194.179,-183 309.821,-183 309.821,-183 315.821,-183 321.821,-189 321.821,-195 321.821,-195 321.821,-263 321.821,-263 321.821,-269 315.821,-275 309.821,-275 309.821,-275 194.179,-275 194.179,-275 188.179,-275 182.179,-269 182.179,-263 182.179,-263 182.179,-195 182.179,-195 182.179,-189 188.179,-183 194.179,-183"/>
<text text-anchor="middle" x="252" y="-259.8" font-family="Times,serif" font-size="14.00">ApplicationController</text>
<polyline fill="none" stroke="black" points="182.179,-253 321.821,-253 "/>
<polyline fill="none" stroke="black" points="182.179,-229 321.821,-229 "/>
<polyline fill="none" stroke="black" points="182.179,-205 321.821,-205 "/>
<text text-anchor="start" x="190.179" y="-189.8" font-family="Times,serif" font-size="14.00">_layout</text>
</g>
<!-- AthletesController -->
<g id="node3" class="node"><title>AthletesController</title>
<path fill="none" stroke="black" d="M11.8999,251C11.8999,251 108.1,251 108.1,251 114.1,251 120.1,245 120.1,239 120.1,239 120.1,173 120.1,173 120.1,167 114.1,161 108.1,161 108.1,161 11.8999,161 11.8999,161 5.8999,161 -0.100098,167 -0.100098,173 -0.100098,173 -0.100098,239 -0.100098,239 -0.100098,245 5.8999,251 11.8999,251"/>
<text text-anchor="middle" x="60" y="176.2" font-family="Times,serif" font-size="14.00">AthletesController</text>
<polyline fill="none" stroke="black" points="-0.100098,183 120.1,183 "/>
<text text-anchor="start" x="7.8999" y="198.2" font-family="Times,serif" font-size="14.00">show</text>
<polyline fill="none" stroke="black" points="-0.100098,205 120.1,205 "/>
<polyline fill="none" stroke="black" points="-0.100098,229 120.1,229 "/>
<text text-anchor="start" x="7.8999" y="244.2" font-family="Times,serif" font-size="14.00">_layout</text>
</g>
<!-- FeaturedPhotosController -->
<g id="node4" class="node"><title>FeaturedPhotosController</title>
<path fill="none" stroke="black" d="M137.676,125C137.676,125 274.324,125 274.324,125 280.324,125 286.324,119 286.324,113 286.324,113 286.324,45 286.324,45 286.324,39 280.324,33 274.324,33 274.324,33 137.676,33 137.676,33 131.676,33 125.676,39 125.676,45 125.676,45 125.676,113 125.676,113 125.676,119 131.676,125 137.676,125"/>
<text text-anchor="middle" x="206" y="48.2" font-family="Times,serif" font-size="14.00">FeaturedPhotosController</text>
<polyline fill="none" stroke="black" points="125.676,55 286.324,55 "/>
<polyline fill="none" stroke="black" points="125.676,79 286.324,79 "/>
<polyline fill="none" stroke="black" points="125.676,103 286.324,103 "/>
<text text-anchor="start" x="133.676" y="118.2" font-family="Times,serif" font-size="14.00">_layout</text>
</g>
<!-- NewsArticlesController -->
<g id="node5" class="node"><title>NewsArticlesController</title>
<path fill="none" stroke="black" d="M250.127,-1C250.127,-1 375.873,-1 375.873,-1 381.873,-1 387.873,-7 387.873,-13 387.873,-13 387.873,-81 387.873,-81 387.873,-87 381.873,-93 375.873,-93 375.873,-93 250.127,-93 250.127,-93 244.127,-93 238.127,-87 238.127,-81 238.127,-81 238.127,-13 238.127,-13 238.127,-7 244.127,-1 250.127,-1"/>
<text text-anchor="middle" x="313" y="-77.8" font-family="Times,serif" font-size="14.00">NewsArticlesController</text>
<polyline fill="none" stroke="black" points="238.127,-71 387.873,-71 "/>
<polyline fill="none" stroke="black" points="238.127,-47 387.873,-47 "/>
<polyline fill="none" stroke="black" points="238.127,-23 387.873,-23 "/>
<text text-anchor="start" x="246.127" y="-7.8" font-family="Times,serif" font-size="14.00">_layout</text>
</g>
<!-- PagesController -->
<g id="node6" class="node"><title>PagesController</title>
<path fill="none" stroke="black" d="M-226.104,-239C-226.104,-239 -143.896,-239 -143.896,-239 -137.896,-239 -131.896,-245 -131.896,-251 -131.896,-251 -131.896,-319 -131.896,-319 -131.896,-325 -137.896,-331 -143.896,-331 -143.896,-331 -226.104,-331 -226.104,-331 -232.104,-331 -238.104,-325 -238.104,-319 -238.104,-319 -238.104,-251 -238.104,-251 -238.104,-245 -232.104,-239 -226.104,-239"/>
<text text-anchor="middle" x="-185" y="-315.8" font-family="Times,serif" font-size="14.00">PagesController</text>
<polyline fill="none" stroke="black" points="-238.104,-309 -131.896,-309 "/>
<polyline fill="none" stroke="black" points="-238.104,-285 -131.896,-285 "/>
<polyline fill="none" stroke="black" points="-238.104,-261 -131.896,-261 "/>
<text text-anchor="start" x="-230.104" y="-245.8" font-family="Times,serif" font-size="14.00">_layout</text>
</g>
<!-- SportsController -->
<g id="node7" class="node"><title>SportsController</title>
<path fill="none" stroke="black" d="M-86.2104,-99C-86.2104,-99 16.2104,-99 16.2104,-99 22.2104,-99 28.2104,-105 28.2104,-111 28.2104,-111 28.2104,-205 28.2104,-205 28.2104,-211 22.2104,-217 16.2104,-217 16.2104,-217 -86.2104,-217 -86.2104,-217 -92.2104,-217 -98.2104,-211 -98.2104,-205 -98.2104,-205 -98.2104,-111 -98.2104,-111 -98.2104,-105 -92.2104,-99 -86.2104,-99"/>
<text text-anchor="middle" x="-35" y="-201.8" font-family="Times,serif" font-size="14.00">SportsController</text>
<polyline fill="none" stroke="black" points="-98.2104,-195 28.2104,-195 "/>
<text text-anchor="start" x="-90.2104" y="-179.8" font-family="Times,serif" font-size="14.00">football</text>
<text text-anchor="start" x="-90.2104" y="-165.8" font-family="Times,serif" font-size="14.00">mens_basketball</text>
<text text-anchor="start" x="-90.2104" y="-151.8" font-family="Times,serif" font-size="14.00">womens_basketball</text>
<polyline fill="none" stroke="black" points="-98.2104,-145 28.2104,-145 "/>
<polyline fill="none" stroke="black" points="-98.2104,-121 28.2104,-121 "/>
<text text-anchor="start" x="-90.2104" y="-105.8" font-family="Times,serif" font-size="14.00">_layout</text>
</g>
<!-- TeamMembersController -->
<g id="node8" class="node"><title>TeamMembersController</title>
<path fill="none" stroke="black" d="M68.3438,-57C68.3438,-57 201.656,-57 201.656,-57 207.656,-57 213.656,-63 213.656,-69 213.656,-69 213.656,-137 213.656,-137 213.656,-143 207.656,-149 201.656,-149 201.656,-149 68.3438,-149 68.3438,-149 62.3438,-149 56.3438,-143 56.3438,-137 56.3438,-137 56.3438,-69 56.3438,-69 56.3438,-63 62.3438,-57 68.3438,-57"/>
<text text-anchor="middle" x="135" y="-133.8" font-family="Times,serif" font-size="14.00">TeamMembersController</text>
<polyline fill="none" stroke="black" points="56.3438,-127 213.656,-127 "/>
<polyline fill="none" stroke="black" points="56.3438,-103 213.656,-103 "/>
<polyline fill="none" stroke="black" points="56.3438,-79 213.656,-79 "/>
<text text-anchor="start" x="64.3438" y="-63.8" font-family="Times,serif" font-size="14.00">_layout</text>
</g>
<!-- TestimonialsController -->
<g id="node9" class="node"><title>TestimonialsController</title>
<path fill="none" stroke="black" d="M-156.446,167C-156.446,167 -35.5542,167 -35.5542,167 -29.5542,167 -23.5542,161 -23.5542,155 -23.5542,155 -23.5542,89 -23.5542,89 -23.5542,83 -29.5542,77 -35.5542,77 -35.5542,77 -156.446,77 -156.446,77 -162.446,77 -168.446,83 -168.446,89 -168.446,89 -168.446,155 -168.446,155 -168.446,161 -162.446,167 -156.446,167"/>
<text text-anchor="middle" x="-96" y="92.2" font-family="Times,serif" font-size="14.00">TestimonialsController</text>
<polyline fill="none" stroke="black" points="-168.446,99 -23.5542,99 "/>
<text text-anchor="start" x="-160.446" y="114.2" font-family="Times,serif" font-size="14.00">index</text>
<polyline fill="none" stroke="black" points="-168.446,121 -23.5542,121 "/>
<polyline fill="none" stroke="black" points="-168.446,145 -23.5542,145 "/>
<text text-anchor="start" x="-160.446" y="160.2" font-family="Times,serif" font-size="14.00">_layout</text>
</g>
</g>
</svg>
