<?xml version="1.0" encoding="UTF-8" standalone="no"?>
<!DOCTYPE svg PUBLIC "-//W3C//DTD SVG 1.1//EN"
 "http://www.w3.org/Graphics/SVG/1.1/DTD/svg11.dtd">
<!-- Generated by graphviz version 2.38.0 (20140413.2041)
 -->
<!-- Title: controllers_diagram Pages: 1 -->
<svg width="856pt" height="787pt"
 viewBox="0.00 0.00 855.79 787.00" xmlns="http://www.w3.org/2000/svg" xmlns:xlink="http://www.w3.org/1999/xlink">
<g id="graph0" class="graph" transform="scale(1 1) rotate(0) translate(356.1 463.5)">
<title>controllers_diagram</title>
<polygon fill="none" stroke="none" points="-356.1,323.5 -356.1,-463.5 499.688,-463.5 499.688,323.5 -356.1,323.5"/>
<!-- _diagram_info -->
<g id="node1" class="node"><title>_diagram_info</title>
<text text-anchor="start" x="296.312" y="-187.1" font-family="Times,serif" font-size="13.00">Controllers diagram</text>
<text text-anchor="start" x="296.312" y="-174.1" font-family="Times,serif" font-size="13.00">Date: Nov 20 2016 &#45; 17:07</text>
<text text-anchor="start" x="296.312" y="-161.1" font-family="Times,serif" font-size="13.00">Migration version: 20160910181234</text>
<text text-anchor="start" x="296.312" y="-148.1" font-family="Times,serif" font-size="13.00">Generated by RailRoady 1.4.2</text>
<text text-anchor="start" x="296.312" y="-135.1" font-family="Times,serif" font-size="13.00">http://railroady.prestonlee.com</text>
</g>
<!-- Admin::AdminUsersController -->
<g id="node2" class="node"><title>Admin::AdminUsersController</title>
<path fill="none" stroke="black" d="M283.507,271C283.507,271 450.493,271 450.493,271 456.493,271 462.493,265 462.493,259 462.493,259 462.493,191 462.493,191 462.493,185 456.493,179 450.493,179 450.493,179 283.507,179 283.507,179 277.507,179 271.507,185 271.507,191 271.507,191 271.507,259 271.507,259 271.507,265 277.507,271 283.507,271"/>
<text text-anchor="middle" x="367" y="194.2" font-family="Times,serif" font-size="14.00">Admin::AdminUsersController</text>
<polyline fill="none" stroke="black" points="271.507,201 462.493,201 "/>
<polyline fill="none" stroke="black" points="271.507,225 462.493,225 "/>
<polyline fill="none" stroke="black" points="271.507,249 462.493,249 "/>
<text text-anchor="start" x="279.507" y="264.2" font-family="Times,serif" font-size="14.00">_layout</text>
</g>
<!-- Admin::ApplicationController -->
<g id="node3" class="node"><title>Admin::ApplicationController</title>
<path fill="none" stroke="black" d="M59.8447,271C59.8447,271 222.155,271 222.155,271 228.155,271 234.155,265 234.155,259 234.155,259 234.155,193 234.155,193 234.155,187 228.155,181 222.155,181 222.155,181 59.8447,181 59.8447,181 53.8447,181 47.8447,187 47.8447,193 47.8447,193 47.8447,259 47.8447,259 47.8447,265 53.8447,271 59.8447,271"/>
<text text-anchor="middle" x="141" y="196.2" font-family="Times,serif" font-size="14.00">Admin::ApplicationController</text>
<polyline fill="none" stroke="black" points="47.8447,203 234.155,203 "/>
<text text-anchor="start" x="55.8447" y="218.2" font-family="Times,serif" font-size="14.00">authenticate_admin</text>
<polyline fill="none" stroke="black" points="47.8447,225 234.155,225 "/>
<polyline fill="none" stroke="black" points="47.8447,249 234.155,249 "/>
<text text-anchor="start" x="55.8447" y="264.2" font-family="Times,serif" font-size="14.00">_layout</text>
</g>
<!-- Admin::AthletesController -->
<g id="node4" class="node"><title>Admin::AthletesController</title>
<path fill="none" stroke="black" d="M-292.435,-33C-292.435,-33 -149.565,-33 -149.565,-33 -143.565,-33 -137.565,-39 -137.565,-45 -137.565,-45 -137.565,-113 -137.565,-113 -137.565,-119 -143.565,-125 -149.565,-125 -149.565,-125 -292.435,-125 -292.435,-125 -298.435,-125 -304.435,-119 -304.435,-113 -304.435,-113 -304.435,-45 -304.435,-45 -304.435,-39 -298.435,-33 -292.435,-33"/>
<text text-anchor="middle" x="-221" y="-109.8" font-family="Times,serif" font-size="14.00">Admin::AthletesController</text>
<polyline fill="none" stroke="black" points="-304.435,-103 -137.565,-103 "/>
<polyline fill="none" stroke="black" points="-304.435,-79 -137.565,-79 "/>
<polyline fill="none" stroke="black" points="-304.435,-55 -137.565,-55 "/>
<text text-anchor="start" x="-296.435" y="-39.8" font-family="Times,serif" font-size="14.00">_layout</text>
</g>
<!-- Admin::FeaturedPhotosController -->
<g id="node5" class="node"><title>Admin::FeaturedPhotosController</title>
<path fill="none" stroke="black" d="M-179.659,191C-179.659,191 3.65869,191 3.65869,191 9.65869,191 15.6587,185 15.6587,179 15.6587,179 15.6587,111 15.6587,111 15.6587,105 9.65869,99 3.65869,99 3.65869,99 -179.659,99 -179.659,99 -185.659,99 -191.659,105 -191.659,111 -191.659,111 -191.659,179 -191.659,179 -191.659,185 -185.659,191 -179.659,191"/>
<text text-anchor="middle" x="-88" y="114.2" font-family="Times,serif" font-size="14.00">Admin::FeaturedPhotosController</text>
<polyline fill="none" stroke="black" points="-191.659,121 15.6587,121 "/>
<polyline fill="none" stroke="black" points="-191.659,145 15.6587,145 "/>
<polyline fill="none" stroke="black" points="-191.659,169 15.6587,169 "/>
<text text-anchor="start" x="-183.659" y="184.2" font-family="Times,serif" font-size="14.00">_layout</text>
</g>
<!-- Admin::NewsArticlesController -->
<g id="node6" class="node"><title>Admin::NewsArticlesController</title>
<path fill="none" stroke="black" d="M251.793,-241C251.793,-241 424.207,-241 424.207,-241 430.207,-241 436.207,-247 436.207,-253 436.207,-253 436.207,-321 436.207,-321 436.207,-327 430.207,-333 424.207,-333 424.207,-333 251.793,-333 251.793,-333 245.793,-333 239.793,-327 239.793,-321 239.793,-321 239.793,-253 239.793,-253 239.793,-247 245.793,-241 251.793,-241"/>
<text text-anchor="middle" x="338" y="-317.8" font-family="Times,serif" font-size="14.00">Admin::NewsArticlesController</text>
<polyline fill="none" stroke="black" points="239.793,-311 436.207,-311 "/>
<polyline fill="none" stroke="black" points="239.793,-287 436.207,-287 "/>
<polyline fill="none" stroke="black" points="239.793,-263 436.207,-263 "/>
<text text-anchor="start" x="247.793" y="-247.8" font-family="Times,serif" font-size="14.00">_layout</text>
</g>
<!-- Admin::SportsController -->
<g id="node7" class="node"><title>Admin::SportsController</title>
<path fill="none" stroke="black" d="M-308,319C-308,319 -176,319 -176,319 -170,319 -164,313 -164,307 -164,307 -164,239 -164,239 -164,233 -170,227 -176,227 -176,227 -308,227 -308,227 -314,227 -320,233 -320,239 -320,239 -320,307 -320,307 -320,313 -314,319 -308,319"/>
<text text-anchor="middle" x="-242" y="242.2" font-family="Times,serif" font-size="14.00">Admin::SportsController</text>
<polyline fill="none" stroke="black" points="-320,249 -164,249 "/>
<polyline fill="none" stroke="black" points="-320,273 -164,273 "/>
<polyline fill="none" stroke="black" points="-320,297 -164,297 "/>
<text text-anchor="start" x="-312" y="312.2" font-family="Times,serif" font-size="14.00">_layout</text>
</g>
<!-- Admin::TeamMembersController -->
<g id="node8" class="node"><title>Admin::TeamMembersController</title>
<path fill="none" stroke="black" d="M-147.991,-161C-147.991,-161 31.9907,-161 31.9907,-161 37.9907,-161 43.9907,-167 43.9907,-173 43.9907,-173 43.9907,-241 43.9907,-241 43.9907,-247 37.9907,-253 31.9907,-253 31.9907,-253 -147.991,-253 -147.991,-253 -153.991,-253 -159.991,-247 -159.991,-241 -159.991,-241 -159.991,-173 -159.991,-173 -159.991,-167 -153.991,-161 -147.991,-161"/>
<text text-anchor="middle" x="-58" y="-237.8" font-family="Times,serif" font-size="14.00">Admin::TeamMembersController</text>
<polyline fill="none" stroke="black" points="-159.991,-231 43.9907,-231 "/>
<polyline fill="none" stroke="black" points="-159.991,-207 43.9907,-207 "/>
<polyline fill="none" stroke="black" points="-159.991,-183 43.9907,-183 "/>
<text text-anchor="start" x="-151.991" y="-167.8" font-family="Times,serif" font-size="14.00">_layout</text>
</g>
<!-- Admin::TestimonialsController -->
<g id="node9" class="node"><title>Admin::TestimonialsController</title>
<path fill="none" stroke="black" d="M300.22,-1C300.22,-1 467.78,-1 467.78,-1 473.78,-1 479.78,-7 479.78,-13 479.78,-13 479.78,-81 479.78,-81 479.78,-87 473.78,-93 467.78,-93 467.78,-93 300.22,-93 300.22,-93 294.22,-93 288.22,-87 288.22,-81 288.22,-81 288.22,-13 288.22,-13 288.22,-7 294.22,-1 300.22,-1"/>
<text text-anchor="middle" x="384" y="-77.8" font-family="Times,serif" font-size="14.00">Admin::TestimonialsController</text>
<polyline fill="none" stroke="black" points="288.22,-71 479.78,-71 "/>
<polyline fill="none" stroke="black" points="288.22,-47 479.78,-47 "/>
<polyline fill="none" stroke="black" points="288.22,-23 479.78,-23 "/>
<text text-anchor="start" x="296.22" y="-7.8" font-family="Times,serif" font-size="14.00">_layout</text>
</g>
<!-- ApplicationController -->
<g id="node10" class="node"><title>ApplicationController</title>
<path fill="none" stroke="black" d="M-323.821,-193C-323.821,-193 -208.179,-193 -208.179,-193 -202.179,-193 -196.179,-199 -196.179,-205 -196.179,-205 -196.179,-273 -196.179,-273 -196.179,-279 -202.179,-285 -208.179,-285 -208.179,-285 -323.821,-285 -323.821,-285 -329.821,-285 -335.821,-279 -335.821,-273 -335.821,-273 -335.821,-205 -335.821,-205 -335.821,-199 -329.821,-193 -323.821,-193"/>
<text text-anchor="middle" x="-266" y="-269.8" font-family="Times,serif" font-size="14.00">ApplicationController</text>
<polyline fill="none" stroke="black" points="-335.821,-263 -196.179,-263 "/>
<polyline fill="none" stroke="black" points="-335.821,-239 -196.179,-239 "/>
<polyline fill="none" stroke="black" points="-335.821,-215 -196.179,-215 "/>
<text text-anchor="start" x="-327.821" y="-199.8" font-family="Times,serif" font-size="14.00">_layout</text>
</g>
<!-- AthletesController -->
<g id="node11" class="node"><title>AthletesController</title>
<path fill="none" stroke="black" d="M-340.1,95C-340.1,95 -243.9,95 -243.9,95 -237.9,95 -231.9,89 -231.9,83 -231.9,83 -231.9,17 -231.9,17 -231.9,11 -237.9,5 -243.9,5 -243.9,5 -340.1,5 -340.1,5 -346.1,5 -352.1,11 -352.1,17 -352.1,17 -352.1,83 -352.1,83 -352.1,89 -346.1,95 -340.1,95"/>
<text text-anchor="middle" x="-292" y="20.2" font-family="Times,serif" font-size="14.00">AthletesController</text>
<polyline fill="none" stroke="black" points="-352.1,27 -231.9,27 "/>
<text text-anchor="start" x="-344.1" y="42.2" font-family="Times,serif" font-size="14.00">show</text>
<polyline fill="none" stroke="black" points="-352.1,49 -231.9,49 "/>
<polyline fill="none" stroke="black" points="-352.1,73 -231.9,73 "/>
<text text-anchor="start" x="-344.1" y="88.2" font-family="Times,serif" font-size="14.00">_layout</text>
</g>
<!-- FeaturedPhotosController -->
<g id="node12" class="node"><title>FeaturedPhotosController</title>
<path fill="none" stroke="black" d="M-132.324,-289C-132.324,-289 4.32422,-289 4.32422,-289 10.3242,-289 16.3242,-295 16.3242,-301 16.3242,-301 16.3242,-369 16.3242,-369 16.3242,-375 10.3242,-381 4.32422,-381 4.32422,-381 -132.324,-381 -132.324,-381 -138.324,-381 -144.324,-375 -144.324,-369 -144.324,-369 -144.324,-301 -144.324,-301 -144.324,-295 -138.324,-289 -132.324,-289"/>
<text text-anchor="middle" x="-64" y="-365.8" font-family="Times,serif" font-size="14.00">FeaturedPhotosController</text>
<polyline fill="none" stroke="black" points="-144.324,-359 16.3242,-359 "/>
<polyline fill="none" stroke="black" points="-144.324,-335 16.3242,-335 "/>
<polyline fill="none" stroke="black" points="-144.324,-311 16.3242,-311 "/>
<text text-anchor="start" x="-136.324" y="-295.8" font-family="Times,serif" font-size="14.00">_layout</text>
</g>
<!-- NewsArticlesController -->
<g id="node13" class="node"><title>NewsArticlesController</title>
<path fill="none" stroke="black" d="M-115.873,319C-115.873,319 9.87256,319 9.87256,319 15.8726,319 21.8726,313 21.8726,307 21.8726,307 21.8726,239 21.8726,239 21.8726,233 15.8726,227 9.87256,227 9.87256,227 -115.873,227 -115.873,227 -121.873,227 -127.873,233 -127.873,239 -127.873,239 -127.873,307 -127.873,307 -127.873,313 -121.873,319 -115.873,319"/>
<text text-anchor="middle" x="-53" y="242.2" font-family="Times,serif" font-size="14.00">NewsArticlesController</text>
<polyline fill="none" stroke="black" points="-127.873,249 21.8726,249 "/>
<polyline fill="none" stroke="black" points="-127.873,273 21.8726,273 "/>
<polyline fill="none" stroke="black" points="-127.873,297 21.8726,297 "/>
<text text-anchor="start" x="-119.873" y="312.2" font-family="Times,serif" font-size="14.00">_layout</text>
</g>
<!-- Pages::FootballController -->
<g id="node14" class="node"><title>Pages::FootballController</title>
<path fill="none" stroke="black" d="M59.6724,-289C59.6724,-289 196.328,-289 196.328,-289 202.328,-289 208.328,-295 208.328,-301 208.328,-301 208.328,-381 208.328,-381 208.328,-387 202.328,-393 196.328,-393 196.328,-393 59.6724,-393 59.6724,-393 53.6724,-393 47.6724,-387 47.6724,-381 47.6724,-381 47.6724,-301 47.6724,-301 47.6724,-295 53.6724,-289 59.6724,-289"/>
<text text-anchor="middle" x="128" y="-377.8" font-family="Times,serif" font-size="14.00">Pages::FootballController</text>
<polyline fill="none" stroke="black" points="47.6724,-371 208.328,-371 "/>
<text text-anchor="start" x="55.6724" y="-355.8" font-family="Times,serif" font-size="14.00">testimonials</text>
<polyline fill="none" stroke="black" points="47.6724,-349 208.328,-349 "/>
<polyline fill="none" stroke="black" points="47.6724,-325 208.328,-325 "/>
<text text-anchor="start" x="55.6724" y="-309.8" font-family="Times,serif" font-size="14.00">_layout</text>
<text text-anchor="start" x="55.6724" y="-295.8" font-family="Times,serif" font-size="14.00">set_sport</text>
</g>
<!-- Pages::MensBasketballController -->
<g id="node15" class="node"><title>Pages::MensBasketballController</title>
<path fill="none" stroke="black" d="M155.903,143C155.903,143 336.097,143 336.097,143 342.097,143 348.097,137 348.097,131 348.097,131 348.097,51 348.097,51 348.097,45 342.097,39 336.097,39 336.097,39 155.903,39 155.903,39 149.903,39 143.903,45 143.903,51 143.903,51 143.903,131 143.903,131 143.903,137 149.903,143 155.903,143"/>
<text text-anchor="middle" x="246" y="54.2" font-family="Times,serif" font-size="14.00">Pages::MensBasketballController</text>
<polyline fill="none" stroke="black" points="143.903,61 348.097,61 "/>
<text text-anchor="start" x="151.903" y="76.2" font-family="Times,serif" font-size="14.00">testimonials</text>
<polyline fill="none" stroke="black" points="143.903,83 348.097,83 "/>
<polyline fill="none" stroke="black" points="143.903,107 348.097,107 "/>
<text text-anchor="start" x="151.903" y="122.2" font-family="Times,serif" font-size="14.00">_layout</text>
<text text-anchor="start" x="151.903" y="136.2" font-family="Times,serif" font-size="14.00">set_sport</text>
</g>
<!-- Pages::WomensBasketballController -->
<g id="node16" class="node"><title>Pages::WomensBasketballController</title>
<path fill="none" stroke="black" d="M-99.8672,63C-99.8672,63 97.8672,63 97.8672,63 103.867,63 109.867,57 109.867,51 109.867,51 109.867,-29 109.867,-29 109.867,-35 103.867,-41 97.8672,-41 97.8672,-41 -99.8672,-41 -99.8672,-41 -105.867,-41 -111.867,-35 -111.867,-29 -111.867,-29 -111.867,51 -111.867,51 -111.867,57 -105.867,63 -99.8672,63"/>
<text text-anchor="middle" x="-1" y="-25.8" font-family="Times,serif" font-size="14.00">Pages::WomensBasketballController</text>
<polyline fill="none" stroke="black" points="-111.867,-19 109.867,-19 "/>
<text text-anchor="start" x="-103.867" y="-3.8" font-family="Times,serif" font-size="14.00">testimonials</text>
<polyline fill="none" stroke="black" points="-111.867,3 109.867,3 "/>
<polyline fill="none" stroke="black" points="-111.867,27 109.867,27 "/>
<text text-anchor="start" x="-103.867" y="42.2" font-family="Times,serif" font-size="14.00">_layout</text>
<text text-anchor="start" x="-103.867" y="56.2" font-family="Times,serif" font-size="14.00">set_sport</text>
</g>
<!-- PagesController -->
<g id="node17" class="node"><title>PagesController</title>
<path fill="none" stroke="black" d="M379.896,-369C379.896,-369 462.104,-369 462.104,-369 468.104,-369 474.104,-375 474.104,-381 474.104,-381 474.104,-447 474.104,-447 474.104,-453 468.104,-459 462.104,-459 462.104,-459 379.896,-459 379.896,-459 373.896,-459 367.896,-453 367.896,-447 367.896,-447 367.896,-381 367.896,-381 367.896,-375 373.896,-369 379.896,-369"/>
<text text-anchor="middle" x="421" y="-443.8" font-family="Times,serif" font-size="14.00">PagesController</text>
<polyline fill="none" stroke="black" points="367.896,-437 474.104,-437 "/>
<text text-anchor="start" x="375.896" y="-421.8" font-family="Times,serif" font-size="14.00">index</text>
<polyline fill="none" stroke="black" points="367.896,-415 474.104,-415 "/>
<polyline fill="none" stroke="black" points="367.896,-391 474.104,-391 "/>
<text text-anchor="start" x="375.896" y="-375.8" font-family="Times,serif" font-size="14.00">_layout</text>
</g>
<!-- SportsController -->
<g id="node18" class="node"><title>SportsController</title>
<path fill="none" stroke="black" d="M92.3618,-81C92.3618,-81 247.638,-81 247.638,-81 253.638,-81 259.638,-87 259.638,-93 259.638,-93 259.638,-201 259.638,-201 259.638,-207 253.638,-213 247.638,-213 247.638,-213 92.3618,-213 92.3618,-213 86.3618,-213 80.3618,-207 80.3618,-201 80.3618,-201 80.3618,-93 80.3618,-93 80.3618,-87 86.3618,-81 92.3618,-81"/>
<text text-anchor="middle" x="170" y="-197.8" font-family="Times,serif" font-size="14.00">SportsController</text>
<polyline fill="none" stroke="black" points="80.3618,-191 259.638,-191 "/>
<text text-anchor="start" x="88.3618" y="-175.8" font-family="Times,serif" font-size="14.00">football</text>
<text text-anchor="start" x="88.3618" y="-161.8" font-family="Times,serif" font-size="14.00">mens_basketball</text>
<text text-anchor="start" x="88.3618" y="-147.8" font-family="Times,serif" font-size="14.00">womens_basketball</text>
<text text-anchor="start" x="88.3618" y="-133.8" font-family="Times,serif" font-size="14.00">womens_basketball_featured</text>
<polyline fill="none" stroke="black" points="80.3618,-127 259.638,-127 "/>
<polyline fill="none" stroke="black" points="80.3618,-103 259.638,-103 "/>
<text text-anchor="start" x="88.3618" y="-87.8" font-family="Times,serif" font-size="14.00">_layout</text>
</g>
<!-- TestimonialsController -->
<g id="node19" class="node"><title>TestimonialsController</title>
<path fill="none" stroke="black" d="M-308.446,-321C-308.446,-321 -187.554,-321 -187.554,-321 -181.554,-321 -175.554,-327 -175.554,-333 -175.554,-333 -175.554,-399 -175.554,-399 -175.554,-405 -181.554,-411 -187.554,-411 -187.554,-411 -308.446,-411 -308.446,-411 -314.446,-411 -320.446,-405 -320.446,-399 -320.446,-399 -320.446,-333 -320.446,-333 -320.446,-327 -314.446,-321 -308.446,-321"/>
<text text-anchor="middle" x="-248" y="-395.8" font-family="Times,serif" font-size="14.00">TestimonialsController</text>
<polyline fill="none" stroke="black" points="-320.446,-389 -175.554,-389 "/>
<text text-anchor="start" x="-312.446" y="-373.8" font-family="Times,serif" font-size="14.00">index</text>
<polyline fill="none" stroke="black" points="-320.446,-367 -175.554,-367 "/>
<polyline fill="none" stroke="black" points="-320.446,-343 -175.554,-343 "/>
<text text-anchor="start" x="-312.446" y="-327.8" font-family="Times,serif" font-size="14.00">_layout</text>
</g>
</g>
</svg>
