<?xml version="1.0" encoding="UTF-8" standalone="no"?>
<!DOCTYPE svg PUBLIC "-//W3C//DTD SVG 1.1//EN"
 "http://www.w3.org/Graphics/SVG/1.1/DTD/svg11.dtd">
<!-- Generated by graphviz version 2.38.0 (20140413.2041)
 -->
<!-- Title: controllers_diagram Pages: 1 -->
<svg width="422pt" height="381pt"
 viewBox="0.00 0.00 421.77 381.00" xmlns="http://www.w3.org/2000/svg" xmlns:xlink="http://www.w3.org/1999/xlink">
<g id="graph0" class="graph" transform="scale(1 1) rotate(0) translate(171.666 209.5)">
<title>controllers_diagram</title>
<polygon fill="none" stroke="none" points="-171.666,171.5 -171.666,-209.5 250.1,-209.5 250.1,171.5 -171.666,171.5"/>
<!-- _diagram_info -->
<g id="node1" class="node"><title>_diagram_info</title>
<text text-anchor="start" x="-103.688" y="-17.1" font-family="Times,serif" font-size="13.00">Controllers diagram</text>
<text text-anchor="start" x="-103.688" y="-4.1" font-family="Times,serif" font-size="13.00">Date: Jun 03 2016 &#45; 13:06</text>
<text text-anchor="start" x="-103.688" y="8.9" font-family="Times,serif" font-size="13.00">Migration version: 20160603164347</text>
<text text-anchor="start" x="-103.688" y="21.9" font-family="Times,serif" font-size="13.00">Generated by RailRoady 1.4.2</text>
<text text-anchor="start" x="-103.688" y="34.9" font-family="Times,serif" font-size="13.00">http://railroady.prestonlee.com</text>
</g>
<!-- ApplicationController -->
<g id="node2" class="node"><title>ApplicationController</title>
<path fill="none" stroke="black" d="M-99.8208,-113C-99.8208,-113 15.8208,-113 15.8208,-113 21.8208,-113 27.8208,-119 27.8208,-125 27.8208,-125 27.8208,-193 27.8208,-193 27.8208,-199 21.8208,-205 15.8208,-205 15.8208,-205 -99.8208,-205 -99.8208,-205 -105.821,-205 -111.821,-199 -111.821,-193 -111.821,-193 -111.821,-125 -111.821,-125 -111.821,-119 -105.821,-113 -99.8208,-113"/>
<text text-anchor="middle" x="-42" y="-189.8" font-family="Times,serif" font-size="14.00">ApplicationController</text>
<polyline fill="none" stroke="black" points="-111.821,-183 27.8208,-183 "/>
<polyline fill="none" stroke="black" points="-111.821,-159 27.8208,-159 "/>
<polyline fill="none" stroke="black" points="-111.821,-135 27.8208,-135 "/>
<text text-anchor="start" x="-103.821" y="-119.8" font-family="Times,serif" font-size="14.00">_layout</text>
</g>
<!-- AthletesController -->
<g id="node3" class="node"><title>AthletesController</title>
<path fill="none" stroke="black" d="M137.9,125C137.9,125 234.1,125 234.1,125 240.1,125 246.1,119 246.1,113 246.1,113 246.1,45 246.1,45 246.1,39 240.1,33 234.1,33 234.1,33 137.9,33 137.9,33 131.9,33 125.9,39 125.9,45 125.9,45 125.9,113 125.9,113 125.9,119 131.9,125 137.9,125"/>
<text text-anchor="middle" x="186" y="48.2" font-family="Times,serif" font-size="14.00">AthletesController</text>
<polyline fill="none" stroke="black" points="125.9,55 246.1,55 "/>
<polyline fill="none" stroke="black" points="125.9,79 246.1,79 "/>
<polyline fill="none" stroke="black" points="125.9,103 246.1,103 "/>
<text text-anchor="start" x="133.9" y="118.2" font-family="Times,serif" font-size="14.00">_layout</text>
</g>
<!-- FeaturedPhotosController -->
<g id="node4" class="node"><title>FeaturedPhotosController</title>
<path fill="none" stroke="black" d="M67.6758,-57C67.6758,-57 204.324,-57 204.324,-57 210.324,-57 216.324,-63 216.324,-69 216.324,-69 216.324,-137 216.324,-137 216.324,-143 210.324,-149 204.324,-149 204.324,-149 67.6758,-149 67.6758,-149 61.6758,-149 55.6758,-143 55.6758,-137 55.6758,-137 55.6758,-69 55.6758,-69 55.6758,-63 61.6758,-57 67.6758,-57"/>
<text text-anchor="middle" x="136" y="-133.8" font-family="Times,serif" font-size="14.00">FeaturedPhotosController</text>
<polyline fill="none" stroke="black" points="55.6758,-127 216.324,-127 "/>
<polyline fill="none" stroke="black" points="55.6758,-103 216.324,-103 "/>
<polyline fill="none" stroke="black" points="55.6758,-79 216.324,-79 "/>
<text text-anchor="start" x="63.6758" y="-63.8" font-family="Times,serif" font-size="14.00">_layout</text>
</g>
<!-- SportsController -->
<g id="node5" class="node"><title>SportsController</title>
<path fill="none" stroke="black" d="M-155.666,167C-155.666,167 -70.3345,167 -70.3345,167 -64.3345,167 -58.3345,161 -58.3345,155 -58.3345,155 -58.3345,89 -58.3345,89 -58.3345,83 -64.3345,77 -70.3345,77 -70.3345,77 -155.666,77 -155.666,77 -161.666,77 -167.666,83 -167.666,89 -167.666,89 -167.666,155 -167.666,155 -167.666,161 -161.666,167 -155.666,167"/>
<text text-anchor="middle" x="-113" y="92.2" font-family="Times,serif" font-size="14.00">SportsController</text>
<polyline fill="none" stroke="black" points="-167.666,99 -58.3345,99 "/>
<text text-anchor="start" x="-159.666" y="114.2" font-family="Times,serif" font-size="14.00">football</text>
<polyline fill="none" stroke="black" points="-167.666,121 -58.3345,121 "/>
<polyline fill="none" stroke="black" points="-167.666,145 -58.3345,145 "/>
<text text-anchor="start" x="-159.666" y="160.2" font-family="Times,serif" font-size="14.00">_layout</text>
</g>
</g>
</svg>
