<?xml version="1.0" encoding="UTF-8" standalone="no"?>
<!DOCTYPE svg PUBLIC "-//W3C//DTD SVG 1.1//EN"
 "http://www.w3.org/Graphics/SVG/1.1/DTD/svg11.dtd">
<!-- Generated by graphviz version 2.38.0 (20140413.2041)
 -->
<!-- Title: controllers_diagram Pages: 1 -->
<svg width="868pt" height="773pt"
 viewBox="0.00 0.00 867.82 773.00" xmlns="http://www.w3.org/2000/svg" xmlns:xlink="http://www.w3.org/1999/xlink">
<g id="graph0" class="graph" transform="scale(1 1) rotate(0) translate(356 401.5)">
<title>controllers_diagram</title>
<polygon fill="none" stroke="none" points="-356,371.5 -356,-401.5 511.821,-401.5 511.821,371.5 -356,371.5"/>
<!-- _diagram_info -->
<g id="node1" class="node"><title>_diagram_info</title>
<text text-anchor="start" x="-279.688" y="-347.1" font-family="Times,serif" font-size="13.00">Controllers diagram</text>
<text text-anchor="start" x="-279.688" y="-334.1" font-family="Times,serif" font-size="13.00">Date: Jan 19 2017 &#45; 19:03</text>
<text text-anchor="start" x="-279.688" y="-321.1" font-family="Times,serif" font-size="13.00">Migration version: 20170120000145</text>
<text text-anchor="start" x="-279.688" y="-308.1" font-family="Times,serif" font-size="13.00">Generated by RailRoady 1.4.2</text>
<text text-anchor="start" x="-279.688" y="-295.1" font-family="Times,serif" font-size="13.00">http://railroady.prestonlee.com</text>
</g>
<!-- Admin::AdminUsersController -->
<g id="node2" class="node"><title>Admin::AdminUsersController</title>
<path fill="none" stroke="black" d="M235.507,239C235.507,239 402.493,239 402.493,239 408.493,239 414.493,233 414.493,227 414.493,227 414.493,159 414.493,159 414.493,153 408.493,147 402.493,147 402.493,147 235.507,147 235.507,147 229.507,147 223.507,153 223.507,159 223.507,159 223.507,227 223.507,227 223.507,233 229.507,239 235.507,239"/>
<text text-anchor="middle" x="319" y="162.2" font-family="Times,serif" font-size="14.00">Admin::AdminUsersController</text>
<polyline fill="none" stroke="black" points="223.507,169 414.493,169 "/>
<polyline fill="none" stroke="black" points="223.507,193 414.493,193 "/>
<polyline fill="none" stroke="black" points="223.507,217 414.493,217 "/>
<text text-anchor="start" x="231.507" y="232.2" font-family="Times,serif" font-size="14.00">_layout</text>
</g>
<!-- Admin::ApplicationController -->
<g id="node3" class="node"><title>Admin::ApplicationController</title>
<path fill="none" stroke="black" d="M11.8447,239C11.8447,239 174.155,239 174.155,239 180.155,239 186.155,233 186.155,227 186.155,227 186.155,161 186.155,161 186.155,155 180.155,149 174.155,149 174.155,149 11.8447,149 11.8447,149 5.84473,149 -0.155273,155 -0.155273,161 -0.155273,161 -0.155273,227 -0.155273,227 -0.155273,233 5.84473,239 11.8447,239"/>
<text text-anchor="middle" x="93" y="164.2" font-family="Times,serif" font-size="14.00">Admin::ApplicationController</text>
<polyline fill="none" stroke="black" points="-0.155273,171 186.155,171 "/>
<text text-anchor="start" x="7.84473" y="186.2" font-family="Times,serif" font-size="14.00">authenticate_admin</text>
<polyline fill="none" stroke="black" points="-0.155273,193 186.155,193 "/>
<polyline fill="none" stroke="black" points="-0.155273,217 186.155,217 "/>
<text text-anchor="start" x="7.84473" y="232.2" font-family="Times,serif" font-size="14.00">_layout</text>
</g>
<!-- Admin::AthletesController -->
<g id="node4" class="node"><title>Admin::AthletesController</title>
<path fill="none" stroke="black" d="M-308.435,-161C-308.435,-161 -165.565,-161 -165.565,-161 -159.565,-161 -153.565,-167 -153.565,-173 -153.565,-173 -153.565,-241 -153.565,-241 -153.565,-247 -159.565,-253 -165.565,-253 -165.565,-253 -308.435,-253 -308.435,-253 -314.435,-253 -320.435,-247 -320.435,-241 -320.435,-241 -320.435,-173 -320.435,-173 -320.435,-167 -314.435,-161 -308.435,-161"/>
<text text-anchor="middle" x="-237" y="-237.8" font-family="Times,serif" font-size="14.00">Admin::AthletesController</text>
<polyline fill="none" stroke="black" points="-320.435,-231 -153.565,-231 "/>
<polyline fill="none" stroke="black" points="-320.435,-207 -153.565,-207 "/>
<polyline fill="none" stroke="black" points="-320.435,-183 -153.565,-183 "/>
<text text-anchor="start" x="-312.435" y="-167.8" font-family="Times,serif" font-size="14.00">_layout</text>
</g>
<!-- Admin::FeaturedPhotosController -->
<g id="node5" class="node"><title>Admin::FeaturedPhotosController</title>
<path fill="none" stroke="black" d="M188.341,-177C188.341,-177 371.659,-177 371.659,-177 377.659,-177 383.659,-183 383.659,-189 383.659,-189 383.659,-257 383.659,-257 383.659,-263 377.659,-269 371.659,-269 371.659,-269 188.341,-269 188.341,-269 182.341,-269 176.341,-263 176.341,-257 176.341,-257 176.341,-189 176.341,-189 176.341,-183 182.341,-177 188.341,-177"/>
<text text-anchor="middle" x="280" y="-253.8" font-family="Times,serif" font-size="14.00">Admin::FeaturedPhotosController</text>
<polyline fill="none" stroke="black" points="176.341,-247 383.659,-247 "/>
<polyline fill="none" stroke="black" points="176.341,-223 383.659,-223 "/>
<polyline fill="none" stroke="black" points="176.341,-199 383.659,-199 "/>
<text text-anchor="start" x="184.341" y="-183.8" font-family="Times,serif" font-size="14.00">_layout</text>
</g>
<!-- Admin::NewsArticlesController -->
<g id="node6" class="node"><title>Admin::NewsArticlesController</title>
<path fill="none" stroke="black" d="M-212.207,223C-212.207,223 -39.793,223 -39.793,223 -33.793,223 -27.793,217 -27.793,211 -27.793,211 -27.793,143 -27.793,143 -27.793,137 -33.793,131 -39.793,131 -39.793,131 -212.207,131 -212.207,131 -218.207,131 -224.207,137 -224.207,143 -224.207,143 -224.207,211 -224.207,211 -224.207,217 -218.207,223 -212.207,223"/>
<text text-anchor="middle" x="-126" y="146.2" font-family="Times,serif" font-size="14.00">Admin::NewsArticlesController</text>
<polyline fill="none" stroke="black" points="-224.207,153 -27.793,153 "/>
<polyline fill="none" stroke="black" points="-224.207,177 -27.793,177 "/>
<polyline fill="none" stroke="black" points="-224.207,201 -27.793,201 "/>
<text text-anchor="start" x="-216.207" y="216.2" font-family="Times,serif" font-size="14.00">_layout</text>
</g>
<!-- Admin::SportsController -->
<g id="node7" class="node"><title>Admin::SportsController</title>
<path fill="none" stroke="black" d="M-340,351C-340,351 -208,351 -208,351 -202,351 -196,345 -196,339 -196,339 -196,271 -196,271 -196,265 -202,259 -208,259 -208,259 -340,259 -340,259 -346,259 -352,265 -352,271 -352,271 -352,339 -352,339 -352,345 -346,351 -340,351"/>
<text text-anchor="middle" x="-274" y="274.2" font-family="Times,serif" font-size="14.00">Admin::SportsController</text>
<polyline fill="none" stroke="black" points="-352,281 -196,281 "/>
<polyline fill="none" stroke="black" points="-352,305 -196,305 "/>
<polyline fill="none" stroke="black" points="-352,329 -196,329 "/>
<text text-anchor="start" x="-344" y="344.2" font-family="Times,serif" font-size="14.00">_layout</text>
</g>
<!-- Admin::TeamMembersController -->
<g id="node8" class="node"><title>Admin::TeamMembersController</title>
<path fill="none" stroke="black" d="M-115.991,-129C-115.991,-129 63.9907,-129 63.9907,-129 69.9907,-129 75.9907,-135 75.9907,-141 75.9907,-141 75.9907,-209 75.9907,-209 75.9907,-215 69.9907,-221 63.9907,-221 63.9907,-221 -115.991,-221 -115.991,-221 -121.991,-221 -127.991,-215 -127.991,-209 -127.991,-209 -127.991,-141 -127.991,-141 -127.991,-135 -121.991,-129 -115.991,-129"/>
<text text-anchor="middle" x="-26" y="-205.8" font-family="Times,serif" font-size="14.00">Admin::TeamMembersController</text>
<polyline fill="none" stroke="black" points="-127.991,-199 75.9907,-199 "/>
<polyline fill="none" stroke="black" points="-127.991,-175 75.9907,-175 "/>
<polyline fill="none" stroke="black" points="-127.991,-151 75.9907,-151 "/>
<text text-anchor="start" x="-119.991" y="-135.8" font-family="Times,serif" font-size="14.00">_layout</text>
</g>
<!-- Admin::TestimonialsController -->
<g id="node9" class="node"><title>Admin::TestimonialsController</title>
<path fill="none" stroke="black" d="M-35.7803,-257C-35.7803,-257 131.78,-257 131.78,-257 137.78,-257 143.78,-263 143.78,-269 143.78,-269 143.78,-337 143.78,-337 143.78,-343 137.78,-349 131.78,-349 131.78,-349 -35.7803,-349 -35.7803,-349 -41.7803,-349 -47.7803,-343 -47.7803,-337 -47.7803,-337 -47.7803,-269 -47.7803,-269 -47.7803,-263 -41.7803,-257 -35.7803,-257"/>
<text text-anchor="middle" x="48" y="-333.8" font-family="Times,serif" font-size="14.00">Admin::TestimonialsController</text>
<polyline fill="none" stroke="black" points="-47.7803,-327 143.78,-327 "/>
<polyline fill="none" stroke="black" points="-47.7803,-303 143.78,-303 "/>
<polyline fill="none" stroke="black" points="-47.7803,-279 143.78,-279 "/>
<text text-anchor="start" x="-39.7803" y="-263.8" font-family="Times,serif" font-size="14.00">_layout</text>
</g>
<!-- ApplicationController -->
<g id="node10" class="node"><title>ApplicationController</title>
<path fill="none" stroke="black" d="M380.179,367C380.179,367 495.821,367 495.821,367 501.821,367 507.821,361 507.821,355 507.821,355 507.821,287 507.821,287 507.821,281 501.821,275 495.821,275 495.821,275 380.179,275 380.179,275 374.179,275 368.179,281 368.179,287 368.179,287 368.179,355 368.179,355 368.179,361 374.179,367 380.179,367"/>
<text text-anchor="middle" x="438" y="290.2" font-family="Times,serif" font-size="14.00">ApplicationController</text>
<polyline fill="none" stroke="black" points="368.179,297 507.821,297 "/>
<polyline fill="none" stroke="black" points="368.179,321 507.821,321 "/>
<polyline fill="none" stroke="black" points="368.179,345 507.821,345 "/>
<text text-anchor="start" x="376.179" y="360.2" font-family="Times,serif" font-size="14.00">_layout</text>
</g>
<!-- AthletesController -->
<g id="node11" class="node"><title>AthletesController</title>
<path fill="none" stroke="black" d="M-148.1,351C-148.1,351 -51.8999,351 -51.8999,351 -45.8999,351 -39.8999,345 -39.8999,339 -39.8999,339 -39.8999,273 -39.8999,273 -39.8999,267 -45.8999,261 -51.8999,261 -51.8999,261 -148.1,261 -148.1,261 -154.1,261 -160.1,267 -160.1,273 -160.1,273 -160.1,339 -160.1,339 -160.1,345 -154.1,351 -148.1,351"/>
<text text-anchor="middle" x="-100" y="276.2" font-family="Times,serif" font-size="14.00">AthletesController</text>
<polyline fill="none" stroke="black" points="-160.1,283 -39.8999,283 "/>
<text text-anchor="start" x="-152.1" y="298.2" font-family="Times,serif" font-size="14.00">show</text>
<polyline fill="none" stroke="black" points="-160.1,305 -39.8999,305 "/>
<polyline fill="none" stroke="black" points="-160.1,329 -39.8999,329 "/>
<text text-anchor="start" x="-152.1" y="344.2" font-family="Times,serif" font-size="14.00">_layout</text>
</g>
<!-- FeaturedPhotosController -->
<g id="node12" class="node"><title>FeaturedPhotosController</title>
<path fill="none" stroke="black" d="M315.676,-305C315.676,-305 452.324,-305 452.324,-305 458.324,-305 464.324,-311 464.324,-317 464.324,-317 464.324,-385 464.324,-385 464.324,-391 458.324,-397 452.324,-397 452.324,-397 315.676,-397 315.676,-397 309.676,-397 303.676,-391 303.676,-385 303.676,-385 303.676,-317 303.676,-317 303.676,-311 309.676,-305 315.676,-305"/>
<text text-anchor="middle" x="384" y="-381.8" font-family="Times,serif" font-size="14.00">FeaturedPhotosController</text>
<polyline fill="none" stroke="black" points="303.676,-375 464.324,-375 "/>
<polyline fill="none" stroke="black" points="303.676,-351 464.324,-351 "/>
<polyline fill="none" stroke="black" points="303.676,-327 464.324,-327 "/>
<text text-anchor="start" x="311.676" y="-311.8" font-family="Times,serif" font-size="14.00">_layout</text>
</g>
<!-- NewsArticlesController -->
<g id="node13" class="node"><title>NewsArticlesController</title>
<path fill="none" stroke="black" d="M12.1274,367C12.1274,367 137.873,367 137.873,367 143.873,367 149.873,361 149.873,355 149.873,355 149.873,287 149.873,287 149.873,281 143.873,275 137.873,275 137.873,275 12.1274,275 12.1274,275 6.12744,275 0.127441,281 0.127441,287 0.127441,287 0.127441,355 0.127441,355 0.127441,361 6.12744,367 12.1274,367"/>
<text text-anchor="middle" x="75" y="290.2" font-family="Times,serif" font-size="14.00">NewsArticlesController</text>
<polyline fill="none" stroke="black" points="0.127441,297 149.873,297 "/>
<polyline fill="none" stroke="black" points="0.127441,321 149.873,321 "/>
<polyline fill="none" stroke="black" points="0.127441,345 149.873,345 "/>
<text text-anchor="start" x="8.12744" y="360.2" font-family="Times,serif" font-size="14.00">_layout</text>
</g>
<!-- Pages::FootballController -->
<g id="node14" class="node"><title>Pages::FootballController</title>
<path fill="none" stroke="black" d="M-276.328,15C-276.328,15 -139.672,15 -139.672,15 -133.672,15 -127.672,9 -127.672,3 -127.672,3 -127.672,-77 -127.672,-77 -127.672,-83 -133.672,-89 -139.672,-89 -139.672,-89 -276.328,-89 -276.328,-89 -282.328,-89 -288.328,-83 -288.328,-77 -288.328,-77 -288.328,3 -288.328,3 -288.328,9 -282.328,15 -276.328,15"/>
<text text-anchor="middle" x="-208" y="-73.8" font-family="Times,serif" font-size="14.00">Pages::FootballController</text>
<polyline fill="none" stroke="black" points="-288.328,-67 -127.672,-67 "/>
<text text-anchor="start" x="-280.328" y="-51.8" font-family="Times,serif" font-size="14.00">testimonials</text>
<polyline fill="none" stroke="black" points="-288.328,-45 -127.672,-45 "/>
<polyline fill="none" stroke="black" points="-288.328,-21 -127.672,-21 "/>
<text text-anchor="start" x="-280.328" y="-5.8" font-family="Times,serif" font-size="14.00">_layout</text>
<text text-anchor="start" x="-280.328" y="8.2" font-family="Times,serif" font-size="14.00">set_sport</text>
</g>
<!-- Pages::MensBasketballController -->
<g id="node15" class="node"><title>Pages::MensBasketballController</title>
<path fill="none" stroke="black" d="M123.903,-33C123.903,-33 304.097,-33 304.097,-33 310.097,-33 316.097,-39 316.097,-45 316.097,-45 316.097,-125 316.097,-125 316.097,-131 310.097,-137 304.097,-137 304.097,-137 123.903,-137 123.903,-137 117.903,-137 111.903,-131 111.903,-125 111.903,-125 111.903,-45 111.903,-45 111.903,-39 117.903,-33 123.903,-33"/>
<text text-anchor="middle" x="214" y="-121.8" font-family="Times,serif" font-size="14.00">Pages::MensBasketballController</text>
<polyline fill="none" stroke="black" points="111.903,-115 316.097,-115 "/>
<text text-anchor="start" x="119.903" y="-99.8" font-family="Times,serif" font-size="14.00">testimonials</text>
<polyline fill="none" stroke="black" points="111.903,-93 316.097,-93 "/>
<polyline fill="none" stroke="black" points="111.903,-69 316.097,-69 "/>
<text text-anchor="start" x="119.903" y="-53.8" font-family="Times,serif" font-size="14.00">_layout</text>
<text text-anchor="start" x="119.903" y="-39.8" font-family="Times,serif" font-size="14.00">set_sport</text>
</g>
<!-- Pages::WomensBasketballController -->
<g id="node16" class="node"><title>Pages::WomensBasketballController</title>
<path fill="none" stroke="black" d="M124.133,111C124.133,111 321.867,111 321.867,111 327.867,111 333.867,105 333.867,99 333.867,99 333.867,19 333.867,19 333.867,13 327.867,7 321.867,7 321.867,7 124.133,7 124.133,7 118.133,7 112.133,13 112.133,19 112.133,19 112.133,99 112.133,99 112.133,105 118.133,111 124.133,111"/>
<text text-anchor="middle" x="223" y="22.2" font-family="Times,serif" font-size="14.00">Pages::WomensBasketballController</text>
<polyline fill="none" stroke="black" points="112.133,29 333.867,29 "/>
<text text-anchor="start" x="120.133" y="44.2" font-family="Times,serif" font-size="14.00">testimonials</text>
<polyline fill="none" stroke="black" points="112.133,51 333.867,51 "/>
<polyline fill="none" stroke="black" points="112.133,75 333.867,75 "/>
<text text-anchor="start" x="120.133" y="90.2" font-family="Times,serif" font-size="14.00">_layout</text>
<text text-anchor="start" x="120.133" y="104.2" font-family="Times,serif" font-size="14.00">set_sport</text>
</g>
<!-- PagesController -->
<g id="node17" class="node"><title>PagesController</title>
<path fill="none" stroke="black" d="M379.896,111C379.896,111 462.104,111 462.104,111 468.104,111 474.104,105 474.104,99 474.104,99 474.104,33 474.104,33 474.104,27 468.104,21 462.104,21 462.104,21 379.896,21 379.896,21 373.896,21 367.896,27 367.896,33 367.896,33 367.896,99 367.896,99 367.896,105 373.896,111 379.896,111"/>
<text text-anchor="middle" x="421" y="36.2" font-family="Times,serif" font-size="14.00">PagesController</text>
<polyline fill="none" stroke="black" points="367.896,43 474.104,43 "/>
<text text-anchor="start" x="375.896" y="58.2" font-family="Times,serif" font-size="14.00">index</text>
<polyline fill="none" stroke="black" points="367.896,65 474.104,65 "/>
<polyline fill="none" stroke="black" points="367.896,89 474.104,89 "/>
<text text-anchor="start" x="375.896" y="104.2" font-family="Times,serif" font-size="14.00">_layout</text>
</g>
<!-- SportsController -->
<g id="node18" class="node"><title>SportsController</title>
<path fill="none" stroke="black" d="M-83.8105,95C-83.8105,95 73.8105,95 73.8105,95 79.8105,95 85.8105,89 85.8105,83 85.8105,83 85.8105,-67 85.8105,-67 85.8105,-73 79.8105,-79 73.8105,-79 73.8105,-79 -83.8105,-79 -83.8105,-79 -89.8105,-79 -95.8105,-73 -95.8105,-67 -95.8105,-67 -95.8105,83 -95.8105,83 -95.8105,89 -89.8105,95 -83.8105,95"/>
<text text-anchor="middle" x="-5" y="-63.8" font-family="Times,serif" font-size="14.00">SportsController</text>
<polyline fill="none" stroke="black" points="-95.8105,-57 85.8105,-57 "/>
<text text-anchor="start" x="-87.8105" y="-41.8" font-family="Times,serif" font-size="14.00">mens_basketball_featured</text>
<text text-anchor="start" x="-87.8105" y="-27.8" font-family="Times,serif" font-size="14.00">football_featured</text>
<text text-anchor="start" x="-87.8105" y="-13.8" font-family="Times,serif" font-size="14.00">mens_basketball</text>
<text text-anchor="start" x="-87.8105" y="0.2" font-family="Times,serif" font-size="14.00">football</text>
<text text-anchor="start" x="-87.8105" y="14.2" font-family="Times,serif" font-size="14.00">womens_basketball_featured</text>
<text text-anchor="start" x="-87.8105" y="28.2" font-family="Times,serif" font-size="14.00">womens_basketball_overseas</text>
<text text-anchor="start" x="-87.8105" y="42.2" font-family="Times,serif" font-size="14.00">womens_basketball_wnba</text>
<polyline fill="none" stroke="black" points="-95.8105,49 85.8105,49 "/>
<polyline fill="none" stroke="black" points="-95.8105,73 85.8105,73 "/>
<text text-anchor="start" x="-87.8105" y="88.2" font-family="Times,serif" font-size="14.00">_layout</text>
</g>
<!-- TeamMembersController -->
<g id="node19" class="node"><title>TeamMembersController</title>
<path fill="none" stroke="black" d="M188.344,367C188.344,367 321.656,367 321.656,367 327.656,367 333.656,361 333.656,355 333.656,355 333.656,289 333.656,289 333.656,283 327.656,277 321.656,277 321.656,277 188.344,277 188.344,277 182.344,277 176.344,283 176.344,289 176.344,289 176.344,355 176.344,355 176.344,361 182.344,367 188.344,367"/>
<text text-anchor="middle" x="255" y="292.2" font-family="Times,serif" font-size="14.00">TeamMembersController</text>
<polyline fill="none" stroke="black" points="176.344,299 333.656,299 "/>
<text text-anchor="start" x="184.344" y="314.2" font-family="Times,serif" font-size="14.00">find_sport</text>
<polyline fill="none" stroke="black" points="176.344,321 333.656,321 "/>
<polyline fill="none" stroke="black" points="176.344,345 333.656,345 "/>
<text text-anchor="start" x="184.344" y="360.2" font-family="Times,serif" font-size="14.00">_layout</text>
</g>
<!-- TestimonialsController -->
<g id="node20" class="node"><title>TestimonialsController</title>
<path fill="none" stroke="black" d="M363.554,-33C363.554,-33 484.446,-33 484.446,-33 490.446,-33 496.446,-39 496.446,-45 496.446,-45 496.446,-111 496.446,-111 496.446,-117 490.446,-123 484.446,-123 484.446,-123 363.554,-123 363.554,-123 357.554,-123 351.554,-117 351.554,-111 351.554,-111 351.554,-45 351.554,-45 351.554,-39 357.554,-33 363.554,-33"/>
<text text-anchor="middle" x="424" y="-107.8" font-family="Times,serif" font-size="14.00">TestimonialsController</text>
<polyline fill="none" stroke="black" points="351.554,-101 496.446,-101 "/>
<text text-anchor="start" x="359.554" y="-85.8" font-family="Times,serif" font-size="14.00">index</text>
<polyline fill="none" stroke="black" points="351.554,-79 496.446,-79 "/>
<polyline fill="none" stroke="black" points="351.554,-55 496.446,-55 "/>
<text text-anchor="start" x="359.554" y="-39.8" font-family="Times,serif" font-size="14.00">_layout</text>
</g>
</g>
</svg>
