<?xml version="1.0" encoding="UTF-8" standalone="no"?>
<!DOCTYPE svg PUBLIC "-//W3C//DTD SVG 1.1//EN"
 "http://www.w3.org/Graphics/SVG/1.1/DTD/svg11.dtd">
<!-- Generated by graphviz version 2.38.0 (20140413.2041)
 -->
<!-- Title: controllers_diagram Pages: 1 -->
<svg width="478pt" height="505pt"
 viewBox="0.00 0.00 477.97 505.00" xmlns="http://www.w3.org/2000/svg" xmlns:xlink="http://www.w3.org/1999/xlink">
<g id="graph0" class="graph" transform="scale(1 1) rotate(0) translate(171.873 333.5)">
<title>controllers_diagram</title>
<polygon fill="none" stroke="none" points="-171.873,171.5 -171.873,-333.5 306.1,-333.5 306.1,171.5 -171.873,171.5"/>
<!-- _diagram_info -->
<g id="node1" class="node"><title>_diagram_info</title>
<text text-anchor="start" x="-104.45" y="-17.1" font-family="Times,serif" font-size="13.00">Controllers diagram</text>
<text text-anchor="start" x="-104.45" y="-4.1" font-family="Times,serif" font-size="13.00">Date: Jun 03 2016 &#45; 17:14</text>
<text text-anchor="start" x="-104.45" y="8.9" font-family="Times,serif" font-size="13.00">Migration version: 20160603202311</text>
<text text-anchor="start" x="-104.45" y="21.9" font-family="Times,serif" font-size="13.00">Generated by RailRoady 1.4.2</text>
<text text-anchor="start" x="-104.45" y="34.9" font-family="Times,serif" font-size="13.00">http://railroady.prestonlee.com</text>
</g>
<!-- ApplicationController -->
<g id="node2" class="node"><title>ApplicationController</title>
<path fill="none" stroke="black" d="M-99.8208,-113C-99.8208,-113 15.8208,-113 15.8208,-113 21.8208,-113 27.8208,-119 27.8208,-125 27.8208,-125 27.8208,-193 27.8208,-193 27.8208,-199 21.8208,-205 15.8208,-205 15.8208,-205 -99.8208,-205 -99.8208,-205 -105.821,-205 -111.821,-199 -111.821,-193 -111.821,-193 -111.821,-125 -111.821,-125 -111.821,-119 -105.821,-113 -99.8208,-113"/>
<text text-anchor="middle" x="-42" y="-189.8" font-family="Times,serif" font-size="14.00">ApplicationController</text>
<polyline fill="none" stroke="black" points="-111.821,-183 27.8208,-183 "/>
<polyline fill="none" stroke="black" points="-111.821,-159 27.8208,-159 "/>
<polyline fill="none" stroke="black" points="-111.821,-135 27.8208,-135 "/>
<text text-anchor="start" x="-103.821" y="-119.8" font-family="Times,serif" font-size="14.00">_layout</text>
</g>
<!-- AthletesController -->
<g id="node3" class="node"><title>AthletesController</title>
<path fill="none" stroke="black" d="M193.9,-183C193.9,-183 290.1,-183 290.1,-183 296.1,-183 302.1,-189 302.1,-195 302.1,-195 302.1,-263 302.1,-263 302.1,-269 296.1,-275 290.1,-275 290.1,-275 193.9,-275 193.9,-275 187.9,-275 181.9,-269 181.9,-263 181.9,-263 181.9,-195 181.9,-195 181.9,-189 187.9,-183 193.9,-183"/>
<text text-anchor="middle" x="242" y="-259.8" font-family="Times,serif" font-size="14.00">AthletesController</text>
<polyline fill="none" stroke="black" points="181.9,-253 302.1,-253 "/>
<polyline fill="none" stroke="black" points="181.9,-229 302.1,-229 "/>
<polyline fill="none" stroke="black" points="181.9,-205 302.1,-205 "/>
<text text-anchor="start" x="189.9" y="-189.8" font-family="Times,serif" font-size="14.00">_layout</text>
</g>
<!-- FeaturedPhotosController -->
<g id="node4" class="node"><title>FeaturedPhotosController</title>
<path fill="none" stroke="black" d="M67.6758,-57C67.6758,-57 204.324,-57 204.324,-57 210.324,-57 216.324,-63 216.324,-69 216.324,-69 216.324,-137 216.324,-137 216.324,-143 210.324,-149 204.324,-149 204.324,-149 67.6758,-149 67.6758,-149 61.6758,-149 55.6758,-143 55.6758,-137 55.6758,-137 55.6758,-69 55.6758,-69 55.6758,-63 61.6758,-57 67.6758,-57"/>
<text text-anchor="middle" x="136" y="-133.8" font-family="Times,serif" font-size="14.00">FeaturedPhotosController</text>
<polyline fill="none" stroke="black" points="55.6758,-127 216.324,-127 "/>
<polyline fill="none" stroke="black" points="55.6758,-103 216.324,-103 "/>
<polyline fill="none" stroke="black" points="55.6758,-79 216.324,-79 "/>
<text text-anchor="start" x="63.6758" y="-63.8" font-family="Times,serif" font-size="14.00">_layout</text>
</g>
<!-- NewsArticlesController -->
<g id="node5" class="node"><title>NewsArticlesController</title>
<path fill="none" stroke="black" d="M-155.873,167C-155.873,167 -30.1274,167 -30.1274,167 -24.1274,167 -18.1274,161 -18.1274,155 -18.1274,155 -18.1274,87 -18.1274,87 -18.1274,81 -24.1274,75 -30.1274,75 -30.1274,75 -155.873,75 -155.873,75 -161.873,75 -167.873,81 -167.873,87 -167.873,87 -167.873,155 -167.873,155 -167.873,161 -161.873,167 -155.873,167"/>
<text text-anchor="middle" x="-93" y="90.2" font-family="Times,serif" font-size="14.00">NewsArticlesController</text>
<polyline fill="none" stroke="black" points="-167.873,97 -18.1274,97 "/>
<polyline fill="none" stroke="black" points="-167.873,121 -18.1274,121 "/>
<polyline fill="none" stroke="black" points="-167.873,145 -18.1274,145 "/>
<text text-anchor="start" x="-159.873" y="160.2" font-family="Times,serif" font-size="14.00">_layout</text>
</g>
<!-- SportsController -->
<g id="node6" class="node"><title>SportsController</title>
<path fill="none" stroke="black" d="M54.3345,-239C54.3345,-239 139.666,-239 139.666,-239 145.666,-239 151.666,-245 151.666,-251 151.666,-251 151.666,-317 151.666,-317 151.666,-323 145.666,-329 139.666,-329 139.666,-329 54.3345,-329 54.3345,-329 48.3345,-329 42.3345,-323 42.3345,-317 42.3345,-317 42.3345,-251 42.3345,-251 42.3345,-245 48.3345,-239 54.3345,-239"/>
<text text-anchor="middle" x="97" y="-313.8" font-family="Times,serif" font-size="14.00">SportsController</text>
<polyline fill="none" stroke="black" points="42.3345,-307 151.666,-307 "/>
<text text-anchor="start" x="50.3345" y="-291.8" font-family="Times,serif" font-size="14.00">football</text>
<polyline fill="none" stroke="black" points="42.3345,-285 151.666,-285 "/>
<polyline fill="none" stroke="black" points="42.3345,-261 151.666,-261 "/>
<text text-anchor="start" x="50.3345" y="-245.8" font-family="Times,serif" font-size="14.00">_layout</text>
</g>
<!-- TeamMembersController -->
<g id="node7" class="node"><title>TeamMembersController</title>
<path fill="none" stroke="black" d="M138.344,125C138.344,125 271.656,125 271.656,125 277.656,125 283.656,119 283.656,113 283.656,113 283.656,45 283.656,45 283.656,39 277.656,33 271.656,33 271.656,33 138.344,33 138.344,33 132.344,33 126.344,39 126.344,45 126.344,45 126.344,113 126.344,113 126.344,119 132.344,125 138.344,125"/>
<text text-anchor="middle" x="205" y="48.2" font-family="Times,serif" font-size="14.00">TeamMembersController</text>
<polyline fill="none" stroke="black" points="126.344,55 283.656,55 "/>
<polyline fill="none" stroke="black" points="126.344,79 283.656,79 "/>
<polyline fill="none" stroke="black" points="126.344,103 283.656,103 "/>
<text text-anchor="start" x="134.344" y="118.2" font-family="Times,serif" font-size="14.00">_layout</text>
</g>
</g>
</svg>
