<?xml version="1.0" encoding="UTF-8" standalone="no"?>
<!DOCTYPE svg PUBLIC "-//W3C//DTD SVG 1.1//EN"
 "http://www.w3.org/Graphics/SVG/1.1/DTD/svg11.dtd">
<!-- Generated by graphviz version 2.38.0 (20140413.2041)
 -->
<!-- Title: controllers_diagram Pages: 1 -->
<svg width="355pt" height="325pt"
 viewBox="0.00 0.00 355.35 325.00" xmlns="http://www.w3.org/2000/svg" xmlns:xlink="http://www.w3.org/1999/xlink">
<g id="graph0" class="graph" transform="scale(1 1) rotate(0) translate(115.688 195.5)">
<title>controllers_diagram</title>
<polygon fill="none" stroke="none" points="-115.688,129.5 -115.688,-195.5 239.666,-195.5 239.666,129.5 -115.688,129.5"/>
<!-- _diagram_info -->
<g id="node1" class="node"><title>_diagram_info</title>
<text text-anchor="start" x="-103.688" y="-17.1" font-family="Times,serif" font-size="13.00">Controllers diagram</text>
<text text-anchor="start" x="-103.688" y="-4.1" font-family="Times,serif" font-size="13.00">Date: Jun 03 2016 &#45; 10:57</text>
<text text-anchor="start" x="-103.688" y="8.9" font-family="Times,serif" font-size="13.00">Migration version: 20160603143557</text>
<text text-anchor="start" x="-103.688" y="21.9" font-family="Times,serif" font-size="13.00">Generated by RailRoady 1.4.2</text>
<text text-anchor="start" x="-103.688" y="34.9" font-family="Times,serif" font-size="13.00">http://railroady.prestonlee.com</text>
</g>
<!-- ApplicationController -->
<g id="node2" class="node"><title>ApplicationController</title>
<path fill="none" stroke="black" d="M68.1792,-57C68.1792,-57 183.821,-57 183.821,-57 189.821,-57 195.821,-63 195.821,-69 195.821,-69 195.821,-137 195.821,-137 195.821,-143 189.821,-149 183.821,-149 183.821,-149 68.1792,-149 68.1792,-149 62.1792,-149 56.1792,-143 56.1792,-137 56.1792,-137 56.1792,-69 56.1792,-69 56.1792,-63 62.1792,-57 68.1792,-57"/>
<text text-anchor="middle" x="126" y="-133.8" font-family="Times,serif" font-size="14.00">ApplicationController</text>
<polyline fill="none" stroke="black" points="56.1792,-127 195.821,-127 "/>
<polyline fill="none" stroke="black" points="56.1792,-103 195.821,-103 "/>
<polyline fill="none" stroke="black" points="56.1792,-79 195.821,-79 "/>
<text text-anchor="start" x="64.1792" y="-63.8" font-family="Times,serif" font-size="14.00">_layout</text>
</g>
<!-- AthletesController -->
<g id="node3" class="node"><title>AthletesController</title>
<path fill="none" stroke="black" d="M-86.1001,-99C-86.1001,-99 10.1001,-99 10.1001,-99 16.1001,-99 22.1001,-105 22.1001,-111 22.1001,-111 22.1001,-179 22.1001,-179 22.1001,-185 16.1001,-191 10.1001,-191 10.1001,-191 -86.1001,-191 -86.1001,-191 -92.1001,-191 -98.1001,-185 -98.1001,-179 -98.1001,-179 -98.1001,-111 -98.1001,-111 -98.1001,-105 -92.1001,-99 -86.1001,-99"/>
<text text-anchor="middle" x="-38" y="-175.8" font-family="Times,serif" font-size="14.00">AthletesController</text>
<polyline fill="none" stroke="black" points="-98.1001,-169 22.1001,-169 "/>
<polyline fill="none" stroke="black" points="-98.1001,-145 22.1001,-145 "/>
<polyline fill="none" stroke="black" points="-98.1001,-121 22.1001,-121 "/>
<text text-anchor="start" x="-90.1001" y="-105.8" font-family="Times,serif" font-size="14.00">_layout</text>
</g>
<!-- SportsController -->
<g id="node4" class="node"><title>SportsController</title>
<path fill="none" stroke="black" d="M138.334,125C138.334,125 223.666,125 223.666,125 229.666,125 235.666,119 235.666,113 235.666,113 235.666,47 235.666,47 235.666,41 229.666,35 223.666,35 223.666,35 138.334,35 138.334,35 132.334,35 126.334,41 126.334,47 126.334,47 126.334,113 126.334,113 126.334,119 132.334,125 138.334,125"/>
<text text-anchor="middle" x="181" y="50.2" font-family="Times,serif" font-size="14.00">SportsController</text>
<polyline fill="none" stroke="black" points="126.334,57 235.666,57 "/>
<text text-anchor="start" x="134.334" y="72.2" font-family="Times,serif" font-size="14.00">football</text>
<polyline fill="none" stroke="black" points="126.334,79 235.666,79 "/>
<polyline fill="none" stroke="black" points="126.334,103 235.666,103 "/>
<text text-anchor="start" x="134.334" y="118.2" font-family="Times,serif" font-size="14.00">_layout</text>
</g>
</g>
</svg>
