<?xml version="1.0" encoding="UTF-8" standalone="no"?>
<!DOCTYPE svg PUBLIC "-//W3C//DTD SVG 1.1//EN"
 "http://www.w3.org/Graphics/SVG/1.1/DTD/svg11.dtd">
<!-- Generated by graphviz version 2.38.0 (20140413.2041)
 -->
<!-- Title: models_diagram Pages: 1 -->
<svg width="1350pt" height="747pt"
 viewBox="0.00 0.00 1349.55 747.00" xmlns="http://www.w3.org/2000/svg" xmlns:xlink="http://www.w3.org/1999/xlink">
<g id="graph0" class="graph" transform="scale(1 1) rotate(0) translate(4 743)">
<title>models_diagram</title>
<polygon fill="none" stroke="none" points="-4,4 -4,-743 1345.55,-743 1345.55,4 -4,4"/>
<!-- _diagram_info -->
<g id="node1" class="node"><title>_diagram_info</title>
<text text-anchor="start" x="8" y="-654.6" font-family="Times,serif" font-size="13.00">Models diagram</text>
<text text-anchor="start" x="8" y="-641.6" font-family="Times,serif" font-size="13.00">Date: Jul 15 2016 &#45; 12:04</text>
<text text-anchor="start" x="8" y="-628.6" font-family="Times,serif" font-size="13.00">Migration version: 20160715160301</text>
<text text-anchor="start" x="8" y="-615.6" font-family="Times,serif" font-size="13.00">Generated by RailRoady 1.4.2</text>
<text text-anchor="start" x="8" y="-602.6" font-family="Times,serif" font-size="13.00">http://railroady.prestonlee.com</text>
</g>
<!-- AdminUser -->
<g id="node2" class="node"><title>AdminUser</title>
<path fill="none" stroke="black" d="M237.053,-526.5C237.053,-526.5 532.323,-526.5 532.323,-526.5 538.323,-526.5 544.323,-532.5 544.323,-538.5 544.323,-538.5 544.323,-726.5 544.323,-726.5 544.323,-732.5 538.323,-738.5 532.323,-738.5 532.323,-738.5 237.053,-738.5 237.053,-738.5 231.053,-738.5 225.053,-732.5 225.053,-726.5 225.053,-726.5 225.053,-538.5 225.053,-538.5 225.053,-532.5 231.053,-526.5 237.053,-526.5"/>
<text text-anchor="middle" x="384.688" y="-723.3" font-family="Times,serif" font-size="14.00">AdminUser</text>
<polyline fill="none" stroke="black" points="225.053,-716.5 544.323,-716.5 "/>
<text text-anchor="start" x="233.053" y="-701.3" font-family="Times,serif" font-size="14.00">updated_at :timestamp without time zone</text>
<text text-anchor="start" x="233.053" y="-687.3" font-family="Times,serif" font-size="14.00">email :character varying</text>
<text text-anchor="start" x="233.053" y="-673.3" font-family="Times,serif" font-size="14.00">encrypted_password :character varying</text>
<text text-anchor="start" x="233.053" y="-659.3" font-family="Times,serif" font-size="14.00">reset_password_token :character varying</text>
<text text-anchor="start" x="233.053" y="-645.3" font-family="Times,serif" font-size="14.00">reset_password_sent_at :timestamp without time zone</text>
<text text-anchor="start" x="233.053" y="-631.3" font-family="Times,serif" font-size="14.00">remember_created_at :timestamp without time zone</text>
<text text-anchor="start" x="233.053" y="-617.3" font-family="Times,serif" font-size="14.00">sign_in_count :integer</text>
<text text-anchor="start" x="233.053" y="-603.3" font-family="Times,serif" font-size="14.00">current_sign_in_at :timestamp without time zone</text>
<text text-anchor="start" x="233.053" y="-589.3" font-family="Times,serif" font-size="14.00">last_sign_in_at :timestamp without time zone</text>
<text text-anchor="start" x="233.053" y="-575.3" font-family="Times,serif" font-size="14.00">current_sign_in_ip :inet</text>
<text text-anchor="start" x="233.053" y="-561.3" font-family="Times,serif" font-size="14.00">last_sign_in_ip :inet</text>
<text text-anchor="start" x="233.053" y="-547.3" font-family="Times,serif" font-size="14.00">created_at :timestamp without time zone</text>
<text text-anchor="start" x="233.053" y="-533.3" font-family="Times,serif" font-size="14.00">id :integer</text>
</g>
<!-- Athlete -->
<g id="node3" class="node"><title>Athlete</title>
<path fill="none" stroke="black" d="M269.381,-179.5C269.381,-179.5 531.995,-179.5 531.995,-179.5 537.995,-179.5 543.995,-185.5 543.995,-191.5 543.995,-191.5 543.995,-477.5 543.995,-477.5 543.995,-483.5 537.995,-489.5 531.995,-489.5 531.995,-489.5 269.381,-489.5 269.381,-489.5 263.381,-489.5 257.381,-483.5 257.381,-477.5 257.381,-477.5 257.381,-191.5 257.381,-191.5 257.381,-185.5 263.381,-179.5 269.381,-179.5"/>
<text text-anchor="middle" x="400.688" y="-474.3" font-family="Times,serif" font-size="14.00">Athlete</text>
<polyline fill="none" stroke="black" points="257.381,-467.5 543.995,-467.5 "/>
<text text-anchor="start" x="265.381" y="-452.3" font-family="Times,serif" font-size="14.00">photo_updated_at :timestamp without time zone</text>
<text text-anchor="start" x="265.381" y="-438.3" font-family="Times,serif" font-size="14.00">created_at :timestamp without time zone</text>
<text text-anchor="start" x="265.381" y="-424.3" font-family="Times,serif" font-size="14.00">updated_at :timestamp without time zone</text>
<text text-anchor="start" x="265.381" y="-410.3" font-family="Times,serif" font-size="14.00">first_name :character varying</text>
<text text-anchor="start" x="265.381" y="-396.3" font-family="Times,serif" font-size="14.00">last_name :character varying</text>
<text text-anchor="start" x="265.381" y="-382.3" font-family="Times,serif" font-size="14.00">position :character varying</text>
<text text-anchor="start" x="265.381" y="-368.3" font-family="Times,serif" font-size="14.00">american_team_url :character varying</text>
<text text-anchor="start" x="265.381" y="-354.3" font-family="Times,serif" font-size="14.00">overseas_team :character varying</text>
<text text-anchor="start" x="265.381" y="-340.3" font-family="Times,serif" font-size="14.00">college :character varying</text>
<text text-anchor="start" x="265.381" y="-326.3" font-family="Times,serif" font-size="14.00">birthdate :date</text>
<text text-anchor="start" x="265.381" y="-312.3" font-family="Times,serif" font-size="14.00">height :character varying</text>
<text text-anchor="start" x="265.381" y="-298.3" font-family="Times,serif" font-size="14.00">weight :character varying</text>
<text text-anchor="start" x="265.381" y="-284.3" font-family="Times,serif" font-size="14.00">website_url :character varying</text>
<text text-anchor="start" x="265.381" y="-270.3" font-family="Times,serif" font-size="14.00">video_url :character varying</text>
<text text-anchor="start" x="265.381" y="-256.3" font-family="Times,serif" font-size="14.00">sport_id :integer</text>
<text text-anchor="start" x="265.381" y="-242.3" font-family="Times,serif" font-size="14.00">american_team_name :character varying</text>
<text text-anchor="start" x="265.381" y="-228.3" font-family="Times,serif" font-size="14.00">photo_file_name :character varying</text>
<text text-anchor="start" x="265.381" y="-214.3" font-family="Times,serif" font-size="14.00">photo_content_type :character varying</text>
<text text-anchor="start" x="265.381" y="-200.3" font-family="Times,serif" font-size="14.00">photo_file_size :integer</text>
<text text-anchor="start" x="265.381" y="-186.3" font-family="Times,serif" font-size="14.00">id :integer</text>
</g>
<!-- NewsArticle -->
<g id="node5" class="node"><title>NewsArticle</title>
<path fill="none" stroke="black" d="M506.825,-0.5C506.825,-0.5 730.55,-0.5 730.55,-0.5 736.55,-0.5 742.55,-6.5 742.55,-12.5 742.55,-12.5 742.55,-130.5 742.55,-130.5 742.55,-136.5 736.55,-142.5 730.55,-142.5 730.55,-142.5 506.825,-142.5 506.825,-142.5 500.825,-142.5 494.825,-136.5 494.825,-130.5 494.825,-130.5 494.825,-12.5 494.825,-12.5 494.825,-6.5 500.825,-0.5 506.825,-0.5"/>
<text text-anchor="middle" x="618.688" y="-127.3" font-family="Times,serif" font-size="14.00">NewsArticle</text>
<polyline fill="none" stroke="black" points="494.825,-120.5 742.55,-120.5 "/>
<text text-anchor="start" x="502.825" y="-105.3" font-family="Times,serif" font-size="14.00">updated_at :timestamp without time zone</text>
<text text-anchor="start" x="502.825" y="-91.3" font-family="Times,serif" font-size="14.00">athlete_id :integer</text>
<text text-anchor="start" x="502.825" y="-77.3" font-family="Times,serif" font-size="14.00">sport_id :integer</text>
<text text-anchor="start" x="502.825" y="-63.3" font-family="Times,serif" font-size="14.00">headline :character varying</text>
<text text-anchor="start" x="502.825" y="-49.3" font-family="Times,serif" font-size="14.00">date_posted :date</text>
<text text-anchor="start" x="502.825" y="-35.3" font-family="Times,serif" font-size="14.00">url :character varying</text>
<text text-anchor="start" x="502.825" y="-21.3" font-family="Times,serif" font-size="14.00">created_at :timestamp without time zone</text>
<text text-anchor="start" x="502.825" y="-7.3" font-family="Times,serif" font-size="14.00">id :integer</text>
</g>
<!-- Athlete&#45;&gt;NewsArticle -->
<g id="edge1" class="edge"><title>Athlete&#45;&gt;NewsArticle</title>
<path fill="none" stroke="#3068a3" d="M534.585,-173.192C541.034,-165.471 547.36,-157.896 553.467,-150.585"/>
<ellipse fill="none" stroke="#3068a3" cx="531.954" cy="-176.342" rx="4.00002" ry="4.00002"/>
<polygon fill="#3068a3" stroke="#3068a3" points="553.592,-150.436 563.456,-145.646 556.797,-146.599 560.002,-142.761 560.002,-142.761 560.002,-142.761 556.797,-146.599 556.549,-139.876 553.592,-150.436 553.592,-150.436"/>
</g>
<!-- FeaturedPhoto -->
<g id="node4" class="node"><title>FeaturedPhoto</title>
<path fill="none" stroke="black" d="M573.825,-270.5C573.825,-270.5 797.55,-270.5 797.55,-270.5 803.55,-270.5 809.55,-276.5 809.55,-282.5 809.55,-282.5 809.55,-386.5 809.55,-386.5 809.55,-392.5 803.55,-398.5 797.55,-398.5 797.55,-398.5 573.825,-398.5 573.825,-398.5 567.825,-398.5 561.825,-392.5 561.825,-386.5 561.825,-386.5 561.825,-282.5 561.825,-282.5 561.825,-276.5 567.825,-270.5 573.825,-270.5"/>
<text text-anchor="middle" x="685.688" y="-383.3" font-family="Times,serif" font-size="14.00">FeaturedPhoto</text>
<polyline fill="none" stroke="black" points="561.825,-376.5 809.55,-376.5 "/>
<text text-anchor="start" x="569.825" y="-361.3" font-family="Times,serif" font-size="14.00">image_url :character varying</text>
<text text-anchor="start" x="569.825" y="-347.3" font-family="Times,serif" font-size="14.00">athlete_id :integer</text>
<text text-anchor="start" x="569.825" y="-333.3" font-family="Times,serif" font-size="14.00">sport_id :integer</text>
<text text-anchor="start" x="569.825" y="-319.3" font-family="Times,serif" font-size="14.00">id :integer</text>
<text text-anchor="start" x="569.825" y="-305.3" font-family="Times,serif" font-size="14.00">display_status :boolean</text>
<text text-anchor="start" x="569.825" y="-291.3" font-family="Times,serif" font-size="14.00">created_at :timestamp without time zone</text>
<text text-anchor="start" x="569.825" y="-277.3" font-family="Times,serif" font-size="14.00">updated_at :timestamp without time zone</text>
</g>
<!-- Sport -->
<g id="node6" class="node"><title>Sport</title>
<path fill="none" stroke="black" d="M573.825,-589.5C573.825,-589.5 797.55,-589.5 797.55,-589.5 803.55,-589.5 809.55,-595.5 809.55,-601.5 809.55,-601.5 809.55,-663.5 809.55,-663.5 809.55,-669.5 803.55,-675.5 797.55,-675.5 797.55,-675.5 573.825,-675.5 573.825,-675.5 567.825,-675.5 561.825,-669.5 561.825,-663.5 561.825,-663.5 561.825,-601.5 561.825,-601.5 561.825,-595.5 567.825,-589.5 573.825,-589.5"/>
<text text-anchor="middle" x="685.688" y="-660.3" font-family="Times,serif" font-size="14.00">Sport</text>
<polyline fill="none" stroke="black" points="561.825,-653.5 809.55,-653.5 "/>
<text text-anchor="start" x="569.825" y="-638.3" font-family="Times,serif" font-size="14.00">id :integer</text>
<text text-anchor="start" x="569.825" y="-624.3" font-family="Times,serif" font-size="14.00">created_at :timestamp without time zone</text>
<text text-anchor="start" x="569.825" y="-610.3" font-family="Times,serif" font-size="14.00">updated_at :timestamp without time zone</text>
<text text-anchor="start" x="569.825" y="-596.3" font-family="Times,serif" font-size="14.00">type_id :integer</text>
</g>
<!-- Sport&#45;&gt;Athlete -->
<g id="edge2" class="edge"><title>Sport&#45;&gt;Athlete</title>
<path fill="none" stroke="#46979a" d="M639.337,-583.36C614.898,-557.978 583.388,-525.252 551.327,-491.954"/>
<ellipse fill="none" stroke="#46979a" cx="642.382" cy="-586.523" rx="4.00002" ry="4.00002"/>
<polygon fill="#46979a" stroke="#46979a" points="550.982,-491.595 547.288,-481.271 547.514,-487.994 544.046,-484.392 544.046,-484.392 544.046,-484.392 547.514,-487.994 540.805,-487.513 550.982,-491.595 550.982,-491.595"/>
</g>
<!-- Sport&#45;&gt;FeaturedPhoto -->
<g id="edge3" class="edge"><title>Sport&#45;&gt;FeaturedPhoto</title>
<path fill="none" stroke="#045d2f" d="M685.688,-581.255C685.688,-533.933 685.688,-462.49 685.688,-408.811"/>
<ellipse fill="none" stroke="#045d2f" cx="685.688" cy="-585.405" rx="4" ry="4"/>
<polygon fill="#045d2f" stroke="#045d2f" points="685.688,-408.665 690.188,-398.665 685.688,-403.665 685.688,-398.665 685.688,-398.665 685.688,-398.665 685.688,-403.665 681.188,-398.665 685.688,-408.665 685.688,-408.665"/>
</g>
<!-- Sport&#45;&gt;NewsArticle -->
<g id="edge4" class="edge"><title>Sport&#45;&gt;NewsArticle</title>
<path fill="none" stroke="#99df51" d="M748.115,-583.881C775.29,-559.199 804.199,-526.571 818.688,-490 869.6,-361.496 889.841,-297.501 818.688,-179 802.95,-152.79 778.336,-132.679 751.686,-117.379"/>
<ellipse fill="none" stroke="#99df51" cx="744.972" cy="-586.682" rx="4.00002" ry="4.00002"/>
<polygon fill="#99df51" stroke="#99df51" points="751.342,-117.19 744.747,-108.429 746.961,-114.781 742.579,-112.373 742.579,-112.373 742.579,-112.373 746.961,-114.781 740.411,-116.316 751.342,-117.19 751.342,-117.19"/>
</g>
<!-- TeamMember -->
<g id="node7" class="node"><title>TeamMember</title>
<path fill="none" stroke="black" d="M839.825,-540.5C839.825,-540.5 1063.55,-540.5 1063.55,-540.5 1069.55,-540.5 1075.55,-546.5 1075.55,-552.5 1075.55,-552.5 1075.55,-712.5 1075.55,-712.5 1075.55,-718.5 1069.55,-724.5 1063.55,-724.5 1063.55,-724.5 839.825,-724.5 839.825,-724.5 833.825,-724.5 827.825,-718.5 827.825,-712.5 827.825,-712.5 827.825,-552.5 827.825,-552.5 827.825,-546.5 833.825,-540.5 839.825,-540.5"/>
<text text-anchor="middle" x="951.688" y="-709.3" font-family="Times,serif" font-size="14.00">TeamMember</text>
<polyline fill="none" stroke="black" points="827.825,-702.5 1075.55,-702.5 "/>
<text text-anchor="start" x="835.825" y="-687.3" font-family="Times,serif" font-size="14.00">updated_at :timestamp without time zone</text>
<text text-anchor="start" x="835.825" y="-673.3" font-family="Times,serif" font-size="14.00">first_name :character varying</text>
<text text-anchor="start" x="835.825" y="-659.3" font-family="Times,serif" font-size="14.00">last_name :character varying</text>
<text text-anchor="start" x="835.825" y="-645.3" font-family="Times,serif" font-size="14.00">position :character varying</text>
<text text-anchor="start" x="835.825" y="-631.3" font-family="Times,serif" font-size="14.00">photo_url :character varying</text>
<text text-anchor="start" x="835.825" y="-617.3" font-family="Times,serif" font-size="14.00">email :character varying</text>
<text text-anchor="start" x="835.825" y="-603.3" font-family="Times,serif" font-size="14.00">twitter_url :character varying</text>
<text text-anchor="start" x="835.825" y="-589.3" font-family="Times,serif" font-size="14.00">facebook_url :character varying</text>
<text text-anchor="start" x="835.825" y="-575.3" font-family="Times,serif" font-size="14.00">description :text</text>
<text text-anchor="start" x="835.825" y="-561.3" font-family="Times,serif" font-size="14.00">created_at :timestamp without time zone</text>
<text text-anchor="start" x="835.825" y="-547.3" font-family="Times,serif" font-size="14.00">id :integer</text>
</g>
<!-- Testimonial -->
<g id="node8" class="node"><title>Testimonial</title>
<path fill="none" stroke="black" d="M1105.83,-568.5C1105.83,-568.5 1329.55,-568.5 1329.55,-568.5 1335.55,-568.5 1341.55,-574.5 1341.55,-580.5 1341.55,-580.5 1341.55,-684.5 1341.55,-684.5 1341.55,-690.5 1335.55,-696.5 1329.55,-696.5 1329.55,-696.5 1105.83,-696.5 1105.83,-696.5 1099.83,-696.5 1093.83,-690.5 1093.83,-684.5 1093.83,-684.5 1093.83,-580.5 1093.83,-580.5 1093.83,-574.5 1099.83,-568.5 1105.83,-568.5"/>
<text text-anchor="middle" x="1217.69" y="-681.3" font-family="Times,serif" font-size="14.00">Testimonial</text>
<polyline fill="none" stroke="black" points="1093.83,-674.5 1341.55,-674.5 "/>
<text text-anchor="start" x="1101.83" y="-659.3" font-family="Times,serif" font-size="14.00">quote :text</text>
<text text-anchor="start" x="1101.83" y="-645.3" font-family="Times,serif" font-size="14.00">name :character varying</text>
<text text-anchor="start" x="1101.83" y="-631.3" font-family="Times,serif" font-size="14.00">title :character varying</text>
<text text-anchor="start" x="1101.83" y="-617.3" font-family="Times,serif" font-size="14.00">id :integer</text>
<text text-anchor="start" x="1101.83" y="-603.3" font-family="Times,serif" font-size="14.00">created_at :timestamp without time zone</text>
<text text-anchor="start" x="1101.83" y="-589.3" font-family="Times,serif" font-size="14.00">updated_at :timestamp without time zone</text>
<text text-anchor="start" x="1101.83" y="-575.3" font-family="Times,serif" font-size="14.00">photo_url :character varying</text>
</g>
</g>
</svg>
