<?xml version="1.0" encoding="UTF-8" standalone="no"?>
<!DOCTYPE svg PUBLIC "-//W3C//DTD SVG 1.1//EN"
 "http://www.w3.org/Graphics/SVG/1.1/DTD/svg11.dtd">
<!-- Generated by graphviz version 2.38.0 (20140413.2041)
 -->
<!-- Title: models_diagram Pages: 1 -->
<svg width="940pt" height="607pt"
 viewBox="0.00 0.00 939.72 607.00" xmlns="http://www.w3.org/2000/svg" xmlns:xlink="http://www.w3.org/1999/xlink">
<g id="graph0" class="graph" transform="scale(1 1) rotate(0) translate(4 603)">
<title>models_diagram</title>
<polygon fill="none" stroke="none" points="-4,4 -4,-603 935.725,-603 935.725,4 -4,4"/>
<!-- _diagram_info -->
<g id="node1" class="node"><title>_diagram_info</title>
<text text-anchor="start" x="200.175" y="-563.6" font-family="Times,serif" font-size="13.00">Models diagram</text>
<text text-anchor="start" x="200.175" y="-550.6" font-family="Times,serif" font-size="13.00">Date: Jun 05 2016 &#45; 13:05</text>
<text text-anchor="start" x="200.175" y="-537.6" font-family="Times,serif" font-size="13.00">Migration version: 20160605170029</text>
<text text-anchor="start" x="200.175" y="-524.6" font-family="Times,serif" font-size="13.00">Generated by RailRoady 1.4.2</text>
<text text-anchor="start" x="200.175" y="-511.6" font-family="Times,serif" font-size="13.00">http://railroady.prestonlee.com</text>
</g>
<!-- Athlete -->
<g id="node2" class="node"><title>Athlete</title>
<path fill="none" stroke="black" d="M12,-179.5C12,-179.5 235.725,-179.5 235.725,-179.5 241.725,-179.5 247.725,-185.5 247.725,-191.5 247.725,-191.5 247.725,-435.5 247.725,-435.5 247.725,-441.5 241.725,-447.5 235.725,-447.5 235.725,-447.5 12,-447.5 12,-447.5 6,-447.5 0,-441.5 0,-435.5 0,-435.5 0,-191.5 0,-191.5 0,-185.5 6,-179.5 12,-179.5"/>
<text text-anchor="middle" x="123.862" y="-432.3" font-family="Times,serif" font-size="14.00">Athlete</text>
<polyline fill="none" stroke="black" points="0,-425.5 247.725,-425.5 "/>
<text text-anchor="start" x="8" y="-410.3" font-family="Times,serif" font-size="14.00">american_team_name :character varying</text>
<text text-anchor="start" x="8" y="-396.3" font-family="Times,serif" font-size="14.00">created_at :timestamp without time zone</text>
<text text-anchor="start" x="8" y="-382.3" font-family="Times,serif" font-size="14.00">updated_at :timestamp without time zone</text>
<text text-anchor="start" x="8" y="-368.3" font-family="Times,serif" font-size="14.00">first_name :character varying</text>
<text text-anchor="start" x="8" y="-354.3" font-family="Times,serif" font-size="14.00">last_name :character varying</text>
<text text-anchor="start" x="8" y="-340.3" font-family="Times,serif" font-size="14.00">photo_url :character varying</text>
<text text-anchor="start" x="8" y="-326.3" font-family="Times,serif" font-size="14.00">position :character varying</text>
<text text-anchor="start" x="8" y="-312.3" font-family="Times,serif" font-size="14.00">american_team_url :character varying</text>
<text text-anchor="start" x="8" y="-298.3" font-family="Times,serif" font-size="14.00">overseas_team :character varying</text>
<text text-anchor="start" x="8" y="-284.3" font-family="Times,serif" font-size="14.00">college :character varying</text>
<text text-anchor="start" x="8" y="-270.3" font-family="Times,serif" font-size="14.00">birthdate :date</text>
<text text-anchor="start" x="8" y="-256.3" font-family="Times,serif" font-size="14.00">height :character varying</text>
<text text-anchor="start" x="8" y="-242.3" font-family="Times,serif" font-size="14.00">weight :character varying</text>
<text text-anchor="start" x="8" y="-228.3" font-family="Times,serif" font-size="14.00">website_url :character varying</text>
<text text-anchor="start" x="8" y="-214.3" font-family="Times,serif" font-size="14.00">video_url :character varying</text>
<text text-anchor="start" x="8" y="-200.3" font-family="Times,serif" font-size="14.00">sport_id :integer</text>
<text text-anchor="start" x="8" y="-186.3" font-family="Times,serif" font-size="14.00">id :integer</text>
</g>
<!-- NewsArticle -->
<g id="node4" class="node"><title>NewsArticle</title>
<path fill="none" stroke="black" d="M221,-0.5C221,-0.5 444.725,-0.5 444.725,-0.5 450.725,-0.5 456.725,-6.5 456.725,-12.5 456.725,-12.5 456.725,-130.5 456.725,-130.5 456.725,-136.5 450.725,-142.5 444.725,-142.5 444.725,-142.5 221,-142.5 221,-142.5 215,-142.5 209,-136.5 209,-130.5 209,-130.5 209,-12.5 209,-12.5 209,-6.5 215,-0.5 221,-0.5"/>
<text text-anchor="middle" x="332.862" y="-127.3" font-family="Times,serif" font-size="14.00">NewsArticle</text>
<polyline fill="none" stroke="black" points="209,-120.5 456.725,-120.5 "/>
<text text-anchor="start" x="217" y="-105.3" font-family="Times,serif" font-size="14.00">updated_at :timestamp without time zone</text>
<text text-anchor="start" x="217" y="-91.3" font-family="Times,serif" font-size="14.00">athlete_id :integer</text>
<text text-anchor="start" x="217" y="-77.3" font-family="Times,serif" font-size="14.00">sport_id :integer</text>
<text text-anchor="start" x="217" y="-63.3" font-family="Times,serif" font-size="14.00">headline :character varying</text>
<text text-anchor="start" x="217" y="-49.3" font-family="Times,serif" font-size="14.00">date_posted :date</text>
<text text-anchor="start" x="217" y="-35.3" font-family="Times,serif" font-size="14.00">url :character varying</text>
<text text-anchor="start" x="217" y="-21.3" font-family="Times,serif" font-size="14.00">created_at :timestamp without time zone</text>
<text text-anchor="start" x="217" y="-7.3" font-family="Times,serif" font-size="14.00">id :integer</text>
</g>
<!-- Athlete&#45;&gt;NewsArticle -->
<g id="edge1" class="edge"><title>Athlete&#45;&gt;NewsArticle</title>
<path fill="none" stroke="#bfc703" d="M245.323,-173.023C251.972,-165.389 258.526,-157.862 264.875,-150.572"/>
<ellipse fill="none" stroke="#bfc703" cx="242.602" cy="-176.149" rx="4.00002" ry="4.00002"/>
<polygon fill="#bfc703" stroke="#bfc703" points="265.11,-150.301 275.071,-145.715 268.394,-146.531 271.678,-142.76 271.678,-142.76 271.678,-142.76 268.394,-146.531 268.284,-139.805 265.11,-150.301 265.11,-150.301"/>
</g>
<!-- FeaturedPhoto -->
<g id="node3" class="node"><title>FeaturedPhoto</title>
<path fill="none" stroke="black" d="M278,-249.5C278,-249.5 501.725,-249.5 501.725,-249.5 507.725,-249.5 513.725,-255.5 513.725,-261.5 513.725,-261.5 513.725,-365.5 513.725,-365.5 513.725,-371.5 507.725,-377.5 501.725,-377.5 501.725,-377.5 278,-377.5 278,-377.5 272,-377.5 266,-371.5 266,-365.5 266,-365.5 266,-261.5 266,-261.5 266,-255.5 272,-249.5 278,-249.5"/>
<text text-anchor="middle" x="389.862" y="-362.3" font-family="Times,serif" font-size="14.00">FeaturedPhoto</text>
<polyline fill="none" stroke="black" points="266,-355.5 513.725,-355.5 "/>
<text text-anchor="start" x="274" y="-340.3" font-family="Times,serif" font-size="14.00">image_url :character varying</text>
<text text-anchor="start" x="274" y="-326.3" font-family="Times,serif" font-size="14.00">athlete_id :integer</text>
<text text-anchor="start" x="274" y="-312.3" font-family="Times,serif" font-size="14.00">sport_id :integer</text>
<text text-anchor="start" x="274" y="-298.3" font-family="Times,serif" font-size="14.00">id :integer</text>
<text text-anchor="start" x="274" y="-284.3" font-family="Times,serif" font-size="14.00">display_status :boolean</text>
<text text-anchor="start" x="274" y="-270.3" font-family="Times,serif" font-size="14.00">created_at :timestamp without time zone</text>
<text text-anchor="start" x="274" y="-256.3" font-family="Times,serif" font-size="14.00">updated_at :timestamp without time zone</text>
</g>
<!-- Sport -->
<g id="node5" class="node"><title>Sport</title>
<path fill="none" stroke="black" d="M430,-498.5C430,-498.5 653.725,-498.5 653.725,-498.5 659.725,-498.5 665.725,-504.5 665.725,-510.5 665.725,-510.5 665.725,-572.5 665.725,-572.5 665.725,-578.5 659.725,-584.5 653.725,-584.5 653.725,-584.5 430,-584.5 430,-584.5 424,-584.5 418,-578.5 418,-572.5 418,-572.5 418,-510.5 418,-510.5 418,-504.5 424,-498.5 430,-498.5"/>
<text text-anchor="middle" x="541.862" y="-569.3" font-family="Times,serif" font-size="14.00">Sport</text>
<polyline fill="none" stroke="black" points="418,-562.5 665.725,-562.5 "/>
<text text-anchor="start" x="426" y="-547.3" font-family="Times,serif" font-size="14.00">id :integer</text>
<text text-anchor="start" x="426" y="-533.3" font-family="Times,serif" font-size="14.00">created_at :timestamp without time zone</text>
<text text-anchor="start" x="426" y="-519.3" font-family="Times,serif" font-size="14.00">updated_at :timestamp without time zone</text>
<text text-anchor="start" x="426" y="-505.3" font-family="Times,serif" font-size="14.00">type_id :integer</text>
</g>
<!-- Sport&#45;&gt;Athlete -->
<g id="edge2" class="edge"><title>Sport&#45;&gt;Athlete</title>
<path fill="none" stroke="#6fc846" d="M440.477,-495.361C429.893,-491.273 419.22,-487.4 408.862,-484 342.9,-462.35 317.455,-481.886 256.862,-448 256.769,-447.948 256.675,-447.895 256.581,-447.843"/>
<ellipse fill="none" stroke="#6fc846" cx="444.437" cy="-496.913" rx="4.00001" ry="4.00001"/>
<polygon fill="#6fc846" stroke="#6fc846" points="256.54,-447.818 250.232,-438.848 252.239,-445.268 247.938,-442.719 247.938,-442.719 247.938,-442.719 252.239,-445.268 245.643,-446.59 256.54,-447.818 256.54,-447.818"/>
</g>
<!-- Sport&#45;&gt;FeaturedPhoto -->
<g id="edge3" class="edge"><title>Sport&#45;&gt;FeaturedPhoto</title>
<path fill="none" stroke="#dfd776" d="M508.793,-491.331C488.166,-460.662 461.26,-420.657 438.258,-386.457"/>
<ellipse fill="none" stroke="#dfd776" cx="511.218" cy="-494.937" rx="4.00002" ry="4.00002"/>
<polygon fill="#dfd776" stroke="#dfd776" points="438.082,-386.195 436.235,-375.385 435.291,-382.046 432.501,-377.897 432.501,-377.897 432.501,-377.897 435.291,-382.046 428.767,-380.408 438.082,-386.195 438.082,-386.195"/>
</g>
<!-- Sport&#45;&gt;NewsArticle -->
<g id="edge4" class="edge"><title>Sport&#45;&gt;NewsArticle</title>
<path fill="none" stroke="#186874" d="M545.054,-490.08C549.612,-403.156 554.284,-229.542 522.862,-179 508.877,-156.503 488.318,-138.344 465.832,-123.833"/>
<ellipse fill="none" stroke="#186874" cx="544.831" cy="-494.22" rx="4" ry="4"/>
<polygon fill="#186874" stroke="#186874" points="465.633,-123.71 459.496,-114.622 461.381,-121.08 457.129,-118.449 457.129,-118.449 457.129,-118.449 461.381,-121.08 454.761,-122.276 465.633,-123.71 465.633,-123.71"/>
</g>
<!-- TeamMember -->
<g id="node6" class="node"><title>TeamMember</title>
<path fill="none" stroke="black" d="M582,-221.5C582,-221.5 805.725,-221.5 805.725,-221.5 811.725,-221.5 817.725,-227.5 817.725,-233.5 817.725,-233.5 817.725,-393.5 817.725,-393.5 817.725,-399.5 811.725,-405.5 805.725,-405.5 805.725,-405.5 582,-405.5 582,-405.5 576,-405.5 570,-399.5 570,-393.5 570,-393.5 570,-233.5 570,-233.5 570,-227.5 576,-221.5 582,-221.5"/>
<text text-anchor="middle" x="693.862" y="-390.3" font-family="Times,serif" font-size="14.00">TeamMember</text>
<polyline fill="none" stroke="black" points="570,-383.5 817.725,-383.5 "/>
<text text-anchor="start" x="578" y="-368.3" font-family="Times,serif" font-size="14.00">updated_at :timestamp without time zone</text>
<text text-anchor="start" x="578" y="-354.3" font-family="Times,serif" font-size="14.00">first_name :character varying</text>
<text text-anchor="start" x="578" y="-340.3" font-family="Times,serif" font-size="14.00">last_name :character varying</text>
<text text-anchor="start" x="578" y="-326.3" font-family="Times,serif" font-size="14.00">position :character varying</text>
<text text-anchor="start" x="578" y="-312.3" font-family="Times,serif" font-size="14.00">photo_url :character varying</text>
<text text-anchor="start" x="578" y="-298.3" font-family="Times,serif" font-size="14.00">email :character varying</text>
<text text-anchor="start" x="578" y="-284.3" font-family="Times,serif" font-size="14.00">twitter_url :character varying</text>
<text text-anchor="start" x="578" y="-270.3" font-family="Times,serif" font-size="14.00">facebook_url :character varying</text>
<text text-anchor="start" x="578" y="-256.3" font-family="Times,serif" font-size="14.00">description :text</text>
<text text-anchor="start" x="578" y="-242.3" font-family="Times,serif" font-size="14.00">created_at :timestamp without time zone</text>
<text text-anchor="start" x="578" y="-228.3" font-family="Times,serif" font-size="14.00">id :integer</text>
</g>
<!-- Sport&#45;&gt;TeamMember -->
<g id="edge5" class="edge"><title>Sport&#45;&gt;TeamMember</title>
<path fill="none" stroke="#0275d5" d="M569.231,-491.358C583.657,-468.638 602.045,-440.791 620.252,-413.975"/>
<ellipse fill="none" stroke="#0275d5" cx="567.01" cy="-494.874" rx="4.00002" ry="4.00002"/>
<polygon fill="#0275d5" stroke="#0275d5" points="620.263,-413.958 629.612,-408.226 623.078,-409.825 625.892,-405.693 625.892,-405.693 625.892,-405.693 623.078,-409.825 622.173,-403.16 620.263,-413.958 620.263,-413.958"/>
</g>
<!-- TeamMember&#45;&gt;Sport -->
<g id="edge6" class="edge"><title>TeamMember&#45;&gt;Sport</title>
<path fill="none" stroke="#ab09c4" d="M634.667,-412.47C616.853,-439.242 597.755,-467.159 581.512,-490.067"/>
<ellipse fill="none" stroke="#ab09c4" cx="636.954" cy="-409.025" rx="4.00002" ry="4.00002"/>
<polygon fill="#ab09c4" stroke="#ab09c4" points="581.479,-490.114 572.01,-495.644 578.576,-494.185 575.674,-498.256 575.674,-498.256 575.674,-498.256 578.576,-494.185 579.338,-500.869 581.479,-490.114 581.479,-490.114"/>
</g>
<!-- Testimonial -->
<g id="node7" class="node"><title>Testimonial</title>
<path fill="none" stroke="black" d="M696,-484.5C696,-484.5 919.725,-484.5 919.725,-484.5 925.725,-484.5 931.725,-490.5 931.725,-496.5 931.725,-496.5 931.725,-586.5 931.725,-586.5 931.725,-592.5 925.725,-598.5 919.725,-598.5 919.725,-598.5 696,-598.5 696,-598.5 690,-598.5 684,-592.5 684,-586.5 684,-586.5 684,-496.5 684,-496.5 684,-490.5 690,-484.5 696,-484.5"/>
<text text-anchor="middle" x="807.862" y="-583.3" font-family="Times,serif" font-size="14.00">Testimonial</text>
<polyline fill="none" stroke="black" points="684,-576.5 931.725,-576.5 "/>
<text text-anchor="start" x="692" y="-561.3" font-family="Times,serif" font-size="14.00">id :integer</text>
<text text-anchor="start" x="692" y="-547.3" font-family="Times,serif" font-size="14.00">name :character varying</text>
<text text-anchor="start" x="692" y="-533.3" font-family="Times,serif" font-size="14.00">title :character varying</text>
<text text-anchor="start" x="692" y="-519.3" font-family="Times,serif" font-size="14.00">quote :text</text>
<text text-anchor="start" x="692" y="-505.3" font-family="Times,serif" font-size="14.00">created_at :timestamp without time zone</text>
<text text-anchor="start" x="692" y="-491.3" font-family="Times,serif" font-size="14.00">updated_at :timestamp without time zone</text>
</g>
</g>
</svg>
