<?xml version="1.0" encoding="UTF-8" standalone="no"?>
<!DOCTYPE svg PUBLIC "-//W3C//DTD SVG 1.1//EN"
 "http://www.w3.org/Graphics/SVG/1.1/DTD/svg11.dtd">
<!-- Generated by graphviz version 2.38.0 (20140413.2041)
 -->
<!-- Title: models_diagram Pages: 1 -->
<svg width="1350pt" height="803pt"
 viewBox="0.00 0.00 1349.55 803.00" xmlns="http://www.w3.org/2000/svg" xmlns:xlink="http://www.w3.org/1999/xlink">
<g id="graph0" class="graph" transform="scale(1 1) rotate(0) translate(4 799)">
<title>models_diagram</title>
<polygon fill="none" stroke="none" points="-4,4 -4,-799 1345.55,-799 1345.55,4 -4,4"/>
<!-- _diagram_info -->
<g id="node1" class="node"><title>_diagram_info</title>
<text text-anchor="start" x="8" y="-710.6" font-family="Times,serif" font-size="13.00">Models diagram</text>
<text text-anchor="start" x="8" y="-697.6" font-family="Times,serif" font-size="13.00">Date: Aug 05 2016 &#45; 16:30</text>
<text text-anchor="start" x="8" y="-684.6" font-family="Times,serif" font-size="13.00">Migration version: 20160805202946</text>
<text text-anchor="start" x="8" y="-671.6" font-family="Times,serif" font-size="13.00">Generated by RailRoady 1.4.2</text>
<text text-anchor="start" x="8" y="-658.6" font-family="Times,serif" font-size="13.00">http://railroady.prestonlee.com</text>
</g>
<!-- AdminUser -->
<g id="node2" class="node"><title>AdminUser</title>
<path fill="none" stroke="black" d="M237.053,-582.5C237.053,-582.5 532.323,-582.5 532.323,-582.5 538.323,-582.5 544.323,-588.5 544.323,-594.5 544.323,-594.5 544.323,-782.5 544.323,-782.5 544.323,-788.5 538.323,-794.5 532.323,-794.5 532.323,-794.5 237.053,-794.5 237.053,-794.5 231.053,-794.5 225.053,-788.5 225.053,-782.5 225.053,-782.5 225.053,-594.5 225.053,-594.5 225.053,-588.5 231.053,-582.5 237.053,-582.5"/>
<text text-anchor="middle" x="384.688" y="-779.3" font-family="Times,serif" font-size="14.00">AdminUser</text>
<polyline fill="none" stroke="black" points="225.053,-772.5 544.323,-772.5 "/>
<text text-anchor="start" x="233.053" y="-757.3" font-family="Times,serif" font-size="14.00">updated_at :timestamp without time zone</text>
<text text-anchor="start" x="233.053" y="-743.3" font-family="Times,serif" font-size="14.00">email :character varying</text>
<text text-anchor="start" x="233.053" y="-729.3" font-family="Times,serif" font-size="14.00">encrypted_password :character varying</text>
<text text-anchor="start" x="233.053" y="-715.3" font-family="Times,serif" font-size="14.00">reset_password_token :character varying</text>
<text text-anchor="start" x="233.053" y="-701.3" font-family="Times,serif" font-size="14.00">reset_password_sent_at :timestamp without time zone</text>
<text text-anchor="start" x="233.053" y="-687.3" font-family="Times,serif" font-size="14.00">remember_created_at :timestamp without time zone</text>
<text text-anchor="start" x="233.053" y="-673.3" font-family="Times,serif" font-size="14.00">sign_in_count :integer</text>
<text text-anchor="start" x="233.053" y="-659.3" font-family="Times,serif" font-size="14.00">current_sign_in_at :timestamp without time zone</text>
<text text-anchor="start" x="233.053" y="-645.3" font-family="Times,serif" font-size="14.00">last_sign_in_at :timestamp without time zone</text>
<text text-anchor="start" x="233.053" y="-631.3" font-family="Times,serif" font-size="14.00">current_sign_in_ip :inet</text>
<text text-anchor="start" x="233.053" y="-617.3" font-family="Times,serif" font-size="14.00">last_sign_in_ip :inet</text>
<text text-anchor="start" x="233.053" y="-603.3" font-family="Times,serif" font-size="14.00">created_at :timestamp without time zone</text>
<text text-anchor="start" x="233.053" y="-589.3" font-family="Times,serif" font-size="14.00">id :integer</text>
</g>
<!-- Athlete -->
<g id="node3" class="node"><title>Athlete</title>
<path fill="none" stroke="black" d="M269.381,-179.5C269.381,-179.5 531.995,-179.5 531.995,-179.5 537.995,-179.5 543.995,-185.5 543.995,-191.5 543.995,-191.5 543.995,-533.5 543.995,-533.5 543.995,-539.5 537.995,-545.5 531.995,-545.5 531.995,-545.5 269.381,-545.5 269.381,-545.5 263.381,-545.5 257.381,-539.5 257.381,-533.5 257.381,-533.5 257.381,-191.5 257.381,-191.5 257.381,-185.5 263.381,-179.5 269.381,-179.5"/>
<text text-anchor="middle" x="400.688" y="-530.3" font-family="Times,serif" font-size="14.00">Athlete</text>
<polyline fill="none" stroke="black" points="257.381,-523.5 543.995,-523.5 "/>
<text text-anchor="start" x="265.381" y="-508.3" font-family="Times,serif" font-size="14.00">wnba_status :character varying</text>
<text text-anchor="start" x="265.381" y="-494.3" font-family="Times,serif" font-size="14.00">created_at :timestamp without time zone</text>
<text text-anchor="start" x="265.381" y="-480.3" font-family="Times,serif" font-size="14.00">updated_at :timestamp without time zone</text>
<text text-anchor="start" x="265.381" y="-466.3" font-family="Times,serif" font-size="14.00">first_name :character varying</text>
<text text-anchor="start" x="265.381" y="-452.3" font-family="Times,serif" font-size="14.00">last_name :character varying</text>
<text text-anchor="start" x="265.381" y="-438.3" font-family="Times,serif" font-size="14.00">position :character varying</text>
<text text-anchor="start" x="265.381" y="-424.3" font-family="Times,serif" font-size="14.00">american_team_url :character varying</text>
<text text-anchor="start" x="265.381" y="-410.3" font-family="Times,serif" font-size="14.00">overseas_team :character varying</text>
<text text-anchor="start" x="265.381" y="-396.3" font-family="Times,serif" font-size="14.00">college :character varying</text>
<text text-anchor="start" x="265.381" y="-382.3" font-family="Times,serif" font-size="14.00">birthdate :date</text>
<text text-anchor="start" x="265.381" y="-368.3" font-family="Times,serif" font-size="14.00">height :character varying</text>
<text text-anchor="start" x="265.381" y="-354.3" font-family="Times,serif" font-size="14.00">weight :character varying</text>
<text text-anchor="start" x="265.381" y="-340.3" font-family="Times,serif" font-size="14.00">website_url :character varying</text>
<text text-anchor="start" x="265.381" y="-326.3" font-family="Times,serif" font-size="14.00">video_embed_code :text</text>
<text text-anchor="start" x="265.381" y="-312.3" font-family="Times,serif" font-size="14.00">sport_id :integer</text>
<text text-anchor="start" x="265.381" y="-298.3" font-family="Times,serif" font-size="14.00">american_team_name :character varying</text>
<text text-anchor="start" x="265.381" y="-284.3" font-family="Times,serif" font-size="14.00">photo_file_name :character varying</text>
<text text-anchor="start" x="265.381" y="-270.3" font-family="Times,serif" font-size="14.00">photo_content_type :character varying</text>
<text text-anchor="start" x="265.381" y="-256.3" font-family="Times,serif" font-size="14.00">photo_file_size :integer</text>
<text text-anchor="start" x="265.381" y="-242.3" font-family="Times,serif" font-size="14.00">photo_updated_at :timestamp without time zone</text>
<text text-anchor="start" x="265.381" y="-228.3" font-family="Times,serif" font-size="14.00">description :text</text>
<text text-anchor="start" x="265.381" y="-214.3" font-family="Times,serif" font-size="14.00">is_available :boolean</text>
<text text-anchor="start" x="265.381" y="-200.3" font-family="Times,serif" font-size="14.00">country_code :character varying</text>
<text text-anchor="start" x="265.381" y="-186.3" font-family="Times,serif" font-size="14.00">id :integer</text>
</g>
<!-- NewsArticle -->
<g id="node5" class="node"><title>NewsArticle</title>
<path fill="none" stroke="black" d="M506.825,-0.5C506.825,-0.5 730.55,-0.5 730.55,-0.5 736.55,-0.5 742.55,-6.5 742.55,-12.5 742.55,-12.5 742.55,-130.5 742.55,-130.5 742.55,-136.5 736.55,-142.5 730.55,-142.5 730.55,-142.5 506.825,-142.5 506.825,-142.5 500.825,-142.5 494.825,-136.5 494.825,-130.5 494.825,-130.5 494.825,-12.5 494.825,-12.5 494.825,-6.5 500.825,-0.5 506.825,-0.5"/>
<text text-anchor="middle" x="618.688" y="-127.3" font-family="Times,serif" font-size="14.00">NewsArticle</text>
<polyline fill="none" stroke="black" points="494.825,-120.5 742.55,-120.5 "/>
<text text-anchor="start" x="502.825" y="-105.3" font-family="Times,serif" font-size="14.00">updated_at :timestamp without time zone</text>
<text text-anchor="start" x="502.825" y="-91.3" font-family="Times,serif" font-size="14.00">athlete_id :integer</text>
<text text-anchor="start" x="502.825" y="-77.3" font-family="Times,serif" font-size="14.00">sport_id :integer</text>
<text text-anchor="start" x="502.825" y="-63.3" font-family="Times,serif" font-size="14.00">headline :character varying</text>
<text text-anchor="start" x="502.825" y="-49.3" font-family="Times,serif" font-size="14.00">date_posted :date</text>
<text text-anchor="start" x="502.825" y="-35.3" font-family="Times,serif" font-size="14.00">url :character varying</text>
<text text-anchor="start" x="502.825" y="-21.3" font-family="Times,serif" font-size="14.00">created_at :timestamp without time zone</text>
<text text-anchor="start" x="502.825" y="-7.3" font-family="Times,serif" font-size="14.00">id :integer</text>
</g>
<!-- Athlete&#45;&gt;NewsArticle -->
<g id="edge1" class="edge"><title>Athlete&#45;&gt;NewsArticle</title>
<path fill="none" stroke="#3f72b9" d="M543.056,-172.764C548.704,-165.276 554.22,-157.964 559.534,-150.919"/>
<ellipse fill="none" stroke="#3f72b9" cx="540.541" cy="-176.098" rx="4.00002" ry="4.00002"/>
<polygon fill="#3f72b9" stroke="#3f72b9" points="559.654,-150.761 569.268,-145.487 562.665,-146.769 565.676,-142.777 565.676,-142.777 565.676,-142.777 562.665,-146.769 562.083,-140.067 559.654,-150.761 559.654,-150.761"/>
</g>
<!-- FeaturedPhoto -->
<g id="node4" class="node"><title>FeaturedPhoto</title>
<path fill="none" stroke="black" d="M573.825,-298.5C573.825,-298.5 797.55,-298.5 797.55,-298.5 803.55,-298.5 809.55,-304.5 809.55,-310.5 809.55,-310.5 809.55,-414.5 809.55,-414.5 809.55,-420.5 803.55,-426.5 797.55,-426.5 797.55,-426.5 573.825,-426.5 573.825,-426.5 567.825,-426.5 561.825,-420.5 561.825,-414.5 561.825,-414.5 561.825,-310.5 561.825,-310.5 561.825,-304.5 567.825,-298.5 573.825,-298.5"/>
<text text-anchor="middle" x="685.688" y="-411.3" font-family="Times,serif" font-size="14.00">FeaturedPhoto</text>
<polyline fill="none" stroke="black" points="561.825,-404.5 809.55,-404.5 "/>
<text text-anchor="start" x="569.825" y="-389.3" font-family="Times,serif" font-size="14.00">image_url :character varying</text>
<text text-anchor="start" x="569.825" y="-375.3" font-family="Times,serif" font-size="14.00">athlete_id :integer</text>
<text text-anchor="start" x="569.825" y="-361.3" font-family="Times,serif" font-size="14.00">sport_id :integer</text>
<text text-anchor="start" x="569.825" y="-347.3" font-family="Times,serif" font-size="14.00">id :integer</text>
<text text-anchor="start" x="569.825" y="-333.3" font-family="Times,serif" font-size="14.00">display_status :boolean</text>
<text text-anchor="start" x="569.825" y="-319.3" font-family="Times,serif" font-size="14.00">created_at :timestamp without time zone</text>
<text text-anchor="start" x="569.825" y="-305.3" font-family="Times,serif" font-size="14.00">updated_at :timestamp without time zone</text>
</g>
<!-- Sport -->
<g id="node6" class="node"><title>Sport</title>
<path fill="none" stroke="black" d="M573.825,-638.5C573.825,-638.5 797.55,-638.5 797.55,-638.5 803.55,-638.5 809.55,-644.5 809.55,-650.5 809.55,-650.5 809.55,-726.5 809.55,-726.5 809.55,-732.5 803.55,-738.5 797.55,-738.5 797.55,-738.5 573.825,-738.5 573.825,-738.5 567.825,-738.5 561.825,-732.5 561.825,-726.5 561.825,-726.5 561.825,-650.5 561.825,-650.5 561.825,-644.5 567.825,-638.5 573.825,-638.5"/>
<text text-anchor="middle" x="685.688" y="-723.3" font-family="Times,serif" font-size="14.00">Sport</text>
<polyline fill="none" stroke="black" points="561.825,-716.5 809.55,-716.5 "/>
<text text-anchor="start" x="569.825" y="-701.3" font-family="Times,serif" font-size="14.00">id :integer</text>
<text text-anchor="start" x="569.825" y="-687.3" font-family="Times,serif" font-size="14.00">created_at :timestamp without time zone</text>
<text text-anchor="start" x="569.825" y="-673.3" font-family="Times,serif" font-size="14.00">updated_at :timestamp without time zone</text>
<text text-anchor="start" x="569.825" y="-659.3" font-family="Times,serif" font-size="14.00">type_id :integer</text>
<text text-anchor="start" x="569.825" y="-645.3" font-family="Times,serif" font-size="14.00">name :character varying</text>
</g>
<!-- Sport&#45;&gt;Athlete -->
<g id="edge2" class="edge"><title>Sport&#45;&gt;Athlete</title>
<path fill="none" stroke="#5074a3" d="M632.345,-632.295C607.727,-606.426 578.337,-574.983 552.688,-546 552.06,-545.291 551.431,-544.58 550.802,-543.866"/>
<ellipse fill="none" stroke="#5074a3" cx="635.41" cy="-635.51" rx="4.00002" ry="4.00002"/>
<polygon fill="#5074a3" stroke="#5074a3" points="550.628,-543.669 547.405,-533.188 547.327,-539.914 544.025,-536.159 544.025,-536.159 544.025,-536.159 547.327,-539.914 540.646,-539.13 550.628,-543.669 550.628,-543.669"/>
</g>
<!-- Sport&#45;&gt;FeaturedPhoto -->
<g id="edge3" class="edge"><title>Sport&#45;&gt;FeaturedPhoto</title>
<path fill="none" stroke="#72b694" d="M685.688,-630.091C685.688,-576.211 685.688,-495.367 685.688,-436.838"/>
<ellipse fill="none" stroke="#72b694" cx="685.688" cy="-634.291" rx="4" ry="4"/>
<polygon fill="#72b694" stroke="#72b694" points="685.688,-436.547 690.188,-426.547 685.688,-431.547 685.688,-426.547 685.688,-426.547 685.688,-426.547 685.688,-431.547 681.188,-426.547 685.688,-436.547 685.688,-436.547"/>
</g>
<!-- Sport&#45;&gt;NewsArticle -->
<g id="edge4" class="edge"><title>Sport&#45;&gt;NewsArticle</title>
<path fill="none" stroke="#adbb21" d="M755.604,-632.911C780.458,-609.196 805.524,-579.225 818.688,-546 878.768,-394.357 902.653,-318.839 818.688,-179 802.95,-152.79 778.336,-132.679 751.686,-117.379"/>
<ellipse fill="none" stroke="#adbb21" cx="752.558" cy="-635.76" rx="4.00002" ry="4.00002"/>
<polygon fill="#adbb21" stroke="#adbb21" points="751.342,-117.19 744.747,-108.429 746.961,-114.781 742.579,-112.373 742.579,-112.373 742.579,-112.373 746.961,-114.781 740.411,-116.316 751.342,-117.19 751.342,-117.19"/>
</g>
<!-- TeamMember -->
<g id="node7" class="node"><title>TeamMember</title>
<path fill="none" stroke="black" d="M839.825,-596.5C839.825,-596.5 1063.55,-596.5 1063.55,-596.5 1069.55,-596.5 1075.55,-602.5 1075.55,-608.5 1075.55,-608.5 1075.55,-768.5 1075.55,-768.5 1075.55,-774.5 1069.55,-780.5 1063.55,-780.5 1063.55,-780.5 839.825,-780.5 839.825,-780.5 833.825,-780.5 827.825,-774.5 827.825,-768.5 827.825,-768.5 827.825,-608.5 827.825,-608.5 827.825,-602.5 833.825,-596.5 839.825,-596.5"/>
<text text-anchor="middle" x="951.688" y="-765.3" font-family="Times,serif" font-size="14.00">TeamMember</text>
<polyline fill="none" stroke="black" points="827.825,-758.5 1075.55,-758.5 "/>
<text text-anchor="start" x="835.825" y="-743.3" font-family="Times,serif" font-size="14.00">updated_at :timestamp without time zone</text>
<text text-anchor="start" x="835.825" y="-729.3" font-family="Times,serif" font-size="14.00">first_name :character varying</text>
<text text-anchor="start" x="835.825" y="-715.3" font-family="Times,serif" font-size="14.00">last_name :character varying</text>
<text text-anchor="start" x="835.825" y="-701.3" font-family="Times,serif" font-size="14.00">position :character varying</text>
<text text-anchor="start" x="835.825" y="-687.3" font-family="Times,serif" font-size="14.00">photo_url :character varying</text>
<text text-anchor="start" x="835.825" y="-673.3" font-family="Times,serif" font-size="14.00">email :character varying</text>
<text text-anchor="start" x="835.825" y="-659.3" font-family="Times,serif" font-size="14.00">twitter_url :character varying</text>
<text text-anchor="start" x="835.825" y="-645.3" font-family="Times,serif" font-size="14.00">facebook_url :character varying</text>
<text text-anchor="start" x="835.825" y="-631.3" font-family="Times,serif" font-size="14.00">description :text</text>
<text text-anchor="start" x="835.825" y="-617.3" font-family="Times,serif" font-size="14.00">created_at :timestamp without time zone</text>
<text text-anchor="start" x="835.825" y="-603.3" font-family="Times,serif" font-size="14.00">id :integer</text>
</g>
<!-- Testimonial -->
<g id="node8" class="node"><title>Testimonial</title>
<path fill="none" stroke="black" d="M1105.83,-624.5C1105.83,-624.5 1329.55,-624.5 1329.55,-624.5 1335.55,-624.5 1341.55,-630.5 1341.55,-636.5 1341.55,-636.5 1341.55,-740.5 1341.55,-740.5 1341.55,-746.5 1335.55,-752.5 1329.55,-752.5 1329.55,-752.5 1105.83,-752.5 1105.83,-752.5 1099.83,-752.5 1093.83,-746.5 1093.83,-740.5 1093.83,-740.5 1093.83,-636.5 1093.83,-636.5 1093.83,-630.5 1099.83,-624.5 1105.83,-624.5"/>
<text text-anchor="middle" x="1217.69" y="-737.3" font-family="Times,serif" font-size="14.00">Testimonial</text>
<polyline fill="none" stroke="black" points="1093.83,-730.5 1341.55,-730.5 "/>
<text text-anchor="start" x="1101.83" y="-715.3" font-family="Times,serif" font-size="14.00">quote :text</text>
<text text-anchor="start" x="1101.83" y="-701.3" font-family="Times,serif" font-size="14.00">name :character varying</text>
<text text-anchor="start" x="1101.83" y="-687.3" font-family="Times,serif" font-size="14.00">title :character varying</text>
<text text-anchor="start" x="1101.83" y="-673.3" font-family="Times,serif" font-size="14.00">id :integer</text>
<text text-anchor="start" x="1101.83" y="-659.3" font-family="Times,serif" font-size="14.00">created_at :timestamp without time zone</text>
<text text-anchor="start" x="1101.83" y="-645.3" font-family="Times,serif" font-size="14.00">updated_at :timestamp without time zone</text>
<text text-anchor="start" x="1101.83" y="-631.3" font-family="Times,serif" font-size="14.00">photo_url :character varying</text>
</g>
</g>
</svg>
