<?xml version="1.0" encoding="UTF-8" standalone="no"?>
<!DOCTYPE svg PUBLIC "-//W3C//DTD SVG 1.1//EN"
 "http://www.w3.org/Graphics/SVG/1.1/DTD/svg11.dtd">
<!-- Generated by graphviz version 2.38.0 (20140413.2041)
 -->
<!-- Title: models_diagram Pages: 1 -->
<svg width="826pt" height="579pt"
 viewBox="0.00 0.00 825.72 579.00" xmlns="http://www.w3.org/2000/svg" xmlns:xlink="http://www.w3.org/1999/xlink">
<g id="graph0" class="graph" transform="scale(1 1) rotate(0) translate(4 575)">
<title>models_diagram</title>
<polygon fill="none" stroke="none" points="-4,4 -4,-575 821.725,-575 821.725,4 -4,4"/>
<!-- _diagram_info -->
<g id="node1" class="node"><title>_diagram_info</title>
<text text-anchor="start" x="200.175" y="-549.6" font-family="Times,serif" font-size="13.00">Models diagram</text>
<text text-anchor="start" x="200.175" y="-536.6" font-family="Times,serif" font-size="13.00">Date: Jun 04 2016 &#45; 11:56</text>
<text text-anchor="start" x="200.175" y="-523.6" font-family="Times,serif" font-size="13.00">Migration version: 20160604155604</text>
<text text-anchor="start" x="200.175" y="-510.6" font-family="Times,serif" font-size="13.00">Generated by RailRoady 1.4.2</text>
<text text-anchor="start" x="200.175" y="-497.6" font-family="Times,serif" font-size="13.00">http://railroady.prestonlee.com</text>
</g>
<!-- Athlete -->
<g id="node2" class="node"><title>Athlete</title>
<path fill="none" stroke="black" d="M12,-179.5C12,-179.5 235.725,-179.5 235.725,-179.5 241.725,-179.5 247.725,-185.5 247.725,-191.5 247.725,-191.5 247.725,-435.5 247.725,-435.5 247.725,-441.5 241.725,-447.5 235.725,-447.5 235.725,-447.5 12,-447.5 12,-447.5 6,-447.5 0,-441.5 0,-435.5 0,-435.5 0,-191.5 0,-191.5 0,-185.5 6,-179.5 12,-179.5"/>
<text text-anchor="middle" x="123.862" y="-432.3" font-family="Times,serif" font-size="14.00">Athlete</text>
<polyline fill="none" stroke="black" points="0,-425.5 247.725,-425.5 "/>
<text text-anchor="start" x="8" y="-410.3" font-family="Times,serif" font-size="14.00">american_team_name :character varying</text>
<text text-anchor="start" x="8" y="-396.3" font-family="Times,serif" font-size="14.00">created_at :timestamp without time zone</text>
<text text-anchor="start" x="8" y="-382.3" font-family="Times,serif" font-size="14.00">updated_at :timestamp without time zone</text>
<text text-anchor="start" x="8" y="-368.3" font-family="Times,serif" font-size="14.00">first_name :character varying</text>
<text text-anchor="start" x="8" y="-354.3" font-family="Times,serif" font-size="14.00">last_name :character varying</text>
<text text-anchor="start" x="8" y="-340.3" font-family="Times,serif" font-size="14.00">photo_url :character varying</text>
<text text-anchor="start" x="8" y="-326.3" font-family="Times,serif" font-size="14.00">position :character varying</text>
<text text-anchor="start" x="8" y="-312.3" font-family="Times,serif" font-size="14.00">american_team_url :character varying</text>
<text text-anchor="start" x="8" y="-298.3" font-family="Times,serif" font-size="14.00">overseas_team :character varying</text>
<text text-anchor="start" x="8" y="-284.3" font-family="Times,serif" font-size="14.00">college :character varying</text>
<text text-anchor="start" x="8" y="-270.3" font-family="Times,serif" font-size="14.00">birthdate :date</text>
<text text-anchor="start" x="8" y="-256.3" font-family="Times,serif" font-size="14.00">height :character varying</text>
<text text-anchor="start" x="8" y="-242.3" font-family="Times,serif" font-size="14.00">weight :character varying</text>
<text text-anchor="start" x="8" y="-228.3" font-family="Times,serif" font-size="14.00">website_url :character varying</text>
<text text-anchor="start" x="8" y="-214.3" font-family="Times,serif" font-size="14.00">video_url :character varying</text>
<text text-anchor="start" x="8" y="-200.3" font-family="Times,serif" font-size="14.00">sport_id :integer</text>
<text text-anchor="start" x="8" y="-186.3" font-family="Times,serif" font-size="14.00">id :integer</text>
</g>
<!-- NewsArticle -->
<g id="node4" class="node"><title>NewsArticle</title>
<path fill="none" stroke="black" d="M221,-0.5C221,-0.5 444.725,-0.5 444.725,-0.5 450.725,-0.5 456.725,-6.5 456.725,-12.5 456.725,-12.5 456.725,-130.5 456.725,-130.5 456.725,-136.5 450.725,-142.5 444.725,-142.5 444.725,-142.5 221,-142.5 221,-142.5 215,-142.5 209,-136.5 209,-130.5 209,-130.5 209,-12.5 209,-12.5 209,-6.5 215,-0.5 221,-0.5"/>
<text text-anchor="middle" x="332.862" y="-127.3" font-family="Times,serif" font-size="14.00">NewsArticle</text>
<polyline fill="none" stroke="black" points="209,-120.5 456.725,-120.5 "/>
<text text-anchor="start" x="217" y="-105.3" font-family="Times,serif" font-size="14.00">updated_at :timestamp without time zone</text>
<text text-anchor="start" x="217" y="-91.3" font-family="Times,serif" font-size="14.00">athlete_id :integer</text>
<text text-anchor="start" x="217" y="-77.3" font-family="Times,serif" font-size="14.00">sport_id :integer</text>
<text text-anchor="start" x="217" y="-63.3" font-family="Times,serif" font-size="14.00">headline :character varying</text>
<text text-anchor="start" x="217" y="-49.3" font-family="Times,serif" font-size="14.00">date_posted :date</text>
<text text-anchor="start" x="217" y="-35.3" font-family="Times,serif" font-size="14.00">url :character varying</text>
<text text-anchor="start" x="217" y="-21.3" font-family="Times,serif" font-size="14.00">created_at :timestamp without time zone</text>
<text text-anchor="start" x="217" y="-7.3" font-family="Times,serif" font-size="14.00">id :integer</text>
</g>
<!-- Athlete&#45;&gt;NewsArticle -->
<g id="edge1" class="edge"><title>Athlete&#45;&gt;NewsArticle</title>
<path fill="none" stroke="#d754ac" d="M245.323,-173.023C251.972,-165.389 258.526,-157.862 264.875,-150.572"/>
<ellipse fill="none" stroke="#d754ac" cx="242.602" cy="-176.149" rx="4.00002" ry="4.00002"/>
<polygon fill="#d754ac" stroke="#d754ac" points="265.11,-150.301 275.071,-145.715 268.394,-146.531 271.678,-142.76 271.678,-142.76 271.678,-142.76 268.394,-146.531 268.284,-139.805 265.11,-150.301 265.11,-150.301"/>
</g>
<!-- FeaturedPhoto -->
<g id="node3" class="node"><title>FeaturedPhoto</title>
<path fill="none" stroke="black" d="M278,-249.5C278,-249.5 501.725,-249.5 501.725,-249.5 507.725,-249.5 513.725,-255.5 513.725,-261.5 513.725,-261.5 513.725,-365.5 513.725,-365.5 513.725,-371.5 507.725,-377.5 501.725,-377.5 501.725,-377.5 278,-377.5 278,-377.5 272,-377.5 266,-371.5 266,-365.5 266,-365.5 266,-261.5 266,-261.5 266,-255.5 272,-249.5 278,-249.5"/>
<text text-anchor="middle" x="389.862" y="-362.3" font-family="Times,serif" font-size="14.00">FeaturedPhoto</text>
<polyline fill="none" stroke="black" points="266,-355.5 513.725,-355.5 "/>
<text text-anchor="start" x="274" y="-340.3" font-family="Times,serif" font-size="14.00">image_url :character varying</text>
<text text-anchor="start" x="274" y="-326.3" font-family="Times,serif" font-size="14.00">athlete_id :integer</text>
<text text-anchor="start" x="274" y="-312.3" font-family="Times,serif" font-size="14.00">sport_id :integer</text>
<text text-anchor="start" x="274" y="-298.3" font-family="Times,serif" font-size="14.00">id :integer</text>
<text text-anchor="start" x="274" y="-284.3" font-family="Times,serif" font-size="14.00">display_status :boolean</text>
<text text-anchor="start" x="274" y="-270.3" font-family="Times,serif" font-size="14.00">created_at :timestamp without time zone</text>
<text text-anchor="start" x="274" y="-256.3" font-family="Times,serif" font-size="14.00">updated_at :timestamp without time zone</text>
</g>
<!-- Sport -->
<g id="node5" class="node"><title>Sport</title>
<path fill="none" stroke="black" d="M430,-484.5C430,-484.5 653.725,-484.5 653.725,-484.5 659.725,-484.5 665.725,-490.5 665.725,-496.5 665.725,-496.5 665.725,-558.5 665.725,-558.5 665.725,-564.5 659.725,-570.5 653.725,-570.5 653.725,-570.5 430,-570.5 430,-570.5 424,-570.5 418,-564.5 418,-558.5 418,-558.5 418,-496.5 418,-496.5 418,-490.5 424,-484.5 430,-484.5"/>
<text text-anchor="middle" x="541.862" y="-555.3" font-family="Times,serif" font-size="14.00">Sport</text>
<polyline fill="none" stroke="black" points="418,-548.5 665.725,-548.5 "/>
<text text-anchor="start" x="426" y="-533.3" font-family="Times,serif" font-size="14.00">id :integer</text>
<text text-anchor="start" x="426" y="-519.3" font-family="Times,serif" font-size="14.00">created_at :timestamp without time zone</text>
<text text-anchor="start" x="426" y="-505.3" font-family="Times,serif" font-size="14.00">updated_at :timestamp without time zone</text>
<text text-anchor="start" x="426" y="-491.3" font-family="Times,serif" font-size="14.00">type_id :integer</text>
</g>
<!-- Sport&#45;&gt;Athlete -->
<g id="edge2" class="edge"><title>Sport&#45;&gt;Athlete</title>
<path fill="none" stroke="#3f73c2" d="M409.959,-484.305C409.593,-484.203 409.227,-484.101 408.862,-484 341.97,-465.42 317.455,-481.886 256.862,-448 256.769,-447.948 256.675,-447.895 256.581,-447.843"/>
<ellipse fill="none" stroke="#3f73c2" cx="413.858" cy="-485.407" rx="4.00001" ry="4.00001"/>
<polygon fill="#3f73c2" stroke="#3f73c2" points="256.54,-447.818 250.232,-438.848 252.239,-445.268 247.938,-442.719 247.938,-442.719 247.938,-442.719 252.239,-445.268 245.643,-446.59 256.54,-447.818 256.54,-447.818"/>
</g>
<!-- Sport&#45;&gt;FeaturedPhoto -->
<g id="edge3" class="edge"><title>Sport&#45;&gt;FeaturedPhoto</title>
<path fill="none" stroke="#db9a8d" d="M506.934,-477.784C487.489,-450.664 462.919,-416.394 441.313,-386.261"/>
<ellipse fill="none" stroke="#db9a8d" cx="509.319" cy="-481.111" rx="4.00002" ry="4.00002"/>
<polygon fill="#db9a8d" stroke="#db9a8d" points="441.132,-386.007 438.962,-375.258 438.218,-381.944 435.305,-377.88 435.305,-377.88 435.305,-377.88 438.218,-381.944 431.648,-380.502 441.132,-386.007 441.132,-386.007"/>
</g>
<!-- Sport&#45;&gt;NewsArticle -->
<g id="edge4" class="edge"><title>Sport&#45;&gt;NewsArticle</title>
<path fill="none" stroke="#e62711" d="M544.911,-476.16C549.067,-391.999 552.898,-227.199 522.862,-179 508.853,-156.518 488.284,-138.366 465.794,-123.857"/>
<ellipse fill="none" stroke="#e62711" cx="544.7" cy="-480.297" rx="4" ry="4"/>
<polygon fill="#e62711" stroke="#e62711" points="465.595,-123.733 459.458,-114.646 461.343,-121.103 457.09,-118.473 457.09,-118.473 457.09,-118.473 461.343,-121.103 454.723,-122.3 465.595,-123.733 465.595,-123.733"/>
</g>
<!-- TeamMember -->
<g id="node6" class="node"><title>TeamMember</title>
<path fill="none" stroke="black" d="M582,-221.5C582,-221.5 805.725,-221.5 805.725,-221.5 811.725,-221.5 817.725,-227.5 817.725,-233.5 817.725,-233.5 817.725,-393.5 817.725,-393.5 817.725,-399.5 811.725,-405.5 805.725,-405.5 805.725,-405.5 582,-405.5 582,-405.5 576,-405.5 570,-399.5 570,-393.5 570,-393.5 570,-233.5 570,-233.5 570,-227.5 576,-221.5 582,-221.5"/>
<text text-anchor="middle" x="693.862" y="-390.3" font-family="Times,serif" font-size="14.00">TeamMember</text>
<polyline fill="none" stroke="black" points="570,-383.5 817.725,-383.5 "/>
<text text-anchor="start" x="578" y="-368.3" font-family="Times,serif" font-size="14.00">updated_at :timestamp without time zone</text>
<text text-anchor="start" x="578" y="-354.3" font-family="Times,serif" font-size="14.00">first_name :character varying</text>
<text text-anchor="start" x="578" y="-340.3" font-family="Times,serif" font-size="14.00">last_name :character varying</text>
<text text-anchor="start" x="578" y="-326.3" font-family="Times,serif" font-size="14.00">position :character varying</text>
<text text-anchor="start" x="578" y="-312.3" font-family="Times,serif" font-size="14.00">photo_url :character varying</text>
<text text-anchor="start" x="578" y="-298.3" font-family="Times,serif" font-size="14.00">email :character varying</text>
<text text-anchor="start" x="578" y="-284.3" font-family="Times,serif" font-size="14.00">twitter_url :character varying</text>
<text text-anchor="start" x="578" y="-270.3" font-family="Times,serif" font-size="14.00">facebook_url :character varying</text>
<text text-anchor="start" x="578" y="-256.3" font-family="Times,serif" font-size="14.00">description :text</text>
<text text-anchor="start" x="578" y="-242.3" font-family="Times,serif" font-size="14.00">created_at :timestamp without time zone</text>
<text text-anchor="start" x="578" y="-228.3" font-family="Times,serif" font-size="14.00">id :integer</text>
</g>
<!-- Sport&#45;&gt;TeamMember -->
<g id="edge5" class="edge"><title>Sport&#45;&gt;TeamMember</title>
<path fill="none" stroke="#a5b534" d="M571.147,-477.577C584.1,-458.52 599.963,-435.956 615.939,-413.785"/>
<ellipse fill="none" stroke="#a5b534" cx="568.8" cy="-481.049" rx="4.00002" ry="4.00002"/>
<polygon fill="#a5b534" stroke="#a5b534" points="615.967,-413.746 625.472,-408.278 618.896,-409.694 621.825,-405.642 621.825,-405.642 621.825,-405.642 618.896,-409.694 618.178,-403.006 615.967,-413.746 615.967,-413.746"/>
</g>
<!-- TeamMember&#45;&gt;Sport -->
<g id="edge6" class="edge"><title>TeamMember&#45;&gt;Sport</title>
<path fill="none" stroke="#087b7c" d="M630.558,-412.182C614.779,-434.327 598.255,-456.96 583.782,-476.182"/>
<ellipse fill="none" stroke="#087b7c" cx="632.889" cy="-408.902" rx="4.00002" ry="4.00002"/>
<polygon fill="#087b7c" stroke="#087b7c" points="583.625,-476.389 574.002,-481.646 580.607,-480.376 577.589,-484.362 577.589,-484.362 577.589,-484.362 580.607,-480.376 581.177,-487.078 583.625,-476.389 583.625,-476.389"/>
</g>
</g>
</svg>
