<?xml version="1.0" encoding="UTF-8" standalone="no"?>
<!DOCTYPE svg PUBLIC "-//W3C//DTD SVG 1.1//EN"
 "http://www.w3.org/Graphics/SVG/1.1/DTD/svg11.dtd">
<!-- Generated by graphviz version 2.38.0 (20140413.2041)
 -->
<!-- Title: models_diagram Pages: 1 -->
<svg width="671pt" height="225pt"
 viewBox="0.00 0.00 671.42 225.00" xmlns="http://www.w3.org/2000/svg" xmlns:xlink="http://www.w3.org/1999/xlink">
<g id="graph0" class="graph" transform="scale(1 1) rotate(0) translate(4 221)">
<title>models_diagram</title>
<polygon fill="none" stroke="none" points="-4,4 -4,-221 667.421,-221 667.421,4 -4,4"/>
<!-- _diagram_info -->
<g id="node1" class="node"><title>_diagram_info</title>
<text text-anchor="start" x="8" y="-202.6" font-family="Times,serif" font-size="13.00">Models diagram</text>
<text text-anchor="start" x="8" y="-189.6" font-family="Times,serif" font-size="13.00">Date: Jul 17 2016 &#45; 09:27</text>
<text text-anchor="start" x="8" y="-176.6" font-family="Times,serif" font-size="13.00">Migration version: 20160717132201</text>
<text text-anchor="start" x="8" y="-163.6" font-family="Times,serif" font-size="13.00">Generated by RailRoady 1.4.2</text>
<text text-anchor="start" x="8" y="-150.6" font-family="Times,serif" font-size="13.00">http://railroady.prestonlee.com</text>
</g>
<!-- AdminUser -->
<g id="node2" class="node"><title>AdminUser</title>
<ellipse fill="none" stroke="black" cx="276.688" cy="-180.5" rx="51.2415" ry="18"/>
<text text-anchor="middle" x="276.688" y="-176.3" font-family="Times,serif" font-size="14.00">AdminUser</text>
</g>
<!-- Athlete -->
<g id="node3" class="node"><title>Athlete</title>
<ellipse fill="none" stroke="black" cx="259.688" cy="-90" rx="36.2732" ry="18"/>
<text text-anchor="middle" x="259.688" y="-85.8" font-family="Times,serif" font-size="14.00">Athlete</text>
</g>
<!-- NewsArticle -->
<g id="node5" class="node"><title>NewsArticle</title>
<ellipse fill="none" stroke="black" cx="362.688" cy="-18" rx="54.599" ry="18"/>
<text text-anchor="middle" x="362.688" y="-13.8" font-family="Times,serif" font-size="14.00">NewsArticle</text>
</g>
<!-- Athlete&#45;&gt;NewsArticle -->
<g id="edge1" class="edge"><title>Athlete&#45;&gt;NewsArticle</title>
<path fill="none" stroke="#872690" d="M287.276,-70.2506C300.852,-61.024 317.278,-49.8609 331.329,-40.3115"/>
<ellipse fill="none" stroke="#872690" cx="283.84" cy="-72.5861" rx="4.00002" ry="4.00002"/>
<polygon fill="#872690" stroke="#872690" points="331.454,-40.2269 342.254,-38.3278 335.589,-37.4164 339.725,-34.6059 339.725,-34.6059 339.725,-34.6059 335.589,-37.4164 337.195,-30.8841 331.454,-40.2269 331.454,-40.2269"/>
</g>
<!-- FeaturedPhoto -->
<g id="node4" class="node"><title>FeaturedPhoto</title>
<ellipse fill="none" stroke="black" cx="375.688" cy="-90" rx="61.8736" ry="18"/>
<text text-anchor="middle" x="375.688" y="-85.8" font-family="Times,serif" font-size="14.00">FeaturedPhoto</text>
</g>
<!-- Sport -->
<g id="node6" class="node"><title>Sport</title>
<ellipse fill="none" stroke="black" cx="375.688" cy="-180.5" rx="29.0429" ry="18"/>
<text text-anchor="middle" x="375.688" y="-176.3" font-family="Times,serif" font-size="14.00">Sport</text>
</g>
<!-- Sport&#45;&gt;Athlete -->
<g id="edge2" class="edge"><title>Sport&#45;&gt;Athlete</title>
<path fill="none" stroke="#d39d88" d="M354.631,-159.379C348.941,-154.208 342.693,-148.764 336.688,-144 321.737,-132.139 304.274,-119.992 289.762,-110.324"/>
<ellipse fill="none" stroke="#d39d88" cx="357.609" cy="-162.125" rx="4.00002" ry="4.00002"/>
<polygon fill="#d39d88" stroke="#d39d88" points="289.505,-110.154 283.633,-100.893 285.33,-107.402 281.156,-104.649 281.156,-104.649 281.156,-104.649 285.33,-107.402 278.679,-108.406 289.505,-110.154 289.505,-110.154"/>
</g>
<!-- Sport&#45;&gt;FeaturedPhoto -->
<g id="edge3" class="edge"><title>Sport&#45;&gt;FeaturedPhoto</title>
<path fill="none" stroke="#0ac756" d="M375.688,-154.189C375.688,-142.971 375.688,-129.752 375.688,-118.311"/>
<ellipse fill="none" stroke="#0ac756" cx="375.688" cy="-158.436" rx="4" ry="4"/>
<polygon fill="#0ac756" stroke="#0ac756" points="375.688,-118.011 380.188,-108.011 375.688,-113.011 375.688,-108.011 375.688,-108.011 375.688,-108.011 375.688,-113.011 371.188,-108.011 375.688,-118.011 375.688,-118.011"/>
</g>
<!-- Sport&#45;&gt;NewsArticle -->
<g id="edge4" class="edge"><title>Sport&#45;&gt;NewsArticle</title>
<path fill="none" stroke="#6cabd0" d="M397.215,-159.43C417.122,-140.618 444.03,-114.449 446.688,-108 452.785,-93.2072 454.414,-86.0108 446.688,-72 438.056,-56.3482 422.643,-44.6821 407.355,-36.3401"/>
<ellipse fill="none" stroke="#6cabd0" cx="394.208" cy="-162.26" rx="4.00002" ry="4.00002"/>
<polygon fill="#6cabd0" stroke="#6cabd0" points="407.338,-36.3318 400.456,-27.7945 402.879,-34.0697 398.42,-31.8077 398.42,-31.8077 398.42,-31.8077 402.879,-34.0697 396.384,-35.8208 407.338,-36.3318 407.338,-36.3318"/>
</g>
<!-- TeamMember -->
<g id="node7" class="node"><title>TeamMember</title>
<ellipse fill="none" stroke="black" cx="482.688" cy="-180.5" rx="59.6587" ry="18"/>
<text text-anchor="middle" x="482.688" y="-176.3" font-family="Times,serif" font-size="14.00">TeamMember</text>
</g>
<!-- Testimonial -->
<g id="node8" class="node"><title>Testimonial</title>
<ellipse fill="none" stroke="black" cx="611.688" cy="-180.5" rx="51.9676" ry="18"/>
<text text-anchor="middle" x="611.688" y="-176.3" font-family="Times,serif" font-size="14.00">Testimonial</text>
</g>
</g>
</svg>
