<?xml version="1.0" encoding="UTF-8" standalone="no"?>
<!DOCTYPE svg PUBLIC "-//W3C//DTD SVG 1.1//EN"
 "http://www.w3.org/Graphics/SVG/1.1/DTD/svg11.dtd">
<!-- Generated by graphviz version 2.38.0 (20140413.2041)
 -->
<!-- Title: models_diagram Pages: 1 -->
<svg width="1084pt" height="761pt"
 viewBox="0.00 0.00 1083.55 761.00" xmlns="http://www.w3.org/2000/svg" xmlns:xlink="http://www.w3.org/1999/xlink">
<g id="graph0" class="graph" transform="scale(1 1) rotate(0) translate(4 757)">
<title>models_diagram</title>
<polygon fill="none" stroke="none" points="-4,4 -4,-757 1079.55,-757 1079.55,4 -4,4"/>
<!-- _diagram_info -->
<g id="node1" class="node"><title>_diagram_info</title>
<text text-anchor="start" x="8" y="-668.6" font-family="Times,serif" font-size="13.00">Models diagram</text>
<text text-anchor="start" x="8" y="-655.6" font-family="Times,serif" font-size="13.00">Date: Jul 14 2016 &#45; 19:06</text>
<text text-anchor="start" x="8" y="-642.6" font-family="Times,serif" font-size="13.00">Migration version: 20160714225507</text>
<text text-anchor="start" x="8" y="-629.6" font-family="Times,serif" font-size="13.00">Generated by RailRoady 1.4.2</text>
<text text-anchor="start" x="8" y="-616.6" font-family="Times,serif" font-size="13.00">http://railroady.prestonlee.com</text>
</g>
<!-- AdminUser -->
<g id="node2" class="node"><title>AdminUser</title>
<path fill="none" stroke="black" d="M237.053,-540.5C237.053,-540.5 532.323,-540.5 532.323,-540.5 538.323,-540.5 544.323,-546.5 544.323,-552.5 544.323,-552.5 544.323,-740.5 544.323,-740.5 544.323,-746.5 538.323,-752.5 532.323,-752.5 532.323,-752.5 237.053,-752.5 237.053,-752.5 231.053,-752.5 225.053,-746.5 225.053,-740.5 225.053,-740.5 225.053,-552.5 225.053,-552.5 225.053,-546.5 231.053,-540.5 237.053,-540.5"/>
<text text-anchor="middle" x="384.688" y="-737.3" font-family="Times,serif" font-size="14.00">AdminUser</text>
<polyline fill="none" stroke="black" points="225.053,-730.5 544.323,-730.5 "/>
<text text-anchor="start" x="233.053" y="-715.3" font-family="Times,serif" font-size="14.00">updated_at :timestamp without time zone</text>
<text text-anchor="start" x="233.053" y="-701.3" font-family="Times,serif" font-size="14.00">email :character varying</text>
<text text-anchor="start" x="233.053" y="-687.3" font-family="Times,serif" font-size="14.00">encrypted_password :character varying</text>
<text text-anchor="start" x="233.053" y="-673.3" font-family="Times,serif" font-size="14.00">reset_password_token :character varying</text>
<text text-anchor="start" x="233.053" y="-659.3" font-family="Times,serif" font-size="14.00">reset_password_sent_at :timestamp without time zone</text>
<text text-anchor="start" x="233.053" y="-645.3" font-family="Times,serif" font-size="14.00">remember_created_at :timestamp without time zone</text>
<text text-anchor="start" x="233.053" y="-631.3" font-family="Times,serif" font-size="14.00">sign_in_count :integer</text>
<text text-anchor="start" x="233.053" y="-617.3" font-family="Times,serif" font-size="14.00">current_sign_in_at :timestamp without time zone</text>
<text text-anchor="start" x="233.053" y="-603.3" font-family="Times,serif" font-size="14.00">last_sign_in_at :timestamp without time zone</text>
<text text-anchor="start" x="233.053" y="-589.3" font-family="Times,serif" font-size="14.00">current_sign_in_ip :inet</text>
<text text-anchor="start" x="233.053" y="-575.3" font-family="Times,serif" font-size="14.00">last_sign_in_ip :inet</text>
<text text-anchor="start" x="233.053" y="-561.3" font-family="Times,serif" font-size="14.00">created_at :timestamp without time zone</text>
<text text-anchor="start" x="233.053" y="-547.3" font-family="Times,serif" font-size="14.00">id :integer</text>
</g>
<!-- Athlete -->
<g id="node3" class="node"><title>Athlete</title>
<path fill="none" stroke="black" d="M193.381,-179.5C193.381,-179.5 455.995,-179.5 455.995,-179.5 461.995,-179.5 467.995,-185.5 467.995,-191.5 467.995,-191.5 467.995,-491.5 467.995,-491.5 467.995,-497.5 461.995,-503.5 455.995,-503.5 455.995,-503.5 193.381,-503.5 193.381,-503.5 187.381,-503.5 181.381,-497.5 181.381,-491.5 181.381,-491.5 181.381,-191.5 181.381,-191.5 181.381,-185.5 187.381,-179.5 193.381,-179.5"/>
<text text-anchor="middle" x="324.688" y="-488.3" font-family="Times,serif" font-size="14.00">Athlete</text>
<polyline fill="none" stroke="black" points="181.381,-481.5 467.995,-481.5 "/>
<text text-anchor="start" x="189.381" y="-466.3" font-family="Times,serif" font-size="14.00">photo_updated_at :timestamp without time zone</text>
<text text-anchor="start" x="189.381" y="-452.3" font-family="Times,serif" font-size="14.00">created_at :timestamp without time zone</text>
<text text-anchor="start" x="189.381" y="-438.3" font-family="Times,serif" font-size="14.00">updated_at :timestamp without time zone</text>
<text text-anchor="start" x="189.381" y="-424.3" font-family="Times,serif" font-size="14.00">first_name :character varying</text>
<text text-anchor="start" x="189.381" y="-410.3" font-family="Times,serif" font-size="14.00">last_name :character varying</text>
<text text-anchor="start" x="189.381" y="-396.3" font-family="Times,serif" font-size="14.00">photo_url :character varying</text>
<text text-anchor="start" x="189.381" y="-382.3" font-family="Times,serif" font-size="14.00">position :character varying</text>
<text text-anchor="start" x="189.381" y="-368.3" font-family="Times,serif" font-size="14.00">american_team_url :character varying</text>
<text text-anchor="start" x="189.381" y="-354.3" font-family="Times,serif" font-size="14.00">overseas_team :character varying</text>
<text text-anchor="start" x="189.381" y="-340.3" font-family="Times,serif" font-size="14.00">college :character varying</text>
<text text-anchor="start" x="189.381" y="-326.3" font-family="Times,serif" font-size="14.00">birthdate :date</text>
<text text-anchor="start" x="189.381" y="-312.3" font-family="Times,serif" font-size="14.00">height :character varying</text>
<text text-anchor="start" x="189.381" y="-298.3" font-family="Times,serif" font-size="14.00">weight :character varying</text>
<text text-anchor="start" x="189.381" y="-284.3" font-family="Times,serif" font-size="14.00">website_url :character varying</text>
<text text-anchor="start" x="189.381" y="-270.3" font-family="Times,serif" font-size="14.00">video_url :character varying</text>
<text text-anchor="start" x="189.381" y="-256.3" font-family="Times,serif" font-size="14.00">sport_id :integer</text>
<text text-anchor="start" x="189.381" y="-242.3" font-family="Times,serif" font-size="14.00">american_team_name :character varying</text>
<text text-anchor="start" x="189.381" y="-228.3" font-family="Times,serif" font-size="14.00">photo_file_name :character varying</text>
<text text-anchor="start" x="189.381" y="-214.3" font-family="Times,serif" font-size="14.00">photo_content_type :character varying</text>
<text text-anchor="start" x="189.381" y="-200.3" font-family="Times,serif" font-size="14.00">photo_file_size :integer</text>
<text text-anchor="start" x="189.381" y="-186.3" font-family="Times,serif" font-size="14.00">id :integer</text>
</g>
<!-- NewsArticle -->
<g id="node5" class="node"><title>NewsArticle</title>
<path fill="none" stroke="black" d="M430.825,-0.5C430.825,-0.5 654.55,-0.5 654.55,-0.5 660.55,-0.5 666.55,-6.5 666.55,-12.5 666.55,-12.5 666.55,-130.5 666.55,-130.5 666.55,-136.5 660.55,-142.5 654.55,-142.5 654.55,-142.5 430.825,-142.5 430.825,-142.5 424.825,-142.5 418.825,-136.5 418.825,-130.5 418.825,-130.5 418.825,-12.5 418.825,-12.5 418.825,-6.5 424.825,-0.5 430.825,-0.5"/>
<text text-anchor="middle" x="542.688" y="-127.3" font-family="Times,serif" font-size="14.00">NewsArticle</text>
<polyline fill="none" stroke="black" points="418.825,-120.5 666.55,-120.5 "/>
<text text-anchor="start" x="426.825" y="-105.3" font-family="Times,serif" font-size="14.00">updated_at :timestamp without time zone</text>
<text text-anchor="start" x="426.825" y="-91.3" font-family="Times,serif" font-size="14.00">athlete_id :integer</text>
<text text-anchor="start" x="426.825" y="-77.3" font-family="Times,serif" font-size="14.00">sport_id :integer</text>
<text text-anchor="start" x="426.825" y="-63.3" font-family="Times,serif" font-size="14.00">headline :character varying</text>
<text text-anchor="start" x="426.825" y="-49.3" font-family="Times,serif" font-size="14.00">date_posted :date</text>
<text text-anchor="start" x="426.825" y="-35.3" font-family="Times,serif" font-size="14.00">url :character varying</text>
<text text-anchor="start" x="426.825" y="-21.3" font-family="Times,serif" font-size="14.00">created_at :timestamp without time zone</text>
<text text-anchor="start" x="426.825" y="-7.3" font-family="Times,serif" font-size="14.00">id :integer</text>
</g>
<!-- Athlete&#45;&gt;NewsArticle -->
<g id="edge1" class="edge"><title>Athlete&#45;&gt;NewsArticle</title>
<path fill="none" stroke="#a431f8" d="M461.176,-172.707C467.232,-165.262 473.166,-157.967 478.898,-150.92"/>
<ellipse fill="none" stroke="#a431f8" cx="458.426" cy="-176.088" rx="4.00002" ry="4.00002"/>
<polygon fill="#a431f8" stroke="#a431f8" points="479.218,-150.526 489.02,-145.608 482.374,-146.648 485.529,-142.769 485.529,-142.769 485.529,-142.769 482.374,-146.648 482.038,-139.929 479.218,-150.526 479.218,-150.526"/>
</g>
<!-- FeaturedPhoto -->
<g id="node4" class="node"><title>FeaturedPhoto</title>
<path fill="none" stroke="black" d="M497.825,-277.5C497.825,-277.5 721.55,-277.5 721.55,-277.5 727.55,-277.5 733.55,-283.5 733.55,-289.5 733.55,-289.5 733.55,-393.5 733.55,-393.5 733.55,-399.5 727.55,-405.5 721.55,-405.5 721.55,-405.5 497.825,-405.5 497.825,-405.5 491.825,-405.5 485.825,-399.5 485.825,-393.5 485.825,-393.5 485.825,-289.5 485.825,-289.5 485.825,-283.5 491.825,-277.5 497.825,-277.5"/>
<text text-anchor="middle" x="609.688" y="-390.3" font-family="Times,serif" font-size="14.00">FeaturedPhoto</text>
<polyline fill="none" stroke="black" points="485.825,-383.5 733.55,-383.5 "/>
<text text-anchor="start" x="493.825" y="-368.3" font-family="Times,serif" font-size="14.00">image_url :character varying</text>
<text text-anchor="start" x="493.825" y="-354.3" font-family="Times,serif" font-size="14.00">athlete_id :integer</text>
<text text-anchor="start" x="493.825" y="-340.3" font-family="Times,serif" font-size="14.00">sport_id :integer</text>
<text text-anchor="start" x="493.825" y="-326.3" font-family="Times,serif" font-size="14.00">id :integer</text>
<text text-anchor="start" x="493.825" y="-312.3" font-family="Times,serif" font-size="14.00">display_status :boolean</text>
<text text-anchor="start" x="493.825" y="-298.3" font-family="Times,serif" font-size="14.00">created_at :timestamp without time zone</text>
<text text-anchor="start" x="493.825" y="-284.3" font-family="Times,serif" font-size="14.00">updated_at :timestamp without time zone</text>
</g>
<!-- Sport -->
<g id="node6" class="node"><title>Sport</title>
<path fill="none" stroke="black" d="M573.825,-603.5C573.825,-603.5 797.55,-603.5 797.55,-603.5 803.55,-603.5 809.55,-609.5 809.55,-615.5 809.55,-615.5 809.55,-677.5 809.55,-677.5 809.55,-683.5 803.55,-689.5 797.55,-689.5 797.55,-689.5 573.825,-689.5 573.825,-689.5 567.825,-689.5 561.825,-683.5 561.825,-677.5 561.825,-677.5 561.825,-615.5 561.825,-615.5 561.825,-609.5 567.825,-603.5 573.825,-603.5"/>
<text text-anchor="middle" x="685.688" y="-674.3" font-family="Times,serif" font-size="14.00">Sport</text>
<polyline fill="none" stroke="black" points="561.825,-667.5 809.55,-667.5 "/>
<text text-anchor="start" x="569.825" y="-652.3" font-family="Times,serif" font-size="14.00">id :integer</text>
<text text-anchor="start" x="569.825" y="-638.3" font-family="Times,serif" font-size="14.00">created_at :timestamp without time zone</text>
<text text-anchor="start" x="569.825" y="-624.3" font-family="Times,serif" font-size="14.00">updated_at :timestamp without time zone</text>
<text text-anchor="start" x="569.825" y="-610.3" font-family="Times,serif" font-size="14.00">type_id :integer</text>
</g>
<!-- Sport&#45;&gt;Athlete -->
<g id="edge2" class="edge"><title>Sport&#45;&gt;Athlete</title>
<path fill="none" stroke="#9aeae4" d="M632.117,-597.903C608.932,-578.594 580.909,-556.908 553.688,-540 521.596,-520.067 507.291,-526.15 476.688,-504 476.6,-503.937 476.512,-503.873 476.425,-503.809"/>
<ellipse fill="none" stroke="#9aeae4" cx="635.46" cy="-600.708" rx="4.00002" ry="4.00002"/>
<polygon fill="#9aeae4" stroke="#9aeae4" points="476.31,-503.724 470.99,-494.135 472.304,-500.732 468.298,-497.741 468.298,-497.741 468.298,-497.741 472.304,-500.732 465.605,-501.347 476.31,-503.724 476.31,-503.724"/>
</g>
<!-- Sport&#45;&gt;FeaturedPhoto -->
<g id="edge3" class="edge"><title>Sport&#45;&gt;FeaturedPhoto</title>
<path fill="none" stroke="#95f18e" d="M673.173,-595.605C660.873,-546.567 641.965,-471.184 627.98,-415.43"/>
<ellipse fill="none" stroke="#95f18e" cx="674.147" cy="-599.489" rx="4.00001" ry="4.00001"/>
<polygon fill="#95f18e" stroke="#95f18e" points="627.95,-415.309 629.882,-404.515 626.734,-410.459 625.517,-405.61 625.517,-405.61 625.517,-405.61 626.734,-410.459 621.152,-406.704 627.95,-415.309 627.95,-415.309"/>
</g>
<!-- Sport&#45;&gt;NewsArticle -->
<g id="edge4" class="edge"><title>Sport&#45;&gt;NewsArticle</title>
<path fill="none" stroke="#69152c" d="M710.595,-595.88C751.964,-505.797 822.759,-312.355 742.688,-179 726.95,-152.79 702.336,-132.679 675.686,-117.379"/>
<ellipse fill="none" stroke="#69152c" cx="708.866" cy="-599.602" rx="4.00002" ry="4.00002"/>
<polygon fill="#69152c" stroke="#69152c" points="675.342,-117.19 668.747,-108.429 670.961,-114.781 666.579,-112.373 666.579,-112.373 666.579,-112.373 670.961,-114.781 664.411,-116.316 675.342,-117.19 675.342,-117.19"/>
</g>
<!-- TeamMember -->
<g id="node7" class="node"><title>TeamMember</title>
<path fill="none" stroke="black" d="M801.825,-249.5C801.825,-249.5 1025.55,-249.5 1025.55,-249.5 1031.55,-249.5 1037.55,-255.5 1037.55,-261.5 1037.55,-261.5 1037.55,-421.5 1037.55,-421.5 1037.55,-427.5 1031.55,-433.5 1025.55,-433.5 1025.55,-433.5 801.825,-433.5 801.825,-433.5 795.825,-433.5 789.825,-427.5 789.825,-421.5 789.825,-421.5 789.825,-261.5 789.825,-261.5 789.825,-255.5 795.825,-249.5 801.825,-249.5"/>
<text text-anchor="middle" x="913.688" y="-418.3" font-family="Times,serif" font-size="14.00">TeamMember</text>
<polyline fill="none" stroke="black" points="789.825,-411.5 1037.55,-411.5 "/>
<text text-anchor="start" x="797.825" y="-396.3" font-family="Times,serif" font-size="14.00">updated_at :timestamp without time zone</text>
<text text-anchor="start" x="797.825" y="-382.3" font-family="Times,serif" font-size="14.00">first_name :character varying</text>
<text text-anchor="start" x="797.825" y="-368.3" font-family="Times,serif" font-size="14.00">last_name :character varying</text>
<text text-anchor="start" x="797.825" y="-354.3" font-family="Times,serif" font-size="14.00">position :character varying</text>
<text text-anchor="start" x="797.825" y="-340.3" font-family="Times,serif" font-size="14.00">photo_url :character varying</text>
<text text-anchor="start" x="797.825" y="-326.3" font-family="Times,serif" font-size="14.00">email :character varying</text>
<text text-anchor="start" x="797.825" y="-312.3" font-family="Times,serif" font-size="14.00">twitter_url :character varying</text>
<text text-anchor="start" x="797.825" y="-298.3" font-family="Times,serif" font-size="14.00">facebook_url :character varying</text>
<text text-anchor="start" x="797.825" y="-284.3" font-family="Times,serif" font-size="14.00">description :text</text>
<text text-anchor="start" x="797.825" y="-270.3" font-family="Times,serif" font-size="14.00">created_at :timestamp without time zone</text>
<text text-anchor="start" x="797.825" y="-256.3" font-family="Times,serif" font-size="14.00">id :integer</text>
</g>
<!-- Sport&#45;&gt;TeamMember -->
<g id="edge5" class="edge"><title>Sport&#45;&gt;TeamMember</title>
<path fill="none" stroke="#4da03f" d="M722.339,-596.793C753.66,-555.169 799.723,-493.954 838.805,-442.015"/>
<ellipse fill="none" stroke="#4da03f" cx="719.795" cy="-600.173" rx="4.00002" ry="4.00002"/>
<polygon fill="#4da03f" stroke="#4da03f" points="839.002,-441.754 848.61,-436.469 842.008,-437.758 845.015,-433.763 845.015,-433.763 845.015,-433.763 842.008,-437.758 841.419,-431.057 839.002,-441.754 839.002,-441.754"/>
</g>
<!-- Testimonial -->
<g id="node8" class="node"><title>Testimonial</title>
<path fill="none" stroke="black" d="M839.825,-582.5C839.825,-582.5 1063.55,-582.5 1063.55,-582.5 1069.55,-582.5 1075.55,-588.5 1075.55,-594.5 1075.55,-594.5 1075.55,-698.5 1075.55,-698.5 1075.55,-704.5 1069.55,-710.5 1063.55,-710.5 1063.55,-710.5 839.825,-710.5 839.825,-710.5 833.825,-710.5 827.825,-704.5 827.825,-698.5 827.825,-698.5 827.825,-594.5 827.825,-594.5 827.825,-588.5 833.825,-582.5 839.825,-582.5"/>
<text text-anchor="middle" x="951.688" y="-695.3" font-family="Times,serif" font-size="14.00">Testimonial</text>
<polyline fill="none" stroke="black" points="827.825,-688.5 1075.55,-688.5 "/>
<text text-anchor="start" x="835.825" y="-673.3" font-family="Times,serif" font-size="14.00">quote :text</text>
<text text-anchor="start" x="835.825" y="-659.3" font-family="Times,serif" font-size="14.00">name :character varying</text>
<text text-anchor="start" x="835.825" y="-645.3" font-family="Times,serif" font-size="14.00">title :character varying</text>
<text text-anchor="start" x="835.825" y="-631.3" font-family="Times,serif" font-size="14.00">id :integer</text>
<text text-anchor="start" x="835.825" y="-617.3" font-family="Times,serif" font-size="14.00">created_at :timestamp without time zone</text>
<text text-anchor="start" x="835.825" y="-603.3" font-family="Times,serif" font-size="14.00">updated_at :timestamp without time zone</text>
<text text-anchor="start" x="835.825" y="-589.3" font-family="Times,serif" font-size="14.00">photo_url :character varying</text>
</g>
</g>
</svg>
