<?xml version="1.0" encoding="UTF-8" standalone="no"?>
<!DOCTYPE svg PUBLIC "-//W3C//DTD SVG 1.1//EN"
 "http://www.w3.org/Graphics/SVG/1.1/DTD/svg11.dtd">
<!-- Generated by graphviz version 2.38.0 (20140413.2041)
 -->
<!-- Title: models_diagram Pages: 1 -->
<svg width="410pt" height="225pt"
 viewBox="0.00 0.00 410.03 225.00" xmlns="http://www.w3.org/2000/svg" xmlns:xlink="http://www.w3.org/1999/xlink">
<g id="graph0" class="graph" transform="scale(1 1) rotate(0) translate(4 221)">
<title>models_diagram</title>
<polygon fill="none" stroke="none" points="-4,4 -4,-221 406.029,-221 406.029,4 -4,4"/>
<!-- _diagram_info -->
<g id="node1" class="node"><title>_diagram_info</title>
<text text-anchor="start" x="8" y="-202.6" font-family="Times,serif" font-size="13.00">Models diagram</text>
<text text-anchor="start" x="8" y="-189.6" font-family="Times,serif" font-size="13.00">Date: Jun 03 2016 &#45; 17:14</text>
<text text-anchor="start" x="8" y="-176.6" font-family="Times,serif" font-size="13.00">Migration version: 20160603202311</text>
<text text-anchor="start" x="8" y="-163.6" font-family="Times,serif" font-size="13.00">Generated by RailRoady 1.4.2</text>
<text text-anchor="start" x="8" y="-150.6" font-family="Times,serif" font-size="13.00">http://railroady.prestonlee.com</text>
</g>
<!-- Athlete -->
<g id="node2" class="node"><title>Athlete</title>
<ellipse fill="none" stroke="black" cx="48.4497" cy="-90" rx="36.2732" ry="18"/>
<text text-anchor="middle" x="48.4497" y="-85.8" font-family="Times,serif" font-size="14.00">Athlete</text>
</g>
<!-- NewsArticle -->
<g id="node4" class="node"><title>NewsArticle</title>
<ellipse fill="none" stroke="black" cx="151.45" cy="-18" rx="54.599" ry="18"/>
<text text-anchor="middle" x="151.45" y="-13.8" font-family="Times,serif" font-size="14.00">NewsArticle</text>
</g>
<!-- Athlete&#45;&gt;NewsArticle -->
<g id="edge1" class="edge"><title>Athlete&#45;&gt;NewsArticle</title>
<path fill="none" stroke="#2eb3de" d="M76.0381,-70.2506C89.6143,-61.024 106.04,-49.8609 120.091,-40.3115"/>
<ellipse fill="none" stroke="#2eb3de" cx="72.6016" cy="-72.5861" rx="4.00002" ry="4.00002"/>
<polygon fill="#2eb3de" stroke="#2eb3de" points="120.216,-40.2269 131.016,-38.3278 124.351,-37.4164 128.487,-34.6059 128.487,-34.6059 128.487,-34.6059 124.351,-37.4164 125.957,-30.8841 120.216,-40.2269 120.216,-40.2269"/>
</g>
<!-- FeaturedPhoto -->
<g id="node3" class="node"><title>FeaturedPhoto</title>
<ellipse fill="none" stroke="black" cx="164.45" cy="-90" rx="61.8736" ry="18"/>
<text text-anchor="middle" x="164.45" y="-85.8" font-family="Times,serif" font-size="14.00">FeaturedPhoto</text>
</g>
<!-- Sport -->
<g id="node5" class="node"><title>Sport</title>
<ellipse fill="none" stroke="black" cx="254.45" cy="-180.5" rx="29.0429" ry="18"/>
<text text-anchor="middle" x="254.45" y="-176.3" font-family="Times,serif" font-size="14.00">Sport</text>
</g>
<!-- Sport&#45;&gt;Athlete -->
<g id="edge2" class="edge"><title>Sport&#45;&gt;Athlete</title>
<path fill="none" stroke="#742eda" d="M234.907,-158.558C229.066,-153.217 222.364,-147.892 215.45,-144 166.185,-116.269 147.041,-126.002 93.4497,-108 90.8669,-107.132 88.2115,-106.21 85.5441,-105.26"/>
<ellipse fill="none" stroke="#742eda" cx="237.992" cy="-161.523" rx="4.00002" ry="4.00002"/>
<polygon fill="#742eda" stroke="#742eda" points="85.3332,-105.183 77.4823,-97.5276 80.6363,-103.469 75.9394,-101.755 75.9394,-101.755 75.9394,-101.755 80.6363,-103.469 74.3964,-105.982 85.3332,-105.183 85.3332,-105.183"/>
</g>
<!-- Sport&#45;&gt;FeaturedPhoto -->
<g id="edge3" class="edge"><title>Sport&#45;&gt;FeaturedPhoto</title>
<path fill="none" stroke="#f4097a" d="M233.574,-158.973C220.129,-145.751 202.603,-128.518 188.564,-114.712"/>
<ellipse fill="none" stroke="#f4097a" cx="236.736" cy="-162.081" rx="4.00002" ry="4.00002"/>
<polygon fill="#f4097a" stroke="#f4097a" points="188.301,-114.453 184.326,-104.233 184.736,-110.948 181.17,-107.442 181.17,-107.442 181.17,-107.442 184.736,-110.948 178.015,-110.651 188.301,-114.453 188.301,-114.453"/>
</g>
<!-- Sport&#45;&gt;NewsArticle -->
<g id="edge4" class="edge"><title>Sport&#45;&gt;NewsArticle</title>
<path fill="none" stroke="#4a11d1" d="M255.563,-154.278C255.377,-131.031 251.919,-96.5217 235.45,-72 225.498,-57.1822 209.859,-45.682 194.761,-37.2392"/>
<ellipse fill="none" stroke="#4a11d1" cx="255.532" cy="-158.293" rx="4" ry="4"/>
<polygon fill="#4a11d1" stroke="#4a11d1" points="194.341,-37.0193 187.575,-28.3898 189.913,-34.6972 185.485,-32.3751 185.485,-32.3751 185.485,-32.3751 189.913,-34.6972 183.395,-36.3604 194.341,-37.0193 194.341,-37.0193"/>
</g>
<!-- TeamMember -->
<g id="node6" class="node"><title>TeamMember</title>
<ellipse fill="none" stroke="black" cx="342.45" cy="-90" rx="59.6587" ry="18"/>
<text text-anchor="middle" x="342.45" y="-85.8" font-family="Times,serif" font-size="14.00">TeamMember</text>
</g>
<!-- Sport&#45;&gt;TeamMember -->
<g id="edge5" class="edge"><title>Sport&#45;&gt;TeamMember</title>
<path fill="none" stroke="#6a1c6c" d="M270.578,-157.304C282.658,-144.094 299.276,-127.36 313.566,-114.009"/>
<ellipse fill="none" stroke="#6a1c6c" cx="267.536" cy="-160.699" rx="4.00002" ry="4.00002"/>
<polygon fill="#6a1c6c" stroke="#6a1c6c" points="313.854,-113.745 324.264,-110.299 317.538,-110.364 321.222,-106.983 321.222,-106.983 321.222,-106.983 317.538,-110.364 318.179,-103.668 313.854,-113.745 313.854,-113.745"/>
</g>
<!-- TeamMember&#45;&gt;Sport -->
<g id="edge6" class="edge"><title>TeamMember&#45;&gt;Sport</title>
<path fill="none" stroke="#05e1b1" d="M325.575,-114.01C312.8,-127.919 295.252,-145.5 280.694,-158.943"/>
<ellipse fill="none" stroke="#05e1b1" cx="328.402" cy="-110.875" rx="4.00002" ry="4.00002"/>
<polygon fill="#05e1b1" stroke="#05e1b1" points="280.242,-159.352 269.806,-162.721 276.533,-162.705 272.824,-166.059 272.824,-166.059 272.824,-166.059 276.533,-162.705 275.842,-169.397 280.242,-159.352 280.242,-159.352"/>
</g>
</g>
</svg>
