<?xml version="1.0" encoding="UTF-8" standalone="no"?>
<!DOCTYPE svg PUBLIC "-//W3C//DTD SVG 1.1//EN"
 "http://www.w3.org/Graphics/SVG/1.1/DTD/svg11.dtd">
<!-- Generated by graphviz version 2.38.0 (20140413.2041)
 -->
<!-- Title: models_diagram Pages: 1 -->
<svg width="482pt" height="372pt"
 viewBox="0.00 0.00 481.55 372.00" xmlns="http://www.w3.org/2000/svg" xmlns:xlink="http://www.w3.org/1999/xlink">
<g id="graph0" class="graph" transform="scale(1 1) rotate(0) translate(4 368)">
<title>models_diagram</title>
<polygon fill="none" stroke="none" points="-4,4 -4,-368 477.55,-368 477.55,4 -4,4"/>
<!-- _diagram_info -->
<g id="node1" class="node"><title>_diagram_info</title>
<text text-anchor="start" x="8" y="-349.6" font-family="Times,serif" font-size="13.00">Models diagram</text>
<text text-anchor="start" x="8" y="-336.6" font-family="Times,serif" font-size="13.00">Date: Jun 03 2016 &#45; 10:30</text>
<text text-anchor="start" x="8" y="-323.6" font-family="Times,serif" font-size="13.00">Migration version: 20160602184625</text>
<text text-anchor="start" x="8" y="-310.6" font-family="Times,serif" font-size="13.00">Generated by RailRoady 1.4.2</text>
<text text-anchor="start" x="8" y="-297.6" font-family="Times,serif" font-size="13.00">http://railroady.prestonlee.com</text>
</g>
<!-- Athlete -->
<g id="node2" class="node"><title>Athlete</title>
<path fill="none" stroke="black" d="M237.825,-0.5C237.825,-0.5 461.55,-0.5 461.55,-0.5 467.55,-0.5 473.55,-6.5 473.55,-12.5 473.55,-12.5 473.55,-242.5 473.55,-242.5 473.55,-248.5 467.55,-254.5 461.55,-254.5 461.55,-254.5 237.825,-254.5 237.825,-254.5 231.825,-254.5 225.825,-248.5 225.825,-242.5 225.825,-242.5 225.825,-12.5 225.825,-12.5 225.825,-6.5 231.825,-0.5 237.825,-0.5"/>
<text text-anchor="middle" x="349.688" y="-239.3" font-family="Times,serif" font-size="14.00">Athlete</text>
<polyline fill="none" stroke="black" points="225.825,-232.5 473.55,-232.5 "/>
<text text-anchor="start" x="233.825" y="-217.3" font-family="Times,serif" font-size="14.00">sport_id :integer</text>
<text text-anchor="start" x="233.825" y="-203.3" font-family="Times,serif" font-size="14.00">created_at :timestamp without time zone</text>
<text text-anchor="start" x="233.825" y="-189.3" font-family="Times,serif" font-size="14.00">updated_at :timestamp without time zone</text>
<text text-anchor="start" x="233.825" y="-175.3" font-family="Times,serif" font-size="14.00">first_name :character varying</text>
<text text-anchor="start" x="233.825" y="-161.3" font-family="Times,serif" font-size="14.00">last_name :character varying</text>
<text text-anchor="start" x="233.825" y="-147.3" font-family="Times,serif" font-size="14.00">photo_url :character varying</text>
<text text-anchor="start" x="233.825" y="-133.3" font-family="Times,serif" font-size="14.00">position :character varying</text>
<text text-anchor="start" x="233.825" y="-119.3" font-family="Times,serif" font-size="14.00">american_team :character varying</text>
<text text-anchor="start" x="233.825" y="-105.3" font-family="Times,serif" font-size="14.00">overseas_team :character varying</text>
<text text-anchor="start" x="233.825" y="-91.3" font-family="Times,serif" font-size="14.00">college :character varying</text>
<text text-anchor="start" x="233.825" y="-77.3" font-family="Times,serif" font-size="14.00">birthdate :date</text>
<text text-anchor="start" x="233.825" y="-63.3" font-family="Times,serif" font-size="14.00">height :character varying</text>
<text text-anchor="start" x="233.825" y="-49.3" font-family="Times,serif" font-size="14.00">weight :character varying</text>
<text text-anchor="start" x="233.825" y="-35.3" font-family="Times,serif" font-size="14.00">website_url :character varying</text>
<text text-anchor="start" x="233.825" y="-21.3" font-family="Times,serif" font-size="14.00">video_url :character varying</text>
<text text-anchor="start" x="233.825" y="-7.3" font-family="Times,serif" font-size="14.00">id :integer</text>
</g>
<!-- Sport -->
<g id="node3" class="node"><title>Sport</title>
<path fill="none" stroke="black" d="M237.825,-291.5C237.825,-291.5 461.55,-291.5 461.55,-291.5 467.55,-291.5 473.55,-297.5 473.55,-303.5 473.55,-303.5 473.55,-351.5 473.55,-351.5 473.55,-357.5 467.55,-363.5 461.55,-363.5 461.55,-363.5 237.825,-363.5 237.825,-363.5 231.825,-363.5 225.825,-357.5 225.825,-351.5 225.825,-351.5 225.825,-303.5 225.825,-303.5 225.825,-297.5 231.825,-291.5 237.825,-291.5"/>
<text text-anchor="middle" x="349.688" y="-348.3" font-family="Times,serif" font-size="14.00">Sport</text>
<polyline fill="none" stroke="black" points="225.825,-341.5 473.55,-341.5 "/>
<text text-anchor="start" x="233.825" y="-326.3" font-family="Times,serif" font-size="14.00">id :integer</text>
<text text-anchor="start" x="233.825" y="-312.3" font-family="Times,serif" font-size="14.00">created_at :timestamp without time zone</text>
<text text-anchor="start" x="233.825" y="-298.3" font-family="Times,serif" font-size="14.00">updated_at :timestamp without time zone</text>
</g>
<!-- Sport&#45;&gt;Athlete -->
<g id="edge1" class="edge"><title>Sport&#45;&gt;Athlete</title>
<path fill="none" stroke="#af93d6" d="M349.688,-282.97C349.688,-277.213 349.688,-271.087 349.688,-264.721"/>
<ellipse fill="none" stroke="#af93d6" cx="349.688" cy="-287.102" rx="4" ry="4"/>
<polygon fill="#af93d6" stroke="#af93d6" points="349.688,-264.538 354.188,-254.538 349.688,-259.538 349.688,-254.538 349.688,-254.538 349.688,-254.538 349.688,-259.538 345.188,-254.538 349.688,-264.538 349.688,-264.538"/>
</g>
</g>
</svg>
