<?xml version="1.0" encoding="UTF-8" standalone="no"?>
<!DOCTYPE svg PUBLIC "-//W3C//DTD SVG 1.1//EN"
 "http://www.w3.org/Graphics/SVG/1.1/DTD/svg11.dtd">
<!-- Generated by graphviz version 2.38.0 (20140413.2041)
 -->
<!-- Title: models_diagram Pages: 1 -->
<svg width="615pt" height="386pt"
 viewBox="0.00 0.00 614.55 386.00" xmlns="http://www.w3.org/2000/svg" xmlns:xlink="http://www.w3.org/1999/xlink">
<g id="graph0" class="graph" transform="scale(1 1) rotate(0) translate(4 382)">
<title>models_diagram</title>
<polygon fill="none" stroke="none" points="-4,4 -4,-382 610.55,-382 610.55,4 -4,4"/>
<!-- _diagram_info -->
<g id="node1" class="node"><title>_diagram_info</title>
<text text-anchor="start" x="8" y="-356.6" font-family="Times,serif" font-size="13.00">Models diagram</text>
<text text-anchor="start" x="8" y="-343.6" font-family="Times,serif" font-size="13.00">Date: Jun 03 2016 &#45; 13:06</text>
<text text-anchor="start" x="8" y="-330.6" font-family="Times,serif" font-size="13.00">Migration version: 20160603164347</text>
<text text-anchor="start" x="8" y="-317.6" font-family="Times,serif" font-size="13.00">Generated by RailRoady 1.4.2</text>
<text text-anchor="start" x="8" y="-304.6" font-family="Times,serif" font-size="13.00">http://railroady.prestonlee.com</text>
</g>
<!-- Athlete -->
<g id="node2" class="node"><title>Athlete</title>
<path fill="none" stroke="black" d="M104.825,-0.5C104.825,-0.5 328.55,-0.5 328.55,-0.5 334.55,-0.5 340.55,-6.5 340.55,-12.5 340.55,-12.5 340.55,-242.5 340.55,-242.5 340.55,-248.5 334.55,-254.5 328.55,-254.5 328.55,-254.5 104.825,-254.5 104.825,-254.5 98.8254,-254.5 92.8254,-248.5 92.8254,-242.5 92.8254,-242.5 92.8254,-12.5 92.8254,-12.5 92.8254,-6.5 98.8254,-0.5 104.825,-0.5"/>
<text text-anchor="middle" x="216.688" y="-239.3" font-family="Times,serif" font-size="14.00">Athlete</text>
<polyline fill="none" stroke="black" points="92.8254,-232.5 340.55,-232.5 "/>
<text text-anchor="start" x="100.825" y="-217.3" font-family="Times,serif" font-size="14.00">sport_id :integer</text>
<text text-anchor="start" x="100.825" y="-203.3" font-family="Times,serif" font-size="14.00">created_at :timestamp without time zone</text>
<text text-anchor="start" x="100.825" y="-189.3" font-family="Times,serif" font-size="14.00">updated_at :timestamp without time zone</text>
<text text-anchor="start" x="100.825" y="-175.3" font-family="Times,serif" font-size="14.00">first_name :character varying</text>
<text text-anchor="start" x="100.825" y="-161.3" font-family="Times,serif" font-size="14.00">last_name :character varying</text>
<text text-anchor="start" x="100.825" y="-147.3" font-family="Times,serif" font-size="14.00">photo_url :character varying</text>
<text text-anchor="start" x="100.825" y="-133.3" font-family="Times,serif" font-size="14.00">position :character varying</text>
<text text-anchor="start" x="100.825" y="-119.3" font-family="Times,serif" font-size="14.00">american_team :character varying</text>
<text text-anchor="start" x="100.825" y="-105.3" font-family="Times,serif" font-size="14.00">overseas_team :character varying</text>
<text text-anchor="start" x="100.825" y="-91.3" font-family="Times,serif" font-size="14.00">college :character varying</text>
<text text-anchor="start" x="100.825" y="-77.3" font-family="Times,serif" font-size="14.00">birthdate :date</text>
<text text-anchor="start" x="100.825" y="-63.3" font-family="Times,serif" font-size="14.00">height :character varying</text>
<text text-anchor="start" x="100.825" y="-49.3" font-family="Times,serif" font-size="14.00">weight :character varying</text>
<text text-anchor="start" x="100.825" y="-35.3" font-family="Times,serif" font-size="14.00">website_url :character varying</text>
<text text-anchor="start" x="100.825" y="-21.3" font-family="Times,serif" font-size="14.00">video_url :character varying</text>
<text text-anchor="start" x="100.825" y="-7.3" font-family="Times,serif" font-size="14.00">id :integer</text>
</g>
<!-- FeaturedPhoto -->
<g id="node3" class="node"><title>FeaturedPhoto</title>
<path fill="none" stroke="black" d="M370.825,-63.5C370.825,-63.5 594.55,-63.5 594.55,-63.5 600.55,-63.5 606.55,-69.5 606.55,-75.5 606.55,-75.5 606.55,-179.5 606.55,-179.5 606.55,-185.5 600.55,-191.5 594.55,-191.5 594.55,-191.5 370.825,-191.5 370.825,-191.5 364.825,-191.5 358.825,-185.5 358.825,-179.5 358.825,-179.5 358.825,-75.5 358.825,-75.5 358.825,-69.5 364.825,-63.5 370.825,-63.5"/>
<text text-anchor="middle" x="482.688" y="-176.3" font-family="Times,serif" font-size="14.00">FeaturedPhoto</text>
<polyline fill="none" stroke="black" points="358.825,-169.5 606.55,-169.5 "/>
<text text-anchor="start" x="366.825" y="-154.3" font-family="Times,serif" font-size="14.00">image_url :character varying</text>
<text text-anchor="start" x="366.825" y="-140.3" font-family="Times,serif" font-size="14.00">athlete_id :integer</text>
<text text-anchor="start" x="366.825" y="-126.3" font-family="Times,serif" font-size="14.00">sport_id :integer</text>
<text text-anchor="start" x="366.825" y="-112.3" font-family="Times,serif" font-size="14.00">id :integer</text>
<text text-anchor="start" x="366.825" y="-98.3" font-family="Times,serif" font-size="14.00">display_status :boolean</text>
<text text-anchor="start" x="366.825" y="-84.3" font-family="Times,serif" font-size="14.00">created_at :timestamp without time zone</text>
<text text-anchor="start" x="366.825" y="-70.3" font-family="Times,serif" font-size="14.00">updated_at :timestamp without time zone</text>
</g>
<!-- Sport -->
<g id="node4" class="node"><title>Sport</title>
<path fill="none" stroke="black" d="M237.825,-291.5C237.825,-291.5 461.55,-291.5 461.55,-291.5 467.55,-291.5 473.55,-297.5 473.55,-303.5 473.55,-303.5 473.55,-365.5 473.55,-365.5 473.55,-371.5 467.55,-377.5 461.55,-377.5 461.55,-377.5 237.825,-377.5 237.825,-377.5 231.825,-377.5 225.825,-371.5 225.825,-365.5 225.825,-365.5 225.825,-303.5 225.825,-303.5 225.825,-297.5 231.825,-291.5 237.825,-291.5"/>
<text text-anchor="middle" x="349.688" y="-362.3" font-family="Times,serif" font-size="14.00">Sport</text>
<polyline fill="none" stroke="black" points="225.825,-355.5 473.55,-355.5 "/>
<text text-anchor="start" x="233.825" y="-340.3" font-family="Times,serif" font-size="14.00">id :integer</text>
<text text-anchor="start" x="233.825" y="-326.3" font-family="Times,serif" font-size="14.00">created_at :timestamp without time zone</text>
<text text-anchor="start" x="233.825" y="-312.3" font-family="Times,serif" font-size="14.00">updated_at :timestamp without time zone</text>
<text text-anchor="start" x="233.825" y="-298.3" font-family="Times,serif" font-size="14.00">type_id :integer</text>
</g>
<!-- Sport&#45;&gt;Athlete -->
<g id="edge1" class="edge"><title>Sport&#45;&gt;Athlete</title>
<path fill="none" stroke="#f49972" d="M317.662,-284.137C313.363,-277.511 308.799,-270.476 304.078,-263.2"/>
<ellipse fill="none" stroke="#f49972" cx="319.953" cy="-287.668" rx="4.00002" ry="4.00002"/>
<polygon fill="#f49972" stroke="#f49972" points="303.914,-262.947 302.247,-252.109 301.193,-258.752 298.472,-254.558 298.472,-254.558 298.472,-254.558 301.193,-258.752 294.696,-257.007 303.914,-262.947 303.914,-262.947"/>
</g>
<!-- Sport&#45;&gt;FeaturedPhoto -->
<g id="edge2" class="edge"><title>Sport&#45;&gt;FeaturedPhoto</title>
<path fill="none" stroke="#384bab" d="M381.725,-284.119C398.069,-258.927 418.251,-227.819 436.265,-200.054"/>
<ellipse fill="none" stroke="#384bab" cx="379.423" cy="-287.668" rx="4.00002" ry="4.00002"/>
<polygon fill="#384bab" stroke="#384bab" points="436.336,-199.944 445.554,-194.004 439.058,-195.75 441.779,-191.555 441.779,-191.555 441.779,-191.555 439.058,-195.75 438.004,-189.106 436.336,-199.944 436.336,-199.944"/>
</g>
</g>
</svg>
