<?xml version="1.0" encoding="UTF-8" standalone="no"?>
<!DOCTYPE svg PUBLIC "-//W3C//DTD SVG 1.1//EN"
 "http://www.w3.org/Graphics/SVG/1.1/DTD/svg11.dtd">
<!-- Generated by graphviz version 2.38.0 (20140413.2041)
 -->
<!-- Title: models_diagram Pages: 1 -->
<svg width="671pt" height="153pt"
 viewBox="0.00 0.00 671.42 153.00" xmlns="http://www.w3.org/2000/svg" xmlns:xlink="http://www.w3.org/1999/xlink">
<g id="graph0" class="graph" transform="scale(1 1) rotate(0) translate(4 149)">
<title>models_diagram</title>
<polygon fill="none" stroke="none" points="-4,4 -4,-149 667.421,-149 667.421,4 -4,4"/>
<!-- _diagram_info -->
<g id="node1" class="node"><title>_diagram_info</title>
<text text-anchor="start" x="8" y="-130.6" font-family="Times,serif" font-size="13.00">Models diagram</text>
<text text-anchor="start" x="8" y="-117.6" font-family="Times,serif" font-size="13.00">Date: Sep 10 2016 &#45; 14:17</text>
<text text-anchor="start" x="8" y="-104.6" font-family="Times,serif" font-size="13.00">Migration version: 20160910181234</text>
<text text-anchor="start" x="8" y="-91.6" font-family="Times,serif" font-size="13.00">Generated by RailRoady 1.4.2</text>
<text text-anchor="start" x="8" y="-78.6" font-family="Times,serif" font-size="13.00">http://railroady.prestonlee.com</text>
</g>
<!-- AdminUser -->
<g id="node2" class="node"><title>AdminUser</title>
<ellipse fill="none" stroke="black" cx="276.688" cy="-108.5" rx="51.2415" ry="18"/>
<text text-anchor="middle" x="276.688" y="-104.3" font-family="Times,serif" font-size="14.00">AdminUser</text>
</g>
<!-- Athlete -->
<g id="node3" class="node"><title>Athlete</title>
<ellipse fill="none" stroke="black" cx="259.688" cy="-18" rx="36.2732" ry="18"/>
<text text-anchor="middle" x="259.688" y="-13.8" font-family="Times,serif" font-size="14.00">Athlete</text>
</g>
<!-- FeaturedPhoto -->
<g id="node4" class="node"><title>FeaturedPhoto</title>
<ellipse fill="none" stroke="black" cx="375.688" cy="-18" rx="61.8736" ry="18"/>
<text text-anchor="middle" x="375.688" y="-13.8" font-family="Times,serif" font-size="14.00">FeaturedPhoto</text>
</g>
<!-- NewsArticle -->
<g id="node5" class="node"><title>NewsArticle</title>
<ellipse fill="none" stroke="black" cx="509.688" cy="-18" rx="54.599" ry="18"/>
<text text-anchor="middle" x="509.688" y="-13.8" font-family="Times,serif" font-size="14.00">NewsArticle</text>
</g>
<!-- Sport -->
<g id="node6" class="node"><title>Sport</title>
<ellipse fill="none" stroke="black" cx="375.688" cy="-108.5" rx="29.0429" ry="18"/>
<text text-anchor="middle" x="375.688" y="-104.3" font-family="Times,serif" font-size="14.00">Sport</text>
</g>
<!-- Sport&#45;&gt;Athlete -->
<g id="edge1" class="edge"><title>Sport&#45;&gt;Athlete</title>
<path fill="none" stroke="#f71449" d="M354.631,-87.3791C348.941,-82.2084 342.693,-76.7638 336.688,-72 321.737,-60.1395 304.274,-47.9921 289.762,-38.324"/>
<ellipse fill="none" stroke="#f71449" cx="357.609" cy="-90.1252" rx="4.00002" ry="4.00002"/>
<polygon fill="#f71449" stroke="#f71449" points="289.505,-38.1543 283.633,-28.8925 285.33,-35.4018 281.156,-32.6493 281.156,-32.6493 281.156,-32.6493 285.33,-35.4018 278.679,-36.4061 289.505,-38.1543 289.505,-38.1543"/>
</g>
<!-- Sport&#45;&gt;FeaturedPhoto -->
<g id="edge2" class="edge"><title>Sport&#45;&gt;FeaturedPhoto</title>
<path fill="none" stroke="#a720d1" d="M375.688,-82.189C375.688,-70.9711 375.688,-57.7517 375.688,-46.3113"/>
<ellipse fill="none" stroke="#a720d1" cx="375.688" cy="-86.4363" rx="4" ry="4"/>
<polygon fill="#a720d1" stroke="#a720d1" points="375.688,-46.0113 380.188,-36.0113 375.688,-41.0113 375.688,-36.0113 375.688,-36.0113 375.688,-36.0113 375.688,-41.0113 371.188,-36.0113 375.688,-46.0113 375.688,-46.0113"/>
</g>
<!-- Sport&#45;&gt;NewsArticle -->
<g id="edge3" class="edge"><title>Sport&#45;&gt;NewsArticle</title>
<path fill="none" stroke="#b7dd4d" d="M396.198,-86.6094C401.654,-81.5464 407.701,-76.3457 413.688,-72 431.399,-59.1427 452.563,-47.1449 470.506,-37.8276"/>
<ellipse fill="none" stroke="#b7dd4d" cx="392.997" cy="-89.6675" rx="4.00002" ry="4.00002"/>
<polygon fill="#b7dd4d" stroke="#b7dd4d" points="470.653,-37.7529 481.606,-37.2178 475.107,-35.481 479.561,-33.2091 479.561,-33.2091 479.561,-33.2091 475.107,-35.481 477.516,-29.2005 470.653,-37.7529 470.653,-37.7529"/>
</g>
<!-- TeamMember -->
<g id="node7" class="node"><title>TeamMember</title>
<ellipse fill="none" stroke="black" cx="482.688" cy="-108.5" rx="59.6587" ry="18"/>
<text text-anchor="middle" x="482.688" y="-104.3" font-family="Times,serif" font-size="14.00">TeamMember</text>
</g>
<!-- Testimonial -->
<g id="node8" class="node"><title>Testimonial</title>
<ellipse fill="none" stroke="black" cx="611.688" cy="-108.5" rx="51.9676" ry="18"/>
<text text-anchor="middle" x="611.688" y="-104.3" font-family="Times,serif" font-size="14.00">Testimonial</text>
</g>
</g>
</svg>
