<?xml version="1.0" encoding="UTF-8" standalone="no"?>
<!DOCTYPE svg PUBLIC "-//W3C//DTD SVG 1.1//EN"
 "http://www.w3.org/Graphics/SVG/1.1/DTD/svg11.dtd">
<!-- Generated by graphviz version 2.38.0 (20140413.2041)
 -->
<!-- Title: models_diagram Pages: 1 -->
<svg width="1350pt" height="789pt"
 viewBox="0.00 0.00 1349.55 789.00" xmlns="http://www.w3.org/2000/svg" xmlns:xlink="http://www.w3.org/1999/xlink">
<g id="graph0" class="graph" transform="scale(1 1) rotate(0) translate(4 785)">
<title>models_diagram</title>
<polygon fill="none" stroke="none" points="-4,4 -4,-785 1345.55,-785 1345.55,4 -4,4"/>
<!-- _diagram_info -->
<g id="node1" class="node"><title>_diagram_info</title>
<text text-anchor="start" x="8" y="-696.6" font-family="Times,serif" font-size="13.00">Models diagram</text>
<text text-anchor="start" x="8" y="-683.6" font-family="Times,serif" font-size="13.00">Date: Aug 02 2016 &#45; 14:19</text>
<text text-anchor="start" x="8" y="-670.6" font-family="Times,serif" font-size="13.00">Migration version: 20160802181851</text>
<text text-anchor="start" x="8" y="-657.6" font-family="Times,serif" font-size="13.00">Generated by RailRoady 1.4.2</text>
<text text-anchor="start" x="8" y="-644.6" font-family="Times,serif" font-size="13.00">http://railroady.prestonlee.com</text>
</g>
<!-- AdminUser -->
<g id="node2" class="node"><title>AdminUser</title>
<path fill="none" stroke="black" d="M237.053,-568.5C237.053,-568.5 532.323,-568.5 532.323,-568.5 538.323,-568.5 544.323,-574.5 544.323,-580.5 544.323,-580.5 544.323,-768.5 544.323,-768.5 544.323,-774.5 538.323,-780.5 532.323,-780.5 532.323,-780.5 237.053,-780.5 237.053,-780.5 231.053,-780.5 225.053,-774.5 225.053,-768.5 225.053,-768.5 225.053,-580.5 225.053,-580.5 225.053,-574.5 231.053,-568.5 237.053,-568.5"/>
<text text-anchor="middle" x="384.688" y="-765.3" font-family="Times,serif" font-size="14.00">AdminUser</text>
<polyline fill="none" stroke="black" points="225.053,-758.5 544.323,-758.5 "/>
<text text-anchor="start" x="233.053" y="-743.3" font-family="Times,serif" font-size="14.00">updated_at :timestamp without time zone</text>
<text text-anchor="start" x="233.053" y="-729.3" font-family="Times,serif" font-size="14.00">email :character varying</text>
<text text-anchor="start" x="233.053" y="-715.3" font-family="Times,serif" font-size="14.00">encrypted_password :character varying</text>
<text text-anchor="start" x="233.053" y="-701.3" font-family="Times,serif" font-size="14.00">reset_password_token :character varying</text>
<text text-anchor="start" x="233.053" y="-687.3" font-family="Times,serif" font-size="14.00">reset_password_sent_at :timestamp without time zone</text>
<text text-anchor="start" x="233.053" y="-673.3" font-family="Times,serif" font-size="14.00">remember_created_at :timestamp without time zone</text>
<text text-anchor="start" x="233.053" y="-659.3" font-family="Times,serif" font-size="14.00">sign_in_count :integer</text>
<text text-anchor="start" x="233.053" y="-645.3" font-family="Times,serif" font-size="14.00">current_sign_in_at :timestamp without time zone</text>
<text text-anchor="start" x="233.053" y="-631.3" font-family="Times,serif" font-size="14.00">last_sign_in_at :timestamp without time zone</text>
<text text-anchor="start" x="233.053" y="-617.3" font-family="Times,serif" font-size="14.00">current_sign_in_ip :inet</text>
<text text-anchor="start" x="233.053" y="-603.3" font-family="Times,serif" font-size="14.00">last_sign_in_ip :inet</text>
<text text-anchor="start" x="233.053" y="-589.3" font-family="Times,serif" font-size="14.00">created_at :timestamp without time zone</text>
<text text-anchor="start" x="233.053" y="-575.3" font-family="Times,serif" font-size="14.00">id :integer</text>
</g>
<!-- Athlete -->
<g id="node3" class="node"><title>Athlete</title>
<path fill="none" stroke="black" d="M269.381,-179.5C269.381,-179.5 531.995,-179.5 531.995,-179.5 537.995,-179.5 543.995,-185.5 543.995,-191.5 543.995,-191.5 543.995,-519.5 543.995,-519.5 543.995,-525.5 537.995,-531.5 531.995,-531.5 531.995,-531.5 269.381,-531.5 269.381,-531.5 263.381,-531.5 257.381,-525.5 257.381,-519.5 257.381,-519.5 257.381,-191.5 257.381,-191.5 257.381,-185.5 263.381,-179.5 269.381,-179.5"/>
<text text-anchor="middle" x="400.688" y="-516.3" font-family="Times,serif" font-size="14.00">Athlete</text>
<polyline fill="none" stroke="black" points="257.381,-509.5 543.995,-509.5 "/>
<text text-anchor="start" x="265.381" y="-494.3" font-family="Times,serif" font-size="14.00">country_code :character varying</text>
<text text-anchor="start" x="265.381" y="-480.3" font-family="Times,serif" font-size="14.00">created_at :timestamp without time zone</text>
<text text-anchor="start" x="265.381" y="-466.3" font-family="Times,serif" font-size="14.00">updated_at :timestamp without time zone</text>
<text text-anchor="start" x="265.381" y="-452.3" font-family="Times,serif" font-size="14.00">first_name :character varying</text>
<text text-anchor="start" x="265.381" y="-438.3" font-family="Times,serif" font-size="14.00">last_name :character varying</text>
<text text-anchor="start" x="265.381" y="-424.3" font-family="Times,serif" font-size="14.00">position :character varying</text>
<text text-anchor="start" x="265.381" y="-410.3" font-family="Times,serif" font-size="14.00">american_team_url :character varying</text>
<text text-anchor="start" x="265.381" y="-396.3" font-family="Times,serif" font-size="14.00">overseas_team :character varying</text>
<text text-anchor="start" x="265.381" y="-382.3" font-family="Times,serif" font-size="14.00">college :character varying</text>
<text text-anchor="start" x="265.381" y="-368.3" font-family="Times,serif" font-size="14.00">birthdate :date</text>
<text text-anchor="start" x="265.381" y="-354.3" font-family="Times,serif" font-size="14.00">height :character varying</text>
<text text-anchor="start" x="265.381" y="-340.3" font-family="Times,serif" font-size="14.00">weight :character varying</text>
<text text-anchor="start" x="265.381" y="-326.3" font-family="Times,serif" font-size="14.00">website_url :character varying</text>
<text text-anchor="start" x="265.381" y="-312.3" font-family="Times,serif" font-size="14.00">video_embed_code :text</text>
<text text-anchor="start" x="265.381" y="-298.3" font-family="Times,serif" font-size="14.00">sport_id :integer</text>
<text text-anchor="start" x="265.381" y="-284.3" font-family="Times,serif" font-size="14.00">american_team_name :character varying</text>
<text text-anchor="start" x="265.381" y="-270.3" font-family="Times,serif" font-size="14.00">photo_file_name :character varying</text>
<text text-anchor="start" x="265.381" y="-256.3" font-family="Times,serif" font-size="14.00">photo_content_type :character varying</text>
<text text-anchor="start" x="265.381" y="-242.3" font-family="Times,serif" font-size="14.00">photo_file_size :integer</text>
<text text-anchor="start" x="265.381" y="-228.3" font-family="Times,serif" font-size="14.00">photo_updated_at :timestamp without time zone</text>
<text text-anchor="start" x="265.381" y="-214.3" font-family="Times,serif" font-size="14.00">description :text</text>
<text text-anchor="start" x="265.381" y="-200.3" font-family="Times,serif" font-size="14.00">is_available :boolean</text>
<text text-anchor="start" x="265.381" y="-186.3" font-family="Times,serif" font-size="14.00">id :integer</text>
</g>
<!-- NewsArticle -->
<g id="node5" class="node"><title>NewsArticle</title>
<path fill="none" stroke="black" d="M506.825,-0.5C506.825,-0.5 730.55,-0.5 730.55,-0.5 736.55,-0.5 742.55,-6.5 742.55,-12.5 742.55,-12.5 742.55,-130.5 742.55,-130.5 742.55,-136.5 736.55,-142.5 730.55,-142.5 730.55,-142.5 506.825,-142.5 506.825,-142.5 500.825,-142.5 494.825,-136.5 494.825,-130.5 494.825,-130.5 494.825,-12.5 494.825,-12.5 494.825,-6.5 500.825,-0.5 506.825,-0.5"/>
<text text-anchor="middle" x="618.688" y="-127.3" font-family="Times,serif" font-size="14.00">NewsArticle</text>
<polyline fill="none" stroke="black" points="494.825,-120.5 742.55,-120.5 "/>
<text text-anchor="start" x="502.825" y="-105.3" font-family="Times,serif" font-size="14.00">updated_at :timestamp without time zone</text>
<text text-anchor="start" x="502.825" y="-91.3" font-family="Times,serif" font-size="14.00">athlete_id :integer</text>
<text text-anchor="start" x="502.825" y="-77.3" font-family="Times,serif" font-size="14.00">sport_id :integer</text>
<text text-anchor="start" x="502.825" y="-63.3" font-family="Times,serif" font-size="14.00">headline :character varying</text>
<text text-anchor="start" x="502.825" y="-49.3" font-family="Times,serif" font-size="14.00">date_posted :date</text>
<text text-anchor="start" x="502.825" y="-35.3" font-family="Times,serif" font-size="14.00">url :character varying</text>
<text text-anchor="start" x="502.825" y="-21.3" font-family="Times,serif" font-size="14.00">created_at :timestamp without time zone</text>
<text text-anchor="start" x="502.825" y="-7.3" font-family="Times,serif" font-size="14.00">id :integer</text>
</g>
<!-- Athlete&#45;&gt;NewsArticle -->
<g id="edge1" class="edge"><title>Athlete&#45;&gt;NewsArticle</title>
<path fill="none" stroke="#5fd5dc" d="M541.288,-172.623C547.043,-165.178 552.67,-157.899 558.096,-150.88"/>
<ellipse fill="none" stroke="#5fd5dc" cx="538.718" cy="-175.947" rx="4.00002" ry="4.00002"/>
<polygon fill="#5fd5dc" stroke="#5fd5dc" points="558.253,-150.677 567.929,-145.518 561.311,-146.722 564.369,-142.766 564.369,-142.766 564.369,-142.766 561.311,-146.722 560.809,-140.013 558.253,-150.677 558.253,-150.677"/>
</g>
<!-- FeaturedPhoto -->
<g id="node4" class="node"><title>FeaturedPhoto</title>
<path fill="none" stroke="black" d="M573.825,-291.5C573.825,-291.5 797.55,-291.5 797.55,-291.5 803.55,-291.5 809.55,-297.5 809.55,-303.5 809.55,-303.5 809.55,-407.5 809.55,-407.5 809.55,-413.5 803.55,-419.5 797.55,-419.5 797.55,-419.5 573.825,-419.5 573.825,-419.5 567.825,-419.5 561.825,-413.5 561.825,-407.5 561.825,-407.5 561.825,-303.5 561.825,-303.5 561.825,-297.5 567.825,-291.5 573.825,-291.5"/>
<text text-anchor="middle" x="685.688" y="-404.3" font-family="Times,serif" font-size="14.00">FeaturedPhoto</text>
<polyline fill="none" stroke="black" points="561.825,-397.5 809.55,-397.5 "/>
<text text-anchor="start" x="569.825" y="-382.3" font-family="Times,serif" font-size="14.00">image_url :character varying</text>
<text text-anchor="start" x="569.825" y="-368.3" font-family="Times,serif" font-size="14.00">athlete_id :integer</text>
<text text-anchor="start" x="569.825" y="-354.3" font-family="Times,serif" font-size="14.00">sport_id :integer</text>
<text text-anchor="start" x="569.825" y="-340.3" font-family="Times,serif" font-size="14.00">id :integer</text>
<text text-anchor="start" x="569.825" y="-326.3" font-family="Times,serif" font-size="14.00">display_status :boolean</text>
<text text-anchor="start" x="569.825" y="-312.3" font-family="Times,serif" font-size="14.00">created_at :timestamp without time zone</text>
<text text-anchor="start" x="569.825" y="-298.3" font-family="Times,serif" font-size="14.00">updated_at :timestamp without time zone</text>
</g>
<!-- Sport -->
<g id="node6" class="node"><title>Sport</title>
<path fill="none" stroke="black" d="M573.825,-624.5C573.825,-624.5 797.55,-624.5 797.55,-624.5 803.55,-624.5 809.55,-630.5 809.55,-636.5 809.55,-636.5 809.55,-712.5 809.55,-712.5 809.55,-718.5 803.55,-724.5 797.55,-724.5 797.55,-724.5 573.825,-724.5 573.825,-724.5 567.825,-724.5 561.825,-718.5 561.825,-712.5 561.825,-712.5 561.825,-636.5 561.825,-636.5 561.825,-630.5 567.825,-624.5 573.825,-624.5"/>
<text text-anchor="middle" x="685.688" y="-709.3" font-family="Times,serif" font-size="14.00">Sport</text>
<polyline fill="none" stroke="black" points="561.825,-702.5 809.55,-702.5 "/>
<text text-anchor="start" x="569.825" y="-687.3" font-family="Times,serif" font-size="14.00">id :integer</text>
<text text-anchor="start" x="569.825" y="-673.3" font-family="Times,serif" font-size="14.00">created_at :timestamp without time zone</text>
<text text-anchor="start" x="569.825" y="-659.3" font-family="Times,serif" font-size="14.00">updated_at :timestamp without time zone</text>
<text text-anchor="start" x="569.825" y="-645.3" font-family="Times,serif" font-size="14.00">type_id :integer</text>
<text text-anchor="start" x="569.825" y="-631.3" font-family="Times,serif" font-size="14.00">name :character varying</text>
</g>
<!-- Sport&#45;&gt;Athlete -->
<g id="edge2" class="edge"><title>Sport&#45;&gt;Athlete</title>
<path fill="none" stroke="#4fe1ba" d="M632.6,-618.068C608.034,-592.152 578.616,-560.734 552.688,-532 552.068,-531.313 551.446,-530.623 550.824,-529.933"/>
<ellipse fill="none" stroke="#4fe1ba" cx="635.656" cy="-621.289" rx="4.00002" ry="4.00002"/>
<polygon fill="#4fe1ba" stroke="#4fe1ba" points="550.802,-529.908 547.467,-519.462 547.461,-526.189 544.119,-522.469 544.119,-522.469 544.119,-522.469 547.461,-526.189 540.772,-525.477 550.802,-529.908 550.802,-529.908"/>
</g>
<!-- Sport&#45;&gt;FeaturedPhoto -->
<g id="edge3" class="edge"><title>Sport&#45;&gt;FeaturedPhoto</title>
<path fill="none" stroke="#06babe" d="M685.688,-616.016C685.688,-563.867 685.688,-486.706 685.688,-430.073"/>
<ellipse fill="none" stroke="#06babe" cx="685.688" cy="-620.317" rx="4" ry="4"/>
<polygon fill="#06babe" stroke="#06babe" points="685.688,-429.748 690.188,-419.748 685.688,-424.748 685.688,-419.748 685.688,-419.748 685.688,-419.748 685.688,-424.748 681.188,-419.748 685.688,-429.748 685.688,-429.748"/>
</g>
<!-- Sport&#45;&gt;NewsArticle -->
<g id="edge4" class="edge"><title>Sport&#45;&gt;NewsArticle</title>
<path fill="none" stroke="#fcefd2" d="M755.604,-618.911C780.458,-595.196 805.524,-565.225 818.688,-532 876.476,-386.142 899.45,-313.505 818.688,-179 802.95,-152.79 778.336,-132.679 751.686,-117.379"/>
<ellipse fill="none" stroke="#fcefd2" cx="752.558" cy="-621.76" rx="4.00002" ry="4.00002"/>
<polygon fill="#fcefd2" stroke="#fcefd2" points="751.342,-117.19 744.747,-108.429 746.961,-114.781 742.579,-112.373 742.579,-112.373 742.579,-112.373 746.961,-114.781 740.411,-116.316 751.342,-117.19 751.342,-117.19"/>
</g>
<!-- TeamMember -->
<g id="node7" class="node"><title>TeamMember</title>
<path fill="none" stroke="black" d="M839.825,-582.5C839.825,-582.5 1063.55,-582.5 1063.55,-582.5 1069.55,-582.5 1075.55,-588.5 1075.55,-594.5 1075.55,-594.5 1075.55,-754.5 1075.55,-754.5 1075.55,-760.5 1069.55,-766.5 1063.55,-766.5 1063.55,-766.5 839.825,-766.5 839.825,-766.5 833.825,-766.5 827.825,-760.5 827.825,-754.5 827.825,-754.5 827.825,-594.5 827.825,-594.5 827.825,-588.5 833.825,-582.5 839.825,-582.5"/>
<text text-anchor="middle" x="951.688" y="-751.3" font-family="Times,serif" font-size="14.00">TeamMember</text>
<polyline fill="none" stroke="black" points="827.825,-744.5 1075.55,-744.5 "/>
<text text-anchor="start" x="835.825" y="-729.3" font-family="Times,serif" font-size="14.00">updated_at :timestamp without time zone</text>
<text text-anchor="start" x="835.825" y="-715.3" font-family="Times,serif" font-size="14.00">first_name :character varying</text>
<text text-anchor="start" x="835.825" y="-701.3" font-family="Times,serif" font-size="14.00">last_name :character varying</text>
<text text-anchor="start" x="835.825" y="-687.3" font-family="Times,serif" font-size="14.00">position :character varying</text>
<text text-anchor="start" x="835.825" y="-673.3" font-family="Times,serif" font-size="14.00">photo_url :character varying</text>
<text text-anchor="start" x="835.825" y="-659.3" font-family="Times,serif" font-size="14.00">email :character varying</text>
<text text-anchor="start" x="835.825" y="-645.3" font-family="Times,serif" font-size="14.00">twitter_url :character varying</text>
<text text-anchor="start" x="835.825" y="-631.3" font-family="Times,serif" font-size="14.00">facebook_url :character varying</text>
<text text-anchor="start" x="835.825" y="-617.3" font-family="Times,serif" font-size="14.00">description :text</text>
<text text-anchor="start" x="835.825" y="-603.3" font-family="Times,serif" font-size="14.00">created_at :timestamp without time zone</text>
<text text-anchor="start" x="835.825" y="-589.3" font-family="Times,serif" font-size="14.00">id :integer</text>
</g>
<!-- Testimonial -->
<g id="node8" class="node"><title>Testimonial</title>
<path fill="none" stroke="black" d="M1105.83,-610.5C1105.83,-610.5 1329.55,-610.5 1329.55,-610.5 1335.55,-610.5 1341.55,-616.5 1341.55,-622.5 1341.55,-622.5 1341.55,-726.5 1341.55,-726.5 1341.55,-732.5 1335.55,-738.5 1329.55,-738.5 1329.55,-738.5 1105.83,-738.5 1105.83,-738.5 1099.83,-738.5 1093.83,-732.5 1093.83,-726.5 1093.83,-726.5 1093.83,-622.5 1093.83,-622.5 1093.83,-616.5 1099.83,-610.5 1105.83,-610.5"/>
<text text-anchor="middle" x="1217.69" y="-723.3" font-family="Times,serif" font-size="14.00">Testimonial</text>
<polyline fill="none" stroke="black" points="1093.83,-716.5 1341.55,-716.5 "/>
<text text-anchor="start" x="1101.83" y="-701.3" font-family="Times,serif" font-size="14.00">quote :text</text>
<text text-anchor="start" x="1101.83" y="-687.3" font-family="Times,serif" font-size="14.00">name :character varying</text>
<text text-anchor="start" x="1101.83" y="-673.3" font-family="Times,serif" font-size="14.00">title :character varying</text>
<text text-anchor="start" x="1101.83" y="-659.3" font-family="Times,serif" font-size="14.00">id :integer</text>
<text text-anchor="start" x="1101.83" y="-645.3" font-family="Times,serif" font-size="14.00">created_at :timestamp without time zone</text>
<text text-anchor="start" x="1101.83" y="-631.3" font-family="Times,serif" font-size="14.00">updated_at :timestamp without time zone</text>
<text text-anchor="start" x="1101.83" y="-617.3" font-family="Times,serif" font-size="14.00">photo_url :character varying</text>
</g>
</g>
</svg>
