<?xml version="1.0" encoding="UTF-8" standalone="no"?>
<!DOCTYPE svg PUBLIC "-//W3C//DTD SVG 1.1//EN"
 "http://www.w3.org/Graphics/SVG/1.1/DTD/svg11.dtd">
<!-- Generated by graphviz version 2.38.0 (20140413.2041)
 -->
<!-- Title: models_diagram Pages: 1 -->
<svg width="1084pt" height="761pt"
 viewBox="0.00 0.00 1083.55 761.00" xmlns="http://www.w3.org/2000/svg" xmlns:xlink="http://www.w3.org/1999/xlink">
<g id="graph0" class="graph" transform="scale(1 1) rotate(0) translate(4 757)">
<title>models_diagram</title>
<polygon fill="none" stroke="none" points="-4,4 -4,-757 1079.55,-757 1079.55,4 -4,4"/>
<!-- _diagram_info -->
<g id="node1" class="node"><title>_diagram_info</title>
<text text-anchor="start" x="8" y="-668.6" font-family="Times,serif" font-size="13.00">Models diagram</text>
<text text-anchor="start" x="8" y="-655.6" font-family="Times,serif" font-size="13.00">Date: Jul 14 2016 &#45; 18:19</text>
<text text-anchor="start" x="8" y="-642.6" font-family="Times,serif" font-size="13.00">Migration version: 20160714220707</text>
<text text-anchor="start" x="8" y="-629.6" font-family="Times,serif" font-size="13.00">Generated by RailRoady 1.4.2</text>
<text text-anchor="start" x="8" y="-616.6" font-family="Times,serif" font-size="13.00">http://railroady.prestonlee.com</text>
</g>
<!-- AdminUser -->
<g id="node2" class="node"><title>AdminUser</title>
<path fill="none" stroke="black" d="M237.053,-540.5C237.053,-540.5 532.323,-540.5 532.323,-540.5 538.323,-540.5 544.323,-546.5 544.323,-552.5 544.323,-552.5 544.323,-740.5 544.323,-740.5 544.323,-746.5 538.323,-752.5 532.323,-752.5 532.323,-752.5 237.053,-752.5 237.053,-752.5 231.053,-752.5 225.053,-746.5 225.053,-740.5 225.053,-740.5 225.053,-552.5 225.053,-552.5 225.053,-546.5 231.053,-540.5 237.053,-540.5"/>
<text text-anchor="middle" x="384.688" y="-737.3" font-family="Times,serif" font-size="14.00">AdminUser</text>
<polyline fill="none" stroke="black" points="225.053,-730.5 544.323,-730.5 "/>
<text text-anchor="start" x="233.053" y="-715.3" font-family="Times,serif" font-size="14.00">updated_at :timestamp without time zone</text>
<text text-anchor="start" x="233.053" y="-701.3" font-family="Times,serif" font-size="14.00">email :character varying</text>
<text text-anchor="start" x="233.053" y="-687.3" font-family="Times,serif" font-size="14.00">encrypted_password :character varying</text>
<text text-anchor="start" x="233.053" y="-673.3" font-family="Times,serif" font-size="14.00">reset_password_token :character varying</text>
<text text-anchor="start" x="233.053" y="-659.3" font-family="Times,serif" font-size="14.00">reset_password_sent_at :timestamp without time zone</text>
<text text-anchor="start" x="233.053" y="-645.3" font-family="Times,serif" font-size="14.00">remember_created_at :timestamp without time zone</text>
<text text-anchor="start" x="233.053" y="-631.3" font-family="Times,serif" font-size="14.00">sign_in_count :integer</text>
<text text-anchor="start" x="233.053" y="-617.3" font-family="Times,serif" font-size="14.00">current_sign_in_at :timestamp without time zone</text>
<text text-anchor="start" x="233.053" y="-603.3" font-family="Times,serif" font-size="14.00">last_sign_in_at :timestamp without time zone</text>
<text text-anchor="start" x="233.053" y="-589.3" font-family="Times,serif" font-size="14.00">current_sign_in_ip :inet</text>
<text text-anchor="start" x="233.053" y="-575.3" font-family="Times,serif" font-size="14.00">last_sign_in_ip :inet</text>
<text text-anchor="start" x="233.053" y="-561.3" font-family="Times,serif" font-size="14.00">created_at :timestamp without time zone</text>
<text text-anchor="start" x="233.053" y="-547.3" font-family="Times,serif" font-size="14.00">id :integer</text>
</g>
<!-- Athlete -->
<g id="node3" class="node"><title>Athlete</title>
<path fill="none" stroke="black" d="M117.381,-179.5C117.381,-179.5 379.995,-179.5 379.995,-179.5 385.995,-179.5 391.995,-185.5 391.995,-191.5 391.995,-191.5 391.995,-491.5 391.995,-491.5 391.995,-497.5 385.995,-503.5 379.995,-503.5 379.995,-503.5 117.381,-503.5 117.381,-503.5 111.381,-503.5 105.381,-497.5 105.381,-491.5 105.381,-491.5 105.381,-191.5 105.381,-191.5 105.381,-185.5 111.381,-179.5 117.381,-179.5"/>
<text text-anchor="middle" x="248.688" y="-488.3" font-family="Times,serif" font-size="14.00">Athlete</text>
<polyline fill="none" stroke="black" points="105.381,-481.5 391.995,-481.5 "/>
<text text-anchor="start" x="113.381" y="-466.3" font-family="Times,serif" font-size="14.00">photo_updated_at :timestamp without time zone</text>
<text text-anchor="start" x="113.381" y="-452.3" font-family="Times,serif" font-size="14.00">created_at :timestamp without time zone</text>
<text text-anchor="start" x="113.381" y="-438.3" font-family="Times,serif" font-size="14.00">updated_at :timestamp without time zone</text>
<text text-anchor="start" x="113.381" y="-424.3" font-family="Times,serif" font-size="14.00">first_name :character varying</text>
<text text-anchor="start" x="113.381" y="-410.3" font-family="Times,serif" font-size="14.00">last_name :character varying</text>
<text text-anchor="start" x="113.381" y="-396.3" font-family="Times,serif" font-size="14.00">photo_url :character varying</text>
<text text-anchor="start" x="113.381" y="-382.3" font-family="Times,serif" font-size="14.00">position :character varying</text>
<text text-anchor="start" x="113.381" y="-368.3" font-family="Times,serif" font-size="14.00">american_team_url :character varying</text>
<text text-anchor="start" x="113.381" y="-354.3" font-family="Times,serif" font-size="14.00">overseas_team :character varying</text>
<text text-anchor="start" x="113.381" y="-340.3" font-family="Times,serif" font-size="14.00">college :character varying</text>
<text text-anchor="start" x="113.381" y="-326.3" font-family="Times,serif" font-size="14.00">birthdate :date</text>
<text text-anchor="start" x="113.381" y="-312.3" font-family="Times,serif" font-size="14.00">height :character varying</text>
<text text-anchor="start" x="113.381" y="-298.3" font-family="Times,serif" font-size="14.00">weight :character varying</text>
<text text-anchor="start" x="113.381" y="-284.3" font-family="Times,serif" font-size="14.00">website_url :character varying</text>
<text text-anchor="start" x="113.381" y="-270.3" font-family="Times,serif" font-size="14.00">video_url :character varying</text>
<text text-anchor="start" x="113.381" y="-256.3" font-family="Times,serif" font-size="14.00">sport_id :integer</text>
<text text-anchor="start" x="113.381" y="-242.3" font-family="Times,serif" font-size="14.00">american_team_name :character varying</text>
<text text-anchor="start" x="113.381" y="-228.3" font-family="Times,serif" font-size="14.00">photo_file_name :character varying</text>
<text text-anchor="start" x="113.381" y="-214.3" font-family="Times,serif" font-size="14.00">photo_content_type :character varying</text>
<text text-anchor="start" x="113.381" y="-200.3" font-family="Times,serif" font-size="14.00">photo_file_size :integer</text>
<text text-anchor="start" x="113.381" y="-186.3" font-family="Times,serif" font-size="14.00">id :integer</text>
</g>
<!-- NewsArticle -->
<g id="node5" class="node"><title>NewsArticle</title>
<path fill="none" stroke="black" d="M354.825,-0.5C354.825,-0.5 578.55,-0.5 578.55,-0.5 584.55,-0.5 590.55,-6.5 590.55,-12.5 590.55,-12.5 590.55,-130.5 590.55,-130.5 590.55,-136.5 584.55,-142.5 578.55,-142.5 578.55,-142.5 354.825,-142.5 354.825,-142.5 348.825,-142.5 342.825,-136.5 342.825,-130.5 342.825,-130.5 342.825,-12.5 342.825,-12.5 342.825,-6.5 348.825,-0.5 354.825,-0.5"/>
<text text-anchor="middle" x="466.688" y="-127.3" font-family="Times,serif" font-size="14.00">NewsArticle</text>
<polyline fill="none" stroke="black" points="342.825,-120.5 590.55,-120.5 "/>
<text text-anchor="start" x="350.825" y="-105.3" font-family="Times,serif" font-size="14.00">updated_at :timestamp without time zone</text>
<text text-anchor="start" x="350.825" y="-91.3" font-family="Times,serif" font-size="14.00">athlete_id :integer</text>
<text text-anchor="start" x="350.825" y="-77.3" font-family="Times,serif" font-size="14.00">sport_id :integer</text>
<text text-anchor="start" x="350.825" y="-63.3" font-family="Times,serif" font-size="14.00">headline :character varying</text>
<text text-anchor="start" x="350.825" y="-49.3" font-family="Times,serif" font-size="14.00">date_posted :date</text>
<text text-anchor="start" x="350.825" y="-35.3" font-family="Times,serif" font-size="14.00">url :character varying</text>
<text text-anchor="start" x="350.825" y="-21.3" font-family="Times,serif" font-size="14.00">created_at :timestamp without time zone</text>
<text text-anchor="start" x="350.825" y="-7.3" font-family="Times,serif" font-size="14.00">id :integer</text>
</g>
<!-- Athlete&#45;&gt;NewsArticle -->
<g id="edge1" class="edge"><title>Athlete&#45;&gt;NewsArticle</title>
<path fill="none" stroke="#b08cb4" d="M385.176,-172.707C391.232,-165.262 397.166,-157.967 402.898,-150.92"/>
<ellipse fill="none" stroke="#b08cb4" cx="382.426" cy="-176.088" rx="4.00002" ry="4.00002"/>
<polygon fill="#b08cb4" stroke="#b08cb4" points="403.218,-150.526 413.02,-145.608 406.374,-146.648 409.529,-142.769 409.529,-142.769 409.529,-142.769 406.374,-146.648 406.038,-139.929 403.218,-150.526 403.218,-150.526"/>
</g>
<!-- FeaturedPhoto -->
<g id="node4" class="node"><title>FeaturedPhoto</title>
<path fill="none" stroke="black" d="M421.825,-277.5C421.825,-277.5 645.55,-277.5 645.55,-277.5 651.55,-277.5 657.55,-283.5 657.55,-289.5 657.55,-289.5 657.55,-393.5 657.55,-393.5 657.55,-399.5 651.55,-405.5 645.55,-405.5 645.55,-405.5 421.825,-405.5 421.825,-405.5 415.825,-405.5 409.825,-399.5 409.825,-393.5 409.825,-393.5 409.825,-289.5 409.825,-289.5 409.825,-283.5 415.825,-277.5 421.825,-277.5"/>
<text text-anchor="middle" x="533.688" y="-390.3" font-family="Times,serif" font-size="14.00">FeaturedPhoto</text>
<polyline fill="none" stroke="black" points="409.825,-383.5 657.55,-383.5 "/>
<text text-anchor="start" x="417.825" y="-368.3" font-family="Times,serif" font-size="14.00">image_url :character varying</text>
<text text-anchor="start" x="417.825" y="-354.3" font-family="Times,serif" font-size="14.00">athlete_id :integer</text>
<text text-anchor="start" x="417.825" y="-340.3" font-family="Times,serif" font-size="14.00">sport_id :integer</text>
<text text-anchor="start" x="417.825" y="-326.3" font-family="Times,serif" font-size="14.00">id :integer</text>
<text text-anchor="start" x="417.825" y="-312.3" font-family="Times,serif" font-size="14.00">display_status :boolean</text>
<text text-anchor="start" x="417.825" y="-298.3" font-family="Times,serif" font-size="14.00">created_at :timestamp without time zone</text>
<text text-anchor="start" x="417.825" y="-284.3" font-family="Times,serif" font-size="14.00">updated_at :timestamp without time zone</text>
</g>
<!-- Sport -->
<g id="node6" class="node"><title>Sport</title>
<path fill="none" stroke="black" d="M573.825,-603.5C573.825,-603.5 797.55,-603.5 797.55,-603.5 803.55,-603.5 809.55,-609.5 809.55,-615.5 809.55,-615.5 809.55,-677.5 809.55,-677.5 809.55,-683.5 803.55,-689.5 797.55,-689.5 797.55,-689.5 573.825,-689.5 573.825,-689.5 567.825,-689.5 561.825,-683.5 561.825,-677.5 561.825,-677.5 561.825,-615.5 561.825,-615.5 561.825,-609.5 567.825,-603.5 573.825,-603.5"/>
<text text-anchor="middle" x="685.688" y="-674.3" font-family="Times,serif" font-size="14.00">Sport</text>
<polyline fill="none" stroke="black" points="561.825,-667.5 809.55,-667.5 "/>
<text text-anchor="start" x="569.825" y="-652.3" font-family="Times,serif" font-size="14.00">id :integer</text>
<text text-anchor="start" x="569.825" y="-638.3" font-family="Times,serif" font-size="14.00">created_at :timestamp without time zone</text>
<text text-anchor="start" x="569.825" y="-624.3" font-family="Times,serif" font-size="14.00">updated_at :timestamp without time zone</text>
<text text-anchor="start" x="569.825" y="-610.3" font-family="Times,serif" font-size="14.00">type_id :integer</text>
</g>
<!-- Sport&#45;&gt;Athlete -->
<g id="edge2" class="edge"><title>Sport&#45;&gt;Athlete</title>
<path fill="none" stroke="#8af462" d="M637.123,-598.034C613.614,-577.444 583.96,-554.724 553.688,-540 493.689,-510.818 463.926,-536.389 401.308,-503.876"/>
<ellipse fill="none" stroke="#8af462" cx="640.283" cy="-600.84" rx="4.00002" ry="4.00002"/>
<polygon fill="#8af462" stroke="#8af462" points="401.009,-503.711 394.417,-494.948 396.628,-501.301 392.248,-498.891 392.248,-498.891 392.248,-498.891 396.628,-501.301 390.078,-502.833 401.009,-503.711 401.009,-503.711"/>
</g>
<!-- Sport&#45;&gt;FeaturedPhoto -->
<g id="edge3" class="edge"><title>Sport&#45;&gt;FeaturedPhoto</title>
<path fill="none" stroke="#8269e6" d="M660.818,-595.925C636.124,-546.699 597.998,-470.698 569.936,-414.758"/>
<ellipse fill="none" stroke="#8269e6" cx="662.759" cy="-599.794" rx="4.00002" ry="4.00002"/>
<polygon fill="#8269e6" stroke="#8269e6" points="569.831,-414.548 569.369,-403.592 567.589,-410.079 565.347,-405.61 565.347,-405.61 565.347,-405.61 567.589,-410.079 561.324,-407.627 569.831,-414.548 569.831,-414.548"/>
</g>
<!-- Sport&#45;&gt;NewsArticle -->
<g id="edge4" class="edge"><title>Sport&#45;&gt;NewsArticle</title>
<path fill="none" stroke="#8ebb70" d="M689.741,-595.51C697.362,-489.663 709.46,-247.056 666.688,-179 650.561,-153.34 626.028,-133.479 599.608,-118.251"/>
<ellipse fill="none" stroke="#8ebb70" cx="689.448" cy="-599.509" rx="4" ry="4"/>
<polygon fill="#8ebb70" stroke="#8ebb70" points="599.337,-118.101 592.763,-109.325 594.961,-115.682 590.585,-113.263 590.585,-113.263 590.585,-113.263 594.961,-115.682 588.408,-117.201 599.337,-118.101 599.337,-118.101"/>
</g>
<!-- TeamMember -->
<g id="node7" class="node"><title>TeamMember</title>
<path fill="none" stroke="black" d="M725.825,-249.5C725.825,-249.5 949.55,-249.5 949.55,-249.5 955.55,-249.5 961.55,-255.5 961.55,-261.5 961.55,-261.5 961.55,-421.5 961.55,-421.5 961.55,-427.5 955.55,-433.5 949.55,-433.5 949.55,-433.5 725.825,-433.5 725.825,-433.5 719.825,-433.5 713.825,-427.5 713.825,-421.5 713.825,-421.5 713.825,-261.5 713.825,-261.5 713.825,-255.5 719.825,-249.5 725.825,-249.5"/>
<text text-anchor="middle" x="837.688" y="-418.3" font-family="Times,serif" font-size="14.00">TeamMember</text>
<polyline fill="none" stroke="black" points="713.825,-411.5 961.55,-411.5 "/>
<text text-anchor="start" x="721.825" y="-396.3" font-family="Times,serif" font-size="14.00">updated_at :timestamp without time zone</text>
<text text-anchor="start" x="721.825" y="-382.3" font-family="Times,serif" font-size="14.00">first_name :character varying</text>
<text text-anchor="start" x="721.825" y="-368.3" font-family="Times,serif" font-size="14.00">last_name :character varying</text>
<text text-anchor="start" x="721.825" y="-354.3" font-family="Times,serif" font-size="14.00">position :character varying</text>
<text text-anchor="start" x="721.825" y="-340.3" font-family="Times,serif" font-size="14.00">photo_url :character varying</text>
<text text-anchor="start" x="721.825" y="-326.3" font-family="Times,serif" font-size="14.00">email :character varying</text>
<text text-anchor="start" x="721.825" y="-312.3" font-family="Times,serif" font-size="14.00">twitter_url :character varying</text>
<text text-anchor="start" x="721.825" y="-298.3" font-family="Times,serif" font-size="14.00">facebook_url :character varying</text>
<text text-anchor="start" x="721.825" y="-284.3" font-family="Times,serif" font-size="14.00">description :text</text>
<text text-anchor="start" x="721.825" y="-270.3" font-family="Times,serif" font-size="14.00">created_at :timestamp without time zone</text>
<text text-anchor="start" x="721.825" y="-256.3" font-family="Times,serif" font-size="14.00">id :integer</text>
</g>
<!-- Sport&#45;&gt;TeamMember -->
<g id="edge5" class="edge"><title>Sport&#45;&gt;TeamMember</title>
<path fill="none" stroke="#0e5d8b" d="M705.383,-595.98C724.561,-554.618 754.39,-494.326 780.915,-442.92"/>
<ellipse fill="none" stroke="#0e5d8b" cx="703.652" cy="-599.736" rx="4.00002" ry="4.00002"/>
<polygon fill="#0e5d8b" stroke="#0e5d8b" points="781.058,-442.644 789.651,-435.831 783.356,-438.204 785.654,-433.763 785.654,-433.763 785.654,-433.763 783.356,-438.204 781.658,-431.695 781.058,-442.644 781.058,-442.644"/>
</g>
<!-- TeamMember&#45;&gt;Sport -->
<g id="edge6" class="edge"><title>TeamMember&#45;&gt;Sport</title>
<path fill="none" stroke="#3a2413" d="M794.531,-441.232C769.659,-492.328 739.048,-552.576 716.561,-594.339"/>
<ellipse fill="none" stroke="#3a2413" cx="796.41" cy="-437.361" rx="4.00002" ry="4.00002"/>
<polygon fill="#3a2413" stroke="#3a2413" points="716.432,-594.577 707.711,-601.225 714.05,-598.973 711.668,-603.369 711.668,-603.369 711.668,-603.369 714.05,-598.973 715.624,-605.513 716.432,-594.577 716.432,-594.577"/>
</g>
<!-- Testimonial -->
<g id="node8" class="node"><title>Testimonial</title>
<path fill="none" stroke="black" d="M839.825,-582.5C839.825,-582.5 1063.55,-582.5 1063.55,-582.5 1069.55,-582.5 1075.55,-588.5 1075.55,-594.5 1075.55,-594.5 1075.55,-698.5 1075.55,-698.5 1075.55,-704.5 1069.55,-710.5 1063.55,-710.5 1063.55,-710.5 839.825,-710.5 839.825,-710.5 833.825,-710.5 827.825,-704.5 827.825,-698.5 827.825,-698.5 827.825,-594.5 827.825,-594.5 827.825,-588.5 833.825,-582.5 839.825,-582.5"/>
<text text-anchor="middle" x="951.688" y="-695.3" font-family="Times,serif" font-size="14.00">Testimonial</text>
<polyline fill="none" stroke="black" points="827.825,-688.5 1075.55,-688.5 "/>
<text text-anchor="start" x="835.825" y="-673.3" font-family="Times,serif" font-size="14.00">quote :text</text>
<text text-anchor="start" x="835.825" y="-659.3" font-family="Times,serif" font-size="14.00">name :character varying</text>
<text text-anchor="start" x="835.825" y="-645.3" font-family="Times,serif" font-size="14.00">title :character varying</text>
<text text-anchor="start" x="835.825" y="-631.3" font-family="Times,serif" font-size="14.00">id :integer</text>
<text text-anchor="start" x="835.825" y="-617.3" font-family="Times,serif" font-size="14.00">created_at :timestamp without time zone</text>
<text text-anchor="start" x="835.825" y="-603.3" font-family="Times,serif" font-size="14.00">updated_at :timestamp without time zone</text>
<text text-anchor="start" x="835.825" y="-589.3" font-family="Times,serif" font-size="14.00">photo_url :character varying</text>
</g>
</g>
</svg>
