<?xml version="1.0" encoding="UTF-8" standalone="no"?>
<!DOCTYPE svg PUBLIC "-//W3C//DTD SVG 1.1//EN"
 "http://www.w3.org/Graphics/SVG/1.1/DTD/svg11.dtd">
<!-- Generated by graphviz version 2.38.0 (20140413.2041)
 -->
<!-- Title: models_diagram Pages: 1 -->
<svg width="826pt" height="565pt"
 viewBox="0.00 0.00 825.72 565.00" xmlns="http://www.w3.org/2000/svg" xmlns:xlink="http://www.w3.org/1999/xlink">
<g id="graph0" class="graph" transform="scale(1 1) rotate(0) translate(4 561)">
<title>models_diagram</title>
<polygon fill="none" stroke="none" points="-4,4 -4,-561 821.725,-561 821.725,4 -4,4"/>
<!-- _diagram_info -->
<g id="node1" class="node"><title>_diagram_info</title>
<text text-anchor="start" x="200.175" y="-535.6" font-family="Times,serif" font-size="13.00">Models diagram</text>
<text text-anchor="start" x="200.175" y="-522.6" font-family="Times,serif" font-size="13.00">Date: Jun 04 2016 &#45; 11:32</text>
<text text-anchor="start" x="200.175" y="-509.6" font-family="Times,serif" font-size="13.00">Migration version: 20160604153009</text>
<text text-anchor="start" x="200.175" y="-496.6" font-family="Times,serif" font-size="13.00">Generated by RailRoady 1.4.2</text>
<text text-anchor="start" x="200.175" y="-483.6" font-family="Times,serif" font-size="13.00">http://railroady.prestonlee.com</text>
</g>
<!-- Athlete -->
<g id="node2" class="node"><title>Athlete</title>
<path fill="none" stroke="black" d="M12,-179.5C12,-179.5 235.725,-179.5 235.725,-179.5 241.725,-179.5 247.725,-185.5 247.725,-191.5 247.725,-191.5 247.725,-421.5 247.725,-421.5 247.725,-427.5 241.725,-433.5 235.725,-433.5 235.725,-433.5 12,-433.5 12,-433.5 6,-433.5 0,-427.5 0,-421.5 0,-421.5 0,-191.5 0,-191.5 0,-185.5 6,-179.5 12,-179.5"/>
<text text-anchor="middle" x="123.862" y="-418.3" font-family="Times,serif" font-size="14.00">Athlete</text>
<polyline fill="none" stroke="black" points="0,-411.5 247.725,-411.5 "/>
<text text-anchor="start" x="8" y="-396.3" font-family="Times,serif" font-size="14.00">sport_id :integer</text>
<text text-anchor="start" x="8" y="-382.3" font-family="Times,serif" font-size="14.00">created_at :timestamp without time zone</text>
<text text-anchor="start" x="8" y="-368.3" font-family="Times,serif" font-size="14.00">updated_at :timestamp without time zone</text>
<text text-anchor="start" x="8" y="-354.3" font-family="Times,serif" font-size="14.00">first_name :character varying</text>
<text text-anchor="start" x="8" y="-340.3" font-family="Times,serif" font-size="14.00">last_name :character varying</text>
<text text-anchor="start" x="8" y="-326.3" font-family="Times,serif" font-size="14.00">photo_url :character varying</text>
<text text-anchor="start" x="8" y="-312.3" font-family="Times,serif" font-size="14.00">position :character varying</text>
<text text-anchor="start" x="8" y="-298.3" font-family="Times,serif" font-size="14.00">american_team_url :character varying</text>
<text text-anchor="start" x="8" y="-284.3" font-family="Times,serif" font-size="14.00">overseas_team :character varying</text>
<text text-anchor="start" x="8" y="-270.3" font-family="Times,serif" font-size="14.00">college :character varying</text>
<text text-anchor="start" x="8" y="-256.3" font-family="Times,serif" font-size="14.00">birthdate :date</text>
<text text-anchor="start" x="8" y="-242.3" font-family="Times,serif" font-size="14.00">height :character varying</text>
<text text-anchor="start" x="8" y="-228.3" font-family="Times,serif" font-size="14.00">weight :character varying</text>
<text text-anchor="start" x="8" y="-214.3" font-family="Times,serif" font-size="14.00">website_url :character varying</text>
<text text-anchor="start" x="8" y="-200.3" font-family="Times,serif" font-size="14.00">video_url :character varying</text>
<text text-anchor="start" x="8" y="-186.3" font-family="Times,serif" font-size="14.00">id :integer</text>
</g>
<!-- NewsArticle -->
<g id="node4" class="node"><title>NewsArticle</title>
<path fill="none" stroke="black" d="M221,-0.5C221,-0.5 444.725,-0.5 444.725,-0.5 450.725,-0.5 456.725,-6.5 456.725,-12.5 456.725,-12.5 456.725,-130.5 456.725,-130.5 456.725,-136.5 450.725,-142.5 444.725,-142.5 444.725,-142.5 221,-142.5 221,-142.5 215,-142.5 209,-136.5 209,-130.5 209,-130.5 209,-12.5 209,-12.5 209,-6.5 215,-0.5 221,-0.5"/>
<text text-anchor="middle" x="332.862" y="-127.3" font-family="Times,serif" font-size="14.00">NewsArticle</text>
<polyline fill="none" stroke="black" points="209,-120.5 456.725,-120.5 "/>
<text text-anchor="start" x="217" y="-105.3" font-family="Times,serif" font-size="14.00">updated_at :timestamp without time zone</text>
<text text-anchor="start" x="217" y="-91.3" font-family="Times,serif" font-size="14.00">athlete_id :integer</text>
<text text-anchor="start" x="217" y="-77.3" font-family="Times,serif" font-size="14.00">sport_id :integer</text>
<text text-anchor="start" x="217" y="-63.3" font-family="Times,serif" font-size="14.00">headline :character varying</text>
<text text-anchor="start" x="217" y="-49.3" font-family="Times,serif" font-size="14.00">date_posted :date</text>
<text text-anchor="start" x="217" y="-35.3" font-family="Times,serif" font-size="14.00">url :character varying</text>
<text text-anchor="start" x="217" y="-21.3" font-family="Times,serif" font-size="14.00">created_at :timestamp without time zone</text>
<text text-anchor="start" x="217" y="-7.3" font-family="Times,serif" font-size="14.00">id :integer</text>
</g>
<!-- Athlete&#45;&gt;NewsArticle -->
<g id="edge1" class="edge"><title>Athlete&#45;&gt;NewsArticle</title>
<path fill="none" stroke="#09303c" d="M242.499,-173.24C249.577,-165.349 256.568,-157.556 263.337,-150.009"/>
<ellipse fill="none" stroke="#09303c" cx="239.597" cy="-176.475" rx="4.00002" ry="4.00002"/>
<polygon fill="#09303c" stroke="#09303c" points="263.35,-149.995 273.377,-145.556 266.688,-146.273 270.027,-142.551 270.027,-142.551 270.027,-142.551 266.688,-146.273 266.677,-139.546 263.35,-149.995 263.35,-149.995"/>
</g>
<!-- FeaturedPhoto -->
<g id="node3" class="node"><title>FeaturedPhoto</title>
<path fill="none" stroke="black" d="M278,-242.5C278,-242.5 501.725,-242.5 501.725,-242.5 507.725,-242.5 513.725,-248.5 513.725,-254.5 513.725,-254.5 513.725,-358.5 513.725,-358.5 513.725,-364.5 507.725,-370.5 501.725,-370.5 501.725,-370.5 278,-370.5 278,-370.5 272,-370.5 266,-364.5 266,-358.5 266,-358.5 266,-254.5 266,-254.5 266,-248.5 272,-242.5 278,-242.5"/>
<text text-anchor="middle" x="389.862" y="-355.3" font-family="Times,serif" font-size="14.00">FeaturedPhoto</text>
<polyline fill="none" stroke="black" points="266,-348.5 513.725,-348.5 "/>
<text text-anchor="start" x="274" y="-333.3" font-family="Times,serif" font-size="14.00">image_url :character varying</text>
<text text-anchor="start" x="274" y="-319.3" font-family="Times,serif" font-size="14.00">athlete_id :integer</text>
<text text-anchor="start" x="274" y="-305.3" font-family="Times,serif" font-size="14.00">sport_id :integer</text>
<text text-anchor="start" x="274" y="-291.3" font-family="Times,serif" font-size="14.00">id :integer</text>
<text text-anchor="start" x="274" y="-277.3" font-family="Times,serif" font-size="14.00">display_status :boolean</text>
<text text-anchor="start" x="274" y="-263.3" font-family="Times,serif" font-size="14.00">created_at :timestamp without time zone</text>
<text text-anchor="start" x="274" y="-249.3" font-family="Times,serif" font-size="14.00">updated_at :timestamp without time zone</text>
</g>
<!-- Sport -->
<g id="node5" class="node"><title>Sport</title>
<path fill="none" stroke="black" d="M430,-470.5C430,-470.5 653.725,-470.5 653.725,-470.5 659.725,-470.5 665.725,-476.5 665.725,-482.5 665.725,-482.5 665.725,-544.5 665.725,-544.5 665.725,-550.5 659.725,-556.5 653.725,-556.5 653.725,-556.5 430,-556.5 430,-556.5 424,-556.5 418,-550.5 418,-544.5 418,-544.5 418,-482.5 418,-482.5 418,-476.5 424,-470.5 430,-470.5"/>
<text text-anchor="middle" x="541.862" y="-541.3" font-family="Times,serif" font-size="14.00">Sport</text>
<polyline fill="none" stroke="black" points="418,-534.5 665.725,-534.5 "/>
<text text-anchor="start" x="426" y="-519.3" font-family="Times,serif" font-size="14.00">id :integer</text>
<text text-anchor="start" x="426" y="-505.3" font-family="Times,serif" font-size="14.00">created_at :timestamp without time zone</text>
<text text-anchor="start" x="426" y="-491.3" font-family="Times,serif" font-size="14.00">updated_at :timestamp without time zone</text>
<text text-anchor="start" x="426" y="-477.3" font-family="Times,serif" font-size="14.00">type_id :integer</text>
</g>
<!-- Sport&#45;&gt;Athlete -->
<g id="edge2" class="edge"><title>Sport&#45;&gt;Athlete</title>
<path fill="none" stroke="#c6a853" d="M409.959,-470.305C409.593,-470.203 409.227,-470.101 408.862,-470 341.97,-451.42 317.906,-467.068 256.862,-434 256.77,-433.95 256.678,-433.9 256.587,-433.85"/>
<ellipse fill="none" stroke="#c6a853" cx="413.858" cy="-471.407" rx="4.00001" ry="4.00001"/>
<polygon fill="#c6a853" stroke="#c6a853" points="256.768,-433.955 250.33,-425.078 252.43,-431.468 248.092,-428.982 248.092,-428.982 248.092,-428.982 252.43,-431.468 245.855,-432.886 256.768,-433.955 256.768,-433.955"/>
</g>
<!-- Sport&#45;&gt;FeaturedPhoto -->
<g id="edge3" class="edge"><title>Sport&#45;&gt;FeaturedPhoto</title>
<path fill="none" stroke="#5827d3" d="M505.51,-463.472C486.712,-438.12 463.42,-406.707 442.677,-378.73"/>
<ellipse fill="none" stroke="#5827d3" cx="507.985" cy="-466.811" rx="4.00002" ry="4.00002"/>
<polygon fill="#5827d3" stroke="#5827d3" points="442.571,-378.588 440.23,-367.875 439.593,-374.571 436.615,-370.555 436.615,-370.555 436.615,-370.555 439.593,-374.571 433,-373.235 442.571,-378.588 442.571,-378.588"/>
</g>
<!-- Sport&#45;&gt;NewsArticle -->
<g id="edge4" class="edge"><title>Sport&#45;&gt;NewsArticle</title>
<path fill="none" stroke="#2cb34c" d="M544.751,-462.367C548.501,-381.057 551.529,-224.887 522.862,-179 508.827,-156.534 488.247,-138.389 465.753,-123.882"/>
<ellipse fill="none" stroke="#2cb34c" cx="544.555" cy="-466.476" rx="4" ry="4"/>
<polygon fill="#2cb34c" stroke="#2cb34c" points="465.554,-123.759 459.416,-114.672 461.301,-121.129 457.049,-118.499 457.049,-118.499 457.049,-118.499 461.301,-121.129 454.682,-122.326 465.554,-123.759 465.554,-123.759"/>
</g>
<!-- TeamMember -->
<g id="node6" class="node"><title>TeamMember</title>
<path fill="none" stroke="black" d="M582,-214.5C582,-214.5 805.725,-214.5 805.725,-214.5 811.725,-214.5 817.725,-220.5 817.725,-226.5 817.725,-226.5 817.725,-386.5 817.725,-386.5 817.725,-392.5 811.725,-398.5 805.725,-398.5 805.725,-398.5 582,-398.5 582,-398.5 576,-398.5 570,-392.5 570,-386.5 570,-386.5 570,-226.5 570,-226.5 570,-220.5 576,-214.5 582,-214.5"/>
<text text-anchor="middle" x="693.862" y="-383.3" font-family="Times,serif" font-size="14.00">TeamMember</text>
<polyline fill="none" stroke="black" points="570,-376.5 817.725,-376.5 "/>
<text text-anchor="start" x="578" y="-361.3" font-family="Times,serif" font-size="14.00">updated_at :timestamp without time zone</text>
<text text-anchor="start" x="578" y="-347.3" font-family="Times,serif" font-size="14.00">first_name :character varying</text>
<text text-anchor="start" x="578" y="-333.3" font-family="Times,serif" font-size="14.00">last_name :character varying</text>
<text text-anchor="start" x="578" y="-319.3" font-family="Times,serif" font-size="14.00">position :character varying</text>
<text text-anchor="start" x="578" y="-305.3" font-family="Times,serif" font-size="14.00">photo_url :character varying</text>
<text text-anchor="start" x="578" y="-291.3" font-family="Times,serif" font-size="14.00">email :character varying</text>
<text text-anchor="start" x="578" y="-277.3" font-family="Times,serif" font-size="14.00">twitter_url :character varying</text>
<text text-anchor="start" x="578" y="-263.3" font-family="Times,serif" font-size="14.00">facebook_url :character varying</text>
<text text-anchor="start" x="578" y="-249.3" font-family="Times,serif" font-size="14.00">description :text</text>
<text text-anchor="start" x="578" y="-235.3" font-family="Times,serif" font-size="14.00">created_at :timestamp without time zone</text>
<text text-anchor="start" x="578" y="-221.3" font-family="Times,serif" font-size="14.00">id :integer</text>
</g>
<!-- Sport&#45;&gt;TeamMember -->
<g id="edge5" class="edge"><title>Sport&#45;&gt;TeamMember</title>
<path fill="none" stroke="#85d492" d="M572.484,-463.294C584.543,-446.185 598.968,-426.332 613.604,-406.644"/>
<ellipse fill="none" stroke="#85d492" cx="570.061" cy="-466.749" rx="4.00002" ry="4.00002"/>
<polygon fill="#85d492" stroke="#85d492" points="613.681,-406.54 623.267,-401.214 616.67,-402.532 619.659,-398.523 619.659,-398.523 619.659,-398.523 616.67,-402.532 616.052,-395.833 613.681,-406.54 613.681,-406.54"/>
</g>
<!-- TeamMember&#45;&gt;Sport -->
<g id="edge6" class="edge"><title>TeamMember&#45;&gt;Sport</title>
<path fill="none" stroke="#9ece2b" d="M628.177,-405.183C613.643,-424.859 598.6,-444.772 585.205,-462.014"/>
<ellipse fill="none" stroke="#9ece2b" cx="630.711" cy="-401.744" rx="4.00002" ry="4.00002"/>
<polygon fill="#9ece2b" stroke="#9ece2b" points="585.105,-462.142 575.403,-467.254 582.027,-466.083 578.95,-470.024 578.95,-470.024 578.95,-470.024 582.027,-466.083 582.496,-472.794 585.105,-462.142 585.105,-462.142"/>
</g>
</g>
</svg>
