<?xml version="1.0" encoding="UTF-8" standalone="no"?>
<!DOCTYPE svg PUBLIC "-//W3C//DTD SVG 1.1//EN"
 "http://www.w3.org/Graphics/SVG/1.1/DTD/svg11.dtd">
<!-- Generated by graphviz version 2.38.0 (20140413.2041)
 -->
<!-- Title: models_diagram Pages: 1 -->
<svg width="299pt" height="153pt"
 viewBox="0.00 0.00 298.82 153.00" xmlns="http://www.w3.org/2000/svg" xmlns:xlink="http://www.w3.org/1999/xlink">
<g id="graph0" class="graph" transform="scale(1 1) rotate(0) translate(4 149)">
<title>models_diagram</title>
<polygon fill="none" stroke="none" points="-4,4 -4,-149 294.824,-149 294.824,4 -4,4"/>
<!-- _diagram_info -->
<g id="node1" class="node"><title>_diagram_info</title>
<text text-anchor="start" x="8" y="-130.6" font-family="Times,serif" font-size="13.00">Models diagram</text>
<text text-anchor="start" x="8" y="-117.6" font-family="Times,serif" font-size="13.00">Date: Jun 03 2016 &#45; 10:30</text>
<text text-anchor="start" x="8" y="-104.6" font-family="Times,serif" font-size="13.00">Migration version: 20160602184625</text>
<text text-anchor="start" x="8" y="-91.6" font-family="Times,serif" font-size="13.00">Generated by RailRoady 1.4.2</text>
<text text-anchor="start" x="8" y="-78.6" font-family="Times,serif" font-size="13.00">http://railroady.prestonlee.com</text>
</g>
<!-- Athlete -->
<g id="node2" class="node"><title>Athlete</title>
<ellipse fill="none" stroke="black" cx="254.688" cy="-18" rx="36.2732" ry="18"/>
<text text-anchor="middle" x="254.688" y="-13.8" font-family="Times,serif" font-size="14.00">Athlete</text>
</g>
<!-- Sport -->
<g id="node3" class="node"><title>Sport</title>
<ellipse fill="none" stroke="black" cx="254.688" cy="-108.5" rx="29.0429" ry="18"/>
<text text-anchor="middle" x="254.688" y="-104.3" font-family="Times,serif" font-size="14.00">Sport</text>
</g>
<!-- Sport&#45;&gt;Athlete -->
<g id="edge1" class="edge"><title>Sport&#45;&gt;Athlete</title>
<path fill="none" stroke="#09081b" d="M254.688,-82.189C254.688,-70.9711 254.688,-57.7517 254.688,-46.3113"/>
<ellipse fill="none" stroke="#09081b" cx="254.688" cy="-86.4363" rx="4" ry="4"/>
<polygon fill="#09081b" stroke="#09081b" points="254.688,-46.0113 259.188,-36.0113 254.688,-41.0113 254.688,-36.0113 254.688,-36.0113 254.688,-36.0113 254.688,-41.0113 250.188,-36.0113 254.688,-46.0113 254.688,-46.0113"/>
</g>
</g>
</svg>
