<?xml version="1.0" encoding="UTF-8" standalone="no"?>
<!DOCTYPE svg PUBLIC "-//W3C//DTD SVG 1.1//EN"
 "http://www.w3.org/Graphics/SVG/1.1/DTD/svg11.dtd">
<!-- Generated by graphviz version 2.38.0 (20140413.2041)
 -->
<!-- Title: models_diagram Pages: 1 -->
<svg width="1084pt" height="705pt"
 viewBox="0.00 0.00 1083.55 705.00" xmlns="http://www.w3.org/2000/svg" xmlns:xlink="http://www.w3.org/1999/xlink">
<g id="graph0" class="graph" transform="scale(1 1) rotate(0) translate(4 701)">
<title>models_diagram</title>
<polygon fill="none" stroke="none" points="-4,4 -4,-701 1079.55,-701 1079.55,4 -4,4"/>
<!-- _diagram_info -->
<g id="node1" class="node"><title>_diagram_info</title>
<text text-anchor="start" x="8" y="-612.6" font-family="Times,serif" font-size="13.00">Models diagram</text>
<text text-anchor="start" x="8" y="-599.6" font-family="Times,serif" font-size="13.00">Date: Jun 15 2016 &#45; 17:02</text>
<text text-anchor="start" x="8" y="-586.6" font-family="Times,serif" font-size="13.00">Migration version: 20160615210103</text>
<text text-anchor="start" x="8" y="-573.6" font-family="Times,serif" font-size="13.00">Generated by RailRoady 1.4.2</text>
<text text-anchor="start" x="8" y="-560.6" font-family="Times,serif" font-size="13.00">http://railroady.prestonlee.com</text>
</g>
<!-- AdminUser -->
<g id="node2" class="node"><title>AdminUser</title>
<path fill="none" stroke="black" d="M237.053,-484.5C237.053,-484.5 532.323,-484.5 532.323,-484.5 538.323,-484.5 544.323,-490.5 544.323,-496.5 544.323,-496.5 544.323,-684.5 544.323,-684.5 544.323,-690.5 538.323,-696.5 532.323,-696.5 532.323,-696.5 237.053,-696.5 237.053,-696.5 231.053,-696.5 225.053,-690.5 225.053,-684.5 225.053,-684.5 225.053,-496.5 225.053,-496.5 225.053,-490.5 231.053,-484.5 237.053,-484.5"/>
<text text-anchor="middle" x="384.688" y="-681.3" font-family="Times,serif" font-size="14.00">AdminUser</text>
<polyline fill="none" stroke="black" points="225.053,-674.5 544.323,-674.5 "/>
<text text-anchor="start" x="233.053" y="-659.3" font-family="Times,serif" font-size="14.00">updated_at :timestamp without time zone</text>
<text text-anchor="start" x="233.053" y="-645.3" font-family="Times,serif" font-size="14.00">email :character varying</text>
<text text-anchor="start" x="233.053" y="-631.3" font-family="Times,serif" font-size="14.00">encrypted_password :character varying</text>
<text text-anchor="start" x="233.053" y="-617.3" font-family="Times,serif" font-size="14.00">reset_password_token :character varying</text>
<text text-anchor="start" x="233.053" y="-603.3" font-family="Times,serif" font-size="14.00">reset_password_sent_at :timestamp without time zone</text>
<text text-anchor="start" x="233.053" y="-589.3" font-family="Times,serif" font-size="14.00">remember_created_at :timestamp without time zone</text>
<text text-anchor="start" x="233.053" y="-575.3" font-family="Times,serif" font-size="14.00">sign_in_count :integer</text>
<text text-anchor="start" x="233.053" y="-561.3" font-family="Times,serif" font-size="14.00">current_sign_in_at :timestamp without time zone</text>
<text text-anchor="start" x="233.053" y="-547.3" font-family="Times,serif" font-size="14.00">last_sign_in_at :timestamp without time zone</text>
<text text-anchor="start" x="233.053" y="-533.3" font-family="Times,serif" font-size="14.00">current_sign_in_ip :inet</text>
<text text-anchor="start" x="233.053" y="-519.3" font-family="Times,serif" font-size="14.00">last_sign_in_ip :inet</text>
<text text-anchor="start" x="233.053" y="-505.3" font-family="Times,serif" font-size="14.00">created_at :timestamp without time zone</text>
<text text-anchor="start" x="233.053" y="-491.3" font-family="Times,serif" font-size="14.00">id :integer</text>
</g>
<!-- Athlete -->
<g id="node3" class="node"><title>Athlete</title>
<path fill="none" stroke="black" d="M155.825,-179.5C155.825,-179.5 379.55,-179.5 379.55,-179.5 385.55,-179.5 391.55,-185.5 391.55,-191.5 391.55,-191.5 391.55,-435.5 391.55,-435.5 391.55,-441.5 385.55,-447.5 379.55,-447.5 379.55,-447.5 155.825,-447.5 155.825,-447.5 149.825,-447.5 143.825,-441.5 143.825,-435.5 143.825,-435.5 143.825,-191.5 143.825,-191.5 143.825,-185.5 149.825,-179.5 155.825,-179.5"/>
<text text-anchor="middle" x="267.688" y="-432.3" font-family="Times,serif" font-size="14.00">Athlete</text>
<polyline fill="none" stroke="black" points="143.825,-425.5 391.55,-425.5 "/>
<text text-anchor="start" x="151.825" y="-410.3" font-family="Times,serif" font-size="14.00">american_team_name :character varying</text>
<text text-anchor="start" x="151.825" y="-396.3" font-family="Times,serif" font-size="14.00">created_at :timestamp without time zone</text>
<text text-anchor="start" x="151.825" y="-382.3" font-family="Times,serif" font-size="14.00">updated_at :timestamp without time zone</text>
<text text-anchor="start" x="151.825" y="-368.3" font-family="Times,serif" font-size="14.00">first_name :character varying</text>
<text text-anchor="start" x="151.825" y="-354.3" font-family="Times,serif" font-size="14.00">last_name :character varying</text>
<text text-anchor="start" x="151.825" y="-340.3" font-family="Times,serif" font-size="14.00">photo_url :character varying</text>
<text text-anchor="start" x="151.825" y="-326.3" font-family="Times,serif" font-size="14.00">position :character varying</text>
<text text-anchor="start" x="151.825" y="-312.3" font-family="Times,serif" font-size="14.00">american_team_url :character varying</text>
<text text-anchor="start" x="151.825" y="-298.3" font-family="Times,serif" font-size="14.00">overseas_team :character varying</text>
<text text-anchor="start" x="151.825" y="-284.3" font-family="Times,serif" font-size="14.00">college :character varying</text>
<text text-anchor="start" x="151.825" y="-270.3" font-family="Times,serif" font-size="14.00">birthdate :date</text>
<text text-anchor="start" x="151.825" y="-256.3" font-family="Times,serif" font-size="14.00">height :character varying</text>
<text text-anchor="start" x="151.825" y="-242.3" font-family="Times,serif" font-size="14.00">weight :character varying</text>
<text text-anchor="start" x="151.825" y="-228.3" font-family="Times,serif" font-size="14.00">website_url :character varying</text>
<text text-anchor="start" x="151.825" y="-214.3" font-family="Times,serif" font-size="14.00">video_url :character varying</text>
<text text-anchor="start" x="151.825" y="-200.3" font-family="Times,serif" font-size="14.00">sport_id :integer</text>
<text text-anchor="start" x="151.825" y="-186.3" font-family="Times,serif" font-size="14.00">id :integer</text>
</g>
<!-- NewsArticle -->
<g id="node5" class="node"><title>NewsArticle</title>
<path fill="none" stroke="black" d="M364.825,-0.5C364.825,-0.5 588.55,-0.5 588.55,-0.5 594.55,-0.5 600.55,-6.5 600.55,-12.5 600.55,-12.5 600.55,-130.5 600.55,-130.5 600.55,-136.5 594.55,-142.5 588.55,-142.5 588.55,-142.5 364.825,-142.5 364.825,-142.5 358.825,-142.5 352.825,-136.5 352.825,-130.5 352.825,-130.5 352.825,-12.5 352.825,-12.5 352.825,-6.5 358.825,-0.5 364.825,-0.5"/>
<text text-anchor="middle" x="476.688" y="-127.3" font-family="Times,serif" font-size="14.00">NewsArticle</text>
<polyline fill="none" stroke="black" points="352.825,-120.5 600.55,-120.5 "/>
<text text-anchor="start" x="360.825" y="-105.3" font-family="Times,serif" font-size="14.00">updated_at :timestamp without time zone</text>
<text text-anchor="start" x="360.825" y="-91.3" font-family="Times,serif" font-size="14.00">athlete_id :integer</text>
<text text-anchor="start" x="360.825" y="-77.3" font-family="Times,serif" font-size="14.00">sport_id :integer</text>
<text text-anchor="start" x="360.825" y="-63.3" font-family="Times,serif" font-size="14.00">headline :character varying</text>
<text text-anchor="start" x="360.825" y="-49.3" font-family="Times,serif" font-size="14.00">date_posted :date</text>
<text text-anchor="start" x="360.825" y="-35.3" font-family="Times,serif" font-size="14.00">url :character varying</text>
<text text-anchor="start" x="360.825" y="-21.3" font-family="Times,serif" font-size="14.00">created_at :timestamp without time zone</text>
<text text-anchor="start" x="360.825" y="-7.3" font-family="Times,serif" font-size="14.00">id :integer</text>
</g>
<!-- Athlete&#45;&gt;NewsArticle -->
<g id="edge1" class="edge"><title>Athlete&#45;&gt;NewsArticle</title>
<path fill="none" stroke="#0d2deb" d="M389.149,-173.023C395.797,-165.389 402.351,-157.862 408.7,-150.572"/>
<ellipse fill="none" stroke="#0d2deb" cx="386.427" cy="-176.149" rx="4.00002" ry="4.00002"/>
<polygon fill="#0d2deb" stroke="#0d2deb" points="408.936,-150.301 418.897,-145.715 412.219,-146.531 415.503,-142.76 415.503,-142.76 415.503,-142.76 412.219,-146.531 412.109,-139.805 408.936,-150.301 408.936,-150.301"/>
</g>
<!-- FeaturedPhoto -->
<g id="node4" class="node"><title>FeaturedPhoto</title>
<path fill="none" stroke="black" d="M421.825,-249.5C421.825,-249.5 645.55,-249.5 645.55,-249.5 651.55,-249.5 657.55,-255.5 657.55,-261.5 657.55,-261.5 657.55,-365.5 657.55,-365.5 657.55,-371.5 651.55,-377.5 645.55,-377.5 645.55,-377.5 421.825,-377.5 421.825,-377.5 415.825,-377.5 409.825,-371.5 409.825,-365.5 409.825,-365.5 409.825,-261.5 409.825,-261.5 409.825,-255.5 415.825,-249.5 421.825,-249.5"/>
<text text-anchor="middle" x="533.688" y="-362.3" font-family="Times,serif" font-size="14.00">FeaturedPhoto</text>
<polyline fill="none" stroke="black" points="409.825,-355.5 657.55,-355.5 "/>
<text text-anchor="start" x="417.825" y="-340.3" font-family="Times,serif" font-size="14.00">image_url :character varying</text>
<text text-anchor="start" x="417.825" y="-326.3" font-family="Times,serif" font-size="14.00">athlete_id :integer</text>
<text text-anchor="start" x="417.825" y="-312.3" font-family="Times,serif" font-size="14.00">sport_id :integer</text>
<text text-anchor="start" x="417.825" y="-298.3" font-family="Times,serif" font-size="14.00">id :integer</text>
<text text-anchor="start" x="417.825" y="-284.3" font-family="Times,serif" font-size="14.00">display_status :boolean</text>
<text text-anchor="start" x="417.825" y="-270.3" font-family="Times,serif" font-size="14.00">created_at :timestamp without time zone</text>
<text text-anchor="start" x="417.825" y="-256.3" font-family="Times,serif" font-size="14.00">updated_at :timestamp without time zone</text>
</g>
<!-- Sport -->
<g id="node6" class="node"><title>Sport</title>
<path fill="none" stroke="black" d="M573.825,-547.5C573.825,-547.5 797.55,-547.5 797.55,-547.5 803.55,-547.5 809.55,-553.5 809.55,-559.5 809.55,-559.5 809.55,-621.5 809.55,-621.5 809.55,-627.5 803.55,-633.5 797.55,-633.5 797.55,-633.5 573.825,-633.5 573.825,-633.5 567.825,-633.5 561.825,-627.5 561.825,-621.5 561.825,-621.5 561.825,-559.5 561.825,-559.5 561.825,-553.5 567.825,-547.5 573.825,-547.5"/>
<text text-anchor="middle" x="685.688" y="-618.3" font-family="Times,serif" font-size="14.00">Sport</text>
<polyline fill="none" stroke="black" points="561.825,-611.5 809.55,-611.5 "/>
<text text-anchor="start" x="569.825" y="-596.3" font-family="Times,serif" font-size="14.00">id :integer</text>
<text text-anchor="start" x="569.825" y="-582.3" font-family="Times,serif" font-size="14.00">created_at :timestamp without time zone</text>
<text text-anchor="start" x="569.825" y="-568.3" font-family="Times,serif" font-size="14.00">updated_at :timestamp without time zone</text>
<text text-anchor="start" x="569.825" y="-554.3" font-family="Times,serif" font-size="14.00">type_id :integer</text>
</g>
<!-- Sport&#45;&gt;Athlete -->
<g id="edge2" class="edge"><title>Sport&#45;&gt;Athlete</title>
<path fill="none" stroke="#7db845" d="M637.123,-542.034C613.614,-521.444 583.96,-498.724 553.688,-484 490.867,-453.446 461.683,-482.053 400.688,-448 400.594,-447.948 400.5,-447.895 400.407,-447.843"/>
<ellipse fill="none" stroke="#7db845" cx="640.283" cy="-544.84" rx="4.00002" ry="4.00002"/>
<polygon fill="#7db845" stroke="#7db845" points="400.365,-447.818 394.052,-438.852 396.062,-445.272 391.76,-442.725 391.76,-442.725 391.76,-442.725 396.062,-445.272 389.468,-446.597 400.365,-447.818 400.365,-447.818"/>
</g>
<!-- Sport&#45;&gt;FeaturedPhoto -->
<g id="edge3" class="edge"><title>Sport&#45;&gt;FeaturedPhoto</title>
<path fill="none" stroke="#f12faf" d="M658.517,-540.342C634.883,-497.583 600.323,-435.057 573.556,-386.63"/>
<ellipse fill="none" stroke="#f12faf" cx="660.502" cy="-543.933" rx="4.00002" ry="4.00002"/>
<polygon fill="#f12faf" stroke="#f12faf" points="573.491,-386.511 572.591,-375.583 571.072,-382.135 568.653,-377.759 568.653,-377.759 568.653,-377.759 571.072,-382.135 564.715,-379.936 573.491,-386.511 573.491,-386.511"/>
</g>
<!-- Sport&#45;&gt;NewsArticle -->
<g id="edge4" class="edge"><title>Sport&#45;&gt;NewsArticle</title>
<path fill="none" stroke="#fba100" d="M689.295,-539.068C695.22,-442.947 703.013,-237.84 666.688,-179 652.684,-156.317 631.986,-138.051 609.342,-123.489"/>
<ellipse fill="none" stroke="#fba100" cx="689.035" cy="-543.197" rx="4" ry="4"/>
<polygon fill="#fba100" stroke="#fba100" points="609.091,-123.334 602.939,-114.257 604.834,-120.711 600.578,-118.088 600.578,-118.088 600.578,-118.088 604.834,-120.711 598.217,-121.919 609.091,-123.334 609.091,-123.334"/>
</g>
<!-- TeamMember -->
<g id="node7" class="node"><title>TeamMember</title>
<path fill="none" stroke="black" d="M725.825,-221.5C725.825,-221.5 949.55,-221.5 949.55,-221.5 955.55,-221.5 961.55,-227.5 961.55,-233.5 961.55,-233.5 961.55,-393.5 961.55,-393.5 961.55,-399.5 955.55,-405.5 949.55,-405.5 949.55,-405.5 725.825,-405.5 725.825,-405.5 719.825,-405.5 713.825,-399.5 713.825,-393.5 713.825,-393.5 713.825,-233.5 713.825,-233.5 713.825,-227.5 719.825,-221.5 725.825,-221.5"/>
<text text-anchor="middle" x="837.688" y="-390.3" font-family="Times,serif" font-size="14.00">TeamMember</text>
<polyline fill="none" stroke="black" points="713.825,-383.5 961.55,-383.5 "/>
<text text-anchor="start" x="721.825" y="-368.3" font-family="Times,serif" font-size="14.00">updated_at :timestamp without time zone</text>
<text text-anchor="start" x="721.825" y="-354.3" font-family="Times,serif" font-size="14.00">first_name :character varying</text>
<text text-anchor="start" x="721.825" y="-340.3" font-family="Times,serif" font-size="14.00">last_name :character varying</text>
<text text-anchor="start" x="721.825" y="-326.3" font-family="Times,serif" font-size="14.00">position :character varying</text>
<text text-anchor="start" x="721.825" y="-312.3" font-family="Times,serif" font-size="14.00">photo_url :character varying</text>
<text text-anchor="start" x="721.825" y="-298.3" font-family="Times,serif" font-size="14.00">email :character varying</text>
<text text-anchor="start" x="721.825" y="-284.3" font-family="Times,serif" font-size="14.00">twitter_url :character varying</text>
<text text-anchor="start" x="721.825" y="-270.3" font-family="Times,serif" font-size="14.00">facebook_url :character varying</text>
<text text-anchor="start" x="721.825" y="-256.3" font-family="Times,serif" font-size="14.00">description :text</text>
<text text-anchor="start" x="721.825" y="-242.3" font-family="Times,serif" font-size="14.00">created_at :timestamp without time zone</text>
<text text-anchor="start" x="721.825" y="-228.3" font-family="Times,serif" font-size="14.00">id :integer</text>
</g>
<!-- Sport&#45;&gt;TeamMember -->
<g id="edge5" class="edge"><title>Sport&#45;&gt;TeamMember</title>
<path fill="none" stroke="#d3010d" d="M707.633,-540.168C725.621,-505.209 751.813,-457.1 776.018,-414.28"/>
<ellipse fill="none" stroke="#d3010d" cx="705.738" cy="-543.873" rx="4.00002" ry="4.00002"/>
<polygon fill="#d3010d" stroke="#d3010d" points="776.057,-414.211 784.903,-407.731 778.523,-409.861 780.988,-405.512 780.988,-405.512 780.988,-405.512 778.523,-409.861 777.074,-403.292 776.057,-414.211 776.057,-414.211"/>
</g>
<!-- TeamMember&#45;&gt;Sport -->
<g id="edge6" class="edge"><title>TeamMember&#45;&gt;Sport</title>
<path fill="none" stroke="#13b19c" d="M789.972,-412.583C766.948,-455.254 739.931,-503.457 719.109,-538.759"/>
<ellipse fill="none" stroke="#13b19c" cx="791.882" cy="-409.034" rx="4.00002" ry="4.00002"/>
<polygon fill="#13b19c" stroke="#13b19c" points="719.064,-538.834 710.091,-545.138 716.513,-543.134 713.961,-547.434 713.961,-547.434 713.961,-547.434 716.513,-543.134 717.831,-549.73 719.064,-538.834 719.064,-538.834"/>
</g>
<!-- Testimonial -->
<g id="node8" class="node"><title>Testimonial</title>
<path fill="none" stroke="black" d="M839.825,-526.5C839.825,-526.5 1063.55,-526.5 1063.55,-526.5 1069.55,-526.5 1075.55,-532.5 1075.55,-538.5 1075.55,-538.5 1075.55,-642.5 1075.55,-642.5 1075.55,-648.5 1069.55,-654.5 1063.55,-654.5 1063.55,-654.5 839.825,-654.5 839.825,-654.5 833.825,-654.5 827.825,-648.5 827.825,-642.5 827.825,-642.5 827.825,-538.5 827.825,-538.5 827.825,-532.5 833.825,-526.5 839.825,-526.5"/>
<text text-anchor="middle" x="951.688" y="-639.3" font-family="Times,serif" font-size="14.00">Testimonial</text>
<polyline fill="none" stroke="black" points="827.825,-632.5 1075.55,-632.5 "/>
<text text-anchor="start" x="835.825" y="-617.3" font-family="Times,serif" font-size="14.00">quote :text</text>
<text text-anchor="start" x="835.825" y="-603.3" font-family="Times,serif" font-size="14.00">name :character varying</text>
<text text-anchor="start" x="835.825" y="-589.3" font-family="Times,serif" font-size="14.00">title :character varying</text>
<text text-anchor="start" x="835.825" y="-575.3" font-family="Times,serif" font-size="14.00">id :integer</text>
<text text-anchor="start" x="835.825" y="-561.3" font-family="Times,serif" font-size="14.00">created_at :timestamp without time zone</text>
<text text-anchor="start" x="835.825" y="-547.3" font-family="Times,serif" font-size="14.00">updated_at :timestamp without time zone</text>
<text text-anchor="start" x="835.825" y="-533.3" font-family="Times,serif" font-size="14.00">photo_url :character varying</text>
</g>
</g>
</svg>
