<?xml version="1.0" encoding="UTF-8" standalone="no"?>
<!DOCTYPE svg PUBLIC "-//W3C//DTD SVG 1.1//EN"
 "http://www.w3.org/Graphics/SVG/1.1/DTD/svg11.dtd">
<!-- Generated by graphviz version 2.38.0 (20140413.2041)
 -->
<!-- Title: models_diagram Pages: 1 -->
<svg width="576pt" height="225pt"
 viewBox="0.00 0.00 576.27 225.00" xmlns="http://www.w3.org/2000/svg" xmlns:xlink="http://www.w3.org/1999/xlink">
<g id="graph0" class="graph" transform="scale(1 1) rotate(0) translate(4 221)">
<title>models_diagram</title>
<polygon fill="none" stroke="none" points="-4,4 -4,-221 572.267,-221 572.267,4 -4,4"/>
<!-- _diagram_info -->
<g id="node1" class="node"><title>_diagram_info</title>
<text text-anchor="start" x="8" y="-202.6" font-family="Times,serif" font-size="13.00">Models diagram</text>
<text text-anchor="start" x="8" y="-189.6" font-family="Times,serif" font-size="13.00">Date: Jul 14 2016 &#45; 19:06</text>
<text text-anchor="start" x="8" y="-176.6" font-family="Times,serif" font-size="13.00">Migration version: 20160714225507</text>
<text text-anchor="start" x="8" y="-163.6" font-family="Times,serif" font-size="13.00">Generated by RailRoady 1.4.2</text>
<text text-anchor="start" x="8" y="-150.6" font-family="Times,serif" font-size="13.00">http://railroady.prestonlee.com</text>
</g>
<!-- AdminUser -->
<g id="node2" class="node"><title>AdminUser</title>
<ellipse fill="none" stroke="black" cx="276.688" cy="-180.5" rx="51.2415" ry="18"/>
<text text-anchor="middle" x="276.688" y="-176.3" font-family="Times,serif" font-size="14.00">AdminUser</text>
</g>
<!-- Athlete -->
<g id="node3" class="node"><title>Athlete</title>
<ellipse fill="none" stroke="black" cx="214.688" cy="-90" rx="36.2732" ry="18"/>
<text text-anchor="middle" x="214.688" y="-85.8" font-family="Times,serif" font-size="14.00">Athlete</text>
</g>
<!-- NewsArticle -->
<g id="node5" class="node"><title>NewsArticle</title>
<ellipse fill="none" stroke="black" cx="317.688" cy="-18" rx="54.599" ry="18"/>
<text text-anchor="middle" x="317.688" y="-13.8" font-family="Times,serif" font-size="14.00">NewsArticle</text>
</g>
<!-- Athlete&#45;&gt;NewsArticle -->
<g id="edge1" class="edge"><title>Athlete&#45;&gt;NewsArticle</title>
<path fill="none" stroke="#d7d106" d="M242.276,-70.2506C255.852,-61.024 272.278,-49.8609 286.329,-40.3115"/>
<ellipse fill="none" stroke="#d7d106" cx="238.84" cy="-72.5861" rx="4.00002" ry="4.00002"/>
<polygon fill="#d7d106" stroke="#d7d106" points="286.454,-40.2269 297.254,-38.3278 290.589,-37.4164 294.725,-34.6059 294.725,-34.6059 294.725,-34.6059 290.589,-37.4164 292.195,-30.8841 286.454,-40.2269 286.454,-40.2269"/>
</g>
<!-- FeaturedPhoto -->
<g id="node4" class="node"><title>FeaturedPhoto</title>
<ellipse fill="none" stroke="black" cx="330.688" cy="-90" rx="61.8736" ry="18"/>
<text text-anchor="middle" x="330.688" y="-85.8" font-family="Times,serif" font-size="14.00">FeaturedPhoto</text>
</g>
<!-- Sport -->
<g id="node6" class="node"><title>Sport</title>
<ellipse fill="none" stroke="black" cx="375.688" cy="-180.5" rx="29.0429" ry="18"/>
<text text-anchor="middle" x="375.688" y="-176.3" font-family="Times,serif" font-size="14.00">Sport</text>
</g>
<!-- Sport&#45;&gt;Athlete -->
<g id="edge2" class="edge"><title>Sport&#45;&gt;Athlete</title>
<path fill="none" stroke="#b72566" d="M355.516,-158.835C349.746,-153.584 343.237,-148.236 336.688,-144 321.991,-134.494 281.92,-117.661 251.679,-105.512"/>
<ellipse fill="none" stroke="#b72566" cx="358.545" cy="-161.692" rx="4.00002" ry="4.00002"/>
<polygon fill="#b72566" stroke="#b72566" points="251.538,-105.456 243.92,-97.5686 246.894,-103.602 242.251,-101.748 242.251,-101.748 242.251,-101.748 246.894,-103.602 240.582,-105.927 251.538,-105.456 251.538,-105.456"/>
</g>
<!-- Sport&#45;&gt;FeaturedPhoto -->
<g id="edge3" class="edge"><title>Sport&#45;&gt;FeaturedPhoto</title>
<path fill="none" stroke="#6e6d1b" d="M363.429,-155.391C357.388,-143.511 350.095,-129.168 343.927,-117.037"/>
<ellipse fill="none" stroke="#6e6d1b" cx="365.411" cy="-159.288" rx="4.00002" ry="4.00002"/>
<polygon fill="#6e6d1b" stroke="#6e6d1b" points="343.799,-116.786 343.278,-105.833 341.533,-112.329 339.267,-107.872 339.267,-107.872 339.267,-107.872 341.533,-112.329 335.256,-109.912 343.799,-116.786 343.799,-116.786"/>
</g>
<!-- Sport&#45;&gt;NewsArticle -->
<g id="edge4" class="edge"><title>Sport&#45;&gt;NewsArticle</title>
<path fill="none" stroke="#c0e01a" d="M390.402,-156.419C402.826,-133.739 416.433,-98.7384 401.688,-72 393.056,-56.3482 377.643,-44.6821 362.355,-36.3401"/>
<ellipse fill="none" stroke="#c0e01a" cx="388.267" cy="-160.14" rx="4.00002" ry="4.00002"/>
<polygon fill="#c0e01a" stroke="#c0e01a" points="362.338,-36.3318 355.456,-27.7945 357.879,-34.0697 353.42,-31.8077 353.42,-31.8077 353.42,-31.8077 357.879,-34.0697 351.384,-35.8208 362.338,-36.3318 362.338,-36.3318"/>
</g>
<!-- TeamMember -->
<g id="node7" class="node"><title>TeamMember</title>
<ellipse fill="none" stroke="black" cx="508.688" cy="-90" rx="59.6587" ry="18"/>
<text text-anchor="middle" x="508.688" y="-85.8" font-family="Times,serif" font-size="14.00">TeamMember</text>
</g>
<!-- Sport&#45;&gt;TeamMember -->
<g id="edge5" class="edge"><title>Sport&#45;&gt;TeamMember</title>
<path fill="none" stroke="#1aa1eb" d="M396.212,-158.628C401.667,-153.564 407.711,-148.359 413.688,-144 430.97,-131.396 451.554,-119.57 469.137,-110.302"/>
<ellipse fill="none" stroke="#1aa1eb" cx="393.01" cy="-161.685" rx="4.00002" ry="4.00002"/>
<polygon fill="#1aa1eb" stroke="#1aa1eb" points="469.145,-110.298 480.095,-109.693 473.585,-107.997 478.024,-105.697 478.024,-105.697 478.024,-105.697 473.585,-107.997 475.954,-101.702 469.145,-110.298 469.145,-110.298"/>
</g>
<!-- Testimonial -->
<g id="node8" class="node"><title>Testimonial</title>
<ellipse fill="none" stroke="black" cx="474.688" cy="-180.5" rx="51.9676" ry="18"/>
<text text-anchor="middle" x="474.688" y="-176.3" font-family="Times,serif" font-size="14.00">Testimonial</text>
</g>
</g>
</svg>
