<?xml version="1.0" encoding="UTF-8" standalone="no"?>
<!DOCTYPE svg PUBLIC "-//W3C//DTD SVG 1.1//EN"
 "http://www.w3.org/Graphics/SVG/1.1/DTD/svg11.dtd">
<!-- Generated by graphviz version 2.38.0 (20140413.2041)
 -->
<!-- Title: models_diagram Pages: 1 -->
<svg width="1350pt" height="638pt"
 viewBox="0.00 0.00 1349.55 638.00" xmlns="http://www.w3.org/2000/svg" xmlns:xlink="http://www.w3.org/1999/xlink">
<g id="graph0" class="graph" transform="scale(1 1) rotate(0) translate(4 634)">
<title>models_diagram</title>
<polygon fill="none" stroke="none" points="-4,4 -4,-634 1345.55,-634 1345.55,4 -4,4"/>
<!-- _diagram_info -->
<g id="node1" class="node"><title>_diagram_info</title>
<text text-anchor="start" x="8" y="-545.6" font-family="Times,serif" font-size="13.00">Models diagram</text>
<text text-anchor="start" x="8" y="-532.6" font-family="Times,serif" font-size="13.00">Date: Jan 19 2017 &#45; 19:02</text>
<text text-anchor="start" x="8" y="-519.6" font-family="Times,serif" font-size="13.00">Migration version: 20170120000145</text>
<text text-anchor="start" x="8" y="-506.6" font-family="Times,serif" font-size="13.00">Generated by RailRoady 1.4.2</text>
<text text-anchor="start" x="8" y="-493.6" font-family="Times,serif" font-size="13.00">http://railroady.prestonlee.com</text>
</g>
<!-- AdminUser -->
<g id="node2" class="node"><title>AdminUser</title>
<path fill="none" stroke="black" d="M237.053,-417.5C237.053,-417.5 532.323,-417.5 532.323,-417.5 538.323,-417.5 544.323,-423.5 544.323,-429.5 544.323,-429.5 544.323,-617.5 544.323,-617.5 544.323,-623.5 538.323,-629.5 532.323,-629.5 532.323,-629.5 237.053,-629.5 237.053,-629.5 231.053,-629.5 225.053,-623.5 225.053,-617.5 225.053,-617.5 225.053,-429.5 225.053,-429.5 225.053,-423.5 231.053,-417.5 237.053,-417.5"/>
<text text-anchor="middle" x="384.688" y="-614.3" font-family="Times,serif" font-size="14.00">AdminUser</text>
<polyline fill="none" stroke="black" points="225.053,-607.5 544.323,-607.5 "/>
<text text-anchor="start" x="233.053" y="-592.3" font-family="Times,serif" font-size="14.00">updated_at :timestamp without time zone</text>
<text text-anchor="start" x="233.053" y="-578.3" font-family="Times,serif" font-size="14.00">email :character varying</text>
<text text-anchor="start" x="233.053" y="-564.3" font-family="Times,serif" font-size="14.00">encrypted_password :character varying</text>
<text text-anchor="start" x="233.053" y="-550.3" font-family="Times,serif" font-size="14.00">reset_password_token :character varying</text>
<text text-anchor="start" x="233.053" y="-536.3" font-family="Times,serif" font-size="14.00">reset_password_sent_at :timestamp without time zone</text>
<text text-anchor="start" x="233.053" y="-522.3" font-family="Times,serif" font-size="14.00">remember_created_at :timestamp without time zone</text>
<text text-anchor="start" x="233.053" y="-508.3" font-family="Times,serif" font-size="14.00">sign_in_count :integer</text>
<text text-anchor="start" x="233.053" y="-494.3" font-family="Times,serif" font-size="14.00">current_sign_in_at :timestamp without time zone</text>
<text text-anchor="start" x="233.053" y="-480.3" font-family="Times,serif" font-size="14.00">last_sign_in_at :timestamp without time zone</text>
<text text-anchor="start" x="233.053" y="-466.3" font-family="Times,serif" font-size="14.00">current_sign_in_ip :inet</text>
<text text-anchor="start" x="233.053" y="-452.3" font-family="Times,serif" font-size="14.00">last_sign_in_ip :inet</text>
<text text-anchor="start" x="233.053" y="-438.3" font-family="Times,serif" font-size="14.00">created_at :timestamp without time zone</text>
<text text-anchor="start" x="233.053" y="-424.3" font-family="Times,serif" font-size="14.00">id :integer</text>
</g>
<!-- Athlete -->
<g id="node3" class="node"><title>Athlete</title>
<path fill="none" stroke="black" d="M269.381,-0.5C269.381,-0.5 531.995,-0.5 531.995,-0.5 537.995,-0.5 543.995,-6.5 543.995,-12.5 543.995,-12.5 543.995,-368.5 543.995,-368.5 543.995,-374.5 537.995,-380.5 531.995,-380.5 531.995,-380.5 269.381,-380.5 269.381,-380.5 263.381,-380.5 257.381,-374.5 257.381,-368.5 257.381,-368.5 257.381,-12.5 257.381,-12.5 257.381,-6.5 263.381,-0.5 269.381,-0.5"/>
<text text-anchor="middle" x="400.688" y="-365.3" font-family="Times,serif" font-size="14.00">Athlete</text>
<polyline fill="none" stroke="black" points="257.381,-358.5 543.995,-358.5 "/>
<text text-anchor="start" x="265.381" y="-343.3" font-family="Times,serif" font-size="14.00">nfl_status :character varying</text>
<text text-anchor="start" x="265.381" y="-329.3" font-family="Times,serif" font-size="14.00">created_at :timestamp without time zone</text>
<text text-anchor="start" x="265.381" y="-315.3" font-family="Times,serif" font-size="14.00">updated_at :timestamp without time zone</text>
<text text-anchor="start" x="265.381" y="-301.3" font-family="Times,serif" font-size="14.00">first_name :character varying</text>
<text text-anchor="start" x="265.381" y="-287.3" font-family="Times,serif" font-size="14.00">last_name :character varying</text>
<text text-anchor="start" x="265.381" y="-273.3" font-family="Times,serif" font-size="14.00">position :character varying</text>
<text text-anchor="start" x="265.381" y="-259.3" font-family="Times,serif" font-size="14.00">american_team_url :character varying</text>
<text text-anchor="start" x="265.381" y="-245.3" font-family="Times,serif" font-size="14.00">overseas_team :character varying</text>
<text text-anchor="start" x="265.381" y="-231.3" font-family="Times,serif" font-size="14.00">college :character varying</text>
<text text-anchor="start" x="265.381" y="-217.3" font-family="Times,serif" font-size="14.00">birthdate :date</text>
<text text-anchor="start" x="265.381" y="-203.3" font-family="Times,serif" font-size="14.00">height :character varying</text>
<text text-anchor="start" x="265.381" y="-189.3" font-family="Times,serif" font-size="14.00">weight :character varying</text>
<text text-anchor="start" x="265.381" y="-175.3" font-family="Times,serif" font-size="14.00">website_url :character varying</text>
<text text-anchor="start" x="265.381" y="-161.3" font-family="Times,serif" font-size="14.00">video_embed_code :text</text>
<text text-anchor="start" x="265.381" y="-147.3" font-family="Times,serif" font-size="14.00">sport_id :integer</text>
<text text-anchor="start" x="265.381" y="-133.3" font-family="Times,serif" font-size="14.00">american_team_name :character varying</text>
<text text-anchor="start" x="265.381" y="-119.3" font-family="Times,serif" font-size="14.00">photo_file_name :character varying</text>
<text text-anchor="start" x="265.381" y="-105.3" font-family="Times,serif" font-size="14.00">photo_content_type :character varying</text>
<text text-anchor="start" x="265.381" y="-91.3" font-family="Times,serif" font-size="14.00">photo_file_size :integer</text>
<text text-anchor="start" x="265.381" y="-77.3" font-family="Times,serif" font-size="14.00">photo_updated_at :timestamp without time zone</text>
<text text-anchor="start" x="265.381" y="-63.3" font-family="Times,serif" font-size="14.00">description :text</text>
<text text-anchor="start" x="265.381" y="-49.3" font-family="Times,serif" font-size="14.00">is_available :boolean</text>
<text text-anchor="start" x="265.381" y="-35.3" font-family="Times,serif" font-size="14.00">country_code :character varying</text>
<text text-anchor="start" x="265.381" y="-21.3" font-family="Times,serif" font-size="14.00">wnba_status :character varying</text>
<text text-anchor="start" x="265.381" y="-7.3" font-family="Times,serif" font-size="14.00">id :integer</text>
</g>
<!-- FeaturedPhoto -->
<g id="node4" class="node"><title>FeaturedPhoto</title>
<path fill="none" stroke="black" d="M573.825,-126.5C573.825,-126.5 797.55,-126.5 797.55,-126.5 803.55,-126.5 809.55,-132.5 809.55,-138.5 809.55,-138.5 809.55,-242.5 809.55,-242.5 809.55,-248.5 803.55,-254.5 797.55,-254.5 797.55,-254.5 573.825,-254.5 573.825,-254.5 567.825,-254.5 561.825,-248.5 561.825,-242.5 561.825,-242.5 561.825,-138.5 561.825,-138.5 561.825,-132.5 567.825,-126.5 573.825,-126.5"/>
<text text-anchor="middle" x="685.688" y="-239.3" font-family="Times,serif" font-size="14.00">FeaturedPhoto</text>
<polyline fill="none" stroke="black" points="561.825,-232.5 809.55,-232.5 "/>
<text text-anchor="start" x="569.825" y="-217.3" font-family="Times,serif" font-size="14.00">image_url :character varying</text>
<text text-anchor="start" x="569.825" y="-203.3" font-family="Times,serif" font-size="14.00">athlete_id :integer</text>
<text text-anchor="start" x="569.825" y="-189.3" font-family="Times,serif" font-size="14.00">sport_id :integer</text>
<text text-anchor="start" x="569.825" y="-175.3" font-family="Times,serif" font-size="14.00">id :integer</text>
<text text-anchor="start" x="569.825" y="-161.3" font-family="Times,serif" font-size="14.00">display_status :boolean</text>
<text text-anchor="start" x="569.825" y="-147.3" font-family="Times,serif" font-size="14.00">created_at :timestamp without time zone</text>
<text text-anchor="start" x="569.825" y="-133.3" font-family="Times,serif" font-size="14.00">updated_at :timestamp without time zone</text>
</g>
<!-- NewsArticle -->
<g id="node5" class="node"><title>NewsArticle</title>
<path fill="none" stroke="black" d="M839.825,-126.5C839.825,-126.5 1063.55,-126.5 1063.55,-126.5 1069.55,-126.5 1075.55,-132.5 1075.55,-138.5 1075.55,-138.5 1075.55,-242.5 1075.55,-242.5 1075.55,-248.5 1069.55,-254.5 1063.55,-254.5 1063.55,-254.5 839.825,-254.5 839.825,-254.5 833.825,-254.5 827.825,-248.5 827.825,-242.5 827.825,-242.5 827.825,-138.5 827.825,-138.5 827.825,-132.5 833.825,-126.5 839.825,-126.5"/>
<text text-anchor="middle" x="951.688" y="-239.3" font-family="Times,serif" font-size="14.00">NewsArticle</text>
<polyline fill="none" stroke="black" points="827.825,-232.5 1075.55,-232.5 "/>
<text text-anchor="start" x="835.825" y="-217.3" font-family="Times,serif" font-size="14.00">date_posted :date</text>
<text text-anchor="start" x="835.825" y="-203.3" font-family="Times,serif" font-size="14.00">sport_id :integer</text>
<text text-anchor="start" x="835.825" y="-189.3" font-family="Times,serif" font-size="14.00">headline :character varying</text>
<text text-anchor="start" x="835.825" y="-175.3" font-family="Times,serif" font-size="14.00">id :integer</text>
<text text-anchor="start" x="835.825" y="-161.3" font-family="Times,serif" font-size="14.00">url :character varying</text>
<text text-anchor="start" x="835.825" y="-147.3" font-family="Times,serif" font-size="14.00">created_at :timestamp without time zone</text>
<text text-anchor="start" x="835.825" y="-133.3" font-family="Times,serif" font-size="14.00">updated_at :timestamp without time zone</text>
</g>
<!-- Sport -->
<g id="node6" class="node"><title>Sport</title>
<path fill="none" stroke="black" d="M573.825,-473.5C573.825,-473.5 797.55,-473.5 797.55,-473.5 803.55,-473.5 809.55,-479.5 809.55,-485.5 809.55,-485.5 809.55,-561.5 809.55,-561.5 809.55,-567.5 803.55,-573.5 797.55,-573.5 797.55,-573.5 573.825,-573.5 573.825,-573.5 567.825,-573.5 561.825,-567.5 561.825,-561.5 561.825,-561.5 561.825,-485.5 561.825,-485.5 561.825,-479.5 567.825,-473.5 573.825,-473.5"/>
<text text-anchor="middle" x="685.688" y="-558.3" font-family="Times,serif" font-size="14.00">Sport</text>
<polyline fill="none" stroke="black" points="561.825,-551.5 809.55,-551.5 "/>
<text text-anchor="start" x="569.825" y="-536.3" font-family="Times,serif" font-size="14.00">id :integer</text>
<text text-anchor="start" x="569.825" y="-522.3" font-family="Times,serif" font-size="14.00">created_at :timestamp without time zone</text>
<text text-anchor="start" x="569.825" y="-508.3" font-family="Times,serif" font-size="14.00">updated_at :timestamp without time zone</text>
<text text-anchor="start" x="569.825" y="-494.3" font-family="Times,serif" font-size="14.00">type_id :integer</text>
<text text-anchor="start" x="569.825" y="-480.3" font-family="Times,serif" font-size="14.00">name :character varying</text>
</g>
<!-- Sport&#45;&gt;Athlete -->
<g id="edge1" class="edge"><title>Sport&#45;&gt;Athlete</title>
<path fill="none" stroke="#feb0b3" d="M631.802,-467.197C607.195,-441.432 577.967,-410.1 552.688,-381 552.169,-380.403 551.65,-379.805 551.13,-379.205"/>
<ellipse fill="none" stroke="#feb0b3" cx="634.861" cy="-470.393" rx="4.00002" ry="4.00002"/>
<polygon fill="#feb0b3" stroke="#feb0b3" points="550.876,-378.91 547.757,-368.397 547.612,-375.123 544.348,-371.335 544.348,-371.335 544.348,-371.335 547.612,-375.123 540.939,-374.273 550.876,-378.91 550.876,-378.91"/>
</g>
<!-- Sport&#45;&gt;FeaturedPhoto -->
<g id="edge2" class="edge"><title>Sport&#45;&gt;FeaturedPhoto</title>
<path fill="none" stroke="#25467f" d="M685.688,-465.236C685.688,-409.705 685.688,-325.219 685.688,-264.804"/>
<ellipse fill="none" stroke="#25467f" cx="685.688" cy="-469.303" rx="4" ry="4"/>
<polygon fill="#25467f" stroke="#25467f" points="685.688,-264.57 690.188,-254.57 685.688,-259.57 685.688,-254.57 685.688,-254.57 685.688,-254.57 685.688,-259.57 681.188,-254.571 685.688,-264.57 685.688,-264.57"/>
</g>
<!-- Sport&#45;&gt;NewsArticle -->
<g id="edge3" class="edge"><title>Sport&#45;&gt;NewsArticle</title>
<path fill="none" stroke="#b25683" d="M741.045,-467.304C765.698,-441.803 794.551,-410.653 818.688,-381 849.225,-343.484 880.445,-299.359 904.956,-263.132"/>
<ellipse fill="none" stroke="#b25683" cx="737.987" cy="-470.454" rx="4.00002" ry="4.00002"/>
<polygon fill="#b25683" stroke="#b25683" points="905.131,-262.872 914.45,-257.093 907.925,-258.726 910.718,-254.579 910.718,-254.579 910.718,-254.579 907.925,-258.726 906.986,-252.065 905.131,-262.872 905.131,-262.872"/>
</g>
<!-- TeamMember -->
<g id="node7" class="node"><title>TeamMember</title>
<path fill="none" stroke="black" d="M839.825,-431.5C839.825,-431.5 1063.55,-431.5 1063.55,-431.5 1069.55,-431.5 1075.55,-437.5 1075.55,-443.5 1075.55,-443.5 1075.55,-603.5 1075.55,-603.5 1075.55,-609.5 1069.55,-615.5 1063.55,-615.5 1063.55,-615.5 839.825,-615.5 839.825,-615.5 833.825,-615.5 827.825,-609.5 827.825,-603.5 827.825,-603.5 827.825,-443.5 827.825,-443.5 827.825,-437.5 833.825,-431.5 839.825,-431.5"/>
<text text-anchor="middle" x="951.688" y="-600.3" font-family="Times,serif" font-size="14.00">TeamMember</text>
<polyline fill="none" stroke="black" points="827.825,-593.5 1075.55,-593.5 "/>
<text text-anchor="start" x="835.825" y="-578.3" font-family="Times,serif" font-size="14.00">updated_at :timestamp without time zone</text>
<text text-anchor="start" x="835.825" y="-564.3" font-family="Times,serif" font-size="14.00">first_name :character varying</text>
<text text-anchor="start" x="835.825" y="-550.3" font-family="Times,serif" font-size="14.00">last_name :character varying</text>
<text text-anchor="start" x="835.825" y="-536.3" font-family="Times,serif" font-size="14.00">position :character varying</text>
<text text-anchor="start" x="835.825" y="-522.3" font-family="Times,serif" font-size="14.00">photo_url :character varying</text>
<text text-anchor="start" x="835.825" y="-508.3" font-family="Times,serif" font-size="14.00">email :character varying</text>
<text text-anchor="start" x="835.825" y="-494.3" font-family="Times,serif" font-size="14.00">twitter_url :character varying</text>
<text text-anchor="start" x="835.825" y="-480.3" font-family="Times,serif" font-size="14.00">facebook_url :character varying</text>
<text text-anchor="start" x="835.825" y="-466.3" font-family="Times,serif" font-size="14.00">description :text</text>
<text text-anchor="start" x="835.825" y="-452.3" font-family="Times,serif" font-size="14.00">created_at :timestamp without time zone</text>
<text text-anchor="start" x="835.825" y="-438.3" font-family="Times,serif" font-size="14.00">id :integer</text>
</g>
<!-- Testimonial -->
<g id="node8" class="node"><title>Testimonial</title>
<path fill="none" stroke="black" d="M1105.83,-459.5C1105.83,-459.5 1329.55,-459.5 1329.55,-459.5 1335.55,-459.5 1341.55,-465.5 1341.55,-471.5 1341.55,-471.5 1341.55,-575.5 1341.55,-575.5 1341.55,-581.5 1335.55,-587.5 1329.55,-587.5 1329.55,-587.5 1105.83,-587.5 1105.83,-587.5 1099.83,-587.5 1093.83,-581.5 1093.83,-575.5 1093.83,-575.5 1093.83,-471.5 1093.83,-471.5 1093.83,-465.5 1099.83,-459.5 1105.83,-459.5"/>
<text text-anchor="middle" x="1217.69" y="-572.3" font-family="Times,serif" font-size="14.00">Testimonial</text>
<polyline fill="none" stroke="black" points="1093.83,-565.5 1341.55,-565.5 "/>
<text text-anchor="start" x="1101.83" y="-550.3" font-family="Times,serif" font-size="14.00">quote :text</text>
<text text-anchor="start" x="1101.83" y="-536.3" font-family="Times,serif" font-size="14.00">name :character varying</text>
<text text-anchor="start" x="1101.83" y="-522.3" font-family="Times,serif" font-size="14.00">title :character varying</text>
<text text-anchor="start" x="1101.83" y="-508.3" font-family="Times,serif" font-size="14.00">id :integer</text>
<text text-anchor="start" x="1101.83" y="-494.3" font-family="Times,serif" font-size="14.00">created_at :timestamp without time zone</text>
<text text-anchor="start" x="1101.83" y="-480.3" font-family="Times,serif" font-size="14.00">updated_at :timestamp without time zone</text>
<text text-anchor="start" x="1101.83" y="-466.3" font-family="Times,serif" font-size="14.00">photo_url :character varying</text>
</g>
</g>
</svg>
