<?xml version="1.0" encoding="UTF-8" standalone="no"?>
<!DOCTYPE svg PUBLIC "-//W3C//DTD SVG 1.1//EN"
 "http://www.w3.org/Graphics/SVG/1.1/DTD/svg11.dtd">
<!-- Generated by graphviz version 2.38.0 (20140413.2041)
 -->
<!-- Title: models_diagram Pages: 1 -->
<svg width="534pt" height="225pt"
 viewBox="0.00 0.00 534.42 225.00" xmlns="http://www.w3.org/2000/svg" xmlns:xlink="http://www.w3.org/1999/xlink">
<g id="graph0" class="graph" transform="scale(1 1) rotate(0) translate(4 221)">
<title>models_diagram</title>
<polygon fill="none" stroke="none" points="-4,4 -4,-221 530.421,-221 530.421,4 -4,4"/>
<!-- _diagram_info -->
<g id="node1" class="node"><title>_diagram_info</title>
<text text-anchor="start" x="8" y="-202.6" font-family="Times,serif" font-size="13.00">Models diagram</text>
<text text-anchor="start" x="8" y="-189.6" font-family="Times,serif" font-size="13.00">Date: Jun 15 2016 &#45; 17:02</text>
<text text-anchor="start" x="8" y="-176.6" font-family="Times,serif" font-size="13.00">Migration version: 20160615210103</text>
<text text-anchor="start" x="8" y="-163.6" font-family="Times,serif" font-size="13.00">Generated by RailRoady 1.4.2</text>
<text text-anchor="start" x="8" y="-150.6" font-family="Times,serif" font-size="13.00">http://railroady.prestonlee.com</text>
</g>
<!-- AdminUser -->
<g id="node2" class="node"><title>AdminUser</title>
<ellipse fill="none" stroke="black" cx="276.688" cy="-180.5" rx="51.2415" ry="18"/>
<text text-anchor="middle" x="276.688" y="-176.3" font-family="Times,serif" font-size="14.00">AdminUser</text>
</g>
<!-- Athlete -->
<g id="node3" class="node"><title>Athlete</title>
<ellipse fill="none" stroke="black" cx="169.688" cy="-90" rx="36.2732" ry="18"/>
<text text-anchor="middle" x="169.688" y="-85.8" font-family="Times,serif" font-size="14.00">Athlete</text>
</g>
<!-- NewsArticle -->
<g id="node5" class="node"><title>NewsArticle</title>
<ellipse fill="none" stroke="black" cx="272.688" cy="-18" rx="54.599" ry="18"/>
<text text-anchor="middle" x="272.688" y="-13.8" font-family="Times,serif" font-size="14.00">NewsArticle</text>
</g>
<!-- Athlete&#45;&gt;NewsArticle -->
<g id="edge1" class="edge"><title>Athlete&#45;&gt;NewsArticle</title>
<path fill="none" stroke="#17d8a7" d="M197.276,-70.2506C210.852,-61.024 227.278,-49.8609 241.329,-40.3115"/>
<ellipse fill="none" stroke="#17d8a7" cx="193.84" cy="-72.5861" rx="4.00002" ry="4.00002"/>
<polygon fill="#17d8a7" stroke="#17d8a7" points="241.454,-40.2269 252.254,-38.3278 245.589,-37.4164 249.725,-34.6059 249.725,-34.6059 249.725,-34.6059 245.589,-37.4164 247.195,-30.8841 241.454,-40.2269 241.454,-40.2269"/>
</g>
<!-- FeaturedPhoto -->
<g id="node4" class="node"><title>FeaturedPhoto</title>
<ellipse fill="none" stroke="black" cx="285.688" cy="-90" rx="61.8736" ry="18"/>
<text text-anchor="middle" x="285.688" y="-85.8" font-family="Times,serif" font-size="14.00">FeaturedPhoto</text>
</g>
<!-- Sport -->
<g id="node6" class="node"><title>Sport</title>
<ellipse fill="none" stroke="black" cx="375.688" cy="-180.5" rx="29.0429" ry="18"/>
<text text-anchor="middle" x="375.688" y="-176.3" font-family="Times,serif" font-size="14.00">Sport</text>
</g>
<!-- Sport&#45;&gt;Athlete -->
<g id="edge2" class="edge"><title>Sport&#45;&gt;Athlete</title>
<path fill="none" stroke="#8ce6de" d="M356.145,-158.558C350.304,-153.217 343.602,-147.892 336.688,-144 287.423,-116.269 268.279,-126.002 214.688,-108 212.105,-107.132 209.45,-106.21 206.782,-105.26"/>
<ellipse fill="none" stroke="#8ce6de" cx="359.23" cy="-161.523" rx="4.00002" ry="4.00002"/>
<polygon fill="#8ce6de" stroke="#8ce6de" points="206.571,-105.183 198.72,-97.5276 201.874,-103.469 197.177,-101.755 197.177,-101.755 197.177,-101.755 201.874,-103.469 195.634,-105.982 206.571,-105.183 206.571,-105.183"/>
</g>
<!-- Sport&#45;&gt;FeaturedPhoto -->
<g id="edge3" class="edge"><title>Sport&#45;&gt;FeaturedPhoto</title>
<path fill="none" stroke="#b35952" d="M354.812,-158.973C341.367,-145.751 323.841,-128.518 309.802,-114.712"/>
<ellipse fill="none" stroke="#b35952" cx="357.974" cy="-162.081" rx="4.00002" ry="4.00002"/>
<polygon fill="#b35952" stroke="#b35952" points="309.539,-114.453 305.564,-104.233 305.974,-110.948 302.408,-107.442 302.408,-107.442 302.408,-107.442 305.974,-110.948 299.253,-110.651 309.539,-114.453 309.539,-114.453"/>
</g>
<!-- Sport&#45;&gt;NewsArticle -->
<g id="edge4" class="edge"><title>Sport&#45;&gt;NewsArticle</title>
<path fill="none" stroke="#38592b" d="M376.801,-154.278C376.615,-131.031 373.157,-96.5217 356.688,-72 346.736,-57.1822 331.097,-45.682 315.999,-37.2392"/>
<ellipse fill="none" stroke="#38592b" cx="376.77" cy="-158.293" rx="4" ry="4"/>
<polygon fill="#38592b" stroke="#38592b" points="315.58,-37.0193 308.813,-28.3898 311.151,-34.6972 306.723,-32.3751 306.723,-32.3751 306.723,-32.3751 311.151,-34.6972 304.633,-36.3604 315.58,-37.0193 315.58,-37.0193"/>
</g>
<!-- TeamMember -->
<g id="node7" class="node"><title>TeamMember</title>
<ellipse fill="none" stroke="black" cx="463.688" cy="-90" rx="59.6587" ry="18"/>
<text text-anchor="middle" x="463.688" y="-85.8" font-family="Times,serif" font-size="14.00">TeamMember</text>
</g>
<!-- Sport&#45;&gt;TeamMember -->
<g id="edge5" class="edge"><title>Sport&#45;&gt;TeamMember</title>
<path fill="none" stroke="#26fbfc" d="M391.816,-157.304C403.896,-144.094 420.514,-127.36 434.804,-114.009"/>
<ellipse fill="none" stroke="#26fbfc" cx="388.774" cy="-160.699" rx="4.00002" ry="4.00002"/>
<polygon fill="#26fbfc" stroke="#26fbfc" points="435.092,-113.745 445.502,-110.299 438.776,-110.364 442.46,-106.983 442.46,-106.983 442.46,-106.983 438.776,-110.364 439.417,-103.668 435.092,-113.745 435.092,-113.745"/>
</g>
<!-- TeamMember&#45;&gt;Sport -->
<g id="edge6" class="edge"><title>TeamMember&#45;&gt;Sport</title>
<path fill="none" stroke="#2c14be" d="M446.813,-114.01C434.038,-127.919 416.49,-145.5 401.932,-158.943"/>
<ellipse fill="none" stroke="#2c14be" cx="449.64" cy="-110.875" rx="4.00002" ry="4.00002"/>
<polygon fill="#2c14be" stroke="#2c14be" points="401.48,-159.352 391.044,-162.721 397.771,-162.705 394.062,-166.059 394.062,-166.059 394.062,-166.059 397.771,-162.705 397.08,-169.397 401.48,-159.352 401.48,-159.352"/>
</g>
<!-- Testimonial -->
<g id="node8" class="node"><title>Testimonial</title>
<ellipse fill="none" stroke="black" cx="474.688" cy="-180.5" rx="51.9676" ry="18"/>
<text text-anchor="middle" x="474.688" y="-176.3" font-family="Times,serif" font-size="14.00">Testimonial</text>
</g>
</g>
</svg>
