<?xml version="1.0" encoding="UTF-8" standalone="no"?>
<!DOCTYPE svg PUBLIC "-//W3C//DTD SVG 1.1//EN"
 "http://www.w3.org/Graphics/SVG/1.1/DTD/svg11.dtd">
<!-- Generated by graphviz version 2.38.0 (20140413.2041)
 -->
<!-- Title: models_diagram Pages: 1 -->
<svg width="1350pt" height="775pt"
 viewBox="0.00 0.00 1349.55 775.00" xmlns="http://www.w3.org/2000/svg" xmlns:xlink="http://www.w3.org/1999/xlink">
<g id="graph0" class="graph" transform="scale(1 1) rotate(0) translate(4 771)">
<title>models_diagram</title>
<polygon fill="none" stroke="none" points="-4,4 -4,-771 1345.55,-771 1345.55,4 -4,4"/>
<!-- _diagram_info -->
<g id="node1" class="node"><title>_diagram_info</title>
<text text-anchor="start" x="8" y="-682.6" font-family="Times,serif" font-size="13.00">Models diagram</text>
<text text-anchor="start" x="8" y="-669.6" font-family="Times,serif" font-size="13.00">Date: Jul 17 2016 &#45; 09:27</text>
<text text-anchor="start" x="8" y="-656.6" font-family="Times,serif" font-size="13.00">Migration version: 20160717132201</text>
<text text-anchor="start" x="8" y="-643.6" font-family="Times,serif" font-size="13.00">Generated by RailRoady 1.4.2</text>
<text text-anchor="start" x="8" y="-630.6" font-family="Times,serif" font-size="13.00">http://railroady.prestonlee.com</text>
</g>
<!-- AdminUser -->
<g id="node2" class="node"><title>AdminUser</title>
<path fill="none" stroke="black" d="M237.053,-554.5C237.053,-554.5 532.323,-554.5 532.323,-554.5 538.323,-554.5 544.323,-560.5 544.323,-566.5 544.323,-566.5 544.323,-754.5 544.323,-754.5 544.323,-760.5 538.323,-766.5 532.323,-766.5 532.323,-766.5 237.053,-766.5 237.053,-766.5 231.053,-766.5 225.053,-760.5 225.053,-754.5 225.053,-754.5 225.053,-566.5 225.053,-566.5 225.053,-560.5 231.053,-554.5 237.053,-554.5"/>
<text text-anchor="middle" x="384.688" y="-751.3" font-family="Times,serif" font-size="14.00">AdminUser</text>
<polyline fill="none" stroke="black" points="225.053,-744.5 544.323,-744.5 "/>
<text text-anchor="start" x="233.053" y="-729.3" font-family="Times,serif" font-size="14.00">updated_at :timestamp without time zone</text>
<text text-anchor="start" x="233.053" y="-715.3" font-family="Times,serif" font-size="14.00">email :character varying</text>
<text text-anchor="start" x="233.053" y="-701.3" font-family="Times,serif" font-size="14.00">encrypted_password :character varying</text>
<text text-anchor="start" x="233.053" y="-687.3" font-family="Times,serif" font-size="14.00">reset_password_token :character varying</text>
<text text-anchor="start" x="233.053" y="-673.3" font-family="Times,serif" font-size="14.00">reset_password_sent_at :timestamp without time zone</text>
<text text-anchor="start" x="233.053" y="-659.3" font-family="Times,serif" font-size="14.00">remember_created_at :timestamp without time zone</text>
<text text-anchor="start" x="233.053" y="-645.3" font-family="Times,serif" font-size="14.00">sign_in_count :integer</text>
<text text-anchor="start" x="233.053" y="-631.3" font-family="Times,serif" font-size="14.00">current_sign_in_at :timestamp without time zone</text>
<text text-anchor="start" x="233.053" y="-617.3" font-family="Times,serif" font-size="14.00">last_sign_in_at :timestamp without time zone</text>
<text text-anchor="start" x="233.053" y="-603.3" font-family="Times,serif" font-size="14.00">current_sign_in_ip :inet</text>
<text text-anchor="start" x="233.053" y="-589.3" font-family="Times,serif" font-size="14.00">last_sign_in_ip :inet</text>
<text text-anchor="start" x="233.053" y="-575.3" font-family="Times,serif" font-size="14.00">created_at :timestamp without time zone</text>
<text text-anchor="start" x="233.053" y="-561.3" font-family="Times,serif" font-size="14.00">id :integer</text>
</g>
<!-- Athlete -->
<g id="node3" class="node"><title>Athlete</title>
<path fill="none" stroke="black" d="M269.381,-179.5C269.381,-179.5 531.995,-179.5 531.995,-179.5 537.995,-179.5 543.995,-185.5 543.995,-191.5 543.995,-191.5 543.995,-505.5 543.995,-505.5 543.995,-511.5 537.995,-517.5 531.995,-517.5 531.995,-517.5 269.381,-517.5 269.381,-517.5 263.381,-517.5 257.381,-511.5 257.381,-505.5 257.381,-505.5 257.381,-191.5 257.381,-191.5 257.381,-185.5 263.381,-179.5 269.381,-179.5"/>
<text text-anchor="middle" x="400.688" y="-502.3" font-family="Times,serif" font-size="14.00">Athlete</text>
<polyline fill="none" stroke="black" points="257.381,-495.5 543.995,-495.5 "/>
<text text-anchor="start" x="265.381" y="-480.3" font-family="Times,serif" font-size="14.00">is_available :boolean</text>
<text text-anchor="start" x="265.381" y="-466.3" font-family="Times,serif" font-size="14.00">created_at :timestamp without time zone</text>
<text text-anchor="start" x="265.381" y="-452.3" font-family="Times,serif" font-size="14.00">updated_at :timestamp without time zone</text>
<text text-anchor="start" x="265.381" y="-438.3" font-family="Times,serif" font-size="14.00">first_name :character varying</text>
<text text-anchor="start" x="265.381" y="-424.3" font-family="Times,serif" font-size="14.00">last_name :character varying</text>
<text text-anchor="start" x="265.381" y="-410.3" font-family="Times,serif" font-size="14.00">position :character varying</text>
<text text-anchor="start" x="265.381" y="-396.3" font-family="Times,serif" font-size="14.00">american_team_url :character varying</text>
<text text-anchor="start" x="265.381" y="-382.3" font-family="Times,serif" font-size="14.00">overseas_team :character varying</text>
<text text-anchor="start" x="265.381" y="-368.3" font-family="Times,serif" font-size="14.00">college :character varying</text>
<text text-anchor="start" x="265.381" y="-354.3" font-family="Times,serif" font-size="14.00">birthdate :date</text>
<text text-anchor="start" x="265.381" y="-340.3" font-family="Times,serif" font-size="14.00">height :character varying</text>
<text text-anchor="start" x="265.381" y="-326.3" font-family="Times,serif" font-size="14.00">weight :character varying</text>
<text text-anchor="start" x="265.381" y="-312.3" font-family="Times,serif" font-size="14.00">website_url :character varying</text>
<text text-anchor="start" x="265.381" y="-298.3" font-family="Times,serif" font-size="14.00">video_embed_code :text</text>
<text text-anchor="start" x="265.381" y="-284.3" font-family="Times,serif" font-size="14.00">sport_id :integer</text>
<text text-anchor="start" x="265.381" y="-270.3" font-family="Times,serif" font-size="14.00">american_team_name :character varying</text>
<text text-anchor="start" x="265.381" y="-256.3" font-family="Times,serif" font-size="14.00">photo_file_name :character varying</text>
<text text-anchor="start" x="265.381" y="-242.3" font-family="Times,serif" font-size="14.00">photo_content_type :character varying</text>
<text text-anchor="start" x="265.381" y="-228.3" font-family="Times,serif" font-size="14.00">photo_file_size :integer</text>
<text text-anchor="start" x="265.381" y="-214.3" font-family="Times,serif" font-size="14.00">photo_updated_at :timestamp without time zone</text>
<text text-anchor="start" x="265.381" y="-200.3" font-family="Times,serif" font-size="14.00">description :text</text>
<text text-anchor="start" x="265.381" y="-186.3" font-family="Times,serif" font-size="14.00">id :integer</text>
</g>
<!-- NewsArticle -->
<g id="node5" class="node"><title>NewsArticle</title>
<path fill="none" stroke="black" d="M506.825,-0.5C506.825,-0.5 730.55,-0.5 730.55,-0.5 736.55,-0.5 742.55,-6.5 742.55,-12.5 742.55,-12.5 742.55,-130.5 742.55,-130.5 742.55,-136.5 736.55,-142.5 730.55,-142.5 730.55,-142.5 506.825,-142.5 506.825,-142.5 500.825,-142.5 494.825,-136.5 494.825,-130.5 494.825,-130.5 494.825,-12.5 494.825,-12.5 494.825,-6.5 500.825,-0.5 506.825,-0.5"/>
<text text-anchor="middle" x="618.688" y="-127.3" font-family="Times,serif" font-size="14.00">NewsArticle</text>
<polyline fill="none" stroke="black" points="494.825,-120.5 742.55,-120.5 "/>
<text text-anchor="start" x="502.825" y="-105.3" font-family="Times,serif" font-size="14.00">updated_at :timestamp without time zone</text>
<text text-anchor="start" x="502.825" y="-91.3" font-family="Times,serif" font-size="14.00">athlete_id :integer</text>
<text text-anchor="start" x="502.825" y="-77.3" font-family="Times,serif" font-size="14.00">sport_id :integer</text>
<text text-anchor="start" x="502.825" y="-63.3" font-family="Times,serif" font-size="14.00">headline :character varying</text>
<text text-anchor="start" x="502.825" y="-49.3" font-family="Times,serif" font-size="14.00">date_posted :date</text>
<text text-anchor="start" x="502.825" y="-35.3" font-family="Times,serif" font-size="14.00">url :character varying</text>
<text text-anchor="start" x="502.825" y="-21.3" font-family="Times,serif" font-size="14.00">created_at :timestamp without time zone</text>
<text text-anchor="start" x="502.825" y="-7.3" font-family="Times,serif" font-size="14.00">id :integer</text>
</g>
<!-- Athlete&#45;&gt;NewsArticle -->
<g id="edge1" class="edge"><title>Athlete&#45;&gt;NewsArticle</title>
<path fill="none" stroke="#afb1d1" d="M539.259,-172.697C545.19,-165.215 550.995,-157.892 556.596,-150.827"/>
<ellipse fill="none" stroke="#afb1d1" cx="536.576" cy="-176.081" rx="4.00002" ry="4.00002"/>
<polygon fill="#afb1d1" stroke="#afb1d1" points="556.86,-150.494 566.599,-145.453 559.966,-146.575 563.072,-142.657 563.072,-142.657 563.072,-142.657 559.966,-146.575 559.546,-139.862 556.86,-150.494 556.86,-150.494"/>
</g>
<!-- FeaturedPhoto -->
<g id="node4" class="node"><title>FeaturedPhoto</title>
<path fill="none" stroke="black" d="M573.825,-284.5C573.825,-284.5 797.55,-284.5 797.55,-284.5 803.55,-284.5 809.55,-290.5 809.55,-296.5 809.55,-296.5 809.55,-400.5 809.55,-400.5 809.55,-406.5 803.55,-412.5 797.55,-412.5 797.55,-412.5 573.825,-412.5 573.825,-412.5 567.825,-412.5 561.825,-406.5 561.825,-400.5 561.825,-400.5 561.825,-296.5 561.825,-296.5 561.825,-290.5 567.825,-284.5 573.825,-284.5"/>
<text text-anchor="middle" x="685.688" y="-397.3" font-family="Times,serif" font-size="14.00">FeaturedPhoto</text>
<polyline fill="none" stroke="black" points="561.825,-390.5 809.55,-390.5 "/>
<text text-anchor="start" x="569.825" y="-375.3" font-family="Times,serif" font-size="14.00">image_url :character varying</text>
<text text-anchor="start" x="569.825" y="-361.3" font-family="Times,serif" font-size="14.00">athlete_id :integer</text>
<text text-anchor="start" x="569.825" y="-347.3" font-family="Times,serif" font-size="14.00">sport_id :integer</text>
<text text-anchor="start" x="569.825" y="-333.3" font-family="Times,serif" font-size="14.00">id :integer</text>
<text text-anchor="start" x="569.825" y="-319.3" font-family="Times,serif" font-size="14.00">display_status :boolean</text>
<text text-anchor="start" x="569.825" y="-305.3" font-family="Times,serif" font-size="14.00">created_at :timestamp without time zone</text>
<text text-anchor="start" x="569.825" y="-291.3" font-family="Times,serif" font-size="14.00">updated_at :timestamp without time zone</text>
</g>
<!-- Sport -->
<g id="node6" class="node"><title>Sport</title>
<path fill="none" stroke="black" d="M573.825,-617.5C573.825,-617.5 797.55,-617.5 797.55,-617.5 803.55,-617.5 809.55,-623.5 809.55,-629.5 809.55,-629.5 809.55,-691.5 809.55,-691.5 809.55,-697.5 803.55,-703.5 797.55,-703.5 797.55,-703.5 573.825,-703.5 573.825,-703.5 567.825,-703.5 561.825,-697.5 561.825,-691.5 561.825,-691.5 561.825,-629.5 561.825,-629.5 561.825,-623.5 567.825,-617.5 573.825,-617.5"/>
<text text-anchor="middle" x="685.688" y="-688.3" font-family="Times,serif" font-size="14.00">Sport</text>
<polyline fill="none" stroke="black" points="561.825,-681.5 809.55,-681.5 "/>
<text text-anchor="start" x="569.825" y="-666.3" font-family="Times,serif" font-size="14.00">id :integer</text>
<text text-anchor="start" x="569.825" y="-652.3" font-family="Times,serif" font-size="14.00">created_at :timestamp without time zone</text>
<text text-anchor="start" x="569.825" y="-638.3" font-family="Times,serif" font-size="14.00">updated_at :timestamp without time zone</text>
<text text-anchor="start" x="569.825" y="-624.3" font-family="Times,serif" font-size="14.00">type_id :integer</text>
</g>
<!-- Sport&#45;&gt;Athlete -->
<g id="edge2" class="edge"><title>Sport&#45;&gt;Athlete</title>
<path fill="none" stroke="#e3309b" d="M639.874,-611.249C614.117,-584.001 581.457,-549.243 552.688,-518 552.162,-517.429 551.636,-516.858 551.109,-516.285"/>
<ellipse fill="none" stroke="#e3309b" cx="642.846" cy="-614.392" rx="4.00002" ry="4.00002"/>
<polygon fill="#e3309b" stroke="#e3309b" points="550.977,-516.141 547.524,-505.732 547.594,-512.459 544.211,-508.777 544.211,-508.777 544.211,-508.777 547.594,-512.459 540.897,-511.822 550.977,-516.141 550.977,-516.141"/>
</g>
<!-- Sport&#45;&gt;FeaturedPhoto -->
<g id="edge3" class="edge"><title>Sport&#45;&gt;FeaturedPhoto</title>
<path fill="none" stroke="#a23ea4" d="M685.688,-609.051C685.688,-558.532 685.688,-480.255 685.688,-422.868"/>
<ellipse fill="none" stroke="#a23ea4" cx="685.688" cy="-613.369" rx="4" ry="4"/>
<polygon fill="#a23ea4" stroke="#a23ea4" points="685.688,-422.768 690.188,-412.768 685.688,-417.768 685.688,-412.768 685.688,-412.768 685.688,-412.768 685.688,-417.768 681.188,-412.768 685.688,-422.768 685.688,-422.768"/>
</g>
<!-- Sport&#45;&gt;NewsArticle -->
<g id="edge4" class="edge"><title>Sport&#45;&gt;NewsArticle</title>
<path fill="none" stroke="#d4da1c" d="M748.115,-611.881C775.29,-587.199 804.199,-554.571 818.688,-518 874.184,-377.926 896.247,-308.17 818.688,-179 802.95,-152.79 778.336,-132.679 751.686,-117.379"/>
<ellipse fill="none" stroke="#d4da1c" cx="744.972" cy="-614.682" rx="4.00002" ry="4.00002"/>
<polygon fill="#d4da1c" stroke="#d4da1c" points="751.342,-117.19 744.747,-108.429 746.961,-114.781 742.579,-112.373 742.579,-112.373 742.579,-112.373 746.961,-114.781 740.411,-116.316 751.342,-117.19 751.342,-117.19"/>
</g>
<!-- TeamMember -->
<g id="node7" class="node"><title>TeamMember</title>
<path fill="none" stroke="black" d="M839.825,-568.5C839.825,-568.5 1063.55,-568.5 1063.55,-568.5 1069.55,-568.5 1075.55,-574.5 1075.55,-580.5 1075.55,-580.5 1075.55,-740.5 1075.55,-740.5 1075.55,-746.5 1069.55,-752.5 1063.55,-752.5 1063.55,-752.5 839.825,-752.5 839.825,-752.5 833.825,-752.5 827.825,-746.5 827.825,-740.5 827.825,-740.5 827.825,-580.5 827.825,-580.5 827.825,-574.5 833.825,-568.5 839.825,-568.5"/>
<text text-anchor="middle" x="951.688" y="-737.3" font-family="Times,serif" font-size="14.00">TeamMember</text>
<polyline fill="none" stroke="black" points="827.825,-730.5 1075.55,-730.5 "/>
<text text-anchor="start" x="835.825" y="-715.3" font-family="Times,serif" font-size="14.00">updated_at :timestamp without time zone</text>
<text text-anchor="start" x="835.825" y="-701.3" font-family="Times,serif" font-size="14.00">first_name :character varying</text>
<text text-anchor="start" x="835.825" y="-687.3" font-family="Times,serif" font-size="14.00">last_name :character varying</text>
<text text-anchor="start" x="835.825" y="-673.3" font-family="Times,serif" font-size="14.00">position :character varying</text>
<text text-anchor="start" x="835.825" y="-659.3" font-family="Times,serif" font-size="14.00">photo_url :character varying</text>
<text text-anchor="start" x="835.825" y="-645.3" font-family="Times,serif" font-size="14.00">email :character varying</text>
<text text-anchor="start" x="835.825" y="-631.3" font-family="Times,serif" font-size="14.00">twitter_url :character varying</text>
<text text-anchor="start" x="835.825" y="-617.3" font-family="Times,serif" font-size="14.00">facebook_url :character varying</text>
<text text-anchor="start" x="835.825" y="-603.3" font-family="Times,serif" font-size="14.00">description :text</text>
<text text-anchor="start" x="835.825" y="-589.3" font-family="Times,serif" font-size="14.00">created_at :timestamp without time zone</text>
<text text-anchor="start" x="835.825" y="-575.3" font-family="Times,serif" font-size="14.00">id :integer</text>
</g>
<!-- Testimonial -->
<g id="node8" class="node"><title>Testimonial</title>
<path fill="none" stroke="black" d="M1105.83,-596.5C1105.83,-596.5 1329.55,-596.5 1329.55,-596.5 1335.55,-596.5 1341.55,-602.5 1341.55,-608.5 1341.55,-608.5 1341.55,-712.5 1341.55,-712.5 1341.55,-718.5 1335.55,-724.5 1329.55,-724.5 1329.55,-724.5 1105.83,-724.5 1105.83,-724.5 1099.83,-724.5 1093.83,-718.5 1093.83,-712.5 1093.83,-712.5 1093.83,-608.5 1093.83,-608.5 1093.83,-602.5 1099.83,-596.5 1105.83,-596.5"/>
<text text-anchor="middle" x="1217.69" y="-709.3" font-family="Times,serif" font-size="14.00">Testimonial</text>
<polyline fill="none" stroke="black" points="1093.83,-702.5 1341.55,-702.5 "/>
<text text-anchor="start" x="1101.83" y="-687.3" font-family="Times,serif" font-size="14.00">quote :text</text>
<text text-anchor="start" x="1101.83" y="-673.3" font-family="Times,serif" font-size="14.00">name :character varying</text>
<text text-anchor="start" x="1101.83" y="-659.3" font-family="Times,serif" font-size="14.00">title :character varying</text>
<text text-anchor="start" x="1101.83" y="-645.3" font-family="Times,serif" font-size="14.00">id :integer</text>
<text text-anchor="start" x="1101.83" y="-631.3" font-family="Times,serif" font-size="14.00">created_at :timestamp without time zone</text>
<text text-anchor="start" x="1101.83" y="-617.3" font-family="Times,serif" font-size="14.00">updated_at :timestamp without time zone</text>
<text text-anchor="start" x="1101.83" y="-603.3" font-family="Times,serif" font-size="14.00">photo_url :character varying</text>
</g>
</g>
</svg>
