<?xml version="1.0" encoding="UTF-8" standalone="no"?>
<!DOCTYPE svg PUBLIC "-//W3C//DTD SVG 1.1//EN"
 "http://www.w3.org/Graphics/SVG/1.1/DTD/svg11.dtd">
<!-- Generated by graphviz version 2.38.0 (20140413.2041)
 -->
<!-- Title: models_diagram Pages: 1 -->
<svg width="1350pt" height="761pt"
 viewBox="0.00 0.00 1349.55 761.00" xmlns="http://www.w3.org/2000/svg" xmlns:xlink="http://www.w3.org/1999/xlink">
<g id="graph0" class="graph" transform="scale(1 1) rotate(0) translate(4 757)">
<title>models_diagram</title>
<polygon fill="none" stroke="none" points="-4,4 -4,-757 1345.55,-757 1345.55,4 -4,4"/>
<!-- _diagram_info -->
<g id="node1" class="node"><title>_diagram_info</title>
<text text-anchor="start" x="8" y="-668.6" font-family="Times,serif" font-size="13.00">Models diagram</text>
<text text-anchor="start" x="8" y="-655.6" font-family="Times,serif" font-size="13.00">Date: Jul 14 2016 &#45; 19:07</text>
<text text-anchor="start" x="8" y="-642.6" font-family="Times,serif" font-size="13.00">Migration version: 20160714225507</text>
<text text-anchor="start" x="8" y="-629.6" font-family="Times,serif" font-size="13.00">Generated by RailRoady 1.4.2</text>
<text text-anchor="start" x="8" y="-616.6" font-family="Times,serif" font-size="13.00">http://railroady.prestonlee.com</text>
</g>
<!-- AdminUser -->
<g id="node2" class="node"><title>AdminUser</title>
<path fill="none" stroke="black" d="M237.053,-540.5C237.053,-540.5 532.323,-540.5 532.323,-540.5 538.323,-540.5 544.323,-546.5 544.323,-552.5 544.323,-552.5 544.323,-740.5 544.323,-740.5 544.323,-746.5 538.323,-752.5 532.323,-752.5 532.323,-752.5 237.053,-752.5 237.053,-752.5 231.053,-752.5 225.053,-746.5 225.053,-740.5 225.053,-740.5 225.053,-552.5 225.053,-552.5 225.053,-546.5 231.053,-540.5 237.053,-540.5"/>
<text text-anchor="middle" x="384.688" y="-737.3" font-family="Times,serif" font-size="14.00">AdminUser</text>
<polyline fill="none" stroke="black" points="225.053,-730.5 544.323,-730.5 "/>
<text text-anchor="start" x="233.053" y="-715.3" font-family="Times,serif" font-size="14.00">updated_at :timestamp without time zone</text>
<text text-anchor="start" x="233.053" y="-701.3" font-family="Times,serif" font-size="14.00">email :character varying</text>
<text text-anchor="start" x="233.053" y="-687.3" font-family="Times,serif" font-size="14.00">encrypted_password :character varying</text>
<text text-anchor="start" x="233.053" y="-673.3" font-family="Times,serif" font-size="14.00">reset_password_token :character varying</text>
<text text-anchor="start" x="233.053" y="-659.3" font-family="Times,serif" font-size="14.00">reset_password_sent_at :timestamp without time zone</text>
<text text-anchor="start" x="233.053" y="-645.3" font-family="Times,serif" font-size="14.00">remember_created_at :timestamp without time zone</text>
<text text-anchor="start" x="233.053" y="-631.3" font-family="Times,serif" font-size="14.00">sign_in_count :integer</text>
<text text-anchor="start" x="233.053" y="-617.3" font-family="Times,serif" font-size="14.00">current_sign_in_at :timestamp without time zone</text>
<text text-anchor="start" x="233.053" y="-603.3" font-family="Times,serif" font-size="14.00">last_sign_in_at :timestamp without time zone</text>
<text text-anchor="start" x="233.053" y="-589.3" font-family="Times,serif" font-size="14.00">current_sign_in_ip :inet</text>
<text text-anchor="start" x="233.053" y="-575.3" font-family="Times,serif" font-size="14.00">last_sign_in_ip :inet</text>
<text text-anchor="start" x="233.053" y="-561.3" font-family="Times,serif" font-size="14.00">created_at :timestamp without time zone</text>
<text text-anchor="start" x="233.053" y="-547.3" font-family="Times,serif" font-size="14.00">id :integer</text>
</g>
<!-- Athlete -->
<g id="node3" class="node"><title>Athlete</title>
<path fill="none" stroke="black" d="M269.381,-179.5C269.381,-179.5 531.995,-179.5 531.995,-179.5 537.995,-179.5 543.995,-185.5 543.995,-191.5 543.995,-191.5 543.995,-491.5 543.995,-491.5 543.995,-497.5 537.995,-503.5 531.995,-503.5 531.995,-503.5 269.381,-503.5 269.381,-503.5 263.381,-503.5 257.381,-497.5 257.381,-491.5 257.381,-491.5 257.381,-191.5 257.381,-191.5 257.381,-185.5 263.381,-179.5 269.381,-179.5"/>
<text text-anchor="middle" x="400.688" y="-488.3" font-family="Times,serif" font-size="14.00">Athlete</text>
<polyline fill="none" stroke="black" points="257.381,-481.5 543.995,-481.5 "/>
<text text-anchor="start" x="265.381" y="-466.3" font-family="Times,serif" font-size="14.00">photo_updated_at :timestamp without time zone</text>
<text text-anchor="start" x="265.381" y="-452.3" font-family="Times,serif" font-size="14.00">created_at :timestamp without time zone</text>
<text text-anchor="start" x="265.381" y="-438.3" font-family="Times,serif" font-size="14.00">updated_at :timestamp without time zone</text>
<text text-anchor="start" x="265.381" y="-424.3" font-family="Times,serif" font-size="14.00">first_name :character varying</text>
<text text-anchor="start" x="265.381" y="-410.3" font-family="Times,serif" font-size="14.00">last_name :character varying</text>
<text text-anchor="start" x="265.381" y="-396.3" font-family="Times,serif" font-size="14.00">photo_url :character varying</text>
<text text-anchor="start" x="265.381" y="-382.3" font-family="Times,serif" font-size="14.00">position :character varying</text>
<text text-anchor="start" x="265.381" y="-368.3" font-family="Times,serif" font-size="14.00">american_team_url :character varying</text>
<text text-anchor="start" x="265.381" y="-354.3" font-family="Times,serif" font-size="14.00">overseas_team :character varying</text>
<text text-anchor="start" x="265.381" y="-340.3" font-family="Times,serif" font-size="14.00">college :character varying</text>
<text text-anchor="start" x="265.381" y="-326.3" font-family="Times,serif" font-size="14.00">birthdate :date</text>
<text text-anchor="start" x="265.381" y="-312.3" font-family="Times,serif" font-size="14.00">height :character varying</text>
<text text-anchor="start" x="265.381" y="-298.3" font-family="Times,serif" font-size="14.00">weight :character varying</text>
<text text-anchor="start" x="265.381" y="-284.3" font-family="Times,serif" font-size="14.00">website_url :character varying</text>
<text text-anchor="start" x="265.381" y="-270.3" font-family="Times,serif" font-size="14.00">video_url :character varying</text>
<text text-anchor="start" x="265.381" y="-256.3" font-family="Times,serif" font-size="14.00">sport_id :integer</text>
<text text-anchor="start" x="265.381" y="-242.3" font-family="Times,serif" font-size="14.00">american_team_name :character varying</text>
<text text-anchor="start" x="265.381" y="-228.3" font-family="Times,serif" font-size="14.00">photo_file_name :character varying</text>
<text text-anchor="start" x="265.381" y="-214.3" font-family="Times,serif" font-size="14.00">photo_content_type :character varying</text>
<text text-anchor="start" x="265.381" y="-200.3" font-family="Times,serif" font-size="14.00">photo_file_size :integer</text>
<text text-anchor="start" x="265.381" y="-186.3" font-family="Times,serif" font-size="14.00">id :integer</text>
</g>
<!-- NewsArticle -->
<g id="node5" class="node"><title>NewsArticle</title>
<path fill="none" stroke="black" d="M506.825,-0.5C506.825,-0.5 730.55,-0.5 730.55,-0.5 736.55,-0.5 742.55,-6.5 742.55,-12.5 742.55,-12.5 742.55,-130.5 742.55,-130.5 742.55,-136.5 736.55,-142.5 730.55,-142.5 730.55,-142.5 506.825,-142.5 506.825,-142.5 500.825,-142.5 494.825,-136.5 494.825,-130.5 494.825,-130.5 494.825,-12.5 494.825,-12.5 494.825,-6.5 500.825,-0.5 506.825,-0.5"/>
<text text-anchor="middle" x="618.688" y="-127.3" font-family="Times,serif" font-size="14.00">NewsArticle</text>
<polyline fill="none" stroke="black" points="494.825,-120.5 742.55,-120.5 "/>
<text text-anchor="start" x="502.825" y="-105.3" font-family="Times,serif" font-size="14.00">updated_at :timestamp without time zone</text>
<text text-anchor="start" x="502.825" y="-91.3" font-family="Times,serif" font-size="14.00">athlete_id :integer</text>
<text text-anchor="start" x="502.825" y="-77.3" font-family="Times,serif" font-size="14.00">sport_id :integer</text>
<text text-anchor="start" x="502.825" y="-63.3" font-family="Times,serif" font-size="14.00">headline :character varying</text>
<text text-anchor="start" x="502.825" y="-49.3" font-family="Times,serif" font-size="14.00">date_posted :date</text>
<text text-anchor="start" x="502.825" y="-35.3" font-family="Times,serif" font-size="14.00">url :character varying</text>
<text text-anchor="start" x="502.825" y="-21.3" font-family="Times,serif" font-size="14.00">created_at :timestamp without time zone</text>
<text text-anchor="start" x="502.825" y="-7.3" font-family="Times,serif" font-size="14.00">id :integer</text>
</g>
<!-- Athlete&#45;&gt;NewsArticle -->
<g id="edge1" class="edge"><title>Athlete&#45;&gt;NewsArticle</title>
<path fill="none" stroke="#7e9f15" d="M537.176,-172.707C543.232,-165.262 549.166,-157.967 554.898,-150.92"/>
<ellipse fill="none" stroke="#7e9f15" cx="534.426" cy="-176.088" rx="4.00002" ry="4.00002"/>
<polygon fill="#7e9f15" stroke="#7e9f15" points="555.218,-150.526 565.02,-145.608 558.374,-146.648 561.529,-142.769 561.529,-142.769 561.529,-142.769 558.374,-146.648 558.038,-139.929 555.218,-150.526 555.218,-150.526"/>
</g>
<!-- FeaturedPhoto -->
<g id="node4" class="node"><title>FeaturedPhoto</title>
<path fill="none" stroke="black" d="M573.825,-277.5C573.825,-277.5 797.55,-277.5 797.55,-277.5 803.55,-277.5 809.55,-283.5 809.55,-289.5 809.55,-289.5 809.55,-393.5 809.55,-393.5 809.55,-399.5 803.55,-405.5 797.55,-405.5 797.55,-405.5 573.825,-405.5 573.825,-405.5 567.825,-405.5 561.825,-399.5 561.825,-393.5 561.825,-393.5 561.825,-289.5 561.825,-289.5 561.825,-283.5 567.825,-277.5 573.825,-277.5"/>
<text text-anchor="middle" x="685.688" y="-390.3" font-family="Times,serif" font-size="14.00">FeaturedPhoto</text>
<polyline fill="none" stroke="black" points="561.825,-383.5 809.55,-383.5 "/>
<text text-anchor="start" x="569.825" y="-368.3" font-family="Times,serif" font-size="14.00">image_url :character varying</text>
<text text-anchor="start" x="569.825" y="-354.3" font-family="Times,serif" font-size="14.00">athlete_id :integer</text>
<text text-anchor="start" x="569.825" y="-340.3" font-family="Times,serif" font-size="14.00">sport_id :integer</text>
<text text-anchor="start" x="569.825" y="-326.3" font-family="Times,serif" font-size="14.00">id :integer</text>
<text text-anchor="start" x="569.825" y="-312.3" font-family="Times,serif" font-size="14.00">display_status :boolean</text>
<text text-anchor="start" x="569.825" y="-298.3" font-family="Times,serif" font-size="14.00">created_at :timestamp without time zone</text>
<text text-anchor="start" x="569.825" y="-284.3" font-family="Times,serif" font-size="14.00">updated_at :timestamp without time zone</text>
</g>
<!-- Sport -->
<g id="node6" class="node"><title>Sport</title>
<path fill="none" stroke="black" d="M573.825,-603.5C573.825,-603.5 797.55,-603.5 797.55,-603.5 803.55,-603.5 809.55,-609.5 809.55,-615.5 809.55,-615.5 809.55,-677.5 809.55,-677.5 809.55,-683.5 803.55,-689.5 797.55,-689.5 797.55,-689.5 573.825,-689.5 573.825,-689.5 567.825,-689.5 561.825,-683.5 561.825,-677.5 561.825,-677.5 561.825,-615.5 561.825,-615.5 561.825,-609.5 567.825,-603.5 573.825,-603.5"/>
<text text-anchor="middle" x="685.688" y="-674.3" font-family="Times,serif" font-size="14.00">Sport</text>
<polyline fill="none" stroke="black" points="561.825,-667.5 809.55,-667.5 "/>
<text text-anchor="start" x="569.825" y="-652.3" font-family="Times,serif" font-size="14.00">id :integer</text>
<text text-anchor="start" x="569.825" y="-638.3" font-family="Times,serif" font-size="14.00">created_at :timestamp without time zone</text>
<text text-anchor="start" x="569.825" y="-624.3" font-family="Times,serif" font-size="14.00">updated_at :timestamp without time zone</text>
<text text-anchor="start" x="569.825" y="-610.3" font-family="Times,serif" font-size="14.00">type_id :integer</text>
</g>
<!-- Sport&#45;&gt;Athlete -->
<g id="edge2" class="edge"><title>Sport&#45;&gt;Athlete</title>
<path fill="none" stroke="#859cef" d="M640.561,-597.523C615.925,-571.331 583.845,-537.225 551.203,-502.521"/>
<ellipse fill="none" stroke="#859cef" cx="643.319" cy="-600.455" rx="4.00002" ry="4.00002"/>
<polygon fill="#859cef" stroke="#859cef" points="551.083,-502.394 547.509,-492.026 547.657,-498.752 544.231,-495.11 544.231,-495.11 544.231,-495.11 547.657,-498.752 540.954,-498.193 551.083,-502.394 551.083,-502.394"/>
</g>
<!-- Sport&#45;&gt;FeaturedPhoto -->
<g id="edge3" class="edge"><title>Sport&#45;&gt;FeaturedPhoto</title>
<path fill="none" stroke="#dca3be" d="M685.688,-595.285C685.688,-546.335 685.688,-471.355 685.688,-415.755"/>
<ellipse fill="none" stroke="#dca3be" cx="685.688" cy="-599.369" rx="4" ry="4"/>
<polygon fill="#dca3be" stroke="#dca3be" points="685.688,-415.61 690.188,-405.61 685.688,-410.61 685.688,-405.61 685.688,-405.61 685.688,-405.61 685.688,-410.61 681.188,-405.61 685.688,-415.61 685.688,-415.61"/>
</g>
<!-- Sport&#45;&gt;NewsArticle -->
<g id="edge4" class="edge"><title>Sport&#45;&gt;NewsArticle</title>
<path fill="none" stroke="#46a99b" d="M748.115,-597.881C775.29,-573.199 804.199,-540.571 818.688,-504 871.892,-369.711 893.044,-302.836 818.688,-179 802.95,-152.79 778.336,-132.679 751.686,-117.379"/>
<ellipse fill="none" stroke="#46a99b" cx="744.972" cy="-600.682" rx="4.00002" ry="4.00002"/>
<polygon fill="#46a99b" stroke="#46a99b" points="751.342,-117.19 744.747,-108.429 746.961,-114.781 742.579,-112.373 742.579,-112.373 742.579,-112.373 746.961,-114.781 740.411,-116.316 751.342,-117.19 751.342,-117.19"/>
</g>
<!-- TeamMember -->
<g id="node7" class="node"><title>TeamMember</title>
<path fill="none" stroke="black" d="M839.825,-554.5C839.825,-554.5 1063.55,-554.5 1063.55,-554.5 1069.55,-554.5 1075.55,-560.5 1075.55,-566.5 1075.55,-566.5 1075.55,-726.5 1075.55,-726.5 1075.55,-732.5 1069.55,-738.5 1063.55,-738.5 1063.55,-738.5 839.825,-738.5 839.825,-738.5 833.825,-738.5 827.825,-732.5 827.825,-726.5 827.825,-726.5 827.825,-566.5 827.825,-566.5 827.825,-560.5 833.825,-554.5 839.825,-554.5"/>
<text text-anchor="middle" x="951.688" y="-723.3" font-family="Times,serif" font-size="14.00">TeamMember</text>
<polyline fill="none" stroke="black" points="827.825,-716.5 1075.55,-716.5 "/>
<text text-anchor="start" x="835.825" y="-701.3" font-family="Times,serif" font-size="14.00">updated_at :timestamp without time zone</text>
<text text-anchor="start" x="835.825" y="-687.3" font-family="Times,serif" font-size="14.00">first_name :character varying</text>
<text text-anchor="start" x="835.825" y="-673.3" font-family="Times,serif" font-size="14.00">last_name :character varying</text>
<text text-anchor="start" x="835.825" y="-659.3" font-family="Times,serif" font-size="14.00">position :character varying</text>
<text text-anchor="start" x="835.825" y="-645.3" font-family="Times,serif" font-size="14.00">photo_url :character varying</text>
<text text-anchor="start" x="835.825" y="-631.3" font-family="Times,serif" font-size="14.00">email :character varying</text>
<text text-anchor="start" x="835.825" y="-617.3" font-family="Times,serif" font-size="14.00">twitter_url :character varying</text>
<text text-anchor="start" x="835.825" y="-603.3" font-family="Times,serif" font-size="14.00">facebook_url :character varying</text>
<text text-anchor="start" x="835.825" y="-589.3" font-family="Times,serif" font-size="14.00">description :text</text>
<text text-anchor="start" x="835.825" y="-575.3" font-family="Times,serif" font-size="14.00">created_at :timestamp without time zone</text>
<text text-anchor="start" x="835.825" y="-561.3" font-family="Times,serif" font-size="14.00">id :integer</text>
</g>
<!-- Testimonial -->
<g id="node8" class="node"><title>Testimonial</title>
<path fill="none" stroke="black" d="M1105.83,-582.5C1105.83,-582.5 1329.55,-582.5 1329.55,-582.5 1335.55,-582.5 1341.55,-588.5 1341.55,-594.5 1341.55,-594.5 1341.55,-698.5 1341.55,-698.5 1341.55,-704.5 1335.55,-710.5 1329.55,-710.5 1329.55,-710.5 1105.83,-710.5 1105.83,-710.5 1099.83,-710.5 1093.83,-704.5 1093.83,-698.5 1093.83,-698.5 1093.83,-594.5 1093.83,-594.5 1093.83,-588.5 1099.83,-582.5 1105.83,-582.5"/>
<text text-anchor="middle" x="1217.69" y="-695.3" font-family="Times,serif" font-size="14.00">Testimonial</text>
<polyline fill="none" stroke="black" points="1093.83,-688.5 1341.55,-688.5 "/>
<text text-anchor="start" x="1101.83" y="-673.3" font-family="Times,serif" font-size="14.00">quote :text</text>
<text text-anchor="start" x="1101.83" y="-659.3" font-family="Times,serif" font-size="14.00">name :character varying</text>
<text text-anchor="start" x="1101.83" y="-645.3" font-family="Times,serif" font-size="14.00">title :character varying</text>
<text text-anchor="start" x="1101.83" y="-631.3" font-family="Times,serif" font-size="14.00">id :integer</text>
<text text-anchor="start" x="1101.83" y="-617.3" font-family="Times,serif" font-size="14.00">created_at :timestamp without time zone</text>
<text text-anchor="start" x="1101.83" y="-603.3" font-family="Times,serif" font-size="14.00">updated_at :timestamp without time zone</text>
<text text-anchor="start" x="1101.83" y="-589.3" font-family="Times,serif" font-size="14.00">photo_url :character varying</text>
</g>
</g>
</svg>
