<?xml version="1.0" encoding="UTF-8" standalone="no"?>
<!DOCTYPE svg PUBLIC "-//W3C//DTD SVG 1.1//EN"
 "http://www.w3.org/Graphics/SVG/1.1/DTD/svg11.dtd">
<!-- Generated by graphviz version 2.38.0 (20140413.2041)
 -->
<!-- Title: models_diagram Pages: 1 -->
<svg width="940pt" height="621pt"
 viewBox="0.00 0.00 939.72 621.00" xmlns="http://www.w3.org/2000/svg" xmlns:xlink="http://www.w3.org/1999/xlink">
<g id="graph0" class="graph" transform="scale(1 1) rotate(0) translate(4 617)">
<title>models_diagram</title>
<polygon fill="none" stroke="none" points="-4,4 -4,-617 935.725,-617 935.725,4 -4,4"/>
<!-- _diagram_info -->
<g id="node1" class="node"><title>_diagram_info</title>
<text text-anchor="start" x="200.175" y="-570.6" font-family="Times,serif" font-size="13.00">Models diagram</text>
<text text-anchor="start" x="200.175" y="-557.6" font-family="Times,serif" font-size="13.00">Date: Jun 05 2016 &#45; 13:19</text>
<text text-anchor="start" x="200.175" y="-544.6" font-family="Times,serif" font-size="13.00">Migration version: 20160605171532</text>
<text text-anchor="start" x="200.175" y="-531.6" font-family="Times,serif" font-size="13.00">Generated by RailRoady 1.4.2</text>
<text text-anchor="start" x="200.175" y="-518.6" font-family="Times,serif" font-size="13.00">http://railroady.prestonlee.com</text>
</g>
<!-- Athlete -->
<g id="node2" class="node"><title>Athlete</title>
<path fill="none" stroke="black" d="M12,-179.5C12,-179.5 235.725,-179.5 235.725,-179.5 241.725,-179.5 247.725,-185.5 247.725,-191.5 247.725,-191.5 247.725,-435.5 247.725,-435.5 247.725,-441.5 241.725,-447.5 235.725,-447.5 235.725,-447.5 12,-447.5 12,-447.5 6,-447.5 0,-441.5 0,-435.5 0,-435.5 0,-191.5 0,-191.5 0,-185.5 6,-179.5 12,-179.5"/>
<text text-anchor="middle" x="123.862" y="-432.3" font-family="Times,serif" font-size="14.00">Athlete</text>
<polyline fill="none" stroke="black" points="0,-425.5 247.725,-425.5 "/>
<text text-anchor="start" x="8" y="-410.3" font-family="Times,serif" font-size="14.00">american_team_name :character varying</text>
<text text-anchor="start" x="8" y="-396.3" font-family="Times,serif" font-size="14.00">created_at :timestamp without time zone</text>
<text text-anchor="start" x="8" y="-382.3" font-family="Times,serif" font-size="14.00">updated_at :timestamp without time zone</text>
<text text-anchor="start" x="8" y="-368.3" font-family="Times,serif" font-size="14.00">first_name :character varying</text>
<text text-anchor="start" x="8" y="-354.3" font-family="Times,serif" font-size="14.00">last_name :character varying</text>
<text text-anchor="start" x="8" y="-340.3" font-family="Times,serif" font-size="14.00">photo_url :character varying</text>
<text text-anchor="start" x="8" y="-326.3" font-family="Times,serif" font-size="14.00">position :character varying</text>
<text text-anchor="start" x="8" y="-312.3" font-family="Times,serif" font-size="14.00">american_team_url :character varying</text>
<text text-anchor="start" x="8" y="-298.3" font-family="Times,serif" font-size="14.00">overseas_team :character varying</text>
<text text-anchor="start" x="8" y="-284.3" font-family="Times,serif" font-size="14.00">college :character varying</text>
<text text-anchor="start" x="8" y="-270.3" font-family="Times,serif" font-size="14.00">birthdate :date</text>
<text text-anchor="start" x="8" y="-256.3" font-family="Times,serif" font-size="14.00">height :character varying</text>
<text text-anchor="start" x="8" y="-242.3" font-family="Times,serif" font-size="14.00">weight :character varying</text>
<text text-anchor="start" x="8" y="-228.3" font-family="Times,serif" font-size="14.00">website_url :character varying</text>
<text text-anchor="start" x="8" y="-214.3" font-family="Times,serif" font-size="14.00">video_url :character varying</text>
<text text-anchor="start" x="8" y="-200.3" font-family="Times,serif" font-size="14.00">sport_id :integer</text>
<text text-anchor="start" x="8" y="-186.3" font-family="Times,serif" font-size="14.00">id :integer</text>
</g>
<!-- NewsArticle -->
<g id="node4" class="node"><title>NewsArticle</title>
<path fill="none" stroke="black" d="M221,-0.5C221,-0.5 444.725,-0.5 444.725,-0.5 450.725,-0.5 456.725,-6.5 456.725,-12.5 456.725,-12.5 456.725,-130.5 456.725,-130.5 456.725,-136.5 450.725,-142.5 444.725,-142.5 444.725,-142.5 221,-142.5 221,-142.5 215,-142.5 209,-136.5 209,-130.5 209,-130.5 209,-12.5 209,-12.5 209,-6.5 215,-0.5 221,-0.5"/>
<text text-anchor="middle" x="332.862" y="-127.3" font-family="Times,serif" font-size="14.00">NewsArticle</text>
<polyline fill="none" stroke="black" points="209,-120.5 456.725,-120.5 "/>
<text text-anchor="start" x="217" y="-105.3" font-family="Times,serif" font-size="14.00">updated_at :timestamp without time zone</text>
<text text-anchor="start" x="217" y="-91.3" font-family="Times,serif" font-size="14.00">athlete_id :integer</text>
<text text-anchor="start" x="217" y="-77.3" font-family="Times,serif" font-size="14.00">sport_id :integer</text>
<text text-anchor="start" x="217" y="-63.3" font-family="Times,serif" font-size="14.00">headline :character varying</text>
<text text-anchor="start" x="217" y="-49.3" font-family="Times,serif" font-size="14.00">date_posted :date</text>
<text text-anchor="start" x="217" y="-35.3" font-family="Times,serif" font-size="14.00">url :character varying</text>
<text text-anchor="start" x="217" y="-21.3" font-family="Times,serif" font-size="14.00">created_at :timestamp without time zone</text>
<text text-anchor="start" x="217" y="-7.3" font-family="Times,serif" font-size="14.00">id :integer</text>
</g>
<!-- Athlete&#45;&gt;NewsArticle -->
<g id="edge1" class="edge"><title>Athlete&#45;&gt;NewsArticle</title>
<path fill="none" stroke="#5577f5" d="M245.323,-173.023C251.972,-165.389 258.526,-157.862 264.875,-150.572"/>
<ellipse fill="none" stroke="#5577f5" cx="242.602" cy="-176.149" rx="4.00002" ry="4.00002"/>
<polygon fill="#5577f5" stroke="#5577f5" points="265.11,-150.301 275.071,-145.715 268.394,-146.531 271.678,-142.76 271.678,-142.76 271.678,-142.76 268.394,-146.531 268.284,-139.805 265.11,-150.301 265.11,-150.301"/>
</g>
<!-- FeaturedPhoto -->
<g id="node3" class="node"><title>FeaturedPhoto</title>
<path fill="none" stroke="black" d="M278,-249.5C278,-249.5 501.725,-249.5 501.725,-249.5 507.725,-249.5 513.725,-255.5 513.725,-261.5 513.725,-261.5 513.725,-365.5 513.725,-365.5 513.725,-371.5 507.725,-377.5 501.725,-377.5 501.725,-377.5 278,-377.5 278,-377.5 272,-377.5 266,-371.5 266,-365.5 266,-365.5 266,-261.5 266,-261.5 266,-255.5 272,-249.5 278,-249.5"/>
<text text-anchor="middle" x="389.862" y="-362.3" font-family="Times,serif" font-size="14.00">FeaturedPhoto</text>
<polyline fill="none" stroke="black" points="266,-355.5 513.725,-355.5 "/>
<text text-anchor="start" x="274" y="-340.3" font-family="Times,serif" font-size="14.00">image_url :character varying</text>
<text text-anchor="start" x="274" y="-326.3" font-family="Times,serif" font-size="14.00">athlete_id :integer</text>
<text text-anchor="start" x="274" y="-312.3" font-family="Times,serif" font-size="14.00">sport_id :integer</text>
<text text-anchor="start" x="274" y="-298.3" font-family="Times,serif" font-size="14.00">id :integer</text>
<text text-anchor="start" x="274" y="-284.3" font-family="Times,serif" font-size="14.00">display_status :boolean</text>
<text text-anchor="start" x="274" y="-270.3" font-family="Times,serif" font-size="14.00">created_at :timestamp without time zone</text>
<text text-anchor="start" x="274" y="-256.3" font-family="Times,serif" font-size="14.00">updated_at :timestamp without time zone</text>
</g>
<!-- Sport -->
<g id="node5" class="node"><title>Sport</title>
<path fill="none" stroke="black" d="M430,-505.5C430,-505.5 653.725,-505.5 653.725,-505.5 659.725,-505.5 665.725,-511.5 665.725,-517.5 665.725,-517.5 665.725,-579.5 665.725,-579.5 665.725,-585.5 659.725,-591.5 653.725,-591.5 653.725,-591.5 430,-591.5 430,-591.5 424,-591.5 418,-585.5 418,-579.5 418,-579.5 418,-517.5 418,-517.5 418,-511.5 424,-505.5 430,-505.5"/>
<text text-anchor="middle" x="541.862" y="-576.3" font-family="Times,serif" font-size="14.00">Sport</text>
<polyline fill="none" stroke="black" points="418,-569.5 665.725,-569.5 "/>
<text text-anchor="start" x="426" y="-554.3" font-family="Times,serif" font-size="14.00">id :integer</text>
<text text-anchor="start" x="426" y="-540.3" font-family="Times,serif" font-size="14.00">created_at :timestamp without time zone</text>
<text text-anchor="start" x="426" y="-526.3" font-family="Times,serif" font-size="14.00">updated_at :timestamp without time zone</text>
<text text-anchor="start" x="426" y="-512.3" font-family="Times,serif" font-size="14.00">type_id :integer</text>
</g>
<!-- Sport&#45;&gt;Athlete -->
<g id="edge2" class="edge"><title>Sport&#45;&gt;Athlete</title>
<path fill="none" stroke="#96ce0b" d="M453.15,-501.957C438.569,-495.401 423.452,-489.144 408.862,-484 343.389,-460.913 317.455,-481.886 256.862,-448 256.769,-447.948 256.675,-447.895 256.581,-447.843"/>
<ellipse fill="none" stroke="#96ce0b" cx="457.081" cy="-503.749" rx="4.00002" ry="4.00002"/>
<polygon fill="#96ce0b" stroke="#96ce0b" points="256.54,-447.818 250.232,-438.848 252.239,-445.268 247.938,-442.719 247.938,-442.719 247.938,-442.719 252.239,-445.268 245.643,-446.59 256.54,-447.818 256.54,-447.818"/>
</g>
<!-- Sport&#45;&gt;FeaturedPhoto -->
<g id="edge3" class="edge"><title>Sport&#45;&gt;FeaturedPhoto</title>
<path fill="none" stroke="#4ccce9" d="M509.872,-498.463C488.689,-465.99 460.545,-422.849 436.836,-386.506"/>
<ellipse fill="none" stroke="#4ccce9" cx="512.151" cy="-501.955" rx="4.00002" ry="4.00002"/>
<polygon fill="#4ccce9" stroke="#4ccce9" points="436.689,-386.28 434.994,-375.446 433.957,-382.093 431.225,-377.905 431.225,-377.905 431.225,-377.905 433.957,-382.093 427.456,-380.364 436.689,-386.28 436.689,-386.28"/>
</g>
<!-- Sport&#45;&gt;NewsArticle -->
<g id="edge4" class="edge"><title>Sport&#45;&gt;NewsArticle</title>
<path fill="none" stroke="#bd434f" d="M545.118,-497.122C549.876,-408.863 554.987,-230.732 522.862,-179 508.888,-156.497 488.335,-138.334 465.849,-123.822"/>
<ellipse fill="none" stroke="#bd434f" cx="544.882" cy="-501.382" rx="4" ry="4"/>
<polygon fill="#bd434f" stroke="#bd434f" points="465.651,-123.699 459.515,-114.611 461.399,-121.069 457.147,-118.438 457.147,-118.438 457.147,-118.438 461.399,-121.069 454.779,-122.264 465.651,-123.699 465.651,-123.699"/>
</g>
<!-- TeamMember -->
<g id="node6" class="node"><title>TeamMember</title>
<path fill="none" stroke="black" d="M582,-221.5C582,-221.5 805.725,-221.5 805.725,-221.5 811.725,-221.5 817.725,-227.5 817.725,-233.5 817.725,-233.5 817.725,-393.5 817.725,-393.5 817.725,-399.5 811.725,-405.5 805.725,-405.5 805.725,-405.5 582,-405.5 582,-405.5 576,-405.5 570,-399.5 570,-393.5 570,-393.5 570,-233.5 570,-233.5 570,-227.5 576,-221.5 582,-221.5"/>
<text text-anchor="middle" x="693.862" y="-390.3" font-family="Times,serif" font-size="14.00">TeamMember</text>
<polyline fill="none" stroke="black" points="570,-383.5 817.725,-383.5 "/>
<text text-anchor="start" x="578" y="-368.3" font-family="Times,serif" font-size="14.00">updated_at :timestamp without time zone</text>
<text text-anchor="start" x="578" y="-354.3" font-family="Times,serif" font-size="14.00">first_name :character varying</text>
<text text-anchor="start" x="578" y="-340.3" font-family="Times,serif" font-size="14.00">last_name :character varying</text>
<text text-anchor="start" x="578" y="-326.3" font-family="Times,serif" font-size="14.00">position :character varying</text>
<text text-anchor="start" x="578" y="-312.3" font-family="Times,serif" font-size="14.00">photo_url :character varying</text>
<text text-anchor="start" x="578" y="-298.3" font-family="Times,serif" font-size="14.00">email :character varying</text>
<text text-anchor="start" x="578" y="-284.3" font-family="Times,serif" font-size="14.00">twitter_url :character varying</text>
<text text-anchor="start" x="578" y="-270.3" font-family="Times,serif" font-size="14.00">facebook_url :character varying</text>
<text text-anchor="start" x="578" y="-256.3" font-family="Times,serif" font-size="14.00">description :text</text>
<text text-anchor="start" x="578" y="-242.3" font-family="Times,serif" font-size="14.00">created_at :timestamp without time zone</text>
<text text-anchor="start" x="578" y="-228.3" font-family="Times,serif" font-size="14.00">id :integer</text>
</g>
<!-- Sport&#45;&gt;TeamMember -->
<g id="edge5" class="edge"><title>Sport&#45;&gt;TeamMember</title>
<path fill="none" stroke="#0eda78" d="M568.346,-498.275C583.394,-473.79 602.949,-443.274 622.144,-414.187"/>
<ellipse fill="none" stroke="#0eda78" cx="566.135" cy="-501.893" rx="4.00002" ry="4.00002"/>
<polygon fill="#0eda78" stroke="#0eda78" points="622.293,-413.96 631.565,-408.105 625.053,-409.791 627.813,-405.621 627.813,-405.621 627.813,-405.621 625.053,-409.791 624.06,-403.138 622.293,-413.96 622.293,-413.96"/>
</g>
<!-- TeamMember&#45;&gt;Sport -->
<g id="edge6" class="edge"><title>TeamMember&#45;&gt;Sport</title>
<path fill="none" stroke="#297197" d="M636.56,-412.569C617.864,-441.597 597.574,-472.191 580.555,-496.895"/>
<ellipse fill="none" stroke="#297197" cx="638.862" cy="-408.987" rx="4.00002" ry="4.00002"/>
<polygon fill="#297197" stroke="#297197" points="580.423,-497.085 571.029,-502.743 577.576,-501.195 574.728,-505.305 574.728,-505.305 574.728,-505.305 577.576,-501.195 578.427,-507.868 580.423,-497.085 580.423,-497.085"/>
</g>
<!-- Testimonial -->
<g id="node7" class="node"><title>Testimonial</title>
<path fill="none" stroke="black" d="M696,-484.5C696,-484.5 919.725,-484.5 919.725,-484.5 925.725,-484.5 931.725,-490.5 931.725,-496.5 931.725,-496.5 931.725,-600.5 931.725,-600.5 931.725,-606.5 925.725,-612.5 919.725,-612.5 919.725,-612.5 696,-612.5 696,-612.5 690,-612.5 684,-606.5 684,-600.5 684,-600.5 684,-496.5 684,-496.5 684,-490.5 690,-484.5 696,-484.5"/>
<text text-anchor="middle" x="807.862" y="-597.3" font-family="Times,serif" font-size="14.00">Testimonial</text>
<polyline fill="none" stroke="black" points="684,-590.5 931.725,-590.5 "/>
<text text-anchor="start" x="692" y="-575.3" font-family="Times,serif" font-size="14.00">quote :text</text>
<text text-anchor="start" x="692" y="-561.3" font-family="Times,serif" font-size="14.00">name :character varying</text>
<text text-anchor="start" x="692" y="-547.3" font-family="Times,serif" font-size="14.00">title :character varying</text>
<text text-anchor="start" x="692" y="-533.3" font-family="Times,serif" font-size="14.00">id :integer</text>
<text text-anchor="start" x="692" y="-519.3" font-family="Times,serif" font-size="14.00">created_at :timestamp without time zone</text>
<text text-anchor="start" x="692" y="-505.3" font-family="Times,serif" font-size="14.00">updated_at :timestamp without time zone</text>
<text text-anchor="start" x="692" y="-491.3" font-family="Times,serif" font-size="14.00">photo_url :character varying</text>
</g>
</g>
</svg>
