<?xml version="1.0" encoding="UTF-8" standalone="no"?>
<!DOCTYPE svg PUBLIC "-//W3C//DTD SVG 1.1//EN"
 "http://www.w3.org/Graphics/SVG/1.1/DTD/svg11.dtd">
<!-- Generated by graphviz version 2.38.0 (20140413.2041)
 -->
<!-- Title: models_diagram Pages: 1 -->
<svg width="1349pt" height="789pt"
 viewBox="0.00 0.00 1349.31 789.00" xmlns="http://www.w3.org/2000/svg" xmlns:xlink="http://www.w3.org/1999/xlink">
<g id="graph0" class="graph" transform="scale(1 1) rotate(0) translate(4 785)">
<title>models_diagram</title>
<polygon fill="none" stroke="none" points="-4,4 -4,-785 1345.31,-785 1345.31,4 -4,4"/>
<!-- _diagram_info -->
<g id="node1" class="node"><title>_diagram_info</title>
<text text-anchor="start" x="8" y="-696.6" font-family="Times,serif" font-size="13.00">Models diagram</text>
<text text-anchor="start" x="8" y="-683.6" font-family="Times,serif" font-size="13.00">Date: Aug 01 2016 &#45; 15:38</text>
<text text-anchor="start" x="8" y="-670.6" font-family="Times,serif" font-size="13.00">Migration version: 20160801192923</text>
<text text-anchor="start" x="8" y="-657.6" font-family="Times,serif" font-size="13.00">Generated by RailRoady 1.4.2</text>
<text text-anchor="start" x="8" y="-644.6" font-family="Times,serif" font-size="13.00">http://railroady.prestonlee.com</text>
</g>
<!-- AdminUser -->
<g id="node2" class="node"><title>AdminUser</title>
<path fill="none" stroke="black" d="M236.815,-568.5C236.815,-568.5 532.084,-568.5 532.084,-568.5 538.084,-568.5 544.084,-574.5 544.084,-580.5 544.084,-580.5 544.084,-768.5 544.084,-768.5 544.084,-774.5 538.084,-780.5 532.084,-780.5 532.084,-780.5 236.815,-780.5 236.815,-780.5 230.815,-780.5 224.815,-774.5 224.815,-768.5 224.815,-768.5 224.815,-580.5 224.815,-580.5 224.815,-574.5 230.815,-568.5 236.815,-568.5"/>
<text text-anchor="middle" x="384.45" y="-765.3" font-family="Times,serif" font-size="14.00">AdminUser</text>
<polyline fill="none" stroke="black" points="224.815,-758.5 544.084,-758.5 "/>
<text text-anchor="start" x="232.815" y="-743.3" font-family="Times,serif" font-size="14.00">updated_at :timestamp without time zone</text>
<text text-anchor="start" x="232.815" y="-729.3" font-family="Times,serif" font-size="14.00">email :character varying</text>
<text text-anchor="start" x="232.815" y="-715.3" font-family="Times,serif" font-size="14.00">encrypted_password :character varying</text>
<text text-anchor="start" x="232.815" y="-701.3" font-family="Times,serif" font-size="14.00">reset_password_token :character varying</text>
<text text-anchor="start" x="232.815" y="-687.3" font-family="Times,serif" font-size="14.00">reset_password_sent_at :timestamp without time zone</text>
<text text-anchor="start" x="232.815" y="-673.3" font-family="Times,serif" font-size="14.00">remember_created_at :timestamp without time zone</text>
<text text-anchor="start" x="232.815" y="-659.3" font-family="Times,serif" font-size="14.00">sign_in_count :integer</text>
<text text-anchor="start" x="232.815" y="-645.3" font-family="Times,serif" font-size="14.00">current_sign_in_at :timestamp without time zone</text>
<text text-anchor="start" x="232.815" y="-631.3" font-family="Times,serif" font-size="14.00">last_sign_in_at :timestamp without time zone</text>
<text text-anchor="start" x="232.815" y="-617.3" font-family="Times,serif" font-size="14.00">current_sign_in_ip :inet</text>
<text text-anchor="start" x="232.815" y="-603.3" font-family="Times,serif" font-size="14.00">last_sign_in_ip :inet</text>
<text text-anchor="start" x="232.815" y="-589.3" font-family="Times,serif" font-size="14.00">created_at :timestamp without time zone</text>
<text text-anchor="start" x="232.815" y="-575.3" font-family="Times,serif" font-size="14.00">id :integer</text>
</g>
<!-- Athlete -->
<g id="node3" class="node"><title>Athlete</title>
<path fill="none" stroke="black" d="M269.143,-179.5C269.143,-179.5 531.757,-179.5 531.757,-179.5 537.757,-179.5 543.757,-185.5 543.757,-191.5 543.757,-191.5 543.757,-519.5 543.757,-519.5 543.757,-525.5 537.757,-531.5 531.757,-531.5 531.757,-531.5 269.143,-531.5 269.143,-531.5 263.143,-531.5 257.143,-525.5 257.143,-519.5 257.143,-519.5 257.143,-191.5 257.143,-191.5 257.143,-185.5 263.143,-179.5 269.143,-179.5"/>
<text text-anchor="middle" x="400.45" y="-516.3" font-family="Times,serif" font-size="14.00">Athlete</text>
<polyline fill="none" stroke="black" points="257.143,-509.5 543.757,-509.5 "/>
<text text-anchor="start" x="265.143" y="-494.3" font-family="Times,serif" font-size="14.00">country_code :character varying</text>
<text text-anchor="start" x="265.143" y="-480.3" font-family="Times,serif" font-size="14.00">created_at :timestamp without time zone</text>
<text text-anchor="start" x="265.143" y="-466.3" font-family="Times,serif" font-size="14.00">updated_at :timestamp without time zone</text>
<text text-anchor="start" x="265.143" y="-452.3" font-family="Times,serif" font-size="14.00">first_name :character varying</text>
<text text-anchor="start" x="265.143" y="-438.3" font-family="Times,serif" font-size="14.00">last_name :character varying</text>
<text text-anchor="start" x="265.143" y="-424.3" font-family="Times,serif" font-size="14.00">position :character varying</text>
<text text-anchor="start" x="265.143" y="-410.3" font-family="Times,serif" font-size="14.00">american_team_url :character varying</text>
<text text-anchor="start" x="265.143" y="-396.3" font-family="Times,serif" font-size="14.00">overseas_team :character varying</text>
<text text-anchor="start" x="265.143" y="-382.3" font-family="Times,serif" font-size="14.00">college :character varying</text>
<text text-anchor="start" x="265.143" y="-368.3" font-family="Times,serif" font-size="14.00">birthdate :date</text>
<text text-anchor="start" x="265.143" y="-354.3" font-family="Times,serif" font-size="14.00">height :character varying</text>
<text text-anchor="start" x="265.143" y="-340.3" font-family="Times,serif" font-size="14.00">weight :character varying</text>
<text text-anchor="start" x="265.143" y="-326.3" font-family="Times,serif" font-size="14.00">website_url :character varying</text>
<text text-anchor="start" x="265.143" y="-312.3" font-family="Times,serif" font-size="14.00">video_embed_code :text</text>
<text text-anchor="start" x="265.143" y="-298.3" font-family="Times,serif" font-size="14.00">sport_id :integer</text>
<text text-anchor="start" x="265.143" y="-284.3" font-family="Times,serif" font-size="14.00">american_team_name :character varying</text>
<text text-anchor="start" x="265.143" y="-270.3" font-family="Times,serif" font-size="14.00">photo_file_name :character varying</text>
<text text-anchor="start" x="265.143" y="-256.3" font-family="Times,serif" font-size="14.00">photo_content_type :character varying</text>
<text text-anchor="start" x="265.143" y="-242.3" font-family="Times,serif" font-size="14.00">photo_file_size :integer</text>
<text text-anchor="start" x="265.143" y="-228.3" font-family="Times,serif" font-size="14.00">photo_updated_at :timestamp without time zone</text>
<text text-anchor="start" x="265.143" y="-214.3" font-family="Times,serif" font-size="14.00">description :text</text>
<text text-anchor="start" x="265.143" y="-200.3" font-family="Times,serif" font-size="14.00">is_available :boolean</text>
<text text-anchor="start" x="265.143" y="-186.3" font-family="Times,serif" font-size="14.00">id :integer</text>
</g>
<!-- NewsArticle -->
<g id="node5" class="node"><title>NewsArticle</title>
<path fill="none" stroke="black" d="M506.587,-0.5C506.587,-0.5 730.312,-0.5 730.312,-0.5 736.312,-0.5 742.312,-6.5 742.312,-12.5 742.312,-12.5 742.312,-130.5 742.312,-130.5 742.312,-136.5 736.312,-142.5 730.312,-142.5 730.312,-142.5 506.587,-142.5 506.587,-142.5 500.587,-142.5 494.587,-136.5 494.587,-130.5 494.587,-130.5 494.587,-12.5 494.587,-12.5 494.587,-6.5 500.587,-0.5 506.587,-0.5"/>
<text text-anchor="middle" x="618.45" y="-127.3" font-family="Times,serif" font-size="14.00">NewsArticle</text>
<polyline fill="none" stroke="black" points="494.587,-120.5 742.312,-120.5 "/>
<text text-anchor="start" x="502.587" y="-105.3" font-family="Times,serif" font-size="14.00">updated_at :timestamp without time zone</text>
<text text-anchor="start" x="502.587" y="-91.3" font-family="Times,serif" font-size="14.00">athlete_id :integer</text>
<text text-anchor="start" x="502.587" y="-77.3" font-family="Times,serif" font-size="14.00">sport_id :integer</text>
<text text-anchor="start" x="502.587" y="-63.3" font-family="Times,serif" font-size="14.00">headline :character varying</text>
<text text-anchor="start" x="502.587" y="-49.3" font-family="Times,serif" font-size="14.00">date_posted :date</text>
<text text-anchor="start" x="502.587" y="-35.3" font-family="Times,serif" font-size="14.00">url :character varying</text>
<text text-anchor="start" x="502.587" y="-21.3" font-family="Times,serif" font-size="14.00">created_at :timestamp without time zone</text>
<text text-anchor="start" x="502.587" y="-7.3" font-family="Times,serif" font-size="14.00">id :integer</text>
</g>
<!-- Athlete&#45;&gt;NewsArticle -->
<g id="edge1" class="edge"><title>Athlete&#45;&gt;NewsArticle</title>
<path fill="none" stroke="#4c4923" d="M541.05,-172.623C546.805,-165.178 552.432,-157.899 557.858,-150.88"/>
<ellipse fill="none" stroke="#4c4923" cx="538.48" cy="-175.947" rx="4.00002" ry="4.00002"/>
<polygon fill="#4c4923" stroke="#4c4923" points="558.015,-150.677 567.691,-145.518 561.073,-146.722 564.131,-142.766 564.131,-142.766 564.131,-142.766 561.073,-146.722 560.571,-140.013 558.015,-150.677 558.015,-150.677"/>
</g>
<!-- FeaturedPhoto -->
<g id="node4" class="node"><title>FeaturedPhoto</title>
<path fill="none" stroke="black" d="M573.587,-291.5C573.587,-291.5 797.312,-291.5 797.312,-291.5 803.312,-291.5 809.312,-297.5 809.312,-303.5 809.312,-303.5 809.312,-407.5 809.312,-407.5 809.312,-413.5 803.312,-419.5 797.312,-419.5 797.312,-419.5 573.587,-419.5 573.587,-419.5 567.587,-419.5 561.587,-413.5 561.587,-407.5 561.587,-407.5 561.587,-303.5 561.587,-303.5 561.587,-297.5 567.587,-291.5 573.587,-291.5"/>
<text text-anchor="middle" x="685.45" y="-404.3" font-family="Times,serif" font-size="14.00">FeaturedPhoto</text>
<polyline fill="none" stroke="black" points="561.587,-397.5 809.312,-397.5 "/>
<text text-anchor="start" x="569.587" y="-382.3" font-family="Times,serif" font-size="14.00">image_url :character varying</text>
<text text-anchor="start" x="569.587" y="-368.3" font-family="Times,serif" font-size="14.00">athlete_id :integer</text>
<text text-anchor="start" x="569.587" y="-354.3" font-family="Times,serif" font-size="14.00">sport_id :integer</text>
<text text-anchor="start" x="569.587" y="-340.3" font-family="Times,serif" font-size="14.00">id :integer</text>
<text text-anchor="start" x="569.587" y="-326.3" font-family="Times,serif" font-size="14.00">display_status :boolean</text>
<text text-anchor="start" x="569.587" y="-312.3" font-family="Times,serif" font-size="14.00">created_at :timestamp without time zone</text>
<text text-anchor="start" x="569.587" y="-298.3" font-family="Times,serif" font-size="14.00">updated_at :timestamp without time zone</text>
</g>
<!-- Sport -->
<g id="node6" class="node"><title>Sport</title>
<path fill="none" stroke="black" d="M573.587,-631.5C573.587,-631.5 797.312,-631.5 797.312,-631.5 803.312,-631.5 809.312,-637.5 809.312,-643.5 809.312,-643.5 809.312,-705.5 809.312,-705.5 809.312,-711.5 803.312,-717.5 797.312,-717.5 797.312,-717.5 573.587,-717.5 573.587,-717.5 567.587,-717.5 561.587,-711.5 561.587,-705.5 561.587,-705.5 561.587,-643.5 561.587,-643.5 561.587,-637.5 567.587,-631.5 573.587,-631.5"/>
<text text-anchor="middle" x="685.45" y="-702.3" font-family="Times,serif" font-size="14.00">Sport</text>
<polyline fill="none" stroke="black" points="561.587,-695.5 809.312,-695.5 "/>
<text text-anchor="start" x="569.587" y="-680.3" font-family="Times,serif" font-size="14.00">id :integer</text>
<text text-anchor="start" x="569.587" y="-666.3" font-family="Times,serif" font-size="14.00">created_at :timestamp without time zone</text>
<text text-anchor="start" x="569.587" y="-652.3" font-family="Times,serif" font-size="14.00">updated_at :timestamp without time zone</text>
<text text-anchor="start" x="569.587" y="-638.3" font-family="Times,serif" font-size="14.00">type_id :integer</text>
</g>
<!-- Sport&#45;&gt;Athlete -->
<g id="edge2" class="edge"><title>Sport&#45;&gt;Athlete</title>
<path fill="none" stroke="#f4e64a" d="M639.104,-625.172C613.317,-598.038 580.797,-563.415 552.45,-532 551.829,-531.313 551.208,-530.623 550.586,-529.933"/>
<ellipse fill="none" stroke="#f4e64a" cx="642.078" cy="-628.297" rx="4.00002" ry="4.00002"/>
<polygon fill="#f4e64a" stroke="#f4e64a" points="550.564,-529.908 547.229,-519.462 547.222,-526.189 543.881,-522.469 543.881,-522.469 543.881,-522.469 547.222,-526.189 540.533,-525.477 550.564,-529.908 550.564,-529.908"/>
</g>
<!-- Sport&#45;&gt;FeaturedPhoto -->
<g id="edge3" class="edge"><title>Sport&#45;&gt;FeaturedPhoto</title>
<path fill="none" stroke="#f9cc35" d="M685.45,-623.18C685.45,-571.015 685.45,-488.95 685.45,-429.627"/>
<ellipse fill="none" stroke="#f9cc35" cx="685.45" cy="-627.405" rx="4" ry="4"/>
<polygon fill="#f9cc35" stroke="#f9cc35" points="685.45,-429.57 689.95,-419.57 685.45,-424.57 685.45,-419.57 685.45,-419.57 685.45,-419.57 685.45,-424.57 680.95,-419.57 685.45,-429.57 685.45,-429.57"/>
</g>
<!-- Sport&#45;&gt;NewsArticle -->
<g id="edge4" class="edge"><title>Sport&#45;&gt;NewsArticle</title>
<path fill="none" stroke="#72e2b8" d="M747.877,-625.881C775.052,-601.199 803.961,-568.571 818.45,-532 876.238,-386.142 899.212,-313.505 818.45,-179 802.712,-152.79 778.098,-132.679 751.448,-117.379"/>
<ellipse fill="none" stroke="#72e2b8" cx="744.734" cy="-628.682" rx="4.00002" ry="4.00002"/>
<polygon fill="#72e2b8" stroke="#72e2b8" points="751.104,-117.19 744.509,-108.429 746.723,-114.781 742.341,-112.373 742.341,-112.373 742.341,-112.373 746.723,-114.781 740.173,-116.316 751.104,-117.19 751.104,-117.19"/>
</g>
<!-- TeamMember -->
<g id="node7" class="node"><title>TeamMember</title>
<path fill="none" stroke="black" d="M839.587,-582.5C839.587,-582.5 1063.31,-582.5 1063.31,-582.5 1069.31,-582.5 1075.31,-588.5 1075.31,-594.5 1075.31,-594.5 1075.31,-754.5 1075.31,-754.5 1075.31,-760.5 1069.31,-766.5 1063.31,-766.5 1063.31,-766.5 839.587,-766.5 839.587,-766.5 833.587,-766.5 827.587,-760.5 827.587,-754.5 827.587,-754.5 827.587,-594.5 827.587,-594.5 827.587,-588.5 833.587,-582.5 839.587,-582.5"/>
<text text-anchor="middle" x="951.45" y="-751.3" font-family="Times,serif" font-size="14.00">TeamMember</text>
<polyline fill="none" stroke="black" points="827.587,-744.5 1075.31,-744.5 "/>
<text text-anchor="start" x="835.587" y="-729.3" font-family="Times,serif" font-size="14.00">updated_at :timestamp without time zone</text>
<text text-anchor="start" x="835.587" y="-715.3" font-family="Times,serif" font-size="14.00">first_name :character varying</text>
<text text-anchor="start" x="835.587" y="-701.3" font-family="Times,serif" font-size="14.00">last_name :character varying</text>
<text text-anchor="start" x="835.587" y="-687.3" font-family="Times,serif" font-size="14.00">position :character varying</text>
<text text-anchor="start" x="835.587" y="-673.3" font-family="Times,serif" font-size="14.00">photo_url :character varying</text>
<text text-anchor="start" x="835.587" y="-659.3" font-family="Times,serif" font-size="14.00">email :character varying</text>
<text text-anchor="start" x="835.587" y="-645.3" font-family="Times,serif" font-size="14.00">twitter_url :character varying</text>
<text text-anchor="start" x="835.587" y="-631.3" font-family="Times,serif" font-size="14.00">facebook_url :character varying</text>
<text text-anchor="start" x="835.587" y="-617.3" font-family="Times,serif" font-size="14.00">description :text</text>
<text text-anchor="start" x="835.587" y="-603.3" font-family="Times,serif" font-size="14.00">created_at :timestamp without time zone</text>
<text text-anchor="start" x="835.587" y="-589.3" font-family="Times,serif" font-size="14.00">id :integer</text>
</g>
<!-- Testimonial -->
<g id="node8" class="node"><title>Testimonial</title>
<path fill="none" stroke="black" d="M1105.59,-610.5C1105.59,-610.5 1329.31,-610.5 1329.31,-610.5 1335.31,-610.5 1341.31,-616.5 1341.31,-622.5 1341.31,-622.5 1341.31,-726.5 1341.31,-726.5 1341.31,-732.5 1335.31,-738.5 1329.31,-738.5 1329.31,-738.5 1105.59,-738.5 1105.59,-738.5 1099.59,-738.5 1093.59,-732.5 1093.59,-726.5 1093.59,-726.5 1093.59,-622.5 1093.59,-622.5 1093.59,-616.5 1099.59,-610.5 1105.59,-610.5"/>
<text text-anchor="middle" x="1217.45" y="-723.3" font-family="Times,serif" font-size="14.00">Testimonial</text>
<polyline fill="none" stroke="black" points="1093.59,-716.5 1341.31,-716.5 "/>
<text text-anchor="start" x="1101.59" y="-701.3" font-family="Times,serif" font-size="14.00">quote :text</text>
<text text-anchor="start" x="1101.59" y="-687.3" font-family="Times,serif" font-size="14.00">name :character varying</text>
<text text-anchor="start" x="1101.59" y="-673.3" font-family="Times,serif" font-size="14.00">title :character varying</text>
<text text-anchor="start" x="1101.59" y="-659.3" font-family="Times,serif" font-size="14.00">id :integer</text>
<text text-anchor="start" x="1101.59" y="-645.3" font-family="Times,serif" font-size="14.00">created_at :timestamp without time zone</text>
<text text-anchor="start" x="1101.59" y="-631.3" font-family="Times,serif" font-size="14.00">updated_at :timestamp without time zone</text>
<text text-anchor="start" x="1101.59" y="-617.3" font-family="Times,serif" font-size="14.00">photo_url :character varying</text>
</g>
</g>
</svg>
