<?xml version="1.0" encoding="UTF-8" standalone="no"?>
<!DOCTYPE svg PUBLIC "-//W3C//DTD SVG 1.1//EN"
 "http://www.w3.org/Graphics/SVG/1.1/DTD/svg11.dtd">
<!-- Generated by graphviz version 2.38.0 (20140413.2041)
 -->
<!-- Title: models_diagram Pages: 1 -->
<svg width="413pt" height="225pt"
 viewBox="0.00 0.00 413.42 225.00" xmlns="http://www.w3.org/2000/svg" xmlns:xlink="http://www.w3.org/1999/xlink">
<g id="graph0" class="graph" transform="scale(1 1) rotate(0) translate(4 221)">
<title>models_diagram</title>
<polygon fill="none" stroke="none" points="-4,4 -4,-221 409.421,-221 409.421,4 -4,4"/>
<!-- _diagram_info -->
<g id="node1" class="node"><title>_diagram_info</title>
<text text-anchor="start" x="8" y="-202.6" font-family="Times,serif" font-size="13.00">Models diagram</text>
<text text-anchor="start" x="8" y="-189.6" font-family="Times,serif" font-size="13.00">Date: Jun 05 2016 &#45; 13:19</text>
<text text-anchor="start" x="8" y="-176.6" font-family="Times,serif" font-size="13.00">Migration version: 20160605171532</text>
<text text-anchor="start" x="8" y="-163.6" font-family="Times,serif" font-size="13.00">Generated by RailRoady 1.4.2</text>
<text text-anchor="start" x="8" y="-150.6" font-family="Times,serif" font-size="13.00">http://railroady.prestonlee.com</text>
</g>
<!-- Athlete -->
<g id="node2" class="node"><title>Athlete</title>
<ellipse fill="none" stroke="black" cx="48.6877" cy="-90" rx="36.2732" ry="18"/>
<text text-anchor="middle" x="48.6877" y="-85.8" font-family="Times,serif" font-size="14.00">Athlete</text>
</g>
<!-- NewsArticle -->
<g id="node4" class="node"><title>NewsArticle</title>
<ellipse fill="none" stroke="black" cx="151.688" cy="-18" rx="54.599" ry="18"/>
<text text-anchor="middle" x="151.688" y="-13.8" font-family="Times,serif" font-size="14.00">NewsArticle</text>
</g>
<!-- Athlete&#45;&gt;NewsArticle -->
<g id="edge1" class="edge"><title>Athlete&#45;&gt;NewsArticle</title>
<path fill="none" stroke="#20b51b" d="M76.2761,-70.2506C89.8524,-61.024 106.278,-49.8609 120.329,-40.3115"/>
<ellipse fill="none" stroke="#20b51b" cx="72.8396" cy="-72.5861" rx="4.00002" ry="4.00002"/>
<polygon fill="#20b51b" stroke="#20b51b" points="120.454,-40.2269 131.254,-38.3278 124.589,-37.4164 128.725,-34.6059 128.725,-34.6059 128.725,-34.6059 124.589,-37.4164 126.195,-30.8841 120.454,-40.2269 120.454,-40.2269"/>
</g>
<!-- FeaturedPhoto -->
<g id="node3" class="node"><title>FeaturedPhoto</title>
<ellipse fill="none" stroke="black" cx="164.688" cy="-90" rx="61.8736" ry="18"/>
<text text-anchor="middle" x="164.688" y="-85.8" font-family="Times,serif" font-size="14.00">FeaturedPhoto</text>
</g>
<!-- Sport -->
<g id="node5" class="node"><title>Sport</title>
<ellipse fill="none" stroke="black" cx="254.688" cy="-180.5" rx="29.0429" ry="18"/>
<text text-anchor="middle" x="254.688" y="-176.3" font-family="Times,serif" font-size="14.00">Sport</text>
</g>
<!-- Sport&#45;&gt;Athlete -->
<g id="edge2" class="edge"><title>Sport&#45;&gt;Athlete</title>
<path fill="none" stroke="#a6bbde" d="M235.725,-158.535C230.034,-153.193 223.485,-147.874 216.688,-144 167.202,-115.793 147.703,-126.078 93.6877,-108 91.104,-107.135 88.4479,-106.215 85.7799,-105.267"/>
<ellipse fill="none" stroke="#a6bbde" cx="238.688" cy="-161.462" rx="4.00002" ry="4.00002"/>
<polygon fill="#a6bbde" stroke="#a6bbde" points="85.5691,-105.19 77.7156,-97.5368 80.8716,-103.477 76.1741,-101.765 76.1741,-101.765 76.1741,-101.765 80.8716,-103.477 74.6326,-105.992 85.5691,-105.19 85.5691,-105.19"/>
</g>
<!-- Sport&#45;&gt;FeaturedPhoto -->
<g id="edge3" class="edge"><title>Sport&#45;&gt;FeaturedPhoto</title>
<path fill="none" stroke="#dec52a" d="M233.812,-158.973C220.367,-145.751 202.841,-128.518 188.802,-114.712"/>
<ellipse fill="none" stroke="#dec52a" cx="236.974" cy="-162.081" rx="4.00002" ry="4.00002"/>
<polygon fill="#dec52a" stroke="#dec52a" points="188.539,-114.453 184.564,-104.233 184.974,-110.948 181.408,-107.442 181.408,-107.442 181.408,-107.442 184.974,-110.948 178.253,-110.651 188.539,-114.453 188.539,-114.453"/>
</g>
<!-- Sport&#45;&gt;NewsArticle -->
<g id="edge4" class="edge"><title>Sport&#45;&gt;NewsArticle</title>
<path fill="none" stroke="#44521e" d="M255.801,-154.278C255.615,-131.031 252.157,-96.5217 235.688,-72 225.736,-57.1822 210.097,-45.682 194.999,-37.2392"/>
<ellipse fill="none" stroke="#44521e" cx="255.77" cy="-158.293" rx="4" ry="4"/>
<polygon fill="#44521e" stroke="#44521e" points="194.58,-37.0193 187.813,-28.3898 190.151,-34.6972 185.723,-32.3751 185.723,-32.3751 185.723,-32.3751 190.151,-34.6972 183.633,-36.3604 194.58,-37.0193 194.58,-37.0193"/>
</g>
<!-- TeamMember -->
<g id="node6" class="node"><title>TeamMember</title>
<ellipse fill="none" stroke="black" cx="342.688" cy="-90" rx="59.6587" ry="18"/>
<text text-anchor="middle" x="342.688" y="-85.8" font-family="Times,serif" font-size="14.00">TeamMember</text>
</g>
<!-- Sport&#45;&gt;TeamMember -->
<g id="edge5" class="edge"><title>Sport&#45;&gt;TeamMember</title>
<path fill="none" stroke="#cada5a" d="M270.816,-157.304C282.896,-144.094 299.514,-127.36 313.804,-114.009"/>
<ellipse fill="none" stroke="#cada5a" cx="267.774" cy="-160.699" rx="4.00002" ry="4.00002"/>
<polygon fill="#cada5a" stroke="#cada5a" points="314.092,-113.745 324.502,-110.299 317.776,-110.364 321.46,-106.983 321.46,-106.983 321.46,-106.983 317.776,-110.364 318.417,-103.668 314.092,-113.745 314.092,-113.745"/>
</g>
<!-- TeamMember&#45;&gt;Sport -->
<g id="edge6" class="edge"><title>TeamMember&#45;&gt;Sport</title>
<path fill="none" stroke="#8e8208" d="M325.813,-114.01C313.038,-127.919 295.49,-145.5 280.932,-158.943"/>
<ellipse fill="none" stroke="#8e8208" cx="328.64" cy="-110.875" rx="4.00002" ry="4.00002"/>
<polygon fill="#8e8208" stroke="#8e8208" points="280.48,-159.352 270.044,-162.721 276.771,-162.705 273.062,-166.059 273.062,-166.059 273.062,-166.059 276.771,-162.705 276.08,-169.397 280.48,-159.352 280.48,-159.352"/>
</g>
<!-- Testimonial -->
<g id="node7" class="node"><title>Testimonial</title>
<ellipse fill="none" stroke="black" cx="353.688" cy="-180.5" rx="51.9676" ry="18"/>
<text text-anchor="middle" x="353.688" y="-176.3" font-family="Times,serif" font-size="14.00">Testimonial</text>
</g>
</g>
</svg>
