<?xml version="1.0" encoding="UTF-8" standalone="no"?>
<!DOCTYPE svg PUBLIC "-//W3C//DTD SVG 1.1//EN"
 "http://www.w3.org/Graphics/SVG/1.1/DTD/svg11.dtd">
<!-- Generated by graphviz version 2.38.0 (20140413.2041)
 -->
<!-- Title: models_diagram Pages: 1 -->
<svg width="671pt" height="225pt"
 viewBox="0.00 0.00 671.18 225.00" xmlns="http://www.w3.org/2000/svg" xmlns:xlink="http://www.w3.org/1999/xlink">
<g id="graph0" class="graph" transform="scale(1 1) rotate(0) translate(4 221)">
<title>models_diagram</title>
<polygon fill="none" stroke="none" points="-4,4 -4,-221 667.183,-221 667.183,4 -4,4"/>
<!-- _diagram_info -->
<g id="node1" class="node"><title>_diagram_info</title>
<text text-anchor="start" x="8" y="-202.6" font-family="Times,serif" font-size="13.00">Models diagram</text>
<text text-anchor="start" x="8" y="-189.6" font-family="Times,serif" font-size="13.00">Date: Aug 01 2016 &#45; 15:38</text>
<text text-anchor="start" x="8" y="-176.6" font-family="Times,serif" font-size="13.00">Migration version: 20160801192923</text>
<text text-anchor="start" x="8" y="-163.6" font-family="Times,serif" font-size="13.00">Generated by RailRoady 1.4.2</text>
<text text-anchor="start" x="8" y="-150.6" font-family="Times,serif" font-size="13.00">http://railroady.prestonlee.com</text>
</g>
<!-- AdminUser -->
<g id="node2" class="node"><title>AdminUser</title>
<ellipse fill="none" stroke="black" cx="276.45" cy="-180.5" rx="51.2415" ry="18"/>
<text text-anchor="middle" x="276.45" y="-176.3" font-family="Times,serif" font-size="14.00">AdminUser</text>
</g>
<!-- Athlete -->
<g id="node3" class="node"><title>Athlete</title>
<ellipse fill="none" stroke="black" cx="259.45" cy="-90" rx="36.2732" ry="18"/>
<text text-anchor="middle" x="259.45" y="-85.8" font-family="Times,serif" font-size="14.00">Athlete</text>
</g>
<!-- NewsArticle -->
<g id="node5" class="node"><title>NewsArticle</title>
<ellipse fill="none" stroke="black" cx="362.45" cy="-18" rx="54.599" ry="18"/>
<text text-anchor="middle" x="362.45" y="-13.8" font-family="Times,serif" font-size="14.00">NewsArticle</text>
</g>
<!-- Athlete&#45;&gt;NewsArticle -->
<g id="edge1" class="edge"><title>Athlete&#45;&gt;NewsArticle</title>
<path fill="none" stroke="#eb0841" d="M287.038,-70.2506C300.614,-61.024 317.04,-49.8609 331.091,-40.3115"/>
<ellipse fill="none" stroke="#eb0841" cx="283.602" cy="-72.5861" rx="4.00002" ry="4.00002"/>
<polygon fill="#eb0841" stroke="#eb0841" points="331.216,-40.2269 342.016,-38.3278 335.351,-37.4164 339.487,-34.6059 339.487,-34.6059 339.487,-34.6059 335.351,-37.4164 336.957,-30.8841 331.216,-40.2269 331.216,-40.2269"/>
</g>
<!-- FeaturedPhoto -->
<g id="node4" class="node"><title>FeaturedPhoto</title>
<ellipse fill="none" stroke="black" cx="375.45" cy="-90" rx="61.8736" ry="18"/>
<text text-anchor="middle" x="375.45" y="-85.8" font-family="Times,serif" font-size="14.00">FeaturedPhoto</text>
</g>
<!-- Sport -->
<g id="node6" class="node"><title>Sport</title>
<ellipse fill="none" stroke="black" cx="375.45" cy="-180.5" rx="29.0429" ry="18"/>
<text text-anchor="middle" x="375.45" y="-176.3" font-family="Times,serif" font-size="14.00">Sport</text>
</g>
<!-- Sport&#45;&gt;Athlete -->
<g id="edge2" class="edge"><title>Sport&#45;&gt;Athlete</title>
<path fill="none" stroke="#6d0af7" d="M354.393,-159.379C348.703,-154.208 342.455,-148.764 336.45,-144 321.499,-132.139 304.036,-119.992 289.524,-110.324"/>
<ellipse fill="none" stroke="#6d0af7" cx="357.371" cy="-162.125" rx="4.00002" ry="4.00002"/>
<polygon fill="#6d0af7" stroke="#6d0af7" points="289.267,-110.154 283.395,-100.893 285.092,-107.402 280.918,-104.649 280.918,-104.649 280.918,-104.649 285.092,-107.402 278.441,-108.406 289.267,-110.154 289.267,-110.154"/>
</g>
<!-- Sport&#45;&gt;FeaturedPhoto -->
<g id="edge3" class="edge"><title>Sport&#45;&gt;FeaturedPhoto</title>
<path fill="none" stroke="#66d3ed" d="M375.45,-154.189C375.45,-142.971 375.45,-129.752 375.45,-118.311"/>
<ellipse fill="none" stroke="#66d3ed" cx="375.45" cy="-158.436" rx="4" ry="4"/>
<polygon fill="#66d3ed" stroke="#66d3ed" points="375.45,-118.011 379.95,-108.011 375.45,-113.011 375.45,-108.011 375.45,-108.011 375.45,-108.011 375.45,-113.011 370.95,-108.011 375.45,-118.011 375.45,-118.011"/>
</g>
<!-- Sport&#45;&gt;NewsArticle -->
<g id="edge4" class="edge"><title>Sport&#45;&gt;NewsArticle</title>
<path fill="none" stroke="#1aed77" d="M396.977,-159.43C416.884,-140.618 443.792,-114.449 446.45,-108 452.547,-93.2072 454.176,-86.0108 446.45,-72 437.818,-56.3482 422.405,-44.6821 407.117,-36.3401"/>
<ellipse fill="none" stroke="#1aed77" cx="393.97" cy="-162.26" rx="4.00002" ry="4.00002"/>
<polygon fill="#1aed77" stroke="#1aed77" points="407.1,-36.3318 400.218,-27.7945 402.641,-34.0697 398.182,-31.8077 398.182,-31.8077 398.182,-31.8077 402.641,-34.0697 396.146,-35.8208 407.1,-36.3318 407.1,-36.3318"/>
</g>
<!-- TeamMember -->
<g id="node7" class="node"><title>TeamMember</title>
<ellipse fill="none" stroke="black" cx="482.45" cy="-180.5" rx="59.6587" ry="18"/>
<text text-anchor="middle" x="482.45" y="-176.3" font-family="Times,serif" font-size="14.00">TeamMember</text>
</g>
<!-- Testimonial -->
<g id="node8" class="node"><title>Testimonial</title>
<ellipse fill="none" stroke="black" cx="611.45" cy="-180.5" rx="51.9676" ry="18"/>
<text text-anchor="middle" x="611.45" y="-176.3" font-family="Times,serif" font-size="14.00">Testimonial</text>
</g>
</g>
</svg>
