<?xml version="1.0" encoding="UTF-8" standalone="no"?>
<!DOCTYPE svg PUBLIC "-//W3C//DTD SVG 1.1//EN"
 "http://www.w3.org/Graphics/SVG/1.1/DTD/svg11.dtd">
<!-- Generated by graphviz version 2.38.0 (20140413.2041)
 -->
<!-- Title: models_diagram Pages: 1 -->
<svg width="382pt" height="153pt"
 viewBox="0.00 0.00 382.37 153.00" xmlns="http://www.w3.org/2000/svg" xmlns:xlink="http://www.w3.org/1999/xlink">
<g id="graph0" class="graph" transform="scale(1 1) rotate(0) translate(4 149)">
<title>models_diagram</title>
<polygon fill="none" stroke="none" points="-4,4 -4,-149 378.374,-149 378.374,4 -4,4"/>
<!-- _diagram_info -->
<g id="node1" class="node"><title>_diagram_info</title>
<text text-anchor="start" x="8" y="-130.6" font-family="Times,serif" font-size="13.00">Models diagram</text>
<text text-anchor="start" x="8" y="-117.6" font-family="Times,serif" font-size="13.00">Date: Jun 03 2016 &#45; 13:06</text>
<text text-anchor="start" x="8" y="-104.6" font-family="Times,serif" font-size="13.00">Migration version: 20160603164347</text>
<text text-anchor="start" x="8" y="-91.6" font-family="Times,serif" font-size="13.00">Generated by RailRoady 1.4.2</text>
<text text-anchor="start" x="8" y="-78.6" font-family="Times,serif" font-size="13.00">http://railroady.prestonlee.com</text>
</g>
<!-- Athlete -->
<g id="node2" class="node"><title>Athlete</title>
<ellipse fill="none" stroke="black" cx="196.688" cy="-18" rx="36.2732" ry="18"/>
<text text-anchor="middle" x="196.688" y="-13.8" font-family="Times,serif" font-size="14.00">Athlete</text>
</g>
<!-- FeaturedPhoto -->
<g id="node3" class="node"><title>FeaturedPhoto</title>
<ellipse fill="none" stroke="black" cx="312.688" cy="-18" rx="61.8736" ry="18"/>
<text text-anchor="middle" x="312.688" y="-13.8" font-family="Times,serif" font-size="14.00">FeaturedPhoto</text>
</g>
<!-- Sport -->
<g id="node4" class="node"><title>Sport</title>
<ellipse fill="none" stroke="black" cx="254.688" cy="-108.5" rx="29.0429" ry="18"/>
<text text-anchor="middle" x="254.688" y="-104.3" font-family="Times,serif" font-size="14.00">Sport</text>
</g>
<!-- Sport&#45;&gt;Athlete -->
<g id="edge1" class="edge"><title>Sport&#45;&gt;Athlete</title>
<path fill="none" stroke="#b58185" d="M239.648,-84.5511C231.53,-72.1644 221.495,-56.8531 213.166,-44.1442"/>
<ellipse fill="none" stroke="#b58185" cx="241.857" cy="-87.9222" rx="4.00002" ry="4.00002"/>
<polygon fill="#b58185" stroke="#b58185" points="212.936,-43.7929 211.219,-32.9624 210.196,-39.611 207.455,-35.4291 207.455,-35.4291 207.455,-35.4291 210.196,-39.611 203.691,-37.8957 212.936,-43.7929 212.936,-43.7929"/>
</g>
<!-- Sport&#45;&gt;FeaturedPhoto -->
<g id="edge2" class="edge"><title>Sport&#45;&gt;FeaturedPhoto</title>
<path fill="none" stroke="#d2e81a" d="M269.97,-84.1813C278.001,-71.9268 287.856,-56.8893 296.076,-44.347"/>
<ellipse fill="none" stroke="#d2e81a" cx="267.518" cy="-87.9222" rx="4.00002" ry="4.00002"/>
<polygon fill="#d2e81a" stroke="#d2e81a" points="296.242,-44.0946 305.487,-38.1973 298.982,-39.9126 301.723,-35.7307 301.723,-35.7307 301.723,-35.7307 298.982,-39.9126 297.959,-33.264 296.242,-44.0946 296.242,-44.0946"/>
</g>
</g>
</svg>
