<?xml version="1.0" encoding="UTF-8" standalone="no"?>
<!DOCTYPE svg PUBLIC "-//W3C//DTD SVG 1.1//EN"
 "http://www.w3.org/Graphics/SVG/1.1/DTD/svg11.dtd">
<!-- Generated by graphviz version 2.38.0 (20140413.2041)
 -->
<!-- Title: models_diagram Pages: 1 -->
<svg width="1350pt" height="624pt"
 viewBox="0.00 0.00 1349.55 624.00" xmlns="http://www.w3.org/2000/svg" xmlns:xlink="http://www.w3.org/1999/xlink">
<g id="graph0" class="graph" transform="scale(1 1) rotate(0) translate(4 620)">
<title>models_diagram</title>
<polygon fill="none" stroke="none" points="-4,4 -4,-620 1345.55,-620 1345.55,4 -4,4"/>
<!-- _diagram_info -->
<g id="node1" class="node"><title>_diagram_info</title>
<text text-anchor="start" x="8" y="-531.6" font-family="Times,serif" font-size="13.00">Models diagram</text>
<text text-anchor="start" x="8" y="-518.6" font-family="Times,serif" font-size="13.00">Date: Sep 10 2016 &#45; 14:17</text>
<text text-anchor="start" x="8" y="-505.6" font-family="Times,serif" font-size="13.00">Migration version: 20160910181234</text>
<text text-anchor="start" x="8" y="-492.6" font-family="Times,serif" font-size="13.00">Generated by RailRoady 1.4.2</text>
<text text-anchor="start" x="8" y="-479.6" font-family="Times,serif" font-size="13.00">http://railroady.prestonlee.com</text>
</g>
<!-- AdminUser -->
<g id="node2" class="node"><title>AdminUser</title>
<path fill="none" stroke="black" d="M237.053,-403.5C237.053,-403.5 532.323,-403.5 532.323,-403.5 538.323,-403.5 544.323,-409.5 544.323,-415.5 544.323,-415.5 544.323,-603.5 544.323,-603.5 544.323,-609.5 538.323,-615.5 532.323,-615.5 532.323,-615.5 237.053,-615.5 237.053,-615.5 231.053,-615.5 225.053,-609.5 225.053,-603.5 225.053,-603.5 225.053,-415.5 225.053,-415.5 225.053,-409.5 231.053,-403.5 237.053,-403.5"/>
<text text-anchor="middle" x="384.688" y="-600.3" font-family="Times,serif" font-size="14.00">AdminUser</text>
<polyline fill="none" stroke="black" points="225.053,-593.5 544.323,-593.5 "/>
<text text-anchor="start" x="233.053" y="-578.3" font-family="Times,serif" font-size="14.00">updated_at :timestamp without time zone</text>
<text text-anchor="start" x="233.053" y="-564.3" font-family="Times,serif" font-size="14.00">email :character varying</text>
<text text-anchor="start" x="233.053" y="-550.3" font-family="Times,serif" font-size="14.00">encrypted_password :character varying</text>
<text text-anchor="start" x="233.053" y="-536.3" font-family="Times,serif" font-size="14.00">reset_password_token :character varying</text>
<text text-anchor="start" x="233.053" y="-522.3" font-family="Times,serif" font-size="14.00">reset_password_sent_at :timestamp without time zone</text>
<text text-anchor="start" x="233.053" y="-508.3" font-family="Times,serif" font-size="14.00">remember_created_at :timestamp without time zone</text>
<text text-anchor="start" x="233.053" y="-494.3" font-family="Times,serif" font-size="14.00">sign_in_count :integer</text>
<text text-anchor="start" x="233.053" y="-480.3" font-family="Times,serif" font-size="14.00">current_sign_in_at :timestamp without time zone</text>
<text text-anchor="start" x="233.053" y="-466.3" font-family="Times,serif" font-size="14.00">last_sign_in_at :timestamp without time zone</text>
<text text-anchor="start" x="233.053" y="-452.3" font-family="Times,serif" font-size="14.00">current_sign_in_ip :inet</text>
<text text-anchor="start" x="233.053" y="-438.3" font-family="Times,serif" font-size="14.00">last_sign_in_ip :inet</text>
<text text-anchor="start" x="233.053" y="-424.3" font-family="Times,serif" font-size="14.00">created_at :timestamp without time zone</text>
<text text-anchor="start" x="233.053" y="-410.3" font-family="Times,serif" font-size="14.00">id :integer</text>
</g>
<!-- Athlete -->
<g id="node3" class="node"><title>Athlete</title>
<path fill="none" stroke="black" d="M269.381,-0.5C269.381,-0.5 531.995,-0.5 531.995,-0.5 537.995,-0.5 543.995,-6.5 543.995,-12.5 543.995,-12.5 543.995,-354.5 543.995,-354.5 543.995,-360.5 537.995,-366.5 531.995,-366.5 531.995,-366.5 269.381,-366.5 269.381,-366.5 263.381,-366.5 257.381,-360.5 257.381,-354.5 257.381,-354.5 257.381,-12.5 257.381,-12.5 257.381,-6.5 263.381,-0.5 269.381,-0.5"/>
<text text-anchor="middle" x="400.688" y="-351.3" font-family="Times,serif" font-size="14.00">Athlete</text>
<polyline fill="none" stroke="black" points="257.381,-344.5 543.995,-344.5 "/>
<text text-anchor="start" x="265.381" y="-329.3" font-family="Times,serif" font-size="14.00">wnba_status :character varying</text>
<text text-anchor="start" x="265.381" y="-315.3" font-family="Times,serif" font-size="14.00">created_at :timestamp without time zone</text>
<text text-anchor="start" x="265.381" y="-301.3" font-family="Times,serif" font-size="14.00">updated_at :timestamp without time zone</text>
<text text-anchor="start" x="265.381" y="-287.3" font-family="Times,serif" font-size="14.00">first_name :character varying</text>
<text text-anchor="start" x="265.381" y="-273.3" font-family="Times,serif" font-size="14.00">last_name :character varying</text>
<text text-anchor="start" x="265.381" y="-259.3" font-family="Times,serif" font-size="14.00">position :character varying</text>
<text text-anchor="start" x="265.381" y="-245.3" font-family="Times,serif" font-size="14.00">american_team_url :character varying</text>
<text text-anchor="start" x="265.381" y="-231.3" font-family="Times,serif" font-size="14.00">overseas_team :character varying</text>
<text text-anchor="start" x="265.381" y="-217.3" font-family="Times,serif" font-size="14.00">college :character varying</text>
<text text-anchor="start" x="265.381" y="-203.3" font-family="Times,serif" font-size="14.00">birthdate :date</text>
<text text-anchor="start" x="265.381" y="-189.3" font-family="Times,serif" font-size="14.00">height :character varying</text>
<text text-anchor="start" x="265.381" y="-175.3" font-family="Times,serif" font-size="14.00">weight :character varying</text>
<text text-anchor="start" x="265.381" y="-161.3" font-family="Times,serif" font-size="14.00">website_url :character varying</text>
<text text-anchor="start" x="265.381" y="-147.3" font-family="Times,serif" font-size="14.00">video_embed_code :text</text>
<text text-anchor="start" x="265.381" y="-133.3" font-family="Times,serif" font-size="14.00">sport_id :integer</text>
<text text-anchor="start" x="265.381" y="-119.3" font-family="Times,serif" font-size="14.00">american_team_name :character varying</text>
<text text-anchor="start" x="265.381" y="-105.3" font-family="Times,serif" font-size="14.00">photo_file_name :character varying</text>
<text text-anchor="start" x="265.381" y="-91.3" font-family="Times,serif" font-size="14.00">photo_content_type :character varying</text>
<text text-anchor="start" x="265.381" y="-77.3" font-family="Times,serif" font-size="14.00">photo_file_size :integer</text>
<text text-anchor="start" x="265.381" y="-63.3" font-family="Times,serif" font-size="14.00">photo_updated_at :timestamp without time zone</text>
<text text-anchor="start" x="265.381" y="-49.3" font-family="Times,serif" font-size="14.00">description :text</text>
<text text-anchor="start" x="265.381" y="-35.3" font-family="Times,serif" font-size="14.00">is_available :boolean</text>
<text text-anchor="start" x="265.381" y="-21.3" font-family="Times,serif" font-size="14.00">country_code :character varying</text>
<text text-anchor="start" x="265.381" y="-7.3" font-family="Times,serif" font-size="14.00">id :integer</text>
</g>
<!-- FeaturedPhoto -->
<g id="node4" class="node"><title>FeaturedPhoto</title>
<path fill="none" stroke="black" d="M573.825,-119.5C573.825,-119.5 797.55,-119.5 797.55,-119.5 803.55,-119.5 809.55,-125.5 809.55,-131.5 809.55,-131.5 809.55,-235.5 809.55,-235.5 809.55,-241.5 803.55,-247.5 797.55,-247.5 797.55,-247.5 573.825,-247.5 573.825,-247.5 567.825,-247.5 561.825,-241.5 561.825,-235.5 561.825,-235.5 561.825,-131.5 561.825,-131.5 561.825,-125.5 567.825,-119.5 573.825,-119.5"/>
<text text-anchor="middle" x="685.688" y="-232.3" font-family="Times,serif" font-size="14.00">FeaturedPhoto</text>
<polyline fill="none" stroke="black" points="561.825,-225.5 809.55,-225.5 "/>
<text text-anchor="start" x="569.825" y="-210.3" font-family="Times,serif" font-size="14.00">image_url :character varying</text>
<text text-anchor="start" x="569.825" y="-196.3" font-family="Times,serif" font-size="14.00">athlete_id :integer</text>
<text text-anchor="start" x="569.825" y="-182.3" font-family="Times,serif" font-size="14.00">sport_id :integer</text>
<text text-anchor="start" x="569.825" y="-168.3" font-family="Times,serif" font-size="14.00">id :integer</text>
<text text-anchor="start" x="569.825" y="-154.3" font-family="Times,serif" font-size="14.00">display_status :boolean</text>
<text text-anchor="start" x="569.825" y="-140.3" font-family="Times,serif" font-size="14.00">created_at :timestamp without time zone</text>
<text text-anchor="start" x="569.825" y="-126.3" font-family="Times,serif" font-size="14.00">updated_at :timestamp without time zone</text>
</g>
<!-- NewsArticle -->
<g id="node5" class="node"><title>NewsArticle</title>
<path fill="none" stroke="black" d="M839.825,-119.5C839.825,-119.5 1063.55,-119.5 1063.55,-119.5 1069.55,-119.5 1075.55,-125.5 1075.55,-131.5 1075.55,-131.5 1075.55,-235.5 1075.55,-235.5 1075.55,-241.5 1069.55,-247.5 1063.55,-247.5 1063.55,-247.5 839.825,-247.5 839.825,-247.5 833.825,-247.5 827.825,-241.5 827.825,-235.5 827.825,-235.5 827.825,-131.5 827.825,-131.5 827.825,-125.5 833.825,-119.5 839.825,-119.5"/>
<text text-anchor="middle" x="951.688" y="-232.3" font-family="Times,serif" font-size="14.00">NewsArticle</text>
<polyline fill="none" stroke="black" points="827.825,-225.5 1075.55,-225.5 "/>
<text text-anchor="start" x="835.825" y="-210.3" font-family="Times,serif" font-size="14.00">date_posted :date</text>
<text text-anchor="start" x="835.825" y="-196.3" font-family="Times,serif" font-size="14.00">sport_id :integer</text>
<text text-anchor="start" x="835.825" y="-182.3" font-family="Times,serif" font-size="14.00">headline :character varying</text>
<text text-anchor="start" x="835.825" y="-168.3" font-family="Times,serif" font-size="14.00">id :integer</text>
<text text-anchor="start" x="835.825" y="-154.3" font-family="Times,serif" font-size="14.00">url :character varying</text>
<text text-anchor="start" x="835.825" y="-140.3" font-family="Times,serif" font-size="14.00">created_at :timestamp without time zone</text>
<text text-anchor="start" x="835.825" y="-126.3" font-family="Times,serif" font-size="14.00">updated_at :timestamp without time zone</text>
</g>
<!-- Sport -->
<g id="node6" class="node"><title>Sport</title>
<path fill="none" stroke="black" d="M573.825,-459.5C573.825,-459.5 797.55,-459.5 797.55,-459.5 803.55,-459.5 809.55,-465.5 809.55,-471.5 809.55,-471.5 809.55,-547.5 809.55,-547.5 809.55,-553.5 803.55,-559.5 797.55,-559.5 797.55,-559.5 573.825,-559.5 573.825,-559.5 567.825,-559.5 561.825,-553.5 561.825,-547.5 561.825,-547.5 561.825,-471.5 561.825,-471.5 561.825,-465.5 567.825,-459.5 573.825,-459.5"/>
<text text-anchor="middle" x="685.688" y="-544.3" font-family="Times,serif" font-size="14.00">Sport</text>
<polyline fill="none" stroke="black" points="561.825,-537.5 809.55,-537.5 "/>
<text text-anchor="start" x="569.825" y="-522.3" font-family="Times,serif" font-size="14.00">id :integer</text>
<text text-anchor="start" x="569.825" y="-508.3" font-family="Times,serif" font-size="14.00">created_at :timestamp without time zone</text>
<text text-anchor="start" x="569.825" y="-494.3" font-family="Times,serif" font-size="14.00">updated_at :timestamp without time zone</text>
<text text-anchor="start" x="569.825" y="-480.3" font-family="Times,serif" font-size="14.00">type_id :integer</text>
<text text-anchor="start" x="569.825" y="-466.3" font-family="Times,serif" font-size="14.00">name :character varying</text>
</g>
<!-- Sport&#45;&gt;Athlete -->
<g id="edge1" class="edge"><title>Sport&#45;&gt;Athlete</title>
<path fill="none" stroke="#8c41b5" d="M632.345,-453.295C607.727,-427.426 578.337,-395.983 552.688,-367 552.06,-366.291 551.431,-365.58 550.802,-364.866"/>
<ellipse fill="none" stroke="#8c41b5" cx="635.41" cy="-456.51" rx="4.00002" ry="4.00002"/>
<polygon fill="#8c41b5" stroke="#8c41b5" points="550.628,-364.669 547.405,-354.188 547.327,-360.914 544.025,-357.159 544.025,-357.159 544.025,-357.159 547.327,-360.914 540.646,-360.13 550.628,-364.669 550.628,-364.669"/>
</g>
<!-- Sport&#45;&gt;FeaturedPhoto -->
<g id="edge2" class="edge"><title>Sport&#45;&gt;FeaturedPhoto</title>
<path fill="none" stroke="#f7a575" d="M685.688,-451.091C685.688,-397.211 685.688,-316.367 685.688,-257.838"/>
<ellipse fill="none" stroke="#f7a575" cx="685.688" cy="-455.291" rx="4" ry="4"/>
<polygon fill="#f7a575" stroke="#f7a575" points="685.688,-257.547 690.188,-247.547 685.688,-252.547 685.688,-247.547 685.688,-247.547 685.688,-247.547 685.688,-252.547 681.188,-247.547 685.688,-257.547 685.688,-257.547"/>
</g>
<!-- Sport&#45;&gt;NewsArticle -->
<g id="edge3" class="edge"><title>Sport&#45;&gt;NewsArticle</title>
<path fill="none" stroke="#0deee3" d="M740.499,-453.415C765.169,-427.816 794.188,-396.557 818.688,-367 847.98,-331.661 878.297,-290.475 902.575,-256.181"/>
<ellipse fill="none" stroke="#0deee3" cx="737.434" cy="-456.584" rx="4.00002" ry="4.00002"/>
<polygon fill="#0deee3" stroke="#0deee3" points="902.85,-255.79 912.291,-250.211 905.732,-251.704 908.613,-247.618 908.613,-247.618 908.613,-247.618 905.732,-251.704 904.935,-245.025 902.85,-255.79 902.85,-255.79"/>
</g>
<!-- TeamMember -->
<g id="node7" class="node"><title>TeamMember</title>
<path fill="none" stroke="black" d="M839.825,-417.5C839.825,-417.5 1063.55,-417.5 1063.55,-417.5 1069.55,-417.5 1075.55,-423.5 1075.55,-429.5 1075.55,-429.5 1075.55,-589.5 1075.55,-589.5 1075.55,-595.5 1069.55,-601.5 1063.55,-601.5 1063.55,-601.5 839.825,-601.5 839.825,-601.5 833.825,-601.5 827.825,-595.5 827.825,-589.5 827.825,-589.5 827.825,-429.5 827.825,-429.5 827.825,-423.5 833.825,-417.5 839.825,-417.5"/>
<text text-anchor="middle" x="951.688" y="-586.3" font-family="Times,serif" font-size="14.00">TeamMember</text>
<polyline fill="none" stroke="black" points="827.825,-579.5 1075.55,-579.5 "/>
<text text-anchor="start" x="835.825" y="-564.3" font-family="Times,serif" font-size="14.00">updated_at :timestamp without time zone</text>
<text text-anchor="start" x="835.825" y="-550.3" font-family="Times,serif" font-size="14.00">first_name :character varying</text>
<text text-anchor="start" x="835.825" y="-536.3" font-family="Times,serif" font-size="14.00">last_name :character varying</text>
<text text-anchor="start" x="835.825" y="-522.3" font-family="Times,serif" font-size="14.00">position :character varying</text>
<text text-anchor="start" x="835.825" y="-508.3" font-family="Times,serif" font-size="14.00">photo_url :character varying</text>
<text text-anchor="start" x="835.825" y="-494.3" font-family="Times,serif" font-size="14.00">email :character varying</text>
<text text-anchor="start" x="835.825" y="-480.3" font-family="Times,serif" font-size="14.00">twitter_url :character varying</text>
<text text-anchor="start" x="835.825" y="-466.3" font-family="Times,serif" font-size="14.00">facebook_url :character varying</text>
<text text-anchor="start" x="835.825" y="-452.3" font-family="Times,serif" font-size="14.00">description :text</text>
<text text-anchor="start" x="835.825" y="-438.3" font-family="Times,serif" font-size="14.00">created_at :timestamp without time zone</text>
<text text-anchor="start" x="835.825" y="-424.3" font-family="Times,serif" font-size="14.00">id :integer</text>
</g>
<!-- Testimonial -->
<g id="node8" class="node"><title>Testimonial</title>
<path fill="none" stroke="black" d="M1105.83,-445.5C1105.83,-445.5 1329.55,-445.5 1329.55,-445.5 1335.55,-445.5 1341.55,-451.5 1341.55,-457.5 1341.55,-457.5 1341.55,-561.5 1341.55,-561.5 1341.55,-567.5 1335.55,-573.5 1329.55,-573.5 1329.55,-573.5 1105.83,-573.5 1105.83,-573.5 1099.83,-573.5 1093.83,-567.5 1093.83,-561.5 1093.83,-561.5 1093.83,-457.5 1093.83,-457.5 1093.83,-451.5 1099.83,-445.5 1105.83,-445.5"/>
<text text-anchor="middle" x="1217.69" y="-558.3" font-family="Times,serif" font-size="14.00">Testimonial</text>
<polyline fill="none" stroke="black" points="1093.83,-551.5 1341.55,-551.5 "/>
<text text-anchor="start" x="1101.83" y="-536.3" font-family="Times,serif" font-size="14.00">quote :text</text>
<text text-anchor="start" x="1101.83" y="-522.3" font-family="Times,serif" font-size="14.00">name :character varying</text>
<text text-anchor="start" x="1101.83" y="-508.3" font-family="Times,serif" font-size="14.00">title :character varying</text>
<text text-anchor="start" x="1101.83" y="-494.3" font-family="Times,serif" font-size="14.00">id :integer</text>
<text text-anchor="start" x="1101.83" y="-480.3" font-family="Times,serif" font-size="14.00">created_at :timestamp without time zone</text>
<text text-anchor="start" x="1101.83" y="-466.3" font-family="Times,serif" font-size="14.00">updated_at :timestamp without time zone</text>
<text text-anchor="start" x="1101.83" y="-452.3" font-family="Times,serif" font-size="14.00">photo_url :character varying</text>
</g>
</g>
</svg>
